<svg viewBox="0 0 256 256" xmlns="http://www.w3.org/2000/svg"><path d="m71.68213 97.21875-36.9375 30.78125 36.9375 30.78125a12 12 0 0 1 -15.36426 18.4375l-48-40a12.00005 12.00005 0 0 1 0-18.4375l48-40a12 12 0 1 1 15.36426 18.4375zm176 21.5625-48-40a12 12 0 1 0 -15.36426 18.4375l36.9375 30.78125-36.9375 30.78125a12 12 0 0 0 15.36426 18.4375l48-40a12.00005 12.00005 0 0 0 0-18.4375zm-83.58106-90.05859a12.0021 12.0021 0 0 0 -15.37841 7.17675l-64 176a11.99972 11.99972 0 1 0 22.55468 8.20118l64-176a11.99923 11.99923 0 0 0 -7.17627-15.37793z"/></svg>