<svg height="32" viewBox="0 0 32 32" width="32" xmlns="http://www.w3.org/2000/svg"><path d="m26 22a3.9553 3.9553 0 0 0 -2.0193.5667l-3.8137-3.8138a4.9654 4.9654 0 0 0 0-5.5058l2.547-2.5471a3.0284 3.0284 0 1 0 -1.414-1.414l-2.547 2.547a4.9654 4.9654 0 0 0 -5.5058 0l-3.814-3.8139a3.9553 3.9553 0 0 0 .5668-2.0191 4 4 0 1 0 -4 4 3.9553 3.9553 0 0 0 2.0191-.5668l3.8139 3.8139a4.9654 4.9654 0 0 0 0 5.5058l-3.8138 3.8139a3.9556 3.9556 0 0 0 -2.0192-.5668 4 4 0 1 0 4 4 3.9553 3.9553 0 0 0 -.5667-2.0192l3.8138-3.8138a4.9686 4.9686 0 0 0 1.7529.7319v3.2848a3 3 0 1 0 2 0v-3.2848a4.9686 4.9686 0 0 0 1.7529-.7319l3.8138 3.8137a3.9553 3.9553 0 0 0 -.5667 2.0193 4 4 0 1 0 4-4zm-10-9a3 3 0 1 1 -3 3 3.0033 3.0033 0 0 1 3-3zm-12-7a2 2 0 1 1 2 2 2.002 2.002 0 0 1 -2-2zm2 22a2 2 0 1 1 2-2 2.0023 2.0023 0 0 1 -2 2zm20 0a2 2 0 1 1 2-2 2.0027 2.0027 0 0 1 -2 2z"/><path d="m0 0h32v32h-32z" fill="none"/></svg>