<svg viewBox="0 0 24 24" xmlns="http://www.w3.org/2000/svg"><path d="m10.957031 3.0019531c-.3411 0-.663744.1278882-.902343.3300781-.2386015.2021703-.4023374.4613513-.5292974.7382813-.25394.55385-.3772294 1.2053481-.5058594 1.8300781-.1286297.62473-.2617797 1.2222288-.4375 1.6054688-.0878999.19162-.1816648.3233912-.265625.3945312-.0839999.0712-.1489797.0996094-.28125.0996094-.1290198 0-.1925237-.0276425-.2773437-.1015625-.0849-.0739-.1826244-.2117463-.2714844-.4101563-.17775-.39683-.3103631-1.0116543-.4394531-1.6464843-.1291-.63483-.2517225-1.2872707-.5078125-1.8378907-.12804-.2753099-.2954687-.5345856-.5429687-.7285156-.24748-.19394-.5804451-.2995541-.921875-.2714844-.65328.0537003-1.1205413.54499-1.4257813 1.09375-.30526.5487501-.4980319 1.2062494-.6386719 1.8496094-.004.0188-.0057656.0359875-.0097656.0546875h1.0019531c.12581-.52971.2900475-1.0467662.4921875-1.4101562.22349-.40177.43795-.5719038.65625-.5898438.13042-.0107.1816294.0101594.2558594.0683594.0742.0582.1674164.1773113.2539062.3632813.1729901.3719299.3046538.9792512.4335938 1.6132812.12893.63403.2549625 1.294865.5078125 1.859375.12642.28225.2873506.5465963.5253906.7539062.23803.2073202.5619.3398438.90625.3398438.3411 0 .6637438-.125945.9023438-.328125s.4023369-.4633144.5292969-.7402344c.25394-.55385.3772193-1.2014319.5058593-1.8261718.1286299-.62473.2617899-1.226135.4374999-1.609375.0879-.1916301.183608-.3214382.267578-.3925782.084-.0712.14898-.1015625.28125-.1015625s.195254.0294094.277344.0996094c.082.0702.175749.2012581.261719.3925781.17193.38263.298448.983755.423828 1.609375.12537.62561.249812 1.2740179.507812 1.8300782.12899.2780297.295883.5408075.539063.7421874.24319.2013801.567079.3242188.912109.3242188s.671783-.1238319.914063-.3261719c.24228-.20235.406593-.4638375.533203-.7421875.25319-.55671.370417-1.2053481.492187-1.8300781.12178-.62475.246912-1.2250787.419922-1.6054687.0865-.1902001.182598-.3196451.267578-.390625.085-.0710002.154815-.1035157.296875-.1035157.28415 0 .482182.1545425.707032.5390625.21185.36226.37834.9037675.49414 1.4609375h.996094c-.006-.0334-.009425-.0641562-.015625-.0976562-.12789-.65615-.313589-1.3243732-.636719-1.8769531-.32313-.5525801-.854872-1.0253907-1.544922-1.0253907-.34503 0-.671782.125765-.914062.328125-.24229.20235-.406593.4638375-.533203.7421875-.25319.55671-.370408 1.2073013-.492188 1.8320313-.12177.62473-.246902 1.2231156-.419922 1.6035156-.0865.1902-.182598.319645-.267578.390625-.0849.071-.154805.1015625-.296875.1015625s-.213911-.0315356-.300781-.1035156c-.0869-.072-.183084-.2020482-.271484-.3925782-.17679-.3810299-.306611-.9777124-.431641-1.6015624-.12502-.6238501-.245011-1.2736651-.494141-1.828125-.12457-.2772301-.283804-.5370744-.521484-.7402344-.23768-.20317-.561244-.3320313-.902344-.3320313zm-2.957031 7.9980469c-1.16667 0-2.4428362.537834-3.4726562 1.052734-.7531001.37656-1.2502738.681832-1.5273438.857422v1.191406l.2773438-.185546s.7251224-.48365 1.6953124-.96875c.9701801-.48509 2.1940138-.947266 3.0273438-.947266.33333 0 .7418885.182391 1.1992188.525391.4573298.343.9472652.828125 1.4472652 1.328125s1.010065 1.014875 1.552735 1.421875 1.134111.724609 1.800781.724609c1.16667 0 2.442836-.537824 3.472656-1.052734.75263-.37632 1.250024-.681692 1.527344-.857422v-1.191406l-.277344.185546s-.725122.48366-1.695312.96875c-.97018.4851-2.194014.947266-3.027344.947266-.33333 0-.741889-.180436-1.199219-.523438-.45733-.342997-.947265-.830078-1.447265-1.330078s-1.010065-1.01292-1.5527348-1.419922c-.5426697-.407-1.1341112-.726562-1.8007812-.726562zm-5 7v1h16v-1z" fill="#4d4d4d"/></svg>