<?xml version="1.0" encoding="UTF-8"?>
<svg width="1200pt" height="1200pt" version="1.1" viewBox="0 0 1200 1200" xmlns="http://www.w3.org/2000/svg">
 <path fill="white" d="m617.05 447.49c-5.3008-5.2969-12.766-7.8281-20.195-6.8477-7.4297 0.98047-13.98 5.3633-17.727 11.855-3.7422 6.4883-4.2578 14.355-1.3867 21.277 2.8672 6.9219 8.7969 12.117 16.035 14.055 7.2383 1.9414 14.969 0.40234 20.914-4.1602 5.9453-4.5664 9.4297-11.633 9.4297-19.129 0.011718-6.3984-2.5352-12.535-7.0703-17.051zm-239.6 118.62c-7.5391 1.9961-13.648 7.5156-16.398 14.816-2.75 7.2969-1.8008 15.477 2.543 21.953 4.3477 6.4766 11.555 10.453 19.352 10.676h1.4297-0.003906c1.8906-0.058594 3.7656-0.33594 5.5938-0.82812 8.3281-2.2344 14.828-8.7422 17.059-17.074 2.2266-8.3281-0.16016-17.215-6.2578-23.309-6.1016-6.0938-14.988-8.4727-23.316-6.2344zm61.547 10.199 116.5-67.262-155.43 269.21v-134.4c13.859-4.1992 25.594-13.516 32.824-26.059 7.2344-12.543 9.4141-27.371 6.1055-41.465zm-78.613 256.61c-1.7773 6.6523-0.625 13.75 3.1641 19.504 3.7852 5.7539 9.8516 9.6133 16.668 10.613 6.8125 0.99609 13.73-0.96484 19.008-5.3906 5.2812-4.4258 8.418-10.895 8.6211-17.781v-0.68359-0.75781 0.003907c-0.20703-6.1484-2.7461-11.988-7.1016-16.332-4.3555-4.3438-10.199-6.8672-16.348-7.0586h-1.4531 0.003906c-5.1875 0.14063-10.191 1.9609-14.258 5.1836-4.0703 3.2227-6.9805 7.6797-8.3047 12.699zm222.57 148.19c5.6953 5.6953 13.859 8.1758 21.762 6.6055 7.9023-1.5742 14.496-6.9844 17.582-14.43 3.082-7.4414 2.2422-15.934-2.2344-22.633-4.4766-6.6992-12-10.719-20.059-10.715v-0.0625c-6.4023 0.011719-12.539 2.5586-17.062 7.0898s-7.0625 10.672-7.0586 17.074c0 6.4023 2.543 12.539 7.0703 17.07zm-21.938-58.414v-0.003906c10.547-9.9375 24.5-15.453 38.988-15.418 14.5-0.023438 28.453 5.5156 38.988 15.48l60.973-35.195 55.402-31.957h-310.73l54.492 31.465c0.30078 0.15625 0.61328 0.3125 0.91016 0.49219l60.973 35.195zm261.6-60.203v-0.003907c7.5391-2 13.645-7.5195 16.395-14.816 2.75-7.3008 1.8047-15.477-2.543-21.953-4.3438-6.4805-11.551-10.457-19.348-10.68h-1.4531c-8.3594 0.26563-16 4.7969-20.242 12-2.0039 3.4648-3.1055 7.375-3.207 11.375v0.75781 0.68359c0.16016 7.4062 3.7266 14.32 9.668 18.742 5.9414 4.4219 13.59 5.8555 20.73 3.8789zm-60.648-39.672v-0.003906c2.5703-8.4375 7.0469-16.172 13.078-22.609l-80.398-139.33c-0.17969-0.26562-0.35938-0.55078-0.52734-0.82812l-81.023-140.17c-8.625 2.0234-17.598 2.0234-26.223 0l-161.86 280.33c6.0352 6.4375 10.508 14.172 13.082 22.609zm77.652-227.14c1.7266-6.4844 0.67187-13.398-2.9141-19.074-3.582-5.6758-9.3711-9.5977-15.973-10.82-6.5977-1.2266-13.41 0.35547-18.793 4.3672-5.3828 4.0078-8.8477 10.082-9.5625 16.758-0.71484 6.6719 1.3867 13.344 5.7969 18.402 4.4141 5.0586 10.734 8.0469 17.445 8.2461h1.4297-0.003906c5.1875-0.14062 10.191-1.957 14.258-5.1797 4.0703-3.2266 6.9805-7.6797 8.3047-12.699zm-39.684 48.156v134.4l-77.172-133.64c-0.14453-0.3125-0.3125-0.61328-0.48047-0.91016l-77.676-134.54 55.355 31.957c0.30078 0.17969 0.61328 0.33594 0.91016 0.49219l60.133 34.715c-3.3086 14.094-1.1289 28.922 6.1055 41.465 7.2305 12.543 18.965 21.859 32.824 26.059zm65.543-82.801c8.6523 15.035 9.9727 33.199 3.5781 49.324-6.3906 16.125-19.793 28.453-36.398 33.477v140.96c15.539 4.6484 28.348 15.715 35.199 30.414 6.8516 14.699 7.0938 31.625 0.66797 46.516-6.4297 14.887-18.918 26.32-34.316 31.41-15.398 5.0898-32.238 3.3555-46.273-4.7695-3.8281-2.207-7.3906-4.8477-10.609-7.8711l-61.008 35.219-60.996 35.219v0.003906c1.0039 4.2891 1.5117 8.6836 1.5117 13.09 0 20.309-10.836 39.074-28.422 49.23-17.586 10.152-39.258 10.152-56.844 0-17.59-10.156-28.422-28.922-28.422-49.23 0-4.4062 0.50391-8.8008 1.5117-13.09l-60.996-35.219-0.83984-0.51562-60.156-34.801v-0.003906c-3.2188 3.0273-6.7812 5.668-10.609 7.875-14.027 8.1836-30.895 9.9688-46.328 4.9023-15.434-5.0703-27.953-16.508-34.398-31.418-6.4414-14.914-6.1914-31.871 0.69531-46.582 6.8867-14.715 19.742-25.773 35.32-30.379v-140.99c-16.594-5.0234-29.984-17.352-36.355-33.473-6.3711-16.125-5.0273-34.273 3.6523-49.281 8.6758-15.012 23.738-25.23 40.887-27.754 17.152-2.5195 34.52 2.9336 47.148 14.809l122-70.441c-3.9883-16.906-0.023438-34.711 10.758-48.328 10.781-13.621 27.199-21.566 44.57-21.566 17.371 0 33.785 7.9453 44.566 21.566 10.785 13.617 14.746 31.422 10.758 48.328l60.996 35.219 0.83984 0.51562 60.156 34.801c3.2188-3.0234 6.7812-5.6641 10.609-7.8711 13.035-7.5547 28.543-9.6055 43.094-5.6992 14.555 3.9062 26.949 13.449 34.449 26.52zm-770.4 513.6h-0.003906c-9.293-0.019531-18.203-3.7188-24.777-10.289-6.5703-6.5742-10.273-15.48-10.297-24.777v-879.14c0.015625-9.3008 3.7188-18.219 10.293-24.797 6.5781-6.5742 15.492-10.277 24.797-10.293h1009.8c9.3047 0.015625 18.219 3.7188 24.797 10.293 6.5742 6.5781 10.277 15.496 10.293 24.797v879.14c-0.015625 9.3008-3.7188 18.219-10.293 24.797-6.5781 6.5742-15.492 10.277-24.797 10.293zm1012.2-702v666.93c-0.015625 0.625-0.26953 1.2188-0.71094 1.6562-0.44141 0.4375-1.0352 0.6875-1.6562 0.69922h-1009.8c-0.625-0.011719-1.2148-0.26172-1.6562-0.69922-0.44531-0.4375-0.69922-1.0312-0.71094-1.6562v-666.88zm-1014.5-32.664h1014.6v-179.54c-0.011719-0.625-0.26562-1.2188-0.71094-1.6562-0.44141-0.4375-1.0312-0.6875-1.6562-0.69922h-1009.8c-0.625 0.011719-1.2148 0.26172-1.6562 0.69922-0.44531 0.4375-0.69922 1.0312-0.71094 1.6562zm74.078-71.594h2.3984c5.7422-0.15625 10.98-3.3047 13.805-8.3047 2.8281-5 2.8281-11.113 0-16.113-2.8242-4.9961-8.0625-8.1484-13.805-8.3047h-2.3984c-4.418-0.12109-8.6953 1.5508-11.859 4.6328-3.168 3.082-4.9531 7.3125-4.9531 11.73s1.7852 8.6484 4.9531 11.727c3.1641 3.082 7.4414 4.7539 11.859 4.6328zm248.11 0h618.29c4.418 0.12109 8.6953-1.5508 11.859-4.6328 3.168-3.0781 4.9531-7.3086 4.9531-11.727s-1.7852-8.6484-4.9531-11.73c-3.1641-3.082-7.4414-4.7539-11.859-4.6328h-618.24c-5.7422 0.15625-10.98 3.3086-13.805 8.3047-2.8281 5-2.8281 11.113 0 16.113 2.8242 5 8.0625 8.1484 13.805 8.3047zm-172.51 0h2.3984c4.4141 0.12109 8.6914-1.5508 11.859-4.6328 3.1641-3.0781 4.9492-7.3086 4.9492-11.727s-1.7852-8.6484-4.9492-11.73c-3.168-3.082-7.4453-4.7539-11.859-4.6328h-2.4023c-4.4141-0.12109-8.6914 1.5508-11.859 4.6328-3.1641 3.082-4.9492 7.3125-4.9492 11.73s1.7852 8.6484 4.9492 11.727c3.168 3.082 7.4453 4.7539 11.859 4.6328zm75.602 0h2.3945c4.418 0.12109 8.6953-1.5508 11.859-4.6328 3.168-3.0781 4.9531-7.3086 4.9531-11.727s-1.7852-8.6484-4.9531-11.73c-3.1641-3.082-7.4414-4.7539-11.859-4.6328h-2.3984c-4.418-0.12109-8.6953 1.5508-11.859 4.6328-3.1641 3.082-4.9531 7.3125-4.9531 11.73s1.7891 8.6484 4.9531 11.727c3.1641 3.082 7.4414 4.7539 11.859 4.6328z" fill-rule="evenodd"/>
</svg>
