<svg enable-background="new 0 0 50 50" viewBox="0 0 50 50" xmlns="http://www.w3.org/2000/svg"><path d="m42.549 16.701c-1.593 0-2.888 1.296-2.888 2.888 0 .387.079.756.218 1.094l-8.549 7.957c-.458-.306-1.007-.486-1.598-.486-.3 0-.59.049-.868.137l-2.732-3.442c.204-.401.324-.841.324-1.304 0-1.592-1.295-2.888-2.888-2.888s-2.888 1.296-2.888 2.888c0 .146.027.286.048.428l-6.895 5.407c-.447-.283-.972-.454-1.54-.454-1.593 0-2.888 1.296-2.888 2.888 0 1.593 1.295 2.889 2.888 2.889s2.888-1.296 2.888-2.889c0-.294-.057-.573-.139-.84l6.667-5.228c.018.015.031.035.049.049.511.412 1.154.639 1.811.639.382 0 .753-.075 1.096-.216l2.627 3.31c-.28.45-.448.965-.448 1.514 0 1.593 1.295 2.889 2.888 2.889 1.592 0 2.888-1.296 2.888-2.889 0-.266-.048-.518-.115-.762l8.736-8.13c.395.203.835.328 1.309.328 1.592 0 2.888-1.296 2.888-2.888s-1.296-2.889-2.889-2.889zm-30.256 16c-.49 0-.888-.398-.888-.889 0-.489.398-.888.888-.888s.888.398.888.888c.001.491-.398.889-.888.889zm10.72-8.464c-.211-.171-.333-.423-.333-.693 0-.489.398-.888.888-.888s.888.398.888.888c0 .237-.092.46-.259.627v.001s0 0-.001 0c-.352.35-.971.235-1.183.065zm6.719 7.693c-.49 0-.888-.398-.888-.889 0-.278.126-.533.348-.704.004-.003.01-.004.014-.008 0 0 .001-.001.001-.001.109-.081.284-.175.526-.175.489 0 .888.398.888.888-.001.49-.399.889-.889.889zm12.817-11.453c-.49 0-.888-.398-.888-.888s.398-.888.888-.888c.489 0 .888.398.888.888s-.398.888-.888.888z"/></svg>