<?xml version="1.0" encoding="UTF-8"?>
<svg width="1200pt" height="1200pt" version="1.1" viewBox="0 0 1200 1200" xmlns="http://www.w3.org/2000/svg">
 <path fill="white" d="m619.62 436.8c-6.1016-6.1055-14.695-9.0234-23.25-7.8984-8.5547 1.125-16.102 6.1641-20.418 13.637-4.3164 7.4727-4.9102 16.527-1.6094 24.5 3.3008 7.9727 10.125 13.957 18.457 16.191 8.3359 2.2344 17.238 0.46484 24.082-4.7891 6.8477-5.2539 10.863-13.391 10.859-22.02 0.019531-7.3633-2.9062-14.426-8.1211-19.621zm-256.14 125.17c-8.6836 2.3047-15.719 8.668-18.871 17.082-3.1562 8.4102-2.043 17.832 2.9844 25.277 5.0273 7.4453 13.348 12 22.332 12.215h1.4141c2.207-0.0625 4.3945-0.37891 6.5273-0.94531 7.2266-1.8086 13.422-6.4414 17.199-12.859 3.7773-6.4219 4.8164-14.09 2.8828-21.281-1.9297-7.1953-6.6719-13.309-13.156-16.973-6.4805-3.6641-14.168-4.5703-21.324-2.5156zm63.324 11.855 131.9-76.152-172.8 299.39v-152.22c14.812-4.0469 27.426-13.777 35.094-27.078s9.7734-29.094 5.8516-43.938zm-82.945 272.57c-2.0547 7.1602-1.1484 14.844 2.5156 21.328s9.7812 11.223 16.973 13.156c7.1953 1.9297 14.859 0.89062 21.281-2.8828 6.418-3.7773 11.051-9.9766 12.859-17.199 0.56641-2.1289 0.88672-4.3164 0.94922-6.5156v-0.68359-0.74219-0.003907c-0.14062-5.9844-2.2227-11.762-5.9297-16.465-3.7109-4.6992-8.8516-8.0625-14.641-9.5859-2.125-0.57422-4.3125-0.89062-6.5156-0.94922h-1.4258c-5.9922 0.13672-11.773 2.2188-16.477 5.9336-4.6992 3.7109-8.0664 8.8516-9.5898 14.648zm236.52 159.21c6.5508 6.5547 15.941 9.4102 25.031 7.6016 9.0938-1.8047 16.68-8.0273 20.23-16.59 3.5469-8.5625 2.582-18.332-2.5664-26.035-5.1484-7.707-13.805-12.332-23.074-12.332-7.3438 0.027344-14.383 2.9609-19.57 8.1602s-8.1055 12.242-8.1133 19.586c-0.011718 7.3438 2.8867 14.395 8.0625 19.609zm-21.383-60.77c10.883-10.852 25.637-16.926 41.004-16.883 15.375-0.019531 30.129 6.0742 41.004 16.941l66.07-38.148 65.727-37.941h-345.6l64.883 37.465c0.28906 0.14453 0.5625 0.28906 0.83984 0.45703l66.07 38.148zm277.52-64.441c8.6836-2.3008 15.719-8.668 18.871-17.078 3.1562-8.4141 2.043-17.832-2.9844-25.281-5.0273-7.4453-13.348-11.996-22.332-12.215h-1.4375c-2.1992 0.0625-4.3789 0.37891-6.5039 0.94922-5.7891 1.5312-10.922 4.9023-14.625 9.6055-3.7031 4.7031-5.7773 10.484-5.9062 16.469v0.74219 0.68359 0.003906c0.0625 2.1992 0.37891 4.3867 0.94531 6.5156 1.875 7.1328 6.5234 13.219 12.91 16.902 6.3906 3.6836 13.988 4.6602 21.098 2.7031zm-63.238-42c2.6758-9.7383 7.8164-18.625 14.926-25.797l-86.207-149.25c-0.16797-0.25391-0.32422-0.50391-0.48047-0.76953l-86.617-150c-9.7969 2.6016-20.105 2.6016-29.902 0l-173.21 300.03c7.1094 7.1719 12.25 16.059 14.926 25.797zm82.859-242.4c1.9258-7.125 0.94141-14.723-2.7383-21.117-3.6797-6.3984-9.75-11.07-16.875-12.988s-14.723-0.92578-21.117 2.7617c-6.3906 3.6875-11.059 9.7617-12.969 16.891-1.9102 7.1289-0.90625 14.723 2.7852 21.109 3.6953 6.3906 9.7773 11.051 16.906 12.953 2.1328 0.56641 4.3203 0.88281 6.5273 0.94531h1.4023c5.9922-0.13281 11.773-2.2109 16.48-5.9219 4.7031-3.7109 8.0703-8.8516 9.5977-14.645zm-42 48.863v152.21l-85.922-148.8c-0.14453-0.28906-0.28906-0.5625-0.45703-0.83984l-86.398-149.64 65.699 37.934c0.27734 0.15625 0.55078 0.3125 0.83984 0.44531l65.281 37.691c-3.918 14.844-1.8164 30.637 5.8516 43.938 7.668 13.301 20.281 23.035 35.094 27.078zm65.461-85.066c7.7188 13.328 9.8125 29.18 5.8203 44.055-3.9961 14.879-13.75 27.551-27.109 35.215-4.3359 2.5078-8.9727 4.4492-13.801 5.7734v152.71c16.129 4.3633 29.598 15.461 36.961 30.457 7.3633 14.996 7.9102 32.438 1.4961 47.867-6.4102 15.426-19.16 27.348-34.98 32.707-15.824 5.3594-33.191 3.6445-47.66-4.7109-4.375-2.5234-8.4102-5.6016-12-9.1562l-132.2 76.32h0.003907c4.625 17.438 0.89453 36.031-10.105 50.332-11 14.297-28.016 22.676-46.055 22.676-18.039 0-35.055-8.3789-46.055-22.676-11-14.301-14.734-32.895-10.105-50.332l-66.098-38.16-0.76953-0.48047-65.316-37.703h0.003907c-3.5898 3.5586-7.6211 6.6367-12 9.1562-14.461 8.293-31.793 9.9648-47.574 4.5938-15.781-5.375-28.488-17.277-34.887-32.672-6.3945-15.395-5.8594-32.797 1.4648-47.77 7.3281-14.977 20.742-26.074 36.824-30.473v-152.69c-19.941-5.4688-35.504-21.074-40.922-41.027-4.4062-16.562-1.2734-34.227 8.5625-48.266 9.832-14.035 25.359-23.016 42.434-24.531 17.07-1.5195 33.941 4.5781 46.098 16.66l132.19-76.32c-4.6367-17.438-0.90625-36.039 10.094-50.344 10.996-14.305 28.016-22.688 46.059-22.688 18.047 0 35.066 8.3828 46.062 22.688 11 14.305 14.727 32.906 10.094 50.344l66.098 38.148c0.26562 0.15625 0.51562 0.32422 0.76953 0.49219l65.316 37.703h-0.003906c12.766-12.75 30.734-18.832 48.621-16.457 17.883 2.375 33.645 12.938 42.637 28.578zm260.4-202.96v709.2c-0.003906 1.2383-0.5 2.4219-1.3789 3.2891-0.87109 0.87891-2.0547 1.3789-3.2891 1.3906h-1070.7c-1.2344-0.011719-2.418-0.51172-3.2891-1.3906-0.875-0.86719-1.3711-2.043-1.3789-3.2773v-709.2zm-1080-30.359h1080v-192.52c-0.003906-1.2383-0.5-2.4219-1.3789-3.2891-0.87109-0.87891-2.0547-1.3789-3.2891-1.3906h-1070.7c-1.2344 0.011718-2.418 0.51172-3.2891 1.3906-0.87891 0.86719-1.375 2.0508-1.3789 3.2891zm80.762-80.23v-0.003907c-4.1016 0.11719-8.0781-1.4336-11.02-4.293-2.9414-2.8594-4.6016-6.7891-4.6016-10.891 0-4.1055 1.6602-8.0312 4.6016-10.895 2.9414-2.8594 6.918-4.4062 11.02-4.293h2.4609-0.003906c5.3242 0.15234 10.184 3.0781 12.801 7.7148 2.6211 4.6367 2.6211 10.309 0 14.945-2.6172 4.6367-7.4766 7.5625-12.801 7.7109zm263.05 0v-0.003907c-5.3242-0.14844-10.18-3.0742-12.801-7.7109-2.6211-4.6367-2.6211-10.309 0-14.945 2.6211-4.6367 7.4766-7.5625 12.801-7.7148h655.44c5.3203 0.15234 10.18 3.0781 12.797 7.7148 2.6211 4.6367 2.6211 10.309 0 14.945-2.6172 4.6367-7.4766 7.5625-12.797 7.7109zm-182.9 0-0.003906-0.003907c-5.3203-0.14844-10.18-3.0742-12.797-7.7109-2.6211-4.6367-2.6211-10.309 0-14.945 2.6172-4.6367 7.4766-7.5625 12.797-7.7148h2.4609c5.3242 0.15234 10.18 3.0781 12.801 7.7148 2.6211 4.6367 2.6211 10.309 0 14.945-2.6211 4.6367-7.4766 7.5625-12.801 7.7109zm80.148 0-0.003906-0.003907c-5.3242-0.14844-10.18-3.0742-12.801-7.7109-2.6172-4.6367-2.6172-10.309 0-14.945 2.6211-4.6367 7.4766-7.5625 12.801-7.7148h2.4023c5.3242 0.15234 10.18 3.0781 12.801 7.7148 2.6172 4.6367 2.6172 10.309 0 14.945-2.6211 4.6367-7.4766 7.5625-12.801 7.7109z" fill-rule="evenodd"/>
</svg>
