<svg fill="none" height="24" viewBox="0 0 24 24" width="24" xmlns="http://www.w3.org/2000/svg"><g fill="#292d32"><path d="m12 22.75c-5.93 0-10.75-4.82-10.75-10.75s4.82-10.75 10.75-10.75 10.75 4.82 10.75 10.75-4.82 10.75-10.75 10.75zm0-20c-5.1 0-9.25 4.15-9.25 9.25s4.15 9.25 9.25 9.25 9.25-4.15 9.25-9.25-4.15-9.25-9.25-9.25z"/><path d="m12 13.75c-.41 0-.75-.34-.75-.75v-5c0-.41.34-.75.75-.75s.75.34.75.75v5c0 .41-.34.75-.75.75z"/><path d="m12 16.9999c-.13 0-.26-.03-.38-.08s-.23-.12-.33-.21c-.09-.1-.16-.2-.21-.33-.05-.12-.08-.25-.08-.38s.03-.26.08-.38.12-.23.21-.33c.1-.09.21-.16.33-.21.24-.1.52-.1.76 0 .12.05.23.12.33.21.09.1.16.21.21.33s.08.25.08.38-.03.26-.08.38c-.05.13-.12.23-.21.33-.1.09-.21.16-.33.21s-.25.08-.38.08z"/></g></svg>