<?xml version="1.0" encoding="UTF-8"?>
<svg width="1200pt" height="1200pt" version="1.1" viewBox="0 0 1200 1200" xmlns="http://www.w3.org/2000/svg">
 <g>
  <path d="m660 156c0 69.586-56.414 126-126 126s-126-56.414-126-126 56.414-126 126-126 126 56.414 126 126"/>
  <path d="m667.2 849.6h-168c-43.199 0-80.398-31.199-86.398-74.398l-50.398-322.8c-3.6016-20.398-22.801-34.801-44.398-32.398-20.398 3.6016-34.801 22.801-32.398 44.398l50.395 322.8c12 80.398 81.602 139.2 163.2 139.2h168c21.602 0 38.398-16.801 38.398-38.398 0.003906-21.602-16.797-38.398-38.398-38.398z"/>
  <path d="m913.2 1101.6-66-367.2c-4.8008-27.602-28.801-46.801-56.398-46.801h-116.4l-19.203-267.6c-3.6016-58.801-52.801-104.4-111.6-104.4h-18c-33.602 0-64.801 14.398-87.602 39.602-21.602 25.199-31.199 58.801-26.398 92.398l48 306c4.8008 27.602 28.801 49.199 56.398 49.199h226.8l57.602 320.4c4.8008 27.602 28.801 46.801 56.398 46.801 3.6016 0 7.1992 0 10.801-1.1992 31.203-6 51.602-34.801 45.602-67.199z"/>
 </g>
</svg>
