<?xml version="1.0" encoding="UTF-8"?>
<svg width="100pt" height="100pt" version="1.1" viewBox="0 0 100 100" xmlns="http://www.w3.org/2000/svg">
 <path d="m92.223 50.707c-2.5234 0-4.5469 2.0195-4.5469 4.5469v13.938h-51.516l10.203-10.203c1.8164-1.8164 1.8164-4.6445 0-6.4648-1.8164-1.8164-4.6445-1.8164-6.4648 0l-18.082 18.082c-1.7188 1.7188-1.8164 4.6445 0 6.3633l18.082 18.383c0.91016 0.91016 2.0195 1.3125 3.2305 1.3125 1.1094 0 2.3242-0.40234 3.2305-1.3125 1.8164-1.7188 1.8164-4.6445 0.10156-6.4648l-10.703-10.605h56.465c2.5234 0 4.5469-2.0195 4.5469-4.5469v-18.48c0-2.5273-2.0234-4.5469-4.5469-4.5469z"/>
 <path d="m63.738 29.695-10.305 10.406c-1.7188 1.8164-1.7188 4.6445 0.10156 6.4648 0.91016 0.91016 2.0195 1.3125 3.2305 1.3125s2.3242-0.40234 3.2305-1.3125l18.082-18.383c1.7188-1.8164 1.7188-4.6445 0-6.3633l-18.18-18.184c-1.8164-1.8164-4.6445-1.8164-6.4648 0-1.8164 1.8164-1.8164 4.6445 0 6.4648l10.504 10.504h-56.363c-2.5234 0-4.5469 2.0195-4.5469 4.5469v18.383c0 2.5234 2.0195 4.5469 4.5469 4.5469 2.5234 0 4.5469-2.0195 4.5469-4.5469v-13.84z"/>
</svg>
