<?xml version="1.0" encoding="UTF-8" standalone="no"?>
<!-- Created with Inkscape (http://www.inkscape.org/) -->

<svg
   xmlns:dc="http://purl.org/dc/elements/1.1/"
   xmlns:cc="http://creativecommons.org/ns#"
   xmlns:rdf="http://www.w3.org/1999/02/22-rdf-syntax-ns#"
   xmlns:svg="http://www.w3.org/2000/svg"
   xmlns="http://www.w3.org/2000/svg"
   xmlns:sodipodi="http://sodipodi.sourceforge.net/DTD/sodipodi-0.dtd"
   xmlns:inkscape="http://www.inkscape.org/namespaces/inkscape"
   id="svg2"
   version="1.1"
   inkscape:version="0.48.4 r9939"
   width="3492.5"
   height="3492.5"
   xml:space="preserve"
   sodipodi:docname="language_icon.svg"><title
     id="title3067">Language Icon</title><metadata
     id="metadata8"><rdf:RDF><cc:Work
         rdf:about=""><dc:format>image/svg+xml</dc:format><dc:type
           rdf:resource="http://purl.org/dc/dcmitype/StillImage" /><dc:title>Language Icon</dc:title><dc:source>http://www.languageicon.org/</dc:source></cc:Work></rdf:RDF></metadata><defs
     id="defs6" /><sodipodi:namedview
     pagecolor="#ffffff"
     bordercolor="#666666"
     borderopacity="1"
     objecttolerance="10"
     gridtolerance="10"
     guidetolerance="10"
     inkscape:pageopacity="0"
     inkscape:pageshadow="2"
     inkscape:window-width="1278"
     inkscape:window-height="1006"
     id="namedview4"
     showgrid="false"
     inkscape:zoom="0.067573372"
     inkscape:cx="-505.6209"
     inkscape:cy="1746.25"
     inkscape:window-x="1280"
     inkscape:window-y="16"
     inkscape:window-maximized="0"
     inkscape:current-layer="g10" /><g
     id="g10"
     inkscape:groupmode="layer"
     inkscape:label="ink_ext_XXXXXX"
     transform="matrix(1.25,0,0,-1.25,0,3492.5)"><g
       id="g3002"
       transform="translate(191.39767,-0.002095)"><path
         transform="scale(0.190457,0.190457)"
         inkscape:connector-curvature="0"
         d="m 6324.64,12784.2 -4897.39,1728.5 0,-10659.07 4897.39,1584.46 0,7346.11"
         style="fill:#008080;fill-opacity:1;fill-rule:nonzero;stroke:none"
         id="path14" /><path
         transform="scale(0.190457,0.190457)"
         inkscape:connector-curvature="0"
         d="M 6207.08,12789.6 11292,14518 l 0,-10659.07 -5084.92,1584.46 0,7346.21"
         style="fill:#ffffff;fill-opacity:1;fill-rule:nonzero;stroke:none"
         id="path16" /><path
         transform="scale(0.190457,0.190457)"
         inkscape:connector-curvature="0"
         d="m 157.305,1987.7 6049.775,2016.46 0,8786.54 -6049.775,-2016.4 0,-8786.6"
         style="fill:#ffffff;fill-opacity:1;fill-rule:nonzero;stroke:none"
         id="path18" /><path
         transform="scale(0.190457,0.190457)"
         inkscape:connector-curvature="0"
         d="M 8963.77,1854.96 9821.18,444.352 10273.3,1754.73 8963.77,1854.96"
         style="fill:#008080;fill-opacity:1;fill-rule:nonzero;stroke:none"
         id="path20" /><path
         transform="scale(0.190457,0.190457)"
         inkscape:connector-curvature="0"
         d="m 2214.36,9762.06 c -32.13,31.56 41.85,-257.85 144.81,-361.97 182.56,-184.19 325.17,-207.92 401.09,-210.97 168.02,-6.72 375.36,41.85 498.49,93.46 119.13,50.83 327.89,157.41 406.91,312.88 16.75,33.24 62.48,89.05 33.76,226.93 -21.79,106.06 -89.31,143.18 -171.63,137.3 -82.34,-5.56 -331.58,-72.04 -452.13,-109.1 -120.61,-36.6 -369.01,-112.21 -477.27,-135.68 -108.01,-23.42 -346.12,10.87 -384.03,47.15"
         style="fill:#008080;fill-opacity:1;fill-rule:nonzero;stroke:none"
         id="path22" /><path
         transform="scale(0.190457,0.190457)"
         inkscape:connector-curvature="0"
         d="m 5266.81,6302.38 c -47.67,17.32 -1034.04,425.92 -1173.86,492.87 -114.41,55.02 -394.95,173.63 -526.94,227.5 371.79,573.25 606.49,1005.85 637.73,1071.74 57.81,120.55 451.33,890.6 460.52,938.01 8.93,48.04 20.11,225.51 11.45,267.67 -8.66,43 -152.95,-39.64 -348.85,-106.06 -196.21,-66.16 -569.1,-308.68 -713.13,-339.08 -144.54,-30.14 -606.48,-205.14 -842.86,-283.58 -236.38,-78.44 -683.52,-214.9 -867.44,-264.57 -184.2,-49.68 -344.97,-53.61 -447.98,-84.85 0,0 13.7,-144.29 41.06,-187.55 27.04,-43.27 124.49,-149.33 237.79,-178.94 113.31,-29.83 300.86,-17.85 386.29,1.68 85.37,19.85 233.28,92.09 253.12,123.65 20.06,32.08 -10.34,130.9 23.42,160.77 34.08,29.56 484.26,134.78 654.22,186.13 169.96,52.25 820.55,276.34 908.76,264.89 -27.93,-92.67 -551.25,-1129.23 -719.79,-1438.49 -168.6,-309.2 -1147.93,-1669.56 -1356.43,-1909.3 -158.25,-182.25 -541.75,-648.6 -674.59,-753.82 33.5,-9.25 270.99,11.13 314.25,37.91 269.61,166.07 718.69,725.09 863.29,895.37 429.81,504.05 807.43,1033.51 1106.87,1487.9 l 0.31,0 c 58.34,-24.31 529.99,-408.6 653.07,-493.77 123.07,-85.1 608.74,-356.08 713.96,-401.03 105.22,-45.52 509.62,-231.97 526.63,-168.86 17.01,63.64 -73.14,435.69 -120.87,453.81"
         style="fill:#008080;fill-opacity:1;fill-rule:nonzero;stroke:none"
         id="path24" /><path
         transform="scale(0.190457,0.190457)"
         inkscape:connector-curvature="0"
         d="m 2987.55,1165.62 c 94.52,-57.76 183.77,-105.01 283.54,-152.26 199.52,-99.766 425.29,-204.778 640.56,-283.536 294.03,-110.261 588.06,-199.519 882.09,-267.777 162.77,-36.754 341.28,-68.258 514.55,-94.508 15.75,0 483.05,-57.758 577.56,-57.758 l 472.55,0 c 183.77,15.754 357.04,26.254 540.81,52.508 147.01,21 309.78,47.254 467.29,84.008 115.52,26.25 236.28,52.504 351.79,89.258 110.26,31.504 236.27,73.508 357.03,115.511 78.77,26.254 162.77,63.008 246.78,94.512 68.26,31.5 152.27,68.254 231.03,99.758 94.51,42.004 204.76,99.762 309.78,152.266 84,42.008 178.52,94.508 267.77,147.018 68.26,36.75 225.78,157.51 309.78,157.51 94.52,0 157.52,-84 157.52,-157.51 0,-152.268 -204.77,-199.522 -299.28,-267.78 C 9198.94,808.582 9078.18,756.078 8973.17,698.32 8763.15,588.059 8547.88,493.551 8343.11,414.793 8075.32,315.031 7781.3,220.523 7518.77,157.516 7419.01,136.516 7319.25,110.262 7219.49,94.5117 7166.98,84.0078 6620.93,0 6468.66,0 l -693.07,0 c -183.77,15.75 -378.04,36.7539 -561.8,63.0078 -162.77,26.25 -336.04,57.7542 -498.81,94.5082 -126.01,26.254 -262.52,63.007 -383.29,99.761 -210.02,57.754 -414.79,131.262 -614.31,210.02 -362.29,136.516 -740.33,315.035 -1097.36,551.313 -63.01,42 -68.26,84 -68.26,131.26 0,78.76 57.76,152.26 152.27,152.26 84.01,0 252.02,-120.76 283.52,-136.51"
         style="fill:#008080;fill-opacity:1;fill-rule:evenodd;stroke:none"
         id="path26" /><path
         transform="scale(0.190457,0.190457)"
         inkscape:connector-curvature="0"
         d="m 6363.65,12811.3 0,-8820.89 c -5.25,-26.25 -15.75,-52.51 -36.75,-78.76 -10.51,-15.75 -31.51,-36.75 -47.26,-42.01 -131.26,-52.5 -6043.367,-2037.2 -6122.124,-2037.2 -63.0082,0 -120.7621,42 -152.266,110.26 0,5.25 -5.25,10.5 -5.25,21 l 0,8826.2 c 10.5,26.2 15.75,63 36.7539,84 42.0039,57.7 115.5121,68.2 162.7661,84 89.261,31.5 5912.11,1984.7 5996.11,1984.7 52.51,0 168.02,-36.8 168.02,-131.3 z M 6043.37,4121.67 320.281,2215.73 l 0,8442.87 5723.089,1905.9 0,-8442.83"
         style="fill:#008080;fill-opacity:1;fill-rule:evenodd;stroke:none"
         id="path28" /><path
         transform="scale(0.190457,0.190457)"
         inkscape:connector-curvature="0"
         d="m 11451.4,14502 0,-10621.85 c -5.2,-120.76 -89.2,-173.27 -168,-173.27 -68.3,0 -561.8,168.02 -645.8,194.27 -661.58,204.77 -1328.4,409.54 -1984.71,614.31 -147.02,47.26 -299.28,94.51 -441.05,141.77 -126.01,36.75 -262.53,78.75 -388.54,120.76 -561.81,173.27 -1134.12,346.53 -1695.92,535.55 -21,5.25 -73.51,78.76 -73.51,94.51 l 0,7419.05 c 10.5,26.2 21,57.7 47.26,78.7 42,47.3 1842.93,645.8 2551.76,882.1 189.02,68.3 2557.01,882.1 2630.51,882.1 94.5,0 168,-68.3 168,-168 z m -320.3,-10422.33 -4762.2,1480.65 0,7114.48 4762.2,1617.2 0,-10212.33"
         style="fill:#008080;fill-opacity:1;fill-rule:evenodd;stroke:none"
         id="path30" /><path
         transform="scale(0.190457,0.190457)"
         inkscape:connector-curvature="0"
         d="m 12660.1,1854.96 -6362.08,2027.81 26.62,8827.73 6335.46,-2016.5 0,-8839.04"
         style="fill:#008080;fill-opacity:1;fill-rule:nonzero;stroke:none"
         id="path32" /><path
         transform="scale(0.190457,0.190457)"
         inkscape:connector-curvature="0"
         d="M 9078.07,10190.3 9897.73,9942 11391,4560.09 l -841.9,255.44 -302.5,1104.87 -1739.89,527.37 -374.15,-900.05 -842.19,255.49 1787.7,4387.09 z M 9452.8,8765.51 8828.36,7256.19 9976.39,6908.18 9452.8,8765.51"
         style="fill:#ffffff;fill-opacity:1;fill-rule:evenodd;stroke:none"
         id="path34" /></g></g></svg>