<svg version="1.1" xmlns="http://www.w3.org/2000/svg"
        viewBox="0 0 1637.3301470190286 973.2849909931422">
    <!-- svg-source:excalidraw -->
    <defs>
        <style>
            @font-face {
            font-family: "Virgil";
            src: url("https://excalidraw.com/FG_Virgil.woff2");
            }
            @font-face {
            font-family: "Cascadia";
            src: url("https://excalidraw.com/Cascadia.woff2");
            }
        </style>
    </defs>
    <rect x="0" y="0" width="1637.3301470190286" height="973.2849909931422" fill="#ffffff"></rect>
    <g transform="translate(508.2265625 275.2788554623723) rotate(0 213.41796875 32.99609375)">
        <path d="M-0.7447641222504986 1.02635947119227 C143.68448846711996 3.176395378492394, 287.925683373979 1.9913127741364887, 426.8428343574404 1.0000709484344603 M0.32835447492172354 0.38604972776121976 C134.4886651962565 0.23310914458652102, 270.0371072707384 -0.0188721262944595, 426.68813067483825 0.4128679976549759 M428.644347436726 1.7560557052493095 C424.7646875576112 18.513836311039626, 426.0722587303254 34.18652627962291, 425.6058793142437 65.85350286215541 M427.2195296846329 0.37834442034363747 C426.470111380038 25.828718327634842, 427.19598926108813 49.60465757306081, 426.71564477309573 65.34196710959074 M426.533401434192 66.67167563890253 C332.6548539126173 67.2115163518232, 238.72814823919362 65.76642352571967, -0.3944689374793146 64.99283187350923 M426.8493362433641 65.62694280944716 C259.04119081974886 64.43234719294772, 92.22301096301445 65.21239173177975, -0.30579365879936193 65.98956215850436 M-1.0804121419787407 65.41768204420802 C0.11350659102230565 51.31901559862015, -1.7992133739587735 36.07812960957524, 0.142121322453022 0.3383561298251152 M0.28234511241316795 65.07310879603025 C-1.311096129925281 44.02418572632885, 0.1461431402849851 22.02079869788721, -0.8633931316435337 -0.8498575650155544"
                stroke="#000000" stroke-width="1" fill="none"></path>
    </g>
    <g transform="translate(640.873046875 295.6343242123723) rotate(0 76 12)">
        <text x="76" y="19" font-family="Cascadia, Segoe UI Emoji" font-size="20px" fill="#000000"
                text-anchor="middle" style="white-space: pre;" direction="ltr">FlexTrip trip
        </text>
    </g>
    <g transform="translate(515.80078125 650.5366679623723) rotate(0 213.41796875 32.99609375)">
        <path d="M0.7580410226069534 -1.0104816772638388 C135.4072687937684 -1.0850939941225966, 269.1376533616209 -1.476777765815316, 427.87168161434766 -0.06958444433403121 M-0.49972854438808256 0.11918187412435896 C125.12445936986127 -0.9045484147945245, 250.2498271779051 -0.354421598571784, 427.0750193211913 -0.2210754889616468 M428.4154747650026 1.843318946659565 C426.01646830593717 17.124414671023253, 428.32083179508817 38.17211958728147, 426.2858406230806 64.26584172993896 M427.09551751986135 0.18713873252272606 C426.7593481586497 19.010154274900554, 428.1468449876826 37.226415514299866, 426.34772968664754 65.71282916888592 M425.8396707690229 65.75469019783021 C337.9688933982398 64.87854798213266, 248.27693359267957 63.624238034493935, 0.28213050475553725 65.63258830453336 M427.17058589115624 66.45546163365272 C313.3093747321653 66.364702591246, 199.69611136242705 66.62250006884986, 0.22126054273215448 65.5847797550763 M-0.22325289994478226 65.35145426541564 C-0.2184725250260091 50.23862220980516, 0.5862113986953044 33.785465752339206, 1.9761992618441582 1.11456847935915 M0.02883780375123024 66.02181237563488 C-0.31622810484812347 41.69717005765704, -1.0481541884128818 16.690333983575684, 0.38371873274445534 0.48694830760359764"
                stroke="#000000" stroke-width="1" fill="none"></path>
    </g>
    <g transform="translate(652.314453125 670.1968242123723) rotate(0 76 12)">
        <text x="76" y="19" font-family="Cascadia, Segoe UI Emoji" font-size="20px" fill="#000000"
                text-anchor="middle" style="white-space: pre;" direction="ltr">FlexTrip trip
        </text>
    </g>
    <g transform="translate(194.921875 276.1147929623723) rotate(0 152.48046875 33.5078125)">
        <path d="M0.06709211907002038 -0.8085090585458566 C93.91687110481604 0.6397892465102614, 190.98236147216613 2.0697022028880916, 304.36900588019336 -1.3417094362728696 M-0.4916504553994922 0.5127976923604853 C78.04156815384422 -0.8067641095181524, 157.21931468081115 -1.5018915337456415, 304.6635301664731 -0.6522310509774234 M304.48590660840273 1.7838317081332207 C304.18935825495106 16.46821762257605, 306.03114726213795 34.291389852936845, 304.3391544893384 68.92791735380888 M304.7955171428621 0.9939405955374241 C306.0421195501549 21.63300337456749, 305.9617649788124 41.82748989016982, 305.1659036241472 66.93540370836854 M305.05055562627007 66.02234543136198 C225.273752210438 66.91582392807118, 144.6361640168091 66.98442303048014, 0.0071207778483935395 65.63074045730457 M304.29127966073963 66.48154243673822 C203.6800890664157 68.63911449099638, 102.848741902682 69.30285046508396, 0.2759790649028016 67.18970726688558 M-1.8583750650286674 65.39286100119352 C-0.701253000368015 47.27979398323805, -1.2394230996264377 24.389009374950547, 1.276870496571064 -0.1842600181698799 M0.21557896956801414 67.22806501761079 C0.26858663423976403 41.48183066546335, -0.645103813567548 15.315678253013175, -0.9999796785414219 -0.019062872976064682"
                stroke="#000000" stroke-width="1" fill="none"></path>
    </g>
    <g transform="translate(235.90234375 297.6226054623723) rotate(0 111.5 12)">
        <text x="111.5" y="19" font-family="Cascadia, Segoe UI Emoji" font-size="20px"
                fill="#000000" text-anchor="middle" style="white-space: pre;" direction="ltr">
            AccessEgress access
        </text>
    </g>
    <g transform="translate(202.0859375 649.1343242123723) rotate(0 152.48046875 33.5078125)">
        <path d="M0.32869354736992074 -0.08326846905475029 C64.73217369246696 -1.739895364402178, 129.7331390913874 -1.8719048469176585, 304.69453315549873 -0.5587735460224255 M0.6091576777468011 0.5319267033365374 C118.92550982875274 1.7362131109623329, 236.02112849873149 1.1523949036286918, 304.55770824877965 -0.2550993765672943 M306.443595521152 1.3853390291333199 C304.72330987616385 19.39511506353156, 305.4903579966625 36.98131474294933, 303.741077773273 67.16675616055727 M305.19535065069795 -0.6428026594221592 C304.7097666725336 18.232852740673117, 305.1412507757364 36.00114348622738, 305.4974933899939 67.10499089583755 M306.16648864314084 66.75947667713925 C218.73895543804005 68.52331552295553, 135.44729907279932 66.65727954098101, -1.088127379499833 65.73791272606208 M305.02170287383547 66.76939288139688 C213.94070119776237 66.81789523420505, 122.18361991311002 66.5177601379424, -0.7242491405743356 67.4961343987441 M-1.2243222072720528 67.75835777074099 C0.8959865543717751 48.587454477132994, 1.6130621406907448 33.52666623479454, 1.2513674423098564 0.7578077390789986 M0.5462200678884983 67.60452204570174 C0.9387812606798251 46.47635422228486, 0.006457685659988777 25.720069791201965, -0.03212272748351097 -0.5961783565580845"
                stroke="#000000" stroke-width="1" fill="none"></path>
    </g>
    <g transform="translate(240.84765625 670.8843242123723) rotate(0 111.5 12)">
        <text x="111.5" y="19" font-family="Cascadia, Segoe UI Emoji" font-size="20px"
                fill="#000000" text-anchor="middle" style="white-space: pre;" direction="ltr">
            AccessEgress egress
        </text>
    </g>
    <g transform="translate(177.07421875 198.5405742123723) rotate(0 388.94921875 82.263671875)">
        <path d="M0.02893624007701874 -0.018755242228507996 C236.39120400180983 -1.8557737515181074, 472.25722847740985 -2.2767272160261642, 778.0599774807691 -0.7035882920026779 M-0.16297435611486435 0.2648559793829918 C261.5882288750174 -1.0016133403737328, 522.9202930070286 -1.383900127406814, 778.0027374759317 0.26413819640874864 M779.2222722694278 -1.1718449518084526 C779.8399084710856 41.04580094684934, 779.396576037385 82.68972400615166, 776.7089253589511 165.58678317815065 M777.9280005730689 -0.960899893194437 C779.050691883388 50.01832519612654, 777.7521001504092 102.705493248094, 777.8172595538199 163.98670369014144 M777.9887955158949 164.59912901222705 C484.66948509601934 163.07754403520968, 193.12482982751098 163.3192553656235, -0.3752865344285965 164.2710403472185 M777.7273367896676 164.5249552950263 C468.7419672431511 165.47975670218804, 159.92857187876356 165.93337384581903, -0.09000496715307237 164.69757430404425 M0.39644133299589157 165.14692879468203 C1.1657373263440967 97.16958500546316, 0.5537800147138476 31.60533478313883, 1.2053447887301445 -0.8017032071948051 M0.5229877270758152 163.66791742667556 C2.1953273330618686 107.77466730362357, 1.1820978437353915 48.71704569009307, -0.770729061216116 0.1374860368669033"
                stroke="#000000" stroke-width="1" fill="none"></path>
    </g>
    <g transform="translate(533.3828125 220.8726054623723) rotate(0 105.5 12)">
        <text x="0" y="19" font-family="Cascadia, Segoe UI Emoji" font-size="20px" fill="#000000"
                text-anchor="start" style="white-space: pre;" direction="ltr">FlexAccessTemplate
        </text>
    </g>
    <g transform="translate(585.66015625 596.2476054623723) rotate(0 105.5 12)">
        <text x="0" y="19" font-family="Cascadia, Segoe UI Emoji" font-size="20px" fill="#000000"
                text-anchor="start" style="white-space: pre;" direction="ltr">FlexEgressTemplate
        </text>
    </g>
    <g transform="translate(181.09765625 578.8706523373723) rotate(0 388.94921875 82.263671875)">
        <path d="M-0.18721971213817598 -0.4827246218919754 C165.4790613955731 1.372916695438675, 329.6030603987922 1.9749660461772003, 777.2671379119158 0.13758358657360079 M0.20308449119329453 -0.10852560847997667 C203.69688090799318 0.9426429519891972, 408.1107197442267 1.221503377938294, 778.20772254318 -0.10168065875768661 M779.0702781751752 1.9212313815951347 C778.7887211890296 39.99069656568027, 779.5497606844978 80.14621369068337, 778.9937775209546 165.68549524992704 M778.4581806026399 -0.6406924687325954 C777.9028899768334 58.340616937364395, 779.4171093801003 117.88809226753365, 777.4560390077531 165.5097245015204 M777.4544560462236 165.09858851134777 C505.69210548615956 165.29717725901273, 232.88844938410324 166.50912040857938, 0.6221986800432205 165.07982811629773 M777.9086122736335 164.47384181171657 C527.529807247725 164.90565629848686, 277.41899386 164.5162397468969, -0.05267069488763809 164.46023082882166 M1.8772416189312935 164.85753118246794 C-0.7314104150292405 100.9824248258359, 0.9348262239935866 34.401866503871844, -1.061792604625225 -1.7908178642392159 M0.10437768325209618 164.94249201193452 C-0.19893938884735696 119.43409383230755, -0.816883987045294 75.95401977987785, -0.38019341602921486 -0.3163851462304592"
                stroke="#000000" stroke-width="1" fill="none"></path>
    </g>
    <g transform="translate(805.92578125 445.8765117123723) rotate(0 70.5 24)">
        <text x="141" y="19" font-family="Cascadia, Segoe UI Emoji" font-size="20px" fill="#000000"
                text-anchor="end" style="white-space: pre;" direction="ltr">transferStop
        </text>
        <text x="141" y="43" font-family="Cascadia, Segoe UI Emoji" font-size="20px" fill="#000000"
                text-anchor="end" style="white-space: pre;" direction="ltr">flexVertex
        </text>
    </g>
    <g transform="translate(167.14453125 115.33744921237229) rotate(0 575.65625 127.70703125)">
        <path d="M0.536037489771843 -0.13433122336864473 C375.8104448889615 2.2449713223082948, 750.5352886895183 2.026941441784613, 1151.501569697261 0.18335647881031036 M0.1932848945260048 -0.34485633522272113 C287.75268283549235 1.6457980862306432, 575.5649143335876 1.1548717728303746, 1151.147659446299 -0.21836769729852679 M1150.923055296036 -0.9586546621307355 C1151.46274886773 73.93541156615636, 1150.4936905742609 148.1772443679347, 1150.1013514323015 256.553133647782 M1150.7826719262262 0.05748377678600888 C1151.2090130746597 58.07576375212329, 1150.721595497516 114.80114522981846, 1151.1595258325951 255.9824103763285 M1150.9616560429336 255.82541094124318 C775.6044990728377 253.36224019961523, 398.9061769416091 253.07992198901343, 0.4285493344068527 255.51898365318775 M1151.4640953078865 255.47116949409246 C712.3323182919296 254.28824625134, 274.0757381143514 254.3998254311038, -0.014388416707515717 255.27079961150883 M1.4700240107495255 255.1120487153525 C-0.7701543413628398 194.05251458836764, -0.6221808659803233 133.26389871304937, 1.4377779903371692 0.22210761549639507 M-0.006265836479614896 255.00195018625934 C-0.20263754253275995 186.46751298832405, -0.1839495845576633 116.4783004179534, -0.1616671857160224 -0.7104415793672568"
                stroke="#000000" stroke-width="1" fill="none"></path>
    </g>
    <g transform="translate(718.3828125 133.3491679623723) rotate(0 94 12)">
        <text x="0" y="19" font-family="Cascadia, Segoe UI Emoji" font-size="20px" fill="#000000"
                text-anchor="start" style="white-space: pre;" direction="ltr">FlexAccessEgress
        </text>
    </g>
    <g transform="translate(975.265625 274.2436992123723) rotate(0 163.373046875 39.6875)">
        <path d="M-1.31451810032714 -0.5408179976254882 C67.80156957495507 0.7302749852369435, 137.4294897097085 1.7653869266077133, 328.01621111459275 0.5496605999575094 M0.5212965334758762 0.6644782015238833 C114.0241047744273 -1.431529922242264, 227.7627729413046 -0.5242804480040901, 326.89289015583233 0.5236766072937103 M328.0236599519849 1.3981360122561455 C328.22122543451843 21.313653450692076, 327.5841554939514 43.384314626920975, 325.83876848965883 77.87735807150602 M327.18586402758956 0.151069525629282 C327.03003455663566 21.66509535512887, 327.3146587755764 41.90019433526322, 326.51446812972426 78.57468366995454 M325.5343651919104 79.09532215837258 C232.20789620179 81.76552529024775, 134.8429745785649 81.57778594515733, 0.7035402465418581 78.1206582720359 M326.5184517681861 79.9832719798694 C214.76154184041442 81.08622734370896, 101.63893003579035 81.62151829282617, 0.050247365185410016 79.21622714305222 M1.5539052560925484 79.93561684340239 C2.0585220262641086 56.19857542566024, -1.2089953019982205 35.43454883946106, 1.399546630680561 1.5154095813632011 M0.14168482646346092 78.64325821772218 C-0.03640802467707549 61.742813881719485, -0.6590942915761844 44.84591339947656, -0.08758002892136574 0.4244239367544651"
                stroke="#000000" stroke-width="1" fill="none"></path>
    </g>
    <g transform="translate(1019.34765625 292.0132304623723) rotate(0 135 24)">
        <text x="135" y="19" font-family="Cascadia, Segoe UI Emoji" font-size="20px" fill="#000000"
                text-anchor="middle" style="white-space: pre;" direction="ltr">SimpleTransfer
            transfer
        </text>
        <text x="135" y="43" font-family="Cascadia, Segoe UI Emoji" font-size="20px" fill="#000000"
                text-anchor="middle" style="white-space: pre;" direction="ltr">(can be empty)
        </text>
    </g>
    <g transform="translate(168.84765625 501.8647929623723) rotate(0 575.65625 127.70703125)">
        <path d="M-0.17302890121936798 -0.2780907601118088 C311.69898731161373 1.9817464703423902, 623.187455550814 1.8394123905999584, 1151.4554549664258 -0.2208156555891037 M0.02373056560754776 -0.10186755806207658 C375.6054481005995 -0.07105417400132835, 750.2913663802204 -0.11594166904222192, 1151.5309066310524 0.3064875349402428 M1150.2697874952748 0.7003915255061018 C1150.9708236927618 80.87283250040038, 1151.3336266107656 161.96330488539172, 1149.9860876357825 255.4709941028702 M1151.036814907303 0.19984425071129688 C1150.400563393764 61.32358680227297, 1149.9327765917076 123.02557767932029, 1150.980423892303 255.20838458044182 M1150.5865007847547 255.5059433966875 C737.9689666370629 257.51308488648107, 325.30128295323806 257.4541187266605, 0.6858769863843919 256.1820722609758 M1151.363327600062 255.31314508765936 C719.505052942899 257.6723156975461, 288.21084231161507 257.59985557066926, 0.021629764139652254 255.50440728515386 M1.063465637010441 255.0519171434997 C-2.946072297985237 163.52287392290089, -0.7296091041537955 73.98644063569165, -1.0665499019809215 0.08180164143555865 M0.6383484185543475 255.58471533065972 C1.3620544472151845 161.78138730206535, 1.1456290606272261 68.7225222219173, 0.09307962962291554 -0.49435170974404136"
                stroke="#000000" stroke-width="1" fill="none"></path>
    </g>
    <g transform="translate(977.857421875 648.1929179623723) rotate(0 163.373046875 39.6875)">
        <path d="M0.7561564248715554 1.3602597311030324 C104.98801408996108 -2.320932090306015, 212.29057751614576 -0.6161411762135485, 326.29454013014634 -0.5364250059313199 M0.5292920735125742 -0.43985803389970896 C77.45738127921238 0.24041969018837267, 153.96108025228133 -0.7333579152027736, 326.5845097527488 0.5492261647627815 M326.3825009986758 1.0143008306622505 C327.7500805121148 27.421327508753166, 328.0114599924767 56.36791259748861, 327.60828983038664 78.44199634343386 M326.39894211664796 0.6435064636170864 C327.216744803614 19.855758860940114, 327.08825805110394 39.438063595909625, 325.98601603880525 79.66380291804671 M326.52634147225916 80.65726405225665 C202.4961610913488 76.88331693317666, 77.00994139495663 77.39928449464911, 1.3465499110901267 80.65001239400779 M327.26013292433464 79.58600945128798 C230.17950118191354 79.0030243361433, 135.15576503611075 79.12682624903736, 0.05411272928447671 79.84854261597555 M-0.27560532838106155 79.63019371777773 C-1.726318570622243 55.10166137688793, 0.12424853181000794 32.34950385289267, 1.5458713695406914 0.756879098713398 M-0.08602678403258324 78.77610796317458 C0.8722965397173539 58.99118121690117, -0.6622342191403732 36.57899235514923, -0.7561473809182644 0.009775694459676743"
                stroke="#000000" stroke-width="1" fill="none"></path>
    </g>
    <g transform="translate(1021.677734375 665.7007304623723) rotate(0 135 24)">
        <text x="135" y="19" font-family="Cascadia, Segoe UI Emoji" font-size="20px" fill="#000000"
                text-anchor="middle" style="white-space: pre;" direction="ltr">SimpleTransfer
            transfer
        </text>
        <text x="135" y="43" font-family="Cascadia, Segoe UI Emoji" font-size="20px" fill="#000000"
                text-anchor="middle" style="white-space: pre;" direction="ltr">(can be empty)
        </text>
    </g>
    <g transform="translate(1429.765625 120.94291796237229) rotate(0 86.22265625 328.732421875)">
        <path d="M-0.3847374841570854 0.3369022533297539 C60.96776923897851 0.35504852503800066, 126.49459999775864 1.9464374658491579, 172.15727687627077 0.23240696638822556 M0.9103931747376919 -0.41106223687529564 C38.558731297755735 0.6513246404120583, 78.74411394592026 1.001693020958628, 171.9335887990892 0.5852333344519138 M172.5001780539751 0.41515593230724335 C170.14309981840796 183.81517260003747, 170.23327306288428 368.5454108253849, 172.54247513115405 658.0022121876478 M172.3981429323554 -0.12219977229833603 C169.80561433403713 206.50698029309135, 170.10746145813684 413.00144508748497, 172.3029518827796 657.5754899039864 M172.3318634107709 657.1638575717807 C111.1641282934026 657.370039084607, 52.53253361792885 655.9505179912385, -0.860726110637188 657.3547571823001 M171.99947660788894 656.5204956568778 C137.2320967087726 656.3960880694239, 103.44194688167772 656.8006175217478, -0.7893471159040928 656.890211943537 M-0.6814860314130784 657.452621409297 C2.262077118743735 463.8232013861285, 2.5129620331419282 270.0636513580772, -0.5883039444684982 0.38029656112194066 M0.3270593866705895 657.7484977260232 C0.5278596254200092 419.5492598316297, 0.31971224268380316 181.32204494749013, -0.23249018341302874 -0.1336435303092003"
                stroke="#000000" stroke-width="1" fill="none"></path>
    </g>
    <g transform="translate(1489.78515625 431.9507304623723) rotate(0 35 12)">
        <text x="35" y="19" font-family="Cascadia, Segoe UI Emoji" font-size="20px" fill="#000000"
                text-anchor="middle" style="white-space: pre;" direction="ltr">Raptor
        </text>
    </g>
    <g transform="translate(730.2109375 529.4546367123723) rotate(0 94 12)">
        <text x="0" y="19" font-family="Cascadia, Segoe UI Emoji" font-size="20px" fill="#000000"
                text-anchor="start" style="white-space: pre;" direction="ltr">FlexAccessEgress
        </text>
    </g>
    <g transform="translate(1200.3046875 465.9741679623723) rotate(0 52.5 12)">
        <text x="52.5" y="19" font-family="Cascadia, Segoe UI Emoji" font-size="20px" fill="#000000"
                text-anchor="middle" style="white-space: pre;" direction="ltr">finalStop
        </text>
    </g>
    <g transform="translate(266.33203125 49.56791796237229) rotate(0 111.5 12)">
        <text x="111.5" y="19" font-family="Cascadia, Segoe UI Emoji" font-size="20px"
                fill="#000000" text-anchor="middle" style="white-space: pre;" direction="ltr">
            lastStateBeforeFlex
        </text>
    </g>
    <g transform="translate(985.01953125 882.8022929623723) rotate(0 111.5 12)">
        <text x="111.5" y="19" font-family="Cascadia, Segoe UI Emoji" font-size="20px"
                fill="#000000" text-anchor="middle" style="white-space: pre;" direction="ltr">
            lastStateBeforeFlex
        </text>
    </g>
    <g>
        <g transform="translate(250.94140625 9.868699212372292) rotate(0 502.0321629956365 0.7563686177134628)">
            <path d="M0.2838501647114753 0.13130078762769704 C167.5032787198822 0.1725561822454135, 836.3358534847696 1.0109070663650832, 1003.7804758265614 1.3814364477992058"
                    stroke="#000000" stroke-width="1.5" fill="none" stroke-dasharray="12 8"></path>
        </g>
        <g transform="translate(250.94140625 9.868699212372292) rotate(0 502.0321629956365 0.7563686177134628)">
            <path d="M975.7917074676423 10.962896983796591 C983.1062402688028 9.38887301073457, 994.2807250378756 4.670016329707813, 1004.1064569741487 0.8174116343259812"
                    stroke="#000000" stroke-width="1.5" fill="none"></path>
        </g>
        <g transform="translate(250.94140625 9.868699212372292) rotate(0 502.0321629956365 0.7563686177134628)">
            <path d="M975.8254323686633 -9.558283903688688 C983.3224526945567 -4.182551498062698, 994.4855162322235 -1.951731573890692, 1004.1064569741487 0.8174116343259812"
                    stroke="#000000" stroke-width="1.5" fill="none"></path>
        </g>
    </g>
    <g>
        <g transform="translate(1306.05859375 937.7124492123723) rotate(0 -548.5230691626668 -8.095769838988758)">
            <path d="M0.27081213444471364 -0.427458219230175 C-182.49344445417324 -3.131986980140209, -914.4635596548518 -13.261797265708447, -1097.3169504597784 -15.764081458747388"
                    stroke="#000000" stroke-width="1.5" fill="none" stroke-dasharray="12 8"></path>
        </g>
        <g transform="translate(1306.05859375 937.7124492123723) rotate(0 -548.5230691626668 -8.095769838988758)">
            <path d="M-1069.6997991612247 -27.361155777418972 C-1075.5495933482625 -24.158561580462138, -1081.783557243915 -22.501094213305244, -1098.7622025281191 -15.52667233645916"
                    stroke="#000000" stroke-width="1.5" fill="none"></path>
        </g>
        <g transform="translate(1306.05859375 937.7124492123723) rotate(0 -548.5230691626668 -8.095769838988758)">
            <path d="M-1069.982765573115 -6.841898178870737 C-1075.8441026113321 -8.545052414005479, -1082.0104236439122 -11.792694889456993, -1098.7622025281191 -15.52667233645916"
                    stroke="#000000" stroke-width="1.5" fill="none"></path>
        </g>
    </g>
    <g>
        <g transform="translate(1026.4949963358824 250.12013878822347) rotate(0 115.30938675314121 1.2212589997824637)">
            <path d="M-0.2575753971934318 0.9780020758509635 C38.371094144085816 1.023195206747342, 192.4782961224505 1.1209570091261905, 230.87634890347584 1.464515923713975"
                    stroke="#000000" stroke-width="1.5" fill="none" stroke-dasharray="12 8"></path>
        </g>
        <g transform="translate(1026.4949963358824 250.12013878822347) rotate(0 115.30938675314121 1.2212589997824637)">
            <path d="M204.2730836562489 13.50462457627963 C207.26557311388223 10.036687306727345, 216.252982705905 6.224571443499121, 229.94280642092093 2.4353405155294467"
                    stroke="#000000" stroke-width="1.5" fill="none"></path>
        </g>
        <g transform="translate(1026.4949963358824 250.12013878822347) rotate(0 115.30938675314121 1.2212589997824637)">
            <path d="M204.35855283804764 -7.016406036357784 C207.53585519758312 -5.859887370946877, 216.50400337177808 -5.047363842891496, 229.94280642092093 2.4353405155294467"
                    stroke="#000000" stroke-width="1.5" fill="none"></path>
        </g>
    </g>
    <g transform="translate(989.29296875 203.2124492123723) rotate(0 140.5 12)">
        <text x="140.5" y="19" font-family="Cascadia, Segoe UI Emoji" font-size="20px"
                fill="#000000" text-anchor="middle" style="white-space: pre;" direction="ltr">List&lt;Edge&gt;
            transferEdges
        </text>
    </g>
    <g>
        <g transform="translate(1275.6921321684413 624.963806425035) rotate(0 -135.5743038060209 -0.46228035022454605)">
            <path d="M-0.6870549157261848 0.7721629813313484 C-45.838067580327106 0.6254100593274188, -225.1882026904062 -1.0041684526476502, -270.4615526963157 -1.696723681780486"
                    stroke="#000000" stroke-width="1.5" fill="none" stroke-dasharray="12 8"></path>
        </g>
        <g transform="translate(1275.6921321684413 624.963806425035) rotate(0 -135.5743038060209 -0.46228035022454605)">
            <path d="M-240.8663750482137 -9.829884973621349 C-250.54322031478165 -9.75380020632438, -262.8950726150762 -3.6940969815233604, -271.2667500618977 -1.378757689985423"
                    stroke="#000000" stroke-width="1.5" fill="none"></path>
        </g>
        <g transform="translate(1275.6921321684413 624.963806425035) rotate(0 -135.5743038060209 -0.46228035022454605)">
            <path d="M-241.10511202641777 10.689934885263314 C-250.5619224942431 3.851312418319777, -262.83331002213447 2.994941530426619, -271.2667500618977 -1.378757689985423"
                    stroke="#000000" stroke-width="1.5" fill="none"></path>
        </g>
    </g>
    <g transform="translate(992.8936483613693 569.6499492123723) rotate(0 140.5 12)">
        <text x="140.5" y="19" font-family="Cascadia, Segoe UI Emoji" font-size="20px"
                fill="#000000" text-anchor="middle" style="white-space: pre;" direction="ltr">List&lt;Edge&gt;
            transferEdges
        </text>
    </g>
    <g transform="translate(244.140625 80.87260546237229) rotate(0 64.5 12)">
        <text x="64.5" y="19" font-family="Cascadia, Segoe UI Emoji" font-size="20px" fill="#000000"
                text-anchor="middle" style="white-space: pre;" direction="ltr">accessDuration
        </text>
    </g>
    <g transform="translate(664.3828125 84.87260546237229) rotate(0 47 12)">
        <text x="47" y="19" font-family="Cascadia, Segoe UI Emoji" font-size="20px" fill="#000000"
                text-anchor="middle" style="white-space: pre;" direction="ltr">flexTripDuration
        </text>
    </g>
    <g transform="translate(1048.73046875 81.27885546237229) rotate(0 70.5 12)">
        <text x="70.5" y="19" font-family="Cascadia, Segoe UI Emoji" font-size="20px" fill="#000000"
                text-anchor="middle" style="white-space: pre;" direction="ltr">egressDuration
        </text>
    </g>
    <g transform="translate(283.6484375 776.7163554623723) rotate(0 70.5 12)">
        <text x="70.5" y="19" font-family="Cascadia, Segoe UI Emoji" font-size="20px" fill="#000000"
                text-anchor="middle" style="white-space: pre;" direction="ltr">egressDuration
        </text>
    </g>
    <g transform="translate(667.53125 772.0288554623723) rotate(0 47 12)">
        <text x="47" y="19" font-family="Cascadia, Segoe UI Emoji" font-size="20px" fill="#000000"
                text-anchor="middle" style="white-space: pre;" direction="ltr">flexTripDuration
        </text>
    </g>
    <g transform="translate(1072.125 780.3804179623723) rotate(0 64.5 12)">
        <text x="64.5" y="19" font-family="Cascadia, Segoe UI Emoji" font-size="20px" fill="#000000"
                text-anchor="middle" style="white-space: pre;" direction="ltr">accessDuration
        </text>
    </g>
    <g transform="translate(45.92578125 303.1147929623723) rotate(0 35 12)">
        <text x="35" y="19" font-family="Cascadia, Segoe UI Emoji" font-size="20px" fill="#000000"
                text-anchor="middle" style="white-space: pre;" direction="ltr">Origin
        </text>
    </g>
    <g transform="translate(10 668.9194804623723) rotate(0 64.5 12)">
        <text x="64.5" y="19" font-family="Cascadia, Segoe UI Emoji" font-size="20px" fill="#000000"
                text-anchor="middle" style="white-space: pre;" direction="ltr">Destination
        </text>
    </g>
    <g transform="translate(586.71484375 430.0991679623723) rotate(0 70.5 12)">
        <text x="141" y="19" font-family="Cascadia, Segoe UI Emoji" font-size="20px" fill="#000000"
                text-anchor="end" style="white-space: pre;" direction="ltr">FlexTripEdge
        </text>
    </g>
    <g>
        <g transform="translate(585.50390625 417.0015117123723) rotate(0 71.89492458850145 2.074733428657055)">
            <path d="M-0.07217638939619064 0.7735074564814568 C23.89117408146461 1.4540603364507358, 120.01439927766721 2.817402065296968, 143.8620255663991 3.3759594008326532"
                    stroke="#000000" stroke-width="1.5" fill="none" stroke-dasharray="12 8"></path>
        </g>
        <g transform="translate(585.50390625 417.0015117123723) rotate(0 71.89492458850145 2.074733428657055)">
            <path d="M116.77706343857825 15.08209177071054 C123.05494246967845 10.695952300731706, 133.0090455701263 5.321913813832352, 142.09073336422443 5.330068227648735"
                    stroke="#000000" stroke-width="1.5" fill="none"></path>
        </g>
        <g transform="translate(585.50390625 417.0015117123723) rotate(0 71.89492458850145 2.074733428657055)">
            <path d="M117.15326355521007 -5.435668240023708 C123.19476927923117 -3.526633384494268, 133.03344406595554 -2.6052712728344387, 142.09073336422443 5.330068227648735"
                    stroke="#000000" stroke-width="1.5" fill="none"></path>
        </g>
    </g>
    <g>
        <g transform="translate(726.74609375 466.3921367123723) rotate(0 -72.27457973510025 -1.0587055251002653)">
            <path d="M0.2713653132319451 -0.12496498078107843 C-23.74753045588732 -0.5160736367106438, -120.79115690737963 -1.7022636219859124, -144.8205247834325 -1.992446069419384"
                    stroke="#000000" stroke-width="1.5" fill="none" stroke-dasharray="12 8"></path>
        </g>
        <g transform="translate(726.74609375 466.3921367123723) rotate(0 -72.27457973510025 -1.0587055251002653)">
            <path d="M-116.71463580200609 -13.548470000947153 C-122.99074409050748 -9.568074865680192, -129.60581878410574 -7.180997992427266, -144.40834234058858 -1.5337475508451461"
                    stroke="#000000" stroke-width="1.5" fill="none"></path>
        </g>
        <g transform="translate(726.74609375 466.3921367123723) rotate(0 -72.27457973510025 -1.0587055251002653)">
            <path d="M-116.9656236400557 6.971203668265781 C-123.24179432468812 6.004336682591432, -129.79636317454006 3.4447190131804604, -144.40834234058858 -1.5337475508451461"
                    stroke="#000000" stroke-width="1.5" fill="none"></path>
        </g>
    </g>
    <g transform="translate(1459.3301470190286 953.2849909931422) rotate(0 84 10)">
        <text x="168" y="14" font-family="Virgil, Segoe UI Emoji" font-size="16px" fill="#adb5bd"
                text-anchor="end" style="white-space: pre;" direction="ltr">Made with Excalidraw
        </text>
    </g>
</svg>