<svg version="1.1" xmlns="http://www.w3.org/2000/svg" viewBox="0 0 842.1906036757314 449.97359073907137" width="1684.3812073514628" height="899.9471814781427">
  <!-- svg-source:excalidraw -->
  
  <defs>
    <style class="style-fonts">
      @font-face {
        font-family: "Virgil";
        src: url("https://excalidraw.com/Virgil.woff2");
      }
      @font-face {
        font-family: "Cascadia";
        src: url("https://excalidraw.com/Cascadia.woff2");
      }
      @font-face {
        font-family: "Assistant";
        src: url("https://excalidraw.com/Assistant-Regular.woff2");
      }
    </style>
    
  </defs>
  <rect x="0" y="0" width="842.1906036757314" height="449.97359073907137" fill="#ffffff"></rect><g stroke-linecap="round" transform="translate(319.69060367573127 92.18408203125) rotate(0 119.375 50.625)"><path d="M25.31 0 C65.63 0, 105.94 0, 213.44 0 M25.31 0 C93.63 0, 161.95 0, 213.44 0 M213.44 0 C230.31 0, 238.75 8.44, 238.75 25.31 M213.44 0 C230.31 0, 238.75 8.44, 238.75 25.31 M238.75 25.31 C238.75 45.04, 238.75 64.76, 238.75 75.94 M238.75 25.31 C238.75 38.09, 238.75 50.87, 238.75 75.94 M238.75 75.94 C238.75 92.81, 230.31 101.25, 213.44 101.25 M238.75 75.94 C238.75 92.81, 230.31 101.25, 213.44 101.25 M213.44 101.25 C144.47 101.25, 75.51 101.25, 25.31 101.25 M213.44 101.25 C146.55 101.25, 79.66 101.25, 25.31 101.25 M25.31 101.25 C8.44 101.25, 0 92.81, 0 75.94 M25.31 101.25 C8.44 101.25, 0 92.81, 0 75.94 M0 75.94 C0 61.58, 0 47.23, 0 25.31 M0 75.94 C0 61.92, 0 47.91, 0 25.31 M0 25.31 C0 8.44, 8.44 0, 25.31 0 M0 25.31 C0 8.44, 8.44 0, 25.31 0" stroke="#1e1e1e" stroke-width="2" fill="none"></path></g><g transform="translate(347.6256927870594 97.18408203125) rotate(0 91.43991088867188 12.5)"><text x="91.43991088867188" y="17.52" font-family="Virgil, Segoe UI Emoji" font-size="20px" fill="#1e1e1e" text-anchor="middle" style="white-space: pre;" direction="ltr" dominant-baseline="alphabetic">TimetableSnapshot</text></g><g stroke-linecap="round" transform="translate(334.1249999999999 131.01625438779593) rotate(0 106.00000000000006 25)"><path d="M12.5 0 C64.87 0, 117.24 0, 199.5 0 M12.5 0 C86.08 0, 159.66 0, 199.5 0 M199.5 0 C207.83 0, 212 4.17, 212 12.5 M199.5 0 C207.83 0, 212 4.17, 212 12.5 M212 12.5 C212 20.62, 212 28.75, 212 37.5 M212 12.5 C212 17.54, 212 22.59, 212 37.5 M212 37.5 C212 45.83, 207.83 50, 199.5 50 M212 37.5 C212 45.83, 207.83 50, 199.5 50 M199.5 50 C131.97 50, 64.43 50, 12.5 50 M199.5 50 C139.06 50, 78.61 50, 12.5 50 M12.5 50 C4.17 50, 0 45.83, 0 37.5 M12.5 50 C4.17 50, 0 45.83, 0 37.5 M0 37.5 C0 31.59, 0 25.68, 0 12.5 M0 37.5 C0 29.93, 0 22.36, 0 12.5 M0 12.5 C0 4.17, 4.17 0, 12.5 0 M0 12.5 C0 4.17, 4.17 0, 12.5 0" stroke="#1e1e1e" stroke-width="2" fill="none"></path></g><g transform="translate(340.14906311035156 136.01625438779593) rotate(0 99.97593688964844 20)"><text x="99.97593688964844" y="14.016" font-family="Virgil, Segoe UI Emoji" font-size="16px" fill="#1e1e1e" text-anchor="middle" style="white-space: pre;" direction="ltr" dominant-baseline="alphabetic">Map</text><text x="99.97593688964844" y="34.016" font-family="Virgil, Segoe UI Emoji" font-size="16px" fill="#1e1e1e" text-anchor="middle" style="white-space: pre;" direction="ltr" dominant-baseline="alphabetic">TripPattern -&gt; Timetable</text></g><g stroke-linecap="round" transform="translate(477.69060367573127 304.27890961745686) rotate(0 79.99999999999994 17.5)"><path d="M8.75 0 C61.22 0, 113.68 0, 151.25 0 M8.75 0 C65.17 0, 121.58 0, 151.25 0 M151.25 0 C157.08 0, 160 2.92, 160 8.75 M151.25 0 C157.08 0, 160 2.92, 160 8.75 M160 8.75 C160 13.22, 160 17.7, 160 26.25 M160 8.75 C160 15.47, 160 22.18, 160 26.25 M160 26.25 C160 32.08, 157.08 35, 151.25 35 M160 26.25 C160 32.08, 157.08 35, 151.25 35 M151.25 35 C94.36 35, 37.48 35, 8.75 35 M151.25 35 C94.37 35, 37.48 35, 8.75 35 M8.75 35 C2.92 35, 0 32.08, 0 26.25 M8.75 35 C2.92 35, 0 32.08, 0 26.25 M0 26.25 C0 21.75, 0 17.24, 0 8.75 M0 26.25 C0 22.73, 0 19.21, 0 8.75 M0 8.75 C0 2.92, 2.92 0, 8.75 0 M0 8.75 C0 2.92, 2.92 0, 8.75 0" stroke="#1e1e1e" stroke-width="2" fill="none"></path></g><g transform="translate(510.7706589125477 309.27890961745686) rotate(0 46.919944763183594 12.5)"><text x="46.919944763183594" y="17.52" font-family="Virgil, Segoe UI Emoji" font-size="20px" fill="#1e1e1e" text-anchor="middle" style="white-space: pre;" direction="ltr" dominant-baseline="alphabetic">TripTimes</text></g><g stroke-linecap="round" transform="translate(554.6906036757313 352.1781481104099) rotate(0 138.75000000000006 17.5)"><path d="M8.75 0 C82.57 0, 156.39 0, 268.75 0 M8.75 0 C73.66 0, 138.57 0, 268.75 0 M268.75 0 C274.58 0, 277.5 2.92, 277.5 8.75 M268.75 0 C274.58 0, 277.5 2.92, 277.5 8.75 M277.5 8.75 C277.5 12.78, 277.5 16.8, 277.5 26.25 M277.5 8.75 C277.5 13.52, 277.5 18.29, 277.5 26.25 M277.5 26.25 C277.5 32.08, 274.58 35, 268.75 35 M277.5 26.25 C277.5 32.08, 274.58 35, 268.75 35 M268.75 35 C201.59 35, 134.43 35, 8.75 35 M268.75 35 C212.9 35, 157.06 35, 8.75 35 M8.75 35 C2.92 35, 0 32.08, 0 26.25 M8.75 35 C2.92 35, 0 32.08, 0 26.25 M0 26.25 C0 21.91, 0 17.58, 0 8.75 M0 26.25 C0 21.18, 0 16.1, 0 8.75 M0 8.75 C0 2.92, 2.92 0, 8.75 0 M0 8.75 C0 2.92, 2.92 0, 8.75 0" stroke="#1e1e1e" stroke-width="2" fill="none"></path></g><g transform="translate(587.740705909618 357.1781481104099) rotate(0 105.69989776611334 12.5)"><text x="105.69989776611328" y="17.52" font-family="Virgil, Segoe UI Emoji" font-size="20px" fill="#1e1e1e" text-anchor="middle" style="white-space: pre;" direction="ltr" dominant-baseline="alphabetic">arrivalTimes per stop</text></g><g stroke-linecap="round" transform="translate(556.0421661757313 393.43408203125) rotate(0 137.83203124999994 17.5)"><path d="M8.75 0 C63.41 0, 118.06 0, 266.91 0 M8.75 0 C65.83 0, 122.91 0, 266.91 0 M266.91 0 C272.75 0, 275.66 2.92, 275.66 8.75 M266.91 0 C272.75 0, 275.66 2.92, 275.66 8.75 M275.66 8.75 C275.66 13.9, 275.66 19.04, 275.66 26.25 M275.66 8.75 C275.66 15.47, 275.66 22.2, 275.66 26.25 M275.66 26.25 C275.66 32.08, 272.75 35, 266.91 35 M275.66 26.25 C275.66 32.08, 272.75 35, 266.91 35 M266.91 35 C200.66 35, 134.41 35, 8.75 35 M266.91 35 C205.84 35, 144.77 35, 8.75 35 M8.75 35 C2.92 35, 0 32.08, 0 26.25 M8.75 35 C2.92 35, 0 32.08, 0 26.25 M0 26.25 C0 21.02, 0 15.79, 0 8.75 M0 26.25 C0 20.19, 0 14.13, 0 8.75 M0 8.75 C0 2.92, 2.92 0, 8.75 0 M0 8.75 C0 2.92, 2.92 0, 8.75 0" stroke="#1e1e1e" stroke-width="2" fill="none"></path></g><g transform="translate(572.0043243788563 398.43408203125) rotate(0 121.86987304687506 12.5)"><text x="121.869873046875" y="17.52" font-family="Virgil, Segoe UI Emoji" font-size="20px" fill="#1e1e1e" text-anchor="middle" style="white-space: pre;" direction="ltr" dominant-baseline="alphabetic">departureTimes per stop</text></g><g stroke-linecap="round" transform="translate(398.44060367573127 207.68408203125) rotate(0 100.75 41.875)"><path d="M20.94 0 C83.07 0, 145.21 0, 180.56 0 M20.94 0 C55.96 0, 90.98 0, 180.56 0 M180.56 0 C194.52 0, 201.5 6.98, 201.5 20.94 M180.56 0 C194.52 0, 201.5 6.98, 201.5 20.94 M201.5 20.94 C201.5 30.01, 201.5 39.08, 201.5 62.81 M201.5 20.94 C201.5 37.55, 201.5 54.16, 201.5 62.81 M201.5 62.81 C201.5 76.77, 194.52 83.75, 180.56 83.75 M201.5 62.81 C201.5 76.77, 194.52 83.75, 180.56 83.75 M180.56 83.75 C133.58 83.75, 86.59 83.75, 20.94 83.75 M180.56 83.75 C130.9 83.75, 81.23 83.75, 20.94 83.75 M20.94 83.75 C6.98 83.75, 0 76.77, 0 62.81 M20.94 83.75 C6.98 83.75, 0 76.77, 0 62.81 M0 62.81 C0 52.68, 0 42.55, 0 20.94 M0 62.81 C0 46.66, 0 30.51, 0 20.94 M0 20.94 C0 6.98, 6.98 0, 20.94 0 M0 20.94 C0 6.98, 6.98 0, 20.94 0" stroke="#1e1e1e" stroke-width="2" fill="none"></path></g><g transform="translate(451.6606506728016 212.68408203125) rotate(0 47.52995300292969 12.5)"><text x="47.52995300292969" y="17.52" font-family="Virgil, Segoe UI Emoji" font-size="20px" fill="#1e1e1e" text-anchor="middle" style="white-space: pre;" direction="ltr" dominant-baseline="alphabetic">Timetable</text></g><g mask="url(#mask-5h2Tk0yITMlM3pP0nEHD1)" stroke-linecap="round"><g transform="translate(431.4398601725077 283.2662543877959) rotate(0 20.89433665469005 19.86441766707378)"><path d="M0 0 C1.22 5.46, 0.33 26.13, 7.3 32.75 C14.26 39.37, 36.04 38.57, 41.79 39.73 M0 0 C1.22 5.46, 0.33 26.13, 7.3 32.75 C14.26 39.37, 36.04 38.57, 41.79 39.73" stroke="#1e1e1e" stroke-width="2" fill="none"></path></g><g transform="translate(431.4398601725077 283.2662543877959) rotate(0 20.89433665469005 19.86441766707378)"><path d="M24.79 44.26 C28.9 43.17, 33.01 42.07, 41.79 39.73 M24.79 44.26 C31.01 42.6, 37.24 40.94, 41.79 39.73" stroke="#1e1e1e" stroke-width="2" fill="none"></path></g><g transform="translate(431.4398601725077 283.2662543877959) rotate(0 20.89433665469005 19.86441766707378)"><path d="M25.85 32.28 C29.7 34.08, 33.56 35.88, 41.79 39.73 M25.85 32.28 C31.69 35, 37.52 37.73, 41.79 39.73" stroke="#1e1e1e" stroke-width="2" fill="none"></path></g></g><mask id="mask-5h2Tk0yITMlM3pP0nEHD1"><rect x="0" y="0" fill="#fff" width="573.2285334818878" height="422.9950897219435"></rect><rect x="429.48127417961473" y="306.01899995633744" fill="#000" width="18.511978149414062" height="20" opacity="1"></rect></mask><g transform="translate(429.48127417961473 306.01899995633744) rotate(0 22.852922647583 -2.8883279014677328)"><text x="9.255989074707031" y="14.016" font-family="Virgil, Segoe UI Emoji" font-size="16px" fill="#1e1e1e" text-anchor="middle" style="white-space: pre;" direction="ltr" dominant-baseline="alphabetic">1:N</text></g><g stroke-linecap="round"><g transform="translate(491.1719505479207 342.278909617457) rotate(0 31.259326563905347 14.60327161266082)"><path d="M0 0 C2.9 4.16, 6.98 20.1, 17.4 24.97 C27.82 29.83, 55 28.5, 62.52 29.21 M0 0 C2.9 4.16, 6.98 20.1, 17.4 24.97 C27.82 29.83, 55 28.5, 62.52 29.21" stroke="#1e1e1e" stroke-width="2" fill="none"></path></g><g transform="translate(491.1719505479207 342.278909617457) rotate(0 31.259326563905347 14.60327161266082)"><path d="M41.02 36.36 C49.23 33.63, 57.44 30.9, 62.52 29.21 M41.02 36.36 C49.53 33.53, 58.04 30.7, 62.52 29.21" stroke="#1e1e1e" stroke-width="2" fill="none"></path></g><g transform="translate(491.1719505479207 342.278909617457) rotate(0 31.259326563905347 14.60327161266082)"><path d="M41.45 20.87 C49.5 24.05, 57.54 27.24, 62.52 29.21 M41.45 20.87 C49.79 24.17, 58.13 27.47, 62.52 29.21" stroke="#1e1e1e" stroke-width="2" fill="none"></path></g></g><mask></mask><g stroke-linecap="round"><g transform="translate(489.3967308707197 341.91684065193976) rotate(0 31.82271765250573 35.2772253992523)"><path d="M0 0 C1.55 9.07, -1.31 42.67, 9.29 54.43 C19.9 66.19, 54.59 67.87, 63.65 70.55 M0 0 C1.55 9.07, -1.31 42.67, 9.29 54.43 C19.9 66.19, 54.59 67.87, 63.65 70.55" stroke="#1e1e1e" stroke-width="2" fill="none"></path></g><g transform="translate(489.3967308707197 341.91684065193976) rotate(0 31.82271765250573 35.2772253992523)"><path d="M39.02 74.85 C45.32 73.75, 51.61 72.65, 63.65 70.55 M39.02 74.85 C48.47 73.2, 57.92 71.55, 63.65 70.55" stroke="#1e1e1e" stroke-width="2" fill="none"></path></g><g transform="translate(489.3967308707197 341.91684065193976) rotate(0 31.82271765250573 35.2772253992523)"><path d="M42.02 58.02 C47.55 61.22, 53.08 64.43, 63.65 70.55 M42.02 58.02 C50.32 62.83, 58.62 67.64, 63.65 70.55" stroke="#1e1e1e" stroke-width="2" fill="none"></path></g></g><mask></mask><g mask="url(#mask-FsVTEGtkP8-9PGe0Zy07s)" stroke-linecap="round"><g transform="translate(351.1418901967004 182.01625438779593) rotate(0 21.149356739515383 30.680011225341616)"><path d="M0 0 C1.26 6.9, 0.5 31.19, 7.55 41.42 C14.6 51.64, 36.51 58.04, 42.3 61.36 M0 0 C1.26 6.9, 0.5 31.19, 7.55 41.42 C14.6 51.64, 36.51 58.04, 42.3 61.36" stroke="#1e1e1e" stroke-width="2" fill="none"></path></g><g transform="translate(351.1418901967004 182.01625438779593) rotate(0 21.149356739515383 30.680011225341616)"><path d="M22.31 60.05 C26.5 60.32, 30.7 60.6, 42.3 61.36 M22.31 60.05 C27.4 60.38, 32.49 60.72, 42.3 61.36" stroke="#1e1e1e" stroke-width="2" fill="none"></path></g><g transform="translate(351.1418901967004 182.01625438779593) rotate(0 21.149356739515383 30.680011225341616)"><path d="M27.83 47.51 C30.87 50.41, 33.9 53.32, 42.3 61.36 M27.83 47.51 C31.51 51.04, 35.2 54.56, 42.3 61.36" stroke="#1e1e1e" stroke-width="2" fill="none"></path></g></g><mask id="mask-FsVTEGtkP8-9PGe0Zy07s"><rect x="0" y="0" fill="#fff" width="493.44060367573115" height="343.37627683847916"></rect><rect x="349.4346146010241" y="213.43408203125" fill="#000" width="18.511978149414062" height="20" opacity="1"></rect></mask><g transform="translate(349.4346146010241 213.43408203125) rotate(0 22.856632335191648 -0.7378164181124589)"><text x="9.255989074707031" y="14.016" font-family="Virgil, Segoe UI Emoji" font-size="16px" fill="#1e1e1e" text-anchor="middle" style="white-space: pre;" direction="ltr" dominant-baseline="alphabetic">1:N</text></g><g stroke-linecap="round"><g transform="translate(297.55939632426873 46) rotate(0 0 195.63312719389796)"><path d="M1.52 0.28 C2.14 65.55, 2.35 328.99, 1.86 393.97" stroke="#1e1e1e" stroke-width="2.5" fill="none" stroke-dasharray="1.5 8"></path></g></g><mask></mask><g transform="translate(386.55939632426873 56) rotate(0 64.74400329589844 10)"><text x="0" y="14.016" font-family="Virgil, Segoe UI Emoji" font-size="16px" fill="#1e1e1e" text-anchor="start" style="white-space: pre;" direction="ltr" dominant-baseline="alphabetic">LIVE SNAPSHOT</text></g><g transform="translate(93.55939632426873 54) rotate(0 31.527997970581055 10)"><text x="0" y="14.016" font-family="Virgil, Segoe UI Emoji" font-size="16px" fill="#1e1e1e" text-anchor="start" style="white-space: pre;" direction="ltr" dominant-baseline="alphabetic">BUFFER</text></g><g transform="translate(192.55939632426873 10) rotate(0 105.51200103759766 10)"><text x="0" y="14.016" font-family="Virgil, Segoe UI Emoji" font-size="16px" fill="#1e1e1e" text-anchor="start" style="white-space: pre;" direction="ltr" dominant-baseline="alphabetic">TimetableSnapshotManager</text></g><g stroke-linecap="round" transform="translate(411.49999999999966 242.26625438779593) rotate(0 88.50000000000011 20)"><path d="M10 0 C61.83 0, 113.66 0, 167 0 M10 0 C56.96 0, 103.92 0, 167 0 M167 0 C173.67 0, 177 3.33, 177 10 M167 0 C173.67 0, 177 3.33, 177 10 M177 10 C177 14.27, 177 18.54, 177 30 M177 10 C177 15.55, 177 21.09, 177 30 M177 30 C177 36.67, 173.67 40, 167 40 M177 30 C177 36.67, 173.67 40, 167 40 M167 40 C120.9 40, 74.81 40, 10 40 M167 40 C130.02 40, 93.05 40, 10 40 M10 40 C3.33 40, 0 36.67, 0 30 M10 40 C3.33 40, 0 36.67, 0 30 M0 30 C0 25.84, 0 21.67, 0 10 M0 30 C0 24.5, 0 19.01, 0 10 M0 10 C0 3.33, 3.33 0, 10 0 M0 10 C0 3.33, 3.33 0, 10 0" stroke="#1e1e1e" stroke-width="2" fill="none"></path></g><g transform="translate(438.3360443115232 252.26625438779593) rotate(0 61.66395568847656 10)"><text x="61.66395568847656" y="14.016" font-family="Virgil, Segoe UI Emoji" font-size="16px" fill="#1e1e1e" text-anchor="middle" style="white-space: pre;" direction="ltr" dominant-baseline="alphabetic">List&lt;TripTimes&gt;</text></g><g stroke-linecap="round" transform="translate(672.5 303.5162543877959) rotate(0 73.75 17.5)"><path d="M8.75 0 C40.26 0, 71.78 0, 138.75 0 M8.75 0 C51.89 0, 95.04 0, 138.75 0 M138.75 0 C144.58 0, 147.5 2.92, 147.5 8.75 M138.75 0 C144.58 0, 147.5 2.92, 147.5 8.75 M147.5 8.75 C147.5 14.61, 147.5 20.46, 147.5 26.25 M147.5 8.75 C147.5 13.09, 147.5 17.43, 147.5 26.25 M147.5 26.25 C147.5 32.08, 144.58 35, 138.75 35 M147.5 26.25 C147.5 32.08, 144.58 35, 138.75 35 M138.75 35 C93.61 35, 48.46 35, 8.75 35 M138.75 35 C93.12 35, 47.48 35, 8.75 35 M8.75 35 C2.92 35, 0 32.08, 0 26.25 M8.75 35 C2.92 35, 0 32.08, 0 26.25 M0 26.25 C0 20.99, 0 15.72, 0 8.75 M0 26.25 C0 21.87, 0 17.48, 0 8.75 M0 8.75 C0 2.92, 2.92 0, 8.75 0 M0 8.75 C0 2.92, 2.92 0, 8.75 0" stroke="#1e1e1e" stroke-width="2" fill="none"></path></g><g transform="translate(726.7900238037109 308.5162543877959) rotate(0 19.459976196289062 12.5)"><text x="19.459976196289062" y="17.52" font-family="Virgil, Segoe UI Emoji" font-size="20px" fill="#1e1e1e" text-anchor="middle" style="white-space: pre;" direction="ltr" dominant-baseline="alphabetic">Trip</text></g><g stroke-linecap="round"><g transform="translate(638.7499999999999 323.5162543877959) rotate(0 16.375000000000057 0)"><path d="M0 0 C5.46 0, 27.29 0, 32.75 0 M0 0 C5.46 0, 27.29 0, 32.75 0" stroke="#1e1e1e" stroke-width="2" fill="none"></path></g><g transform="translate(638.7499999999999 323.5162543877959) rotate(0 16.375000000000057 0)"><path d="M17.36 5.6 C22.54 3.72, 27.72 1.83, 32.75 0 M17.36 5.6 C22.83 3.61, 28.29 1.62, 32.75 0" stroke="#1e1e1e" stroke-width="2" fill="none"></path></g><g transform="translate(638.7499999999999 323.5162543877959) rotate(0 16.375000000000057 0)"><path d="M17.36 -5.6 C22.54 -3.72, 27.72 -1.83, 32.75 0 M17.36 -5.6 C22.83 -3.61, 28.29 -1.62, 32.75 0" stroke="#1e1e1e" stroke-width="2" fill="none"></path></g></g><mask></mask><g stroke-linecap="round" transform="translate(10 94.14125438779593) rotate(0 119.375 50.625)"><path d="M25.31 0 C95.49 0, 165.66 0, 213.44 0 C230.31 0, 238.75 8.44, 238.75 25.31 C238.75 41.05, 238.75 56.78, 238.75 75.94 C238.75 92.81, 230.31 101.25, 213.44 101.25 C160.67 101.25, 107.9 101.25, 25.31 101.25 C8.44 101.25, 0 92.81, 0 75.94 C0 56.01, 0 36.08, 0 25.31 C0 8.44, 8.44 0, 25.31 0" stroke="none" stroke-width="0" fill="#a5d8ff"></path><path d="M25.31 0 C68.25 0, 111.2 0, 213.44 0 M25.31 0 C70.47 0, 115.64 0, 213.44 0 M213.44 0 C230.31 0, 238.75 8.44, 238.75 25.31 M213.44 0 C230.31 0, 238.75 8.44, 238.75 25.31 M238.75 25.31 C238.75 44.71, 238.75 64.1, 238.75 75.94 M238.75 25.31 C238.75 40.93, 238.75 56.56, 238.75 75.94 M238.75 75.94 C238.75 92.81, 230.31 101.25, 213.44 101.25 M238.75 75.94 C238.75 92.81, 230.31 101.25, 213.44 101.25 M213.44 101.25 C161.3 101.25, 109.17 101.25, 25.31 101.25 M213.44 101.25 C151.95 101.25, 90.47 101.25, 25.31 101.25 M25.31 101.25 C8.44 101.25, 0 92.81, 0 75.94 M25.31 101.25 C8.44 101.25, 0 92.81, 0 75.94 M0 75.94 C0 60.02, 0 44.11, 0 25.31 M0 75.94 C0 56.53, 0 37.11, 0 25.31 M0 25.31 C0 8.44, 8.44 0, 25.31 0 M0 25.31 C0 8.44, 8.44 0, 25.31 0" stroke="#1e1e1e" stroke-width="2" fill="none"></path></g><g transform="translate(35.27509307861328 99.14125438779593) rotate(0 94.09990692138672 12.5)"><text x="94.09990692138672" y="17.52" font-family="Virgil, Segoe UI Emoji" font-size="20px" fill="#1e1e1e" text-anchor="middle" style="white-space: pre;" direction="ltr" dominant-baseline="alphabetic">TimetableSnapshot'</text></g><g stroke-linecap="round" transform="translate(24.43439632426862 132.97342674434185) rotate(0 106.00000000000006 25)"><path d="M12.5 0 C86.1 0, 159.7 0, 199.5 0 C207.83 0, 212 4.17, 212 12.5 C212 20.11, 212 27.73, 212 37.5 C212 45.83, 207.83 50, 199.5 50 C158.6 50, 117.7 50, 12.5 50 C4.17 50, 0 45.83, 0 37.5 C0 30.51, 0 23.53, 0 12.5 C0 4.17, 4.17 0, 12.5 0" stroke="none" stroke-width="0" fill="#a5d8ff"></path><path d="M12.5 0 C52.78 0, 93.06 0, 199.5 0 M12.5 0 C80.84 0, 149.18 0, 199.5 0 M199.5 0 C207.83 0, 212 4.17, 212 12.5 M199.5 0 C207.83 0, 212 4.17, 212 12.5 M212 12.5 C212 21.84, 212 31.18, 212 37.5 M212 12.5 C212 18.3, 212 24.1, 212 37.5 M212 37.5 C212 45.83, 207.83 50, 199.5 50 M212 37.5 C212 45.83, 207.83 50, 199.5 50 M199.5 50 C158.52 50, 117.54 50, 12.5 50 M199.5 50 C149.35 50, 99.2 50, 12.5 50 M12.5 50 C4.17 50, 0 45.83, 0 37.5 M12.5 50 C4.17 50, 0 45.83, 0 37.5 M0 37.5 C0 30.59, 0 23.68, 0 12.5 M0 37.5 C0 29.57, 0 21.64, 0 12.5 M0 12.5 C0 4.17, 4.17 0, 12.5 0 M0 12.5 C0 4.17, 4.17 0, 12.5 0" stroke="#1e1e1e" stroke-width="2" fill="none"></path></g><g transform="translate(30.458459434620238 137.97342674434185) rotate(0 99.97593688964841 20)"><text x="99.97593688964844" y="14.016" font-family="Virgil, Segoe UI Emoji" font-size="16px" fill="#1e1e1e" text-anchor="middle" style="white-space: pre;" direction="ltr" dominant-baseline="alphabetic">Map</text><text x="99.97593688964844" y="34.016" font-family="Virgil, Segoe UI Emoji" font-size="16px" fill="#1e1e1e" text-anchor="middle" style="white-space: pre;" direction="ltr" dominant-baseline="alphabetic">TripPattern -&gt; Timetable</text></g><g mask="url(#mask-AKspao2VjkV_4HoqeUDxG)" stroke-linecap="round"><g transform="translate(132.67451163251258 183.97342674434196) rotate(0 131.1627441837436 37.55501122534167)"><path d="M0 0 C10.22 10.44, 17.6 50.15, 61.33 62.67 C105.05 75.19, 228.83 73.04, 262.33 75.11 M0 0 C10.22 10.44, 17.6 50.15, 61.33 62.67 C105.05 75.19, 228.83 73.04, 262.33 75.11" stroke="#1e1e1e" stroke-width="2" fill="none"></path></g><g transform="translate(132.67451163251258 183.97342674434196) rotate(0 131.1627441837436 37.55501122534167)"><path d="M238.63 83.08 C246.73 80.35, 254.83 77.63, 262.33 75.11 M238.63 83.08 C248.03 79.92, 257.43 76.75, 262.33 75.11" stroke="#1e1e1e" stroke-width="2" fill="none"></path></g><g transform="translate(132.67451163251258 183.97342674434196) rotate(0 131.1627441837436 37.55501122534167)"><path d="M239.05 65.98 C247.01 69.1, 254.96 72.22, 262.33 75.11 M239.05 65.98 C248.29 69.6, 257.52 73.23, 262.33 75.11" stroke="#1e1e1e" stroke-width="2" fill="none"></path></g></g><mask id="mask-AKspao2VjkV_4HoqeUDxG"><rect x="0" y="0" fill="#fff" width="494.9999999999998" height="359.0834491950253"></rect><rect x="184.74401092529274" y="236.6412543877958" fill="#000" width="18.511978149414062" height="20" opacity="1"></rect></mask><g transform="translate(184.74401092529274 236.64125438779593) rotate(0 79.09324489096343 -15.112816418112288)"><text x="9.255989074707031" y="14.016" font-family="Virgil, Segoe UI Emoji" font-size="16px" fill="#1e1e1e" text-anchor="middle" style="white-space: pre;" direction="ltr" dominant-baseline="alphabetic">1:N</text></g></svg>