<svg version="1.1" xmlns="http://www.w3.org/2000/svg" viewBox="0 0 899.3812073514625 347.03250877559185" width="1798.762414702925" height="694.0650175511837">
  <!-- svg-source:excalidraw -->
  
  <defs>
    <style class="style-fonts">
      @font-face {
        font-family: "Virgil";
        src: url("https://excalidraw.com/Virgil.woff2");
      }
      @font-face {
        font-family: "Cascadia";
        src: url("https://excalidraw.com/Cascadia.woff2");
      }
      @font-face {
        font-family: "Assistant";
        src: url("https://excalidraw.com/Assistant-Regular.woff2");
      }
    </style>
    
  </defs>
  <rect x="0" y="0" width="899.3812073514625" height="347.03250877559185" fill="#ffffff"></rect><g stroke-linecap="round" transform="translate(329.38120735146265 94.68408203125) rotate(0 140 17.5)"><path d="M8.75 0 C107.44 0, 206.13 0, 271.25 0 M8.75 0 C111.97 0, 215.18 0, 271.25 0 M271.25 0 C277.08 0, 280 2.92, 280 8.75 M271.25 0 C277.08 0, 280 2.92, 280 8.75 M280 8.75 C280 12.99, 280 17.22, 280 26.25 M280 8.75 C280 13.67, 280 18.59, 280 26.25 M280 26.25 C280 32.08, 277.08 35, 271.25 35 M280 26.25 C280 32.08, 277.08 35, 271.25 35 M271.25 35 C215.53 35, 159.82 35, 8.75 35 M271.25 35 C182.77 35, 94.29 35, 8.75 35 M8.75 35 C2.92 35, 0 32.08, 0 26.25 M8.75 35 C2.92 35, 0 32.08, 0 26.25 M0 26.25 C0 20.74, 0 15.22, 0 8.75 M0 26.25 C0 20.29, 0 14.33, 0 8.75 M0 8.75 C0 2.92, 2.92 0, 8.75 0 M0 8.75 C0 2.92, 2.92 0, 8.75 0" stroke="#1e1e1e" stroke-width="2" fill="none"></path></g><g transform="translate(377.9412049100564 99.68408203125) rotate(0 91.44000244140625 12.5)"><text x="91.44000244140625" y="17.52" font-family="Virgil, Segoe UI Emoji" font-size="20px" fill="#1e1e1e" text-anchor="middle" style="white-space: pre;" direction="ltr" dominant-baseline="alphabetic">TimetableSnapshot</text></g><g stroke-linecap="round" transform="translate(492.38120735146265 205.52890961745686) rotate(0 197.49999999999994 17.5)"><path d="M8.75 0 C90.72 0, 172.69 0, 386.25 0 M8.75 0 C146.99 0, 285.23 0, 386.25 0 M386.25 0 C392.08 0, 395 2.92, 395 8.75 M386.25 0 C392.08 0, 395 2.92, 395 8.75 M395 8.75 C395 13.03, 395 17.31, 395 26.25 M395 8.75 C395 13.52, 395 18.3, 395 26.25 M395 26.25 C395 32.08, 392.08 35, 386.25 35 M395 26.25 C395 32.08, 392.08 35, 386.25 35 M386.25 35 C262.63 35, 139.01 35, 8.75 35 M386.25 35 C281.94 35, 177.64 35, 8.75 35 M8.75 35 C2.92 35, 0 32.08, 0 26.25 M8.75 35 C2.92 35, 0 32.08, 0 26.25 M0 26.25 C0 21.55, 0 16.86, 0 8.75 M0 26.25 C0 22.27, 0 18.29, 0 8.75 M0 8.75 C0 2.92, 2.92 0, 8.75 0 M0 8.75 C0 2.92, 2.92 0, 8.75 0" stroke="#1e1e1e" stroke-width="2" fill="none"></path></g><g transform="translate(503.55120552040796 210.52890961745686) rotate(0 186.33000183105463 12.5)"><text x="186.3300018310547" y="17.52" font-family="Virgil, Segoe UI Emoji" font-size="20px" fill="#1e1e1e" text-anchor="middle" style="white-space: pre;" direction="ltr" dominant-baseline="alphabetic">Scheduled/RealTimeTripTimes per Trip</text></g><g stroke-linecap="round" transform="translate(569.3812073514626 253.4281481104099) rotate(0 159.99999999999994 17.5)"><path d="M8.75 0 C112.14 0, 215.52 0, 311.25 0 M8.75 0 C87.83 0, 166.9 0, 311.25 0 M311.25 0 C317.08 0, 320 2.92, 320 8.75 M311.25 0 C317.08 0, 320 2.92, 320 8.75 M320 8.75 C320 12.79, 320 16.82, 320 26.25 M320 8.75 C320 13.93, 320 19.1, 320 26.25 M320 26.25 C320 32.08, 317.08 35, 311.25 35 M320 26.25 C320 32.08, 317.08 35, 311.25 35 M311.25 35 C202.3 35, 93.35 35, 8.75 35 M311.25 35 C233.22 35, 155.18 35, 8.75 35 M8.75 35 C2.92 35, 0 32.08, 0 26.25 M8.75 35 C2.92 35, 0 32.08, 0 26.25 M0 26.25 C0 20.17, 0 14.1, 0 8.75 M0 26.25 C0 19.61, 0 12.96, 0 8.75 M0 8.75 C0 2.92, 2.92 0, 8.75 0 M0 8.75 C0 2.92, 2.92 0, 8.75 0" stroke="#1e1e1e" stroke-width="2" fill="none"></path></g><g transform="translate(623.6811951444314 258.4281481104099) rotate(0 105.7000122070312 12.5)"><text x="105.70001220703125" y="17.52" font-family="Virgil, Segoe UI Emoji" font-size="20px" fill="#1e1e1e" text-anchor="middle" style="white-space: pre;" direction="ltr" dominant-baseline="alphabetic">arrivalTimes per stop</text></g><g stroke-linecap="round" transform="translate(572.3812073514626 293.68408203125) rotate(0 157.49999999999994 17.5)"><path d="M8.75 0 C109.14 0, 209.54 0, 306.25 0 M8.75 0 C75.66 0, 142.57 0, 306.25 0 M306.25 0 C312.08 0, 315 2.92, 315 8.75 M306.25 0 C312.08 0, 315 2.92, 315 8.75 M315 8.75 C315 12.71, 315 16.68, 315 26.25 M315 8.75 C315 13.39, 315 18.03, 315 26.25 M315 26.25 C315 32.08, 312.08 35, 306.25 35 M315 26.25 C315 32.08, 312.08 35, 306.25 35 M306.25 35 C217.91 35, 129.56 35, 8.75 35 M306.25 35 C218.58 35, 130.92 35, 8.75 35 M8.75 35 C2.92 35, 0 32.08, 0 26.25 M8.75 35 C2.92 35, 0 32.08, 0 26.25 M0 26.25 C0 20.64, 0 15.03, 0 8.75 M0 26.25 C0 20.38, 0 14.52, 0 8.75 M0 8.75 C0 2.92, 2.92 0, 8.75 0 M0 8.75 C0 2.92, 2.92 0, 8.75 0" stroke="#1e1e1e" stroke-width="2" fill="none"></path></g><g transform="translate(608.0111969754861 298.68408203125) rotate(0 121.8700103759765 12.5)"><text x="121.87001037597656" y="17.52" font-family="Virgil, Segoe UI Emoji" font-size="20px" fill="#1e1e1e" text-anchor="middle" style="white-space: pre;" direction="ltr" dominant-baseline="alphabetic">departureTimes per stop</text></g><g stroke-linecap="round" transform="translate(404.38120735146265 152.68408203125) rotate(0 136.99999999999994 17.5)"><path d="M8.75 0 C67.84 0, 126.93 0, 265.25 0 M8.75 0 C103.68 0, 198.6 0, 265.25 0 M265.25 0 C271.08 0, 274 2.92, 274 8.75 M265.25 0 C271.08 0, 274 2.92, 274 8.75 M274 8.75 C274 12.57, 274 16.39, 274 26.25 M274 8.75 C274 14.98, 274 21.21, 274 26.25 M274 26.25 C274 32.08, 271.08 35, 265.25 35 M274 26.25 C274 32.08, 271.08 35, 265.25 35 M265.25 35 C182.26 35, 99.28 35, 8.75 35 M265.25 35 C173.73 35, 82.2 35, 8.75 35 M8.75 35 C2.92 35, 0 32.08, 0 26.25 M8.75 35 C2.92 35, 0 32.08, 0 26.25 M0 26.25 C0 21.89, 0 17.52, 0 8.75 M0 26.25 C0 22.68, 0 19.12, 0 8.75 M0 8.75 C0 2.92, 2.92 0, 8.75 0 M0 8.75 C0 2.92, 2.92 0, 8.75 0" stroke="#1e1e1e" stroke-width="2" fill="none"></path></g><g transform="translate(493.8512047574685 157.68408203125) rotate(0 47.53000259399414 12.5)"><text x="47.53000259399414" y="17.52" font-family="Virgil, Segoe UI Emoji" font-size="20px" fill="#1e1e1e" text-anchor="middle" style="white-space: pre;" direction="ltr" dominant-baseline="alphabetic">Timetable</text></g><g mask="url(#mask-eEB94w4lmv7yE_xEghxha)" stroke-linecap="round"><g transform="translate(454.17382999423285 189.44270272090512) rotate(0 18.12265358169327 17.354290674788444)"><path d="M0 0 C0.71 3.8, -1.79 17.04, 4.25 22.83 C10.29 28.61, 30.91 32.73, 36.25 34.71 M0 0 C0.71 3.8, -1.79 17.04, 4.25 22.83 C10.29 28.61, 30.91 32.73, 36.25 34.71" stroke="#1e1e1e" stroke-width="2" fill="none"></path></g><g transform="translate(454.17382999423285 189.44270272090512) rotate(0 18.12265358169327 17.354290674788444)"><path d="M19.22 35.86 C23.16 35.6, 27.1 35.33, 36.25 34.71 M19.22 35.86 C23.18 35.59, 27.14 35.33, 36.25 34.71" stroke="#1e1e1e" stroke-width="2" fill="none"></path></g><g transform="translate(454.17382999423285 189.44270272090512) rotate(0 18.12265358169327 17.354290674788444)"><path d="M22.46 24.65 C25.65 26.98, 28.84 29.31, 36.25 34.71 M22.46 24.65 C25.67 26.99, 28.87 29.33, 36.25 34.71" stroke="#1e1e1e" stroke-width="2" fill="none"></path></g></g><mask id="mask-eEB94w4lmv7yE_xEghxha"><rect x="0" y="0" fill="#fff" width="590.4191371576194" height="324.151284070482"></rect><rect x="449.17186641125454" y="202.26899995633744" fill="#000" width="18.512001037597656" height="20" opacity="1"></rect></mask><g transform="translate(449.17186641125454 202.26899995633744) rotate(0 23.124617164671577 4.527993439356123)"><text x="9.256000518798828" y="14.016" font-family="Virgil, Segoe UI Emoji" font-size="16px" fill="#1e1e1e" text-anchor="middle" style="white-space: pre;" direction="ltr" dominant-baseline="alphabetic">1:N</text></g><g stroke-linecap="round"><g transform="translate(517.8921159805645 243.52890961745686) rotate(0 25.244545685448998 14.42324502738603)"><path d="M0 0 C0.89 4.16, -3.05 20.16, 5.37 24.97 C13.78 29.77, 42.97 28.2, 50.49 28.85 M0 0 C0.89 4.16, -3.05 20.16, 5.37 24.97 C13.78 29.77, 42.97 28.2, 50.49 28.85" stroke="#1e1e1e" stroke-width="2" fill="none"></path></g><g transform="translate(517.8921159805645 243.52890961745686) rotate(0 25.244545685448998 14.42324502738603)"><path d="M29.07 36.19 C33.46 34.69, 37.85 33.18, 50.49 28.85 M29.07 36.19 C36.15 33.76, 43.24 31.33, 50.49 28.85" stroke="#1e1e1e" stroke-width="2" fill="none"></path></g><g transform="translate(517.8921159805645 243.52890961745686) rotate(0 25.244545685448998 14.42324502738603)"><path d="M29.36 20.7 C33.69 22.37, 38.02 24.04, 50.49 28.85 M29.36 20.7 C36.35 23.4, 43.33 26.09, 50.49 28.85" stroke="#1e1e1e" stroke-width="2" fill="none"></path></g></g><mask></mask><g stroke-linecap="round"><g transform="translate(516.8930221451047 243.16684065193965) rotate(0 24.48818520635791 34.680204618492894)"><path d="M0 0 C-0.59 9.07, -12.26 42.87, -3.51 54.43 C5.24 65.99, 43.15 66.87, 52.49 69.36 M0 0 C-0.59 9.07, -12.26 42.87, -3.51 54.43 C5.24 65.99, 43.15 66.87, 52.49 69.36" stroke="#1e1e1e" stroke-width="2" fill="none"></path></g><g transform="translate(516.8930221451047 243.16684065193965) rotate(0 24.48818520635791 34.680204618492894)"><path d="M28 74.41 C36.53 72.65, 45.05 70.89, 52.49 69.36 M28 74.41 C33.34 73.31, 38.69 72.21, 52.49 69.36" stroke="#1e1e1e" stroke-width="2" fill="none"></path></g><g transform="translate(516.8930221451047 243.16684065193965) rotate(0 24.48818520635791 34.680204618492894)"><path d="M30.49 57.49 C38.15 61.62, 45.81 65.76, 52.49 69.36 M30.49 57.49 C35.29 60.08, 40.09 62.67, 52.49 69.36" stroke="#1e1e1e" stroke-width="2" fill="none"></path></g></g><mask></mask><g mask="url(#mask-uaZ9cZoHWJ7RQE9WQPtl_)" stroke-linecap="round"><g transform="translate(359.29470952874703 130.68408203125) rotate(0 20.04324891135775 19.41877913985303)"><path d="M0 0 C0.68 4.83, -2.59 22.53, 4.09 29 C10.77 35.47, 34.09 37.2, 40.09 38.84 M0 0 C0.68 4.83, -2.59 22.53, 4.09 29 C10.77 35.47, 34.09 37.2, 40.09 38.84" stroke="#1e1e1e" stroke-width="2" fill="none"></path></g></g><mask id="mask-uaZ9cZoHWJ7RQE9WQPtl_"><rect x="0" y="0" fill="#fff" width="499.38120735146254" height="269.52164031095606"></rect><rect x="354.1252068326637" y="149.68408203125" fill="#000" width="18.512001037597656" height="20" opacity="1"></rect></mask><g transform="translate(354.1252068326637 149.68408203125) rotate(0 25.10393391160102 0.4187791398530294)"><text x="9.256000518798828" y="14.016" font-family="Virgil, Segoe UI Emoji" font-size="16px" fill="#1e1e1e" text-anchor="middle" style="white-space: pre;" direction="ltr" dominant-baseline="alphabetic">1:N</text></g><g stroke-linecap="round" transform="translate(10 96) rotate(0 140 17.5)"><path d="M8.75 0 C102.79 0, 196.83 0, 271.25 0 C277.08 0, 280 2.92, 280 8.75 C280 13.24, 280 17.73, 280 26.25 C280 32.08, 277.08 35, 271.25 35 C171.15 35, 71.05 35, 8.75 35 C2.92 35, 0 32.08, 0 26.25 C0 21.96, 0 17.67, 0 8.75 C0 2.92, 2.92 0, 8.75 0" stroke="none" stroke-width="0" fill="#a5d8ff"></path><path d="M8.75 0 C72.53 0, 136.31 0, 271.25 0 M8.75 0 C70.96 0, 133.16 0, 271.25 0 M271.25 0 C277.08 0, 280 2.92, 280 8.75 M271.25 0 C277.08 0, 280 2.92, 280 8.75 M280 8.75 C280 13.81, 280 18.88, 280 26.25 M280 8.75 C280 14.94, 280 21.12, 280 26.25 M280 26.25 C280 32.08, 277.08 35, 271.25 35 M280 26.25 C280 32.08, 277.08 35, 271.25 35 M271.25 35 C190.95 35, 110.66 35, 8.75 35 M271.25 35 C215.63 35, 160.01 35, 8.75 35 M8.75 35 C2.92 35, 0 32.08, 0 26.25 M8.75 35 C2.92 35, 0 32.08, 0 26.25 M0 26.25 C0 19.62, 0 12.98, 0 8.75 M0 26.25 C0 21.19, 0 16.12, 0 8.75 M0 8.75 C0 2.92, 2.92 0, 8.75 0 M0 8.75 C0 2.92, 2.92 0, 8.75 0" stroke="#1e1e1e" stroke-width="2" fill="none"></path></g><g transform="translate(55.899993896484375 101) rotate(0 94.10000610351562 12.5)"><text x="94.10000610351562" y="17.52" font-family="Virgil, Segoe UI Emoji" font-size="20px" fill="#1e1e1e" text-anchor="middle" style="white-space: pre;" direction="ltr" dominant-baseline="alphabetic">TimetableSnapshot'</text></g><g mask="url(#mask-VaujyLQAE-M_FpUK_EYrU)" stroke-linecap="round"><g transform="translate(93.9135021772845 133.00000000000006) rotate(0 153.04324891135775 16.99999999999997)"><path d="M0 0 C3.85 5.67, -27.93 28.36, 23.09 34 C74.1 39.64, 258.92 33.86, 306.09 33.84 M0 0 C3.85 5.67, -27.93 28.36, 23.09 34 C74.1 39.64, 258.92 33.86, 306.09 33.84" stroke="#1e1e1e" stroke-width="2" fill="none"></path></g><g transform="translate(93.9135021772845 133.00000000000006) rotate(0 153.04324891135775 16.99999999999997)"><path d="M282.73 42.75 C291.15 39.54, 299.57 36.32, 306.09 33.84 M282.73 42.75 C290.6 39.75, 298.47 36.74, 306.09 33.84" stroke="#1e1e1e" stroke-width="2" fill="none"></path></g><g transform="translate(93.9135021772845 133.00000000000006) rotate(0 153.04324891135775 16.99999999999997)"><path d="M282.47 25.65 C290.98 28.6, 299.5 31.55, 306.09 33.84 M282.47 25.65 C290.42 28.41, 298.38 31.17, 306.09 33.84" stroke="#1e1e1e" stroke-width="2" fill="none"></path></g></g><mask id="mask-VaujyLQAE-M_FpUK_EYrU"><rect x="0" y="0" fill="#fff" width="500" height="267"></rect><rect x="107.74399948120117" y="156.99999999999994" fill="#000" width="18.512001037597656" height="20" opacity="1"></rect></mask><g transform="translate(107.74399948120123 157) rotate(0 136.07055557646817 -5.764544794734576)"><text x="9.256000518798828" y="14.016" font-family="Virgil, Segoe UI Emoji" font-size="16px" fill="#1e1e1e" text-anchor="middle" style="white-space: pre;" direction="ltr" dominant-baseline="alphabetic">1:N</text></g><g stroke-linecap="round"><g transform="translate(307.2500000000001 48.5) rotate(0 5.684341886080802e-14 145.125)"><path d="M-0.24 -1.4 C0.02 46.57, -0.52 240.29, -0.92 288.53" stroke="#1e1e1e" stroke-width="2.5" fill="none" stroke-dasharray="1.5 8"></path></g></g><mask></mask><g transform="translate(396.2500000000001 58.5) rotate(0 64.74400329589844 10)"><text x="0" y="14.016" font-family="Virgil, Segoe UI Emoji" font-size="16px" fill="#1e1e1e" text-anchor="start" style="white-space: pre;" direction="ltr" dominant-baseline="alphabetic">LIVE SNAPSHOT</text></g><g transform="translate(103.25000000000011 56.5) rotate(0 31.527997970581055 10)"><text x="0" y="14.016" font-family="Virgil, Segoe UI Emoji" font-size="16px" fill="#1e1e1e" text-anchor="start" style="white-space: pre;" direction="ltr" dominant-baseline="alphabetic">BUFFER</text></g><g transform="translate(182.2500000000001 10) rotate(0 131.88999938964844 12.5)"><text x="0" y="17.52" font-family="Virgil, Segoe UI Emoji" font-size="20px" fill="#1e1e1e" text-anchor="start" style="white-space: pre;" direction="ltr" dominant-baseline="alphabetic">TimetableSnapshotManager</text></g></svg>