<svg version="1.1" xmlns="http://www.w3.org/2000/svg" viewBox="0 0 973.3686061487206 809.84765625" width="973.3686061487206" height="809.84765625">
  <!-- svg-source:excalidraw -->
  
  <defs>
    <style class="style-fonts">
      @font-face {
        font-family: "Virgil";
        src: url("https://excalidraw.com/Virgil.woff2");
      }
      @font-face {
        font-family: "Cascadia";
        src: url("https://excalidraw.com/Cascadia.woff2");
      }
      @font-face {
        font-family: "Assistant";
        src: url("https://excalidraw.com/Assistant-Regular.woff2");
      }
    </style>
    
  </defs>
  <rect x="0" y="0" width="973.3686061487206" height="809.84765625" fill="#ffffff"></rect><g stroke-linecap="round"><g transform="translate(162.3810617450548 403.3365669790845) rotate(0 -0.17584021046860698 37.17491406899535)"><path d="M0.36 1.1 C0.18 13.64, -1.01 63.21, -1.28 75.45 M-0.91 0.63 C-0.71 12.84, 0.6 61.34, 0.94 73.9" stroke="#000000" stroke-width="1" fill="none"></path></g><g transform="translate(162.3810617450548 403.3365669790845) rotate(0 -0.17584021046860698 37.17491406899535)"><path d="M-8.24 50.65 C-3.73 55.74, -1.1 62.42, 0.94 73.9 M-8.24 50.65 C-5.05 57.37, -2.92 65.04, 0.94 73.9" stroke="#000000" stroke-width="1" fill="none"></path></g><g transform="translate(162.3810617450548 403.3365669790845) rotate(0 -0.17584021046860698 37.17491406899535)"><path d="M8.86 50.19 C8.47 55.46, 6.2 62.28, 0.94 73.9 M8.86 50.19 C6.61 57.14, 3.32 64.96, 0.94 73.9" stroke="#000000" stroke-width="1" fill="none"></path></g></g><mask></mask><g stroke-linecap="round" transform="translate(10 482.22265625) rotate(0 150.408203125 158.8125)"><path d="M157.01 -0.48 C172.1 -2.32, 189.21 5, 203.54 10.72 C217.87 16.44, 230.82 23.82, 242.98 33.86 C255.14 43.9, 267.64 57.33, 276.51 70.97 C285.37 84.62, 292.08 100.06, 296.18 115.73 C300.28 131.4, 301.9 148.55, 301.1 164.99 C300.3 181.44, 296.88 198.9, 291.36 214.42 C285.84 229.94, 277.44 245.47, 267.96 258.13 C258.48 270.79, 247.36 281.54, 234.49 290.37 C221.62 299.2, 205.79 306.58, 190.75 311.1 C175.7 315.62, 159.76 318.13, 144.21 317.51 C128.65 316.89, 111.89 313.25, 97.42 307.4 C82.95 301.56, 69.48 292.47, 57.4 282.45 C45.32 272.43, 33.5 260.61, 24.95 247.27 C16.41 233.92, 10.34 218.08, 6.14 202.37 C1.94 186.67, -0.71 169.43, -0.24 153.04 C0.24 136.64, 3.43 119.48, 8.98 104.02 C14.54 88.57, 23.35 73.34, 33.09 60.3 C42.84 47.27, 54.71 34.83, 67.43 25.79 C80.14 16.76, 92.24 10.29, 109.36 6.11 C126.49 1.92, 157.85 0.6, 170.16 0.69 C182.47 0.78, 183.63 3.81, 183.22 6.64 M110.39 5.08 C123.51 -1.64, 140.26 -1.28, 155.81 -0.53 C171.35 0.23, 189 3.49, 203.69 9.59 C218.37 15.7, 232.05 25.83, 243.93 36.08 C255.81 46.34, 266.14 57.74, 274.96 71.13 C283.78 84.53, 292.44 100.75, 296.87 116.45 C301.3 132.14, 302.25 148.93, 301.54 165.3 C300.82 181.68, 297.97 199.49, 292.57 214.71 C287.18 229.93, 278.96 244.05, 269.16 256.6 C259.36 269.15, 246.84 280.74, 233.75 290.01 C220.66 299.28, 205.52 307.42, 190.61 312.22 C175.7 317.01, 159.72 319.74, 144.27 318.78 C128.82 317.82, 112.35 312.58, 97.92 306.44 C83.49 300.3, 69.84 291.91, 57.69 281.93 C45.55 271.94, 33.98 259.92, 25.06 246.54 C16.14 233.16, 8.29 217.56, 4.18 201.66 C0.07 185.75, -0.54 167.48, 0.4 151.1 C1.34 134.73, 4.38 118.75, 9.82 103.42 C15.27 88.09, 23.35 72.21, 33.08 59.13 C42.8 46.05, 55.43 33.62, 68.15 24.96 C80.88 16.31, 102.49 10.09, 109.43 7.19 C116.37 4.3, 108.9 5.32, 109.81 7.61" stroke="#000000" stroke-width="1" fill="none"></path></g><g stroke-linecap="round" transform="translate(321.5859375 488.62890625) rotate(0 88.01953125 85.044921875)"><path d="M105.95 2.59 C117.32 3.53, 128.97 8.85, 138.62 15.61 C148.27 22.37, 157.59 33.12, 163.86 43.13 C170.13 53.14, 174.86 64.22, 176.23 75.66 C177.6 87.1, 175.84 100.66, 172.09 111.75 C168.33 122.84, 161.55 133.77, 153.7 142.2 C145.85 150.62, 135.81 157.68, 125 162.3 C114.18 166.93, 101 169.76, 88.79 169.95 C76.59 170.14, 62.7 167.94, 51.76 163.42 C40.81 158.9, 31.17 151.56, 23.13 142.83 C15.08 134.11, 7.39 122.15, 3.47 111.08 C-0.45 100.01, -1.79 87.81, -0.4 76.42 C0.99 65.03, 5.82 52.86, 11.83 42.74 C17.84 32.62, 25.98 22.68, 35.68 15.72 C45.38 8.76, 57.55 2.99, 70.02 0.96 C82.48 -1.06, 102.88 2.87, 110.46 3.57 C118.03 4.26, 115.81 3.78, 115.45 5.12 M64.44 3.05 C74.83 -1.24, 88.76 -2.14, 100.9 -0.24 C113.03 1.66, 127.26 8.09, 137.25 14.45 C147.24 20.81, 154.5 28.57, 160.84 37.9 C167.18 47.23, 173.26 58.86, 175.3 70.41 C177.35 81.96, 176.37 95.75, 173.11 107.23 C169.84 118.71, 163.01 130.5, 155.72 139.29 C148.44 148.07, 140.11 155.05, 129.38 159.95 C118.64 164.85, 103.25 167.77, 91.3 168.7 C79.35 169.62, 68.67 169.48, 57.69 165.5 C46.7 161.51, 34.07 153.03, 25.41 144.8 C16.75 136.56, 9.77 126.55, 5.73 116.09 C1.68 105.64, 0.49 93.68, 1.13 82.07 C1.76 70.45, 4.4 57, 9.53 46.4 C14.66 35.81, 22.61 25.71, 31.9 18.5 C41.19 11.28, 59.57 5.22, 65.29 3.11 C71.01 1.01, 65.69 4.35, 66.22 5.86" stroke="#000000" stroke-width="1" fill="none"></path></g><g stroke-linecap="round"><g transform="translate(408.97755559166137 404.550838662507) rotate(0 0.43115146948883876 39.925646487438655)"><path d="M1.02 -0.65 C1.47 12.54, 1.67 65.78, 1.57 79.02 M0.1 1.62 C0.55 14.95, 1.11 67.14, 0.99 80.11" stroke="#000000" stroke-width="1" fill="none"></path></g><g transform="translate(408.97755559166137 404.550838662507) rotate(0 0.43115146948883876 39.925646487438655)"><path d="M-7.62 56.64 C-6.95 62.6, -5.48 65.51, 0.99 80.11 M-7.62 56.64 C-4.78 61.59, -4.5 65.67, 0.99 80.11" stroke="#000000" stroke-width="1" fill="none"></path></g><g transform="translate(408.97755559166137 404.550838662507) rotate(0 0.43115146948883876 39.925646487438655)"><path d="M9.48 56.6 C6.61 62.71, 4.55 65.62, 0.99 80.11 M9.48 56.6 C8.77 61.56, 5.51 65.64, 0.99 80.11" stroke="#000000" stroke-width="1" fill="none"></path></g></g><mask></mask><g transform="translate(352.19921875 547.947265625) rotate(0 56.36994934082031 25)"><text x="56.36994934082031" y="0" font-family="Virgil, Segoe UI Emoji" font-size="20px" fill="#000000" text-anchor="middle" style="white-space: pre;" direction="ltr" dominant-baseline="text-before-edge">Comparator</text><text x="56.36994934082031" y="25" font-family="Virgil, Segoe UI Emoji" font-size="20px" fill="#000000" text-anchor="middle" style="white-space: pre;" direction="ltr" dominant-baseline="text-before-edge">&lt;Itinerary&gt;</text></g><g transform="translate(190.634765625 53.673828125) rotate(0 62.5 25)"><text x="62.5" y="0" font-family="Virgil, Segoe UI Emoji" font-size="20px" fill="#000000" text-anchor="middle" style="white-space: pre;" direction="ltr" dominant-baseline="text-before-edge">ItineraryList</text><text x="62.5" y="25" font-family="Virgil, Segoe UI Emoji" font-size="20px" fill="#000000" text-anchor="middle" style="white-space: pre;" direction="ltr" dominant-baseline="text-before-edge">FilterChain</text></g><g stroke-linecap="round"><g transform="translate(337.5420821915468 75.54358598396709) rotate(0 58.35945142629646 -3.4667485413791894)"><path d="M0.56 0.22 C20.39 -1.29, 98.44 -6.8, 117.91 -7.91 M-0.6 -0.72 C19.26 -1.59, 97.99 -5.59, 117.59 -6.88" stroke="#000000" stroke-width="1" fill="none"></path></g><g transform="translate(337.5420821915468 75.54358598396709) rotate(0 58.35945142629646 -3.4667485413791894)"><path d="M94.62 2.99 C99.79 2.77, 102.71 -0.17, 117.59 -6.88 M94.62 2.99 C103.23 -1.14, 110.43 -4.5, 117.59 -6.88" stroke="#000000" stroke-width="1" fill="none"></path></g><g transform="translate(337.5420821915468 75.54358598396709) rotate(0 58.35945142629646 -3.4667485413791894)"><path d="M93.65 -14.08 C99.19 -10.66, 102.32 -9.96, 117.59 -6.88 M93.65 -14.08 C102.61 -12.35, 110.15 -9.83, 117.59 -6.88" stroke="#000000" stroke-width="1" fill="none"></path></g></g><mask></mask><g stroke-linecap="round" transform="translate(178.25390625 32.42578125) rotate(0 73.375 44.185546875)"><path d="M0 0 C53.2 0.85, 106.64 -0.31, 146.75 0 M0 0 C33.71 -1.33, 68.52 -0.46, 146.75 0 M146.75 0 C146.07 20.45, 147.9 42.43, 146.75 88.37 M146.75 0 C146.5 30.51, 145.84 60.52, 146.75 88.37 M146.75 88.37 C115.15 89.66, 82.5 88.25, 0 88.37 M146.75 88.37 C111.77 88.58, 77.29 90.53, 0 88.37 M0 88.37 C-1.33 54.86, 1.38 18.43, 0 0 M0 88.37 C-0.87 52.65, -0.35 18.02, 0 0" stroke="#000000" stroke-width="1" fill="none"></path></g><g transform="translate(438.875 39.296875) rotate(0 5 12.5)"><text x="0" y="0" font-family="Virgil, Segoe UI Emoji" font-size="20px" fill="#000000" text-anchor="start" style="white-space: pre;" direction="ltr" dominant-baseline="text-before-edge">*</text></g><g stroke-linecap="round"><g transform="translate(541.53125 177.1015625) rotate(0 -0.11114176404743148 27.101178843714308)"><path d="M-0.06 -0.22 C-0.1 9.05, -0.45 46.06, -0.65 55.03 M-1.54 -1.39 C-1.76 7.61, -2.26 44.01, -1.82 53.34" stroke="#000000" stroke-width="1" fill="none"></path></g></g><mask></mask><g transform="translate(540.13671875 154.77734375) rotate(0 0.46484375 9.380859375)" stroke="none"><path fill="#000000" d="M 1.40,1.78 Q 1.40,1.78 -0.27,3.21 -1.95,4.65 -4.01,6.31 -6.06,7.97 -7.65,9.26 -9.23,10.54 -10.83,11.64 -12.42,12.73 -14.35,13.81 -16.29,14.90 -17.09,15.65 -17.90,16.39 -17.02,17.05 -16.15,17.71 -11.96,17.33 -7.78,16.95 -5.84,17.03 -3.90,17.11 -2.57,17.06 -1.25,17.02 0.43,17.03 2.12,17.04 3.60,17.02 5.09,17.00 6.71,16.87 8.33,16.75 10.38,16.68 12.43,16.60 13.51,16.52 14.58,16.44 15.72,16.29 16.85,16.14 18.13,15.78 19.41,15.41 18.98,17.12 18.54,18.84 17.72,18.09 16.91,17.35 15.66,16.22 14.41,15.09 13.03,14.02 11.66,12.95 10.55,12.02 9.43,11.09 8.82,10.14 8.20,9.19 7.36,8.24 6.52,7.29 5.68,6.41 4.84,5.54 3.58,4.60 2.31,3.66 1.98,3.53 1.65,3.40 1.10,3.40 0.56,3.41 0.04,3.23 -0.46,3.06 -0.89,2.73 -1.33,2.40 -1.63,1.95 -1.94,1.50 -2.08,0.98 -2.23,0.46 -2.20,-0.08 -2.17,-0.62 -1.97,-1.12 -1.77,-1.63 -1.42,-2.04 -1.07,-2.46 -0.60,-2.74 -0.14,-3.02 0.38,-3.14 0.91,-3.25 1.45,-3.20 1.99,-3.14 2.49,-2.91 2.98,-2.68 3.38,-2.31 3.77,-1.94 4.03,-1.46 4.28,-0.98 4.37,-0.44 4.46,0.09 4.37,0.62 4.28,1.16 4.03,1.64 3.78,2.12 3.38,2.49 2.99,2.87 2.49,3.10 2.00,3.33 1.46,3.39 0.92,3.44 0.39,3.33 -0.13,3.21 -0.60,2.93 -1.06,2.65 -1.42,2.24 -1.77,1.83 -1.97,1.32 -2.17,0.82 -2.20,0.27 -2.23,-0.26 -2.09,-0.78 -1.94,-1.31 -1.64,-1.76 -1.33,-2.21 -0.90,-2.54 -0.47,-2.87 0.04,-3.04 0.55,-3.21 0.55,-3.21 0.55,-3.21 3.62,-2.32 6.70,-1.42 7.67,-0.68 8.64,0.05 9.74,1.16 10.83,2.26 11.89,3.50 12.95,4.74 13.68,6.09 14.42,7.45 15.55,8.31 16.67,9.16 17.56,9.82 18.44,10.49 20.01,11.97 21.58,13.45 22.57,15.20 23.56,16.95 22.03,19.01 20.51,21.08 19.04,21.31 17.57,21.55 16.08,21.74 14.59,21.94 13.51,21.86 12.43,21.78 10.38,21.70 8.32,21.63 6.70,21.50 5.08,21.38 3.60,21.36 2.12,21.33 0.42,21.34 -1.27,21.35 -2.59,21.30 -3.92,21.24 -5.87,21.30 -7.81,21.36 -11.19,21.49 -14.57,21.61 -16.42,21.53 -18.27,21.44 -19.55,20.20 -20.82,18.96 -21.30,17.62 -21.77,16.28 -20.94,14.92 -20.10,13.56 -19.00,12.86 -17.90,12.16 -16.10,11.04 -14.30,9.92 -12.83,8.96 -11.35,8.00 -9.82,6.69 -8.30,5.37 -6.39,3.64 -4.49,1.92 -2.95,0.34 -1.40,-1.23 -1.20,-1.37 -1.00,-1.52 -0.77,-1.61 -0.54,-1.71 -0.29,-1.74 -0.05,-1.78 0.19,-1.76 0.44,-1.73 0.67,-1.65 0.91,-1.57 1.12,-1.43 1.32,-1.30 1.49,-1.12 1.66,-0.93 1.78,-0.72 1.91,-0.50 1.97,-0.26 2.04,-0.02 2.04,0.22 2.05,0.47 2.00,0.71 1.94,0.95 1.83,1.18 1.72,1.40 1.56,1.59 1.40,1.78 1.40,1.78 L 1.40,1.78 Z"></path></g><g stroke-linecap="round" transform="translate(473.2265625 10) rotate(0 74.189453125 68.26171875)"><path d="M0 0 C58.75 -1.54, 118.95 0.02, 148.38 0 M0 0 C33.8 1.54, 66.85 1.48, 148.38 0 M148.38 0 C147.07 42.76, 147.21 83.23, 148.38 136.52 M148.38 0 C148.09 30.07, 148.46 60.53, 148.38 136.52 M148.38 136.52 C90.92 138.63, 36.63 137.65, 0 136.52 M148.38 136.52 C108.09 135.51, 67.89 135.55, 0 136.52 M0 136.52 C-0.61 91.02, -0.37 49.19, 0 0 M0 136.52 C0.25 108.62, 0.81 78.44, 0 0" stroke="#000000" stroke-width="1" fill="none"></path></g><g stroke-linecap="round"><g transform="translate(704.2873466623762 317.60682307398883) rotate(0 -35.78349550429118 -118.20554397970665)"><path d="M0.19 -0.15 C1.85 -7.92, 8.38 -9.43, 9.44 -46.04 C10.51 -82.65, 21.62 -188.19, 6.57 -219.8 C-8.48 -251.4, -66.33 -232.79, -80.87 -235.66 M-1.17 -1.27 C0.42 -9.41, 7.57 -11.4, 8.77 -47.62 C9.98 -83.83, 20.99 -186.86, 6.05 -218.56 C-8.88 -250.27, -66.11 -234.76, -80.83 -237.83" stroke="#000000" stroke-width="1" fill="none"></path></g><g transform="translate(704.2873466623762 317.60682307398883) rotate(0 -35.78349550429118 -118.20554397970665)"><path d="M-57.52 -246.88 C-63.73 -243.63, -67.75 -241.39, -80.83 -237.83 M-57.52 -246.88 C-64.4 -244.65, -71.38 -241.85, -80.83 -237.83" stroke="#000000" stroke-width="1" fill="none"></path></g><g transform="translate(704.2873466623762 317.60682307398883) rotate(0 -35.78349550429118 -118.20554397970665)"><path d="M-57.16 -229.78 C-63.54 -230.93, -67.66 -233.1, -80.83 -237.83 M-57.16 -229.78 C-64.09 -232.46, -71.17 -234.56, -80.83 -237.83" stroke="#000000" stroke-width="1" fill="none"></path></g></g><mask></mask><g transform="translate(552.41796875 322.73828125) rotate(0 66.5 37.5)"><text x="66.5" y="0" font-family="Virgil, Segoe UI Emoji" font-size="20px" fill="#000000" text-anchor="middle" style="white-space: pre;" direction="ltr" dominant-baseline="text-before-edge">GroupByFilter</text><text x="66.5" y="25" font-family="Virgil, Segoe UI Emoji" font-size="20px" fill="#000000" text-anchor="middle" style="white-space: pre;" direction="ltr" dominant-baseline="text-before-edge">&lt;GroupId&gt;</text><text x="66.5" y="50" font-family="Virgil, Segoe UI Emoji" font-size="20px" fill="#000000" text-anchor="middle" style="white-space: pre;" direction="ltr" dominant-baseline="text-before-edge"></text></g><g stroke-linecap="round" transform="translate(578.5546875 22.04296875) rotate(0 14.01171875 10.76171875)"><path d="M3.94 3.42 C3.94 3.42, 3.94 3.42, 3.94 3.42 M3.94 3.42 C3.94 3.42, 3.94 3.42, 3.94 3.42 M1.05 12.84 C2.77 9.78, 5.67 8.54, 11.55 0.76 M1.05 12.84 C3.86 9.38, 7.13 5.88, 11.55 0.76 M2.76 16.97 C6.13 12.98, 11.07 9.24, 16.54 1.12 M2.76 16.97 C6.11 12.91, 9.24 9.4, 16.54 1.12 M6.43 18.84 C9.54 14.66, 13.02 11.84, 21.52 1.48 M6.43 18.84 C10.3 14.51, 14.09 9.31, 21.52 1.48 M10.11 20.71 C15.49 14.87, 20.74 8.26, 24.54 4.11 M10.11 20.71 C15.27 14.81, 20.49 8.77, 24.54 4.11 M15.1 21.07 C20.18 15.62, 24.81 10.52, 26.9 7.49 M15.1 21.07 C18.65 16.76, 22.57 11.88, 26.9 7.49 M22.71 18.41 C24.33 16.42, 26.16 14.78, 27.3 13.13 M22.71 18.41 C24.06 16.93, 25.22 15.23, 27.3 13.13" stroke="#228be6" stroke-width="0.5" fill="none"></path><path d="M12.94 0.35 C15.71 0.04, 19.43 0.3, 21.83 1.62 C24.24 2.93, 26.5 5.9, 27.38 8.22 C28.25 10.55, 28.34 13.57, 27.07 15.56 C25.81 17.54, 22.6 19.26, 19.78 20.13 C16.96 20.99, 13.06 21.3, 10.15 20.77 C7.24 20.23, 3.94 18.65, 2.32 16.91 C0.7 15.16, 0.14 12.58, 0.44 10.3 C0.74 8.02, 1.93 5.03, 4.11 3.23 C6.28 1.43, 11.69 -0.06, 13.5 -0.49 C15.31 -0.91, 14.84 0.42, 14.96 0.66 M15.05 -0.44 C18.07 -0.33, 22.5 2.23, 24.57 3.86 C26.63 5.48, 27.35 7.13, 27.47 9.31 C27.59 11.5, 26.93 14.94, 25.27 16.97 C23.61 19, 20.49 20.79, 17.51 21.48 C14.52 22.16, 10.14 22.03, 7.36 21.09 C4.59 20.14, 2.02 17.96, 0.85 15.8 C-0.32 13.65, -0.44 10.41, 0.37 8.16 C1.17 5.9, 3.18 3.59, 5.68 2.28 C8.18 0.97, 13.68 0.72, 15.37 0.28 C17.06 -0.16, 15.8 -0.53, 15.84 -0.36" stroke="#000000" stroke-width="1" fill="none"></path></g><g transform="translate(675.20703125 56.05859375) rotate(0 64 12.5)"><text x="0" y="0" font-family="Virgil, Segoe UI Emoji" font-size="20px" fill="#000000" text-anchor="start" style="white-space: pre;" direction="ltr" dominant-baseline="text-before-edge">nestedFilters</text></g><g transform="translate(632.98828125 49.64453125) rotate(0 5 12.5)"><text x="0" y="0" font-family="Virgil, Segoe UI Emoji" font-size="20px" fill="#000000" text-anchor="start" style="white-space: pre;" direction="ltr" dominant-baseline="text-before-edge">*</text></g><g transform="translate(499.443359375 54.98828125) rotate(0 44.5 37.5)"><text x="44.5" y="0" font-family="Virgil, Segoe UI Emoji" font-size="20px" fill="#000000" text-anchor="middle" style="white-space: pre;" direction="ltr" dominant-baseline="text-before-edge">Itinerary</text><text x="44.5" y="25" font-family="Virgil, Segoe UI Emoji" font-size="20px" fill="#000000" text-anchor="middle" style="white-space: pre;" direction="ltr" dominant-baseline="text-before-edge">List</text><text x="44.5" y="50" font-family="Virgil, Segoe UI Emoji" font-size="20px" fill="#000000" text-anchor="middle" style="white-space: pre;" direction="ltr" dominant-baseline="text-before-edge">Filter</text></g><g stroke-linecap="round" transform="translate(537.8203125 301.37890625) rotate(0 81.2109375 49.44921875)"><path d="M0 0 C44.17 -2.6, 84.14 -2.06, 162.42 0 M0 0 C48.28 -0.27, 96.17 0.74, 162.42 0 M162.42 0 C161.82 29.31, 161.15 60.19, 162.42 98.9 M162.42 0 C162.3 27.38, 163.61 53.46, 162.42 98.9 M162.42 98.9 C119.52 98.89, 73.49 97.78, 0 98.9 M162.42 98.9 C114.93 99.83, 67.9 99.51, 0 98.9 M0 98.9 C0.55 64.9, -1.08 31.59, 0 0 M0 98.9 C-0.95 77.78, -1.01 55.1, 0 0" stroke="#000000" stroke-width="1" fill="none"></path></g><g stroke-linecap="round"><g transform="translate(162.58745594210927 236.35814261278136) rotate(0 -2.4050560960546363 32.69983494360932)"><path d="M0.47 1.13 C-0.56 12.19, -4.4 55, -5.42 65.88 M-0.74 0.67 C-1.45 11.41, -2.62 53.35, -3.02 64.01" stroke="#000000" stroke-width="1" fill="none"></path></g></g><mask></mask><g stroke-linecap="round"><g transform="translate(864.7822616050578 233.36954065971076) rotate(0 1.2241035724711082 39.95585467014462)"><path d="M0.41 -0.92 C0.74 12.23, 1.43 65.84, 1.81 79.48 M-0.83 1.21 C-0.09 14.48, 3.71 67.8, 4.19 80.8" stroke="#000000" stroke-width="1" fill="none"></path></g></g><mask></mask><g stroke-linecap="round"><g transform="translate(396.3102241199464 237.40472429908812) rotate(0 -0.5001507936418079 33.29206555724144)"><path d="M0.28 -0.04 C0.36 10.9, -0.13 55.04, -0.2 66.34 M-1.03 -1.11 C-0.99 9.96, -0.83 56.56, -0.73 67.75" stroke="#000000" stroke-width="1" fill="none"></path></g></g><mask></mask><g stroke-linecap="round"><g transform="translate(614.979472377766 236.38462788682432) rotate(0 0.3227638111169995 30.24518605658784)"><path d="M1.14 -0.45 C1.27 9.55, 1.19 49.57, 1.01 59.61 M0.28 -1.74 C0.27 8.42, 0.47 50.27, 0.25 60.69" stroke="#000000" stroke-width="1" fill="none"></path></g></g><mask></mask><g stroke-linecap="round" transform="translate(52.5 301.2890625) rotate(0 113.044921875 47.6796875)"><path d="M0 0 C54.96 2.05, 113.62 -0.39, 226.09 0 M0 0 C49.57 0.45, 98.46 0.81, 226.09 0 M226.09 0 C227.55 22.3, 227.86 46.77, 226.09 95.36 M226.09 0 C227.24 31.77, 226.34 63.68, 226.09 95.36 M226.09 95.36 C172.94 93.17, 118.9 95.02, 0 95.36 M226.09 95.36 C170.26 92.95, 114.78 92.78, 0 95.36 M0 95.36 C1.1 75.7, 0.69 52.94, 0 0 M0 95.36 C0.16 68.21, 0.54 38.44, 0 0" stroke="#000000" stroke-width="1" fill="none"></path></g><g stroke-linecap="round" transform="translate(311.734375 304.55078125) rotate(0 81.74609375 47.6796875)"><path d="M0 0 C38.65 0.35, 78.1 -0.04, 163.49 0 M0 0 C36.94 2.06, 73.43 1.38, 163.49 0 M163.49 0 C161.22 29.89, 161.97 54.54, 163.49 95.36 M163.49 0 C164.02 33.3, 162.55 64.49, 163.49 95.36 M163.49 95.36 C118.68 94.73, 73.67 94.2, 0 95.36 M163.49 95.36 C114.45 94.31, 64.12 93.97, 0 95.36 M0 95.36 C-1.16 64.62, 2.22 37.8, 0 0 M0 95.36 C-0.48 61.53, 0.85 26.15, 0 0" stroke="#000000" stroke-width="1" fill="none"></path></g><g transform="translate(788.0601501464844 345.27734375) rotate(0 71.89993286132812 12.5)"><text x="71.89993286132812" y="0" font-family="Virgil, Segoe UI Emoji" font-size="20px" fill="#000000" text-anchor="middle" style="white-space: pre;" direction="ltr" dominant-baseline="text-before-edge">DecorateFilter</text></g><g transform="translate(107.40708923339844 339.375) rotate(0 60.79994201660156 12.5)"><text x="60.79994201660156" y="0" font-family="Virgil, Segoe UI Emoji" font-size="20px" fill="#000000" text-anchor="middle" style="white-space: pre;" direction="ltr" dominant-baseline="text-before-edge">RemoveFilter</text></g><g stroke-linecap="round" transform="translate(779.2265625 312.58203125) rotate(0 81.74609375 47.6796875)"><path d="M0 0 C46.1 2.4, 89.07 1.28, 163.49 0 M0 0 C47.79 0.97, 96.05 0.64, 163.49 0 M163.49 0 C163.95 33.88, 162.31 68.46, 163.49 95.36 M163.49 0 C163.4 21.79, 163.34 42.02, 163.49 95.36 M163.49 95.36 C121.27 95.2, 77.24 96.39, 0 95.36 M163.49 95.36 C108.45 94.01, 54.92 94.54, 0 95.36 M0 95.36 C-0.42 63.93, -2.43 33.59, 0 0 M0 95.36 C0.36 57.95, 1.56 20.22, 0 0" stroke="#000000" stroke-width="1" fill="none"></path></g><g transform="translate(321.93359375 339.45703125) rotate(0 59.5 12.5)"><text x="59.5" y="0" font-family="Virgil, Segoe UI Emoji" font-size="20px" fill="#000000" text-anchor="middle" style="white-space: pre;" direction="ltr" dominant-baseline="text-before-edge">SortingFilter</text></g><g stroke-linecap="round"><g transform="translate(162.700304592345 236.26219583114607) rotate(0 349.8764102038275 -1.5412541655730365)"><path d="M1.1 -0.83 C117.39 -1.41, 582.41 -3.79, 698.68 -4.26 M0.22 1.36 C116.79 0.93, 584.01 -2.67, 700.83 -3.34" stroke="#000000" stroke-width="1" fill="none"></path></g></g><mask></mask><g transform="translate(16.61069403754334 557.353515625) rotate(0 144.5007781982422 72.78645833333331)"><text x="144.5007781982422" y="0" font-family="Virgil, Segoe UI Emoji" font-size="19.409722222222214px" fill="#000000" text-anchor="middle" style="white-space: pre;" direction="ltr" dominant-baseline="text-before-edge">RemoveItineraryFlagger</text><text x="144.5007781982422" y="24.262152777777768" font-family="Virgil, Segoe UI Emoji" font-size="19.409722222222214px" fill="#000000" text-anchor="middle" style="white-space: pre;" direction="ltr" dominant-baseline="text-before-edge">---</text><text x="144.5007781982422" y="48.524305555555536" font-family="Virgil, Segoe UI Emoji" font-size="19.409722222222214px" fill="#000000" text-anchor="middle" style="white-space: pre;" direction="ltr" dominant-baseline="text-before-edge">name()</text><text x="144.5007781982422" y="72.7864583333333" font-family="Virgil, Segoe UI Emoji" font-size="19.409722222222214px" fill="#000000" text-anchor="middle" style="white-space: pre;" direction="ltr" dominant-baseline="text-before-edge">shouldBeFlaggedForRemoval()</text><text x="144.5007781982422" y="97.04861111111107" font-family="Virgil, Segoe UI Emoji" font-size="19.409722222222214px" fill="#000000" text-anchor="middle" style="white-space: pre;" direction="ltr" dominant-baseline="text-before-edge">skipAlreadyFlaggedItineraries()</text><text x="144.5007781982422" y="121.31076388888884" font-family="Virgil, Segoe UI Emoji" font-size="19.409722222222214px" fill="#000000" text-anchor="middle" style="white-space: pre;" direction="ltr" dominant-baseline="text-before-edge"></text></g><g stroke-linecap="round" transform="translate(754.8412623987206 510.32059830901267) rotate(0 104.263671875 99.826171875)"><path d="M89.49 0.02 C101.05 -3.12, 115.78 -1.06, 128.08 1.93 C140.38 4.91, 152.99 10.86, 163.28 17.94 C173.58 25.01, 182.88 34.46, 189.85 44.37 C196.82 54.28, 202.17 65.79, 205.11 77.4 C208.06 89.01, 209.05 102.24, 207.51 114.03 C205.98 125.82, 202.22 137.53, 195.91 148.12 C189.59 158.72, 179.4 169.87, 169.62 177.59 C159.85 185.32, 149.16 190.76, 137.27 194.48 C125.39 198.2, 110.95 200.67, 98.33 199.92 C85.7 199.17, 72.88 194.94, 61.54 189.98 C50.19 185.02, 39.05 178.7, 30.28 170.16 C21.5 161.62, 13.91 149.63, 8.89 138.75 C3.87 127.87, 0.65 116.76, 0.15 104.88 C-0.35 93.01, 1.77 79.12, 5.9 67.49 C10.02 55.85, 16.89 44.22, 24.91 35.06 C32.94 25.9, 41.11 18.33, 54.05 12.51 C66.99 6.69, 92.66 1.78, 102.55 0.16 C112.43 -1.46, 113.29 1.3, 113.36 2.79 M149.8 9.22 C161.15 12.7, 170.21 22.18, 178.71 30.88 C187.22 39.59, 195.73 50.05, 200.85 61.45 C205.97 72.84, 209.37 87.04, 209.43 99.26 C209.49 111.48, 205.81 123.6, 201.22 134.76 C196.64 145.91, 190.17 157.01, 181.92 166.16 C173.66 175.32, 162.67 184.03, 151.7 189.71 C140.73 195.39, 128.53 199.17, 116.11 200.24 C103.68 201.32, 89.19 199.6, 77.16 196.19 C65.14 192.78, 53.88 187.05, 43.94 179.79 C34.01 172.53, 24.59 162.37, 17.55 152.63 C10.5 142.89, 4.63 132.84, 1.69 121.36 C-1.25 109.89, -2.22 95.8, -0.07 83.78 C2.08 71.76, 8.17 59.61, 14.59 49.25 C21 38.88, 28.34 29.05, 38.44 21.59 C48.55 14.13, 63.17 8.17, 75.19 4.5 C87.22 0.82, 98.41 -1.2, 110.59 -0.45 C122.78 0.3, 141.84 7.02, 148.29 9.01 C154.75 11, 149.99 10.06, 149.31 11.49" stroke="#000000" stroke-width="1" fill="none"></path></g><g stroke-linecap="round"><g transform="translate(856.8250972328142 412.33237447151964) rotate(0 0.9666778978717048 46.880845850843684)"><path d="M-0.32 -0.43 C-0.11 14.9, 1.34 77.06, 1.54 92.64 M1.71 -1.7 C1.71 13.67, 0.14 77.64, 0.39 93.58" stroke="#000000" stroke-width="1" fill="none"></path></g><g transform="translate(856.8250972328142 412.33237447151964) rotate(0 0.9666778978717048 46.880845850843684)"><path d="M-8 70.03 C-5.87 77.03, -4.31 83.58, 0.39 93.58 M-8 70.03 C-6.04 74.93, -3.68 80.54, 0.39 93.58" stroke="#000000" stroke-width="1" fill="none"></path></g><g transform="translate(856.8250972328142 412.33237447151964) rotate(0 0.9666778978717048 46.880845850843684)"><path d="M9.1 70.15 C5.69 77.07, 1.72 83.58, 0.39 93.58 M9.1 70.15 C6.98 74.96, 5.25 80.54, 0.39 93.58" stroke="#000000" stroke-width="1" fill="none"></path></g></g><mask></mask><g transform="translate(763.5594249353417 567.9827076840127) rotate(0 94.72991180419922 37.5)"><text x="94.72991180419922" y="0" font-family="Virgil, Segoe UI Emoji" font-size="20px" fill="#000000" text-anchor="middle" style="white-space: pre;" direction="ltr" dominant-baseline="text-before-edge">ItineraryDecorator</text><text x="94.72991180419922" y="25" font-family="Virgil, Segoe UI Emoji" font-size="20px" fill="#000000" text-anchor="middle" style="white-space: pre;" direction="ltr" dominant-baseline="text-before-edge">---</text><text x="94.72991180419922" y="50" font-family="Virgil, Segoe UI Emoji" font-size="20px" fill="#000000" text-anchor="middle" style="white-space: pre;" direction="ltr" dominant-baseline="text-before-edge">decorate(Itinerary)</text></g></svg>