<svg version="1.1" xmlns="http://www.w3.org/2000/svg" viewBox="0 0 898.03515625 702.5234375" width="898.03515625" height="702.5234375">
  <!-- svg-source:excalidraw -->
  
  <defs>
    <style>
      @font-face {
        font-family: "Virgil";
        src: url("https://excalidraw.com/Virgil.woff2");
      }
      @font-face {
        font-family: "Cascadia";
        src: url("https://excalidraw.com/Cascadia.woff2");
      }
    </style>
  </defs>
  <rect x="0" y="0" width="898.03515625" height="702.5234375" fill="#ffffff"></rect><g stroke-linecap="round"><g transform="translate(113.52250725283943 404.8685220031098) rotate(0 1.6646689856415264 37.501544411367036)"><path d="M0.36 1.1 C0.72 13.46, 1.73 62.31, 2.01 74.37 M-0.91 0.63 C-0.16 12.66, 3.34 60.45, 4.24 72.82" stroke="#000000" stroke-width="1" fill="none"></path></g><g transform="translate(113.52250725283943 404.8685220031098) rotate(0 1.6646689856415264 37.501544411367036)"><path d="M-6.2 43.9 C-2.64 51.73, -0.61 60.66, 5.26 73.47 M-7.53 45 C-5.35 52.22, -3.17 58.3, 3.91 71.83" stroke="#000000" stroke-width="1" fill="none"></path></g><g transform="translate(113.52250725283943 404.8685220031098) rotate(0 1.6646689856415264 37.501544411367036)"><path d="M14.26 42.42 C11.96 50.74, 8.13 60.09, 5.26 73.47 M12.93 43.51 C10.24 51.02, 7.54 57.45, 3.91 71.83" stroke="#000000" stroke-width="1" fill="none"></path></g></g><g stroke-linecap="round" transform="translate(10 481.69140625) rotate(0 110.22265625 105.416015625)"><path d="M115.16 -0.52 C128.43 -1.61, 143.78 4.64, 156.01 9.98 C168.23 15.32, 179 22.31, 188.49 31.53 C197.99 40.75, 207.49 53.25, 212.97 65.3 C218.44 77.35, 221.27 90.9, 221.37 103.83 C221.46 116.75, 218.56 130.61, 213.52 142.85 C208.48 155.1, 200.47 167.57, 191.1 177.31 C181.74 187.05, 169.46 195.86, 157.32 201.29 C145.18 206.73, 131.81 209.3, 118.27 209.93 C104.73 210.56, 89.14 208.94, 76.07 205.05 C63 201.16, 50.4 194.81, 39.86 186.57 C29.32 178.32, 19.26 167.14, 12.8 155.57 C6.35 144, 2.7 129.91, 1.14 117.13 C-0.42 104.34, -0.06 91.15, 3.47 78.85 C7 66.55, 14.23 53.72, 22.32 43.33 C30.41 32.93, 40.59 23.36, 52 16.48 C63.41 9.6, 78.21 4.6, 90.79 2.06 C103.36 -0.47, 119.51 0.81, 127.46 1.27 C135.41 1.74, 138.94 3.07, 138.47 4.83 M102.97 -0.69 C116.06 -3.22, 132.31 0.24, 145.54 4.52 C158.76 8.79, 172.03 16.56, 182.32 24.96 C192.6 33.36, 201.24 43.59, 207.23 54.89 C213.23 66.19, 216.68 79.82, 218.3 92.75 C219.91 105.69, 220.32 119.61, 216.93 132.51 C213.55 145.41, 206.4 159.7, 198 170.15 C189.6 180.6, 177.84 188.7, 166.51 195.2 C155.19 201.7, 143.15 207.06, 130.05 209.16 C116.95 211.25, 101.24 210.45, 87.93 207.75 C74.62 205.05, 61.42 200.31, 50.18 192.96 C38.94 185.62, 28.31 174.65, 20.49 163.68 C12.67 152.71, 6.38 139.58, 3.24 127.15 C0.1 114.72, -0.52 101.51, 1.64 89.11 C3.81 76.71, 9.24 64.17, 16.23 52.77 C23.22 41.38, 32.73 29.04, 43.59 20.73 C54.46 12.43, 71.4 6.33, 81.44 2.96 C91.48 -0.41, 100.31 0.5, 103.82 0.5 C107.34 0.5, 102.4 1.36, 102.51 2.98" stroke="#000000" stroke-width="1" fill="none"></path></g><g stroke-linecap="round" transform="translate(266.90234375 488.62890625) rotate(0 88.01953125 85.044921875)"><path d="M105.95 2.59 C117.43 3.55, 129.22 8.97, 138.94 15.83 C148.66 22.7, 158.02 33.64, 164.26 43.8 C170.49 53.96, 175.13 65.24, 176.35 76.8 C177.58 88.37, 175.59 102.07, 171.59 113.2 C167.59 124.34, 160.49 135.28, 152.36 143.62 C144.23 151.95, 133.87 158.84, 122.81 163.22 C111.75 167.61, 98.34 170.1, 86.01 169.92 C73.69 169.74, 59.74 167.09, 48.87 162.14 C38 157.19, 28.54 149.35, 20.78 140.23 C13.02 131.11, 5.75 118.74, 2.31 107.41 C-1.13 96.07, -1.86 83.66, 0.14 72.23 C2.14 60.79, 7.67 48.7, 14.31 38.81 C20.94 28.92, 29.74 19.36, 39.93 12.89 C50.13 6.42, 63.72 1.54, 75.48 -0.01 C87.25 -1.56, 103.83 2.72, 110.51 3.58 C117.19 4.44, 115.91 3.81, 115.55 5.16 M64.44 3.05 C74.94 -1.27, 89.04 -2.14, 101.29 -0.18 C113.53 1.79, 127.88 8.36, 137.91 14.87 C147.94 21.38, 155.21 29.36, 161.48 38.87 C167.75 48.38, 173.69 60.23, 175.54 71.93 C177.39 83.63, 176.13 97.56, 172.57 109.08 C169.02 120.6, 161.82 132.38, 154.2 141.06 C146.59 149.74, 137.89 156.51, 126.88 161.14 C115.87 165.76, 100.21 168.3, 88.12 168.81 C76.04 169.32, 65.28 168.66, 54.37 164.2 C43.46 159.73, 31.02 150.71, 22.66 142.03 C14.31 133.35, 7.78 122.88, 4.26 112.12 C0.73 101.36, 0.21 89.16, 1.5 77.48 C2.79 65.79, 6.2 52.4, 12 42.03 C17.81 31.65, 27.45 21.73, 36.33 15.24 C45.21 8.76, 60.31 4.68, 65.29 3.11 C70.27 1.55, 65.69 4.35, 66.22 5.86" stroke="#000000" stroke-width="1" fill="none"></path></g><g stroke-linecap="round"><g transform="translate(354.29396184166137 404.550838662507) rotate(0 0.846280762624815 39.73122486601267)"><path d="M1.02 -0.65 C1.47 12.54, 1.67 65.78, 1.57 79.02 M0.1 1.62 C0.55 14.95, 1.11 67.14, 0.99 80.11" stroke="#000000" stroke-width="1" fill="none"></path></g><g transform="translate(354.29396184166137 404.550838662507) rotate(0 0.846280762624815 39.73122486601267)"><path d="M-10.43 53.13 C-8.63 56.91, -6.95 64.53, 0.99 81.99 M-10.13 52.7 C-6.27 60.61, -3.18 69.13, 0.14 80.08" stroke="#000000" stroke-width="1" fill="none"></path></g><g transform="translate(354.29396184166137 404.550838662507) rotate(0 0.846280762624815 39.73122486601267)"><path d="M10.09 53.07 C7.64 57.04, 5.08 64.68, 0.99 81.99 M10.4 52.64 C7.92 60.42, 4.7 68.96, 0.14 80.08" stroke="#000000" stroke-width="1" fill="none"></path></g></g><g transform="translate(303.640625 544.455078125) rotate(0 56.5 25)"><text x="56.5" y="18" font-family="Virgil, Segoe UI Emoji" font-size="20px" fill="#000000" text-anchor="middle" style="white-space: pre;" direction="ltr">Comparator</text><text x="56.5" y="43" font-family="Virgil, Segoe UI Emoji" font-size="20px" fill="#000000" text-anchor="middle" style="white-space: pre;" direction="ltr">&lt;Itinerary&gt;</text></g><g transform="translate(135.951171875 53.673828125) rotate(0 62.5 25)"><text x="62.5" y="18" font-family="Virgil, Segoe UI Emoji" font-size="20px" fill="#000000" text-anchor="middle" style="white-space: pre;" direction="ltr">ItineraryList</text><text x="62.5" y="43" font-family="Virgil, Segoe UI Emoji" font-size="20px" fill="#000000" text-anchor="middle" style="white-space: pre;" direction="ltr">FilterChain</text></g><g stroke-linecap="round"><g transform="translate(282.8584884415468 75.54358598396709) rotate(0 58.65716921667661 -3.845266840765106)"><path d="M0.56 0.22 C20.39 -1.29, 98.44 -6.8, 117.91 -7.91 M-0.6 -0.72 C19.26 -1.59, 97.99 -5.59, 117.59 -6.88" stroke="#000000" stroke-width="1" fill="none"></path></g><g transform="translate(282.8584884415468 75.54358598396709) rotate(0 58.65716921667661 -3.845266840765106)"><path d="M90.39 6.96 C94.18 3.46, 102.56 0, 117.34 -5.43 M89.32 5.08 C95.86 3.01, 101.84 -0.1, 118.04 -6.39" stroke="#000000" stroke-width="1" fill="none"></path></g><g transform="translate(282.8584884415468 75.54358598396709) rotate(0 58.65716921667661 -3.845266840765106)"><path d="M89.22 -13.53 C93.45 -12.66, 102.08 -11.75, 117.34 -5.43 M88.16 -15.41 C94.96 -12.9, 101.2 -11.45, 118.04 -6.39" stroke="#000000" stroke-width="1" fill="none"></path></g></g><g stroke-linecap="round" transform="translate(123.5703125 32.42578125) rotate(0 73.375 44.185546875)"><path d="M0.29 1.07 C53.72 -0.31, 104.45 1.75, 148.32 -0.25 M-0.63 0.13 C41.9 -1.41, 82.74 -0.5, 147.03 0.41 M147.5 -0.44 C147.44 18.07, 147.26 39.86, 148.11 89.14 M146.67 0.82 C145.86 32.88, 145.75 68.72, 147.7 88.69 M148.41 88.21 C101.31 91.01, 51.88 89.08, -1.02 89.11 M147.02 87.74 C101.69 87.96, 56.52 88.41, 0.41 89.29 M0.57 88.45 C-0.21 62.72, 1.27 35.89, 1.53 -0.94 M-0.76 87.86 C1.13 70.59, 1 51.63, 0.29 0.51" stroke="#000000" stroke-width="1" fill="none"></path></g><g transform="translate(384.19140625 39.296875) rotate(0 5 12.5)"><text x="0" y="18" font-family="Virgil, Segoe UI Emoji" font-size="20px" fill="#000000" text-anchor="start" style="white-space: pre;" direction="ltr">*</text></g><g stroke-linecap="round"><g transform="translate(486.84765625 177.1015625) rotate(0 -1.0244102331034242 26.821260151229836)"><path d="M-0.06 -0.22 C-0.1 9.05, -0.45 46.06, -0.65 55.03 M-1.54 -1.39 C-1.76 7.61, -2.26 44.01, -1.82 53.34" stroke="#000000" stroke-width="1" fill="none"></path></g></g><g transform="translate(485.453125 154.77734375) rotate(0 0.46484375 9.380859375)" stroke="none" fill="#000000"><path d="M -1.95,4.65 Q -1.95,4.65 -4.01,6.31 -6.06,7.97 -7.65,9.26 -9.23,10.54 -10.83,11.64 -12.42,12.73 -14.35,13.81 -16.29,14.90 -17.09,15.65 -17.90,16.39 -17.02,17.05 -16.15,17.71 -11.96,17.33 -7.78,16.95 -5.84,17.03 -3.90,17.11 -2.57,17.06 -1.25,17.02 0.43,17.03 2.12,17.04 3.60,17.02 5.09,17.00 6.71,16.87 8.33,16.75 10.38,16.68 12.43,16.60 13.51,16.52 14.58,16.44 15.72,16.29 16.85,16.14 18.13,15.78 19.41,15.41 18.98,17.12 18.54,18.84 17.72,18.09 16.91,17.35 15.66,16.22 14.41,15.09 13.03,14.02 11.66,12.95 10.55,12.02 9.43,11.09 8.82,10.14 8.20,9.19 7.36,8.24 6.52,7.29 5.68,6.41 4.84,5.54 3.58,4.60 2.31,3.66 1.58,3.56 0.85,3.46 0.32,3.33 -0.21,3.21 -0.67,2.91 -1.13,2.62 -1.48,2.20 -1.82,1.77 -2.02,1.26 -2.21,0.75 -2.23,0.20 -2.24,-0.33 -2.09,-0.86 -1.93,-1.38 -1.61,-1.83 -1.30,-2.27 -0.86,-2.60 -0.41,-2.92 0.10,-3.08 0.62,-3.25 1.17,-3.24 1.71,-3.23 2.23,-3.04 2.74,-2.86 3.17,-2.52 3.60,-2.18 3.90,-1.72 4.20,-1.26 4.33,-0.73 4.47,-0.20 4.43,0.34 4.39,0.88 4.17,1.39 3.96,1.89 3.60,2.30 3.24,2.71 2.76,2.98 2.29,3.26 1.75,3.36 1.21,3.47 0.67,3.40 0.13,3.33 -0.35,3.09 -0.84,2.85 -1.23,2.47 -1.62,2.08 -1.87,1.59 -2.12,1.10 -2.19,0.56 -2.27,0.02 -2.17,-0.51 -2.07,-1.05 -1.81,-1.52 -1.54,-2.00 -1.14,-2.37 -0.73,-2.74 -0.23,-2.96 0.26,-3.18 0.81,-3.22 1.35,-3.27 2.56,-3.23 3.76,-3.18 5.23,-2.30 6.70,-1.42 7.67,-0.68 8.64,0.05 9.74,1.16 10.83,2.26 11.89,3.50 12.95,4.74 13.68,6.09 14.42,7.45 15.55,8.31 16.67,9.16 17.56,9.82 18.44,10.49 20.01,11.97 21.58,13.45 22.57,15.20 23.56,16.95 22.03,19.01 20.51,21.08 19.04,21.31 17.57,21.55 16.08,21.74 14.59,21.94 13.51,21.86 12.43,21.78 10.38,21.70 8.32,21.63 6.70,21.50 5.08,21.38 3.60,21.36 2.12,21.33 0.42,21.34 -1.27,21.35 -2.59,21.30 -3.92,21.24 -5.87,21.30 -7.81,21.36 -11.19,21.49 -14.57,21.61 -16.42,21.53 -18.27,21.44 -19.55,20.20 -20.82,18.96 -21.30,17.62 -21.77,16.28 -20.94,14.92 -20.10,13.56 -19.00,12.86 -17.90,12.16 -16.10,11.04 -14.30,9.92 -12.83,8.96 -11.35,8.00 -9.82,6.69 -8.30,5.37 -6.39,3.64 -4.49,1.92 -2.70,0.28 -0.90,-1.35 -0.70,-1.43 -0.49,-1.52 -0.27,-1.55 -0.04,-1.58 0.17,-1.56 0.39,-1.54 0.61,-1.46 0.82,-1.39 1.01,-1.27 1.19,-1.14 1.35,-0.98 1.50,-0.82 1.61,-0.62 1.72,-0.42 1.78,-0.21 1.84,0.00 1.84,0.22 1.85,0.45 1.80,0.67 1.75,0.89 1.66,1.09 1.56,1.29 1.41,1.46 1.27,1.64 -0.34,3.14 L -1.95,4.65 Z"></path></g><g stroke-linecap="round" transform="translate(418.54296875 10) rotate(0 74.189453125 68.26171875)"><path d="M-0.38 -0.88 C59.81 0.02, 116.74 -1.32, 146.42 1.14 M0.05 -0.12 C45.98 -0.6, 92.1 -0.53, 148.37 -0.81 M148.6 0.69 C149.88 39.96, 150.35 77.92, 147.71 137.67 M148.02 -0.29 C148.37 52.88, 148.34 106.38, 148.57 137.37 M149.16 136.36 C110.86 133.8, 76.57 133.83, 1.54 136.37 M148.85 136.7 C115.92 137.12, 82.04 138.37, 0.11 136.4 M-1.46 135.11 C1.28 85.04, 2.02 33.84, 0.02 0.9 M-0.99 135.66 C-0.27 88.17, -0.35 41.27, -0.65 0.38" stroke="#000000" stroke-width="1" fill="none"></path></g><g stroke-linecap="round"><g transform="translate(652.2266035644643 330.2437732082143) rotate(0 -35.925667238918095 -125.85990786091111)"><path d="M0.19 -0.15 C1.41 -10.03, 6.19 -19.96, 6.82 -58.68 C7.45 -97.39, 19 -200.83, 3.95 -232.44 C-11.1 -264.04, -68.95 -245.43, -83.49 -248.3 M-1.17 -1.27 C-0.02 -11.52, 5.38 -21.93, 6.15 -60.25 C6.92 -98.57, 18.36 -199.5, 3.43 -231.2 C-11.5 -262.9, -68.73 -247.4, -83.45 -250.46" stroke="#000000" stroke-width="1" fill="none"></path></g><g transform="translate(652.2266035644643 330.2437732082143) rotate(0 -35.925667238918095 -125.85990786091111)"><path d="M-55.73 -260.44 C-60.9 -257.69, -70.1 -256.34, -82.2 -250.8 M-54.67 -260.64 C-62.27 -258.37, -70.36 -255.71, -82.77 -250.23" stroke="#000000" stroke-width="1" fill="none"></path></g><g transform="translate(652.2266035644643 330.2437732082143) rotate(0 -35.925667238918095 -125.85990786091111)"><path d="M-55.3 -239.92 C-60.68 -242.46, -69.99 -246.38, -82.2 -250.8 M-54.24 -240.12 C-61.85 -242.94, -70.05 -245.37, -82.77 -250.23" stroke="#000000" stroke-width="1" fill="none"></path></g></g><g transform="translate(497.734375 322.73828125) rotate(0 66.5 100)"><text x="66.5" y="18" font-family="Virgil, Segoe UI Emoji" font-size="20px" fill="#000000" text-anchor="middle" style="white-space: pre;" direction="ltr">GroupByFilter</text><text x="66.5" y="43" font-family="Virgil, Segoe UI Emoji" font-size="20px" fill="#000000" text-anchor="middle" style="white-space: pre;" direction="ltr">&lt;GroupId&gt;</text><text x="66.5" y="68" font-family="Virgil, Segoe UI Emoji" font-size="20px" fill="#000000" text-anchor="middle" style="white-space: pre;" direction="ltr">----------</text><text x="66.5" y="93" font-family="Virgil, Segoe UI Emoji" font-size="20px" fill="#000000" text-anchor="middle" style="white-space: pre;" direction="ltr">groupByP</text><text x="66.5" y="118" font-family="Virgil, Segoe UI Emoji" font-size="20px" fill="#000000" text-anchor="middle" style="white-space: pre;" direction="ltr">maxNumOf</text><text x="66.5" y="143" font-family="Virgil, Segoe UI Emoji" font-size="20px" fill="#000000" text-anchor="middle" style="white-space: pre;" direction="ltr">Itineraries</text><text x="66.5" y="168" font-family="Virgil, Segoe UI Emoji" font-size="20px" fill="#000000" text-anchor="middle" style="white-space: pre;" direction="ltr">PerGroup</text><text x="66.5" y="193" font-family="Virgil, Segoe UI Emoji" font-size="20px" fill="#000000" text-anchor="middle" style="white-space: pre;" direction="ltr"></text></g><g stroke-linecap="round" transform="translate(523.87109375 22.04296875) rotate(0 14.01171875 10.76171875)"><path d="M3.2 4.1 C3.2 4.1, 3.2 4.1, 3.2 4.1 M3.2 4.1 C3.2 4.1, 3.2 4.1, 3.2 4.1 M2.4 10.96 C6.15 7.99, 6.73 5.48, 10.9 1.09 M1.19 11.78 C5.33 7.28, 8.85 3.37, 10.73 0.58 M3.51 16.95 C5.62 12.31, 9.98 8.16, 15.46 1.99 M3.24 16.66 C6 12.98, 8.74 10.99, 14.38 3.35 M5.68 21.43 C11.18 15.48, 15.86 8.84, 22.33 1.92 M4.9 19.96 C10.27 12.93, 16.85 6.93, 21.33 1.1 M9.13 23.07 C14.55 17.04, 18.41 10.22, 22.28 4.24 M10.31 21.34 C13.89 16.09, 17.21 11.35, 24.69 4.03 M15.37 20.53 C17.14 19.49, 21.88 14.68, 27.02 9.22 M14.46 22.48 C17.35 18, 20.51 13.5, 25.86 7.5 M20.09 18.92 C24.24 17.41, 24.19 16.75, 29.9 10.88 M21.09 19.49 C23.07 17.66, 25.58 14.22, 30.32 9.48" stroke="#228be6" stroke-width="0.5" fill="none"></path><path d="M11.87 0.78 C14.55 0.3, 18.09 -0.35, 20.58 0.79 C23.08 1.92, 25.61 5.22, 26.83 7.58 C28.05 9.94, 28.92 12.98, 27.9 14.94 C26.88 16.89, 23.5 18.36, 20.7 19.3 C17.9 20.24, 14.08 20.86, 11.1 20.58 C8.13 20.3, 4.57 19.1, 2.85 17.62 C1.13 16.14, 0.71 13.98, 0.78 11.71 C0.85 9.44, 0.92 6.1, 3.29 4 C5.66 1.9, 12.28 -0.56, 15.02 -0.9 C17.77 -1.24, 19.54 1.65, 19.75 1.97 M16.08 -0.78 C19.23 -0.42, 24.2 3.51, 26.02 5.27 C27.84 7.02, 27.29 7.66, 27 9.74 C26.71 11.82, 26.09 15.7, 24.29 17.74 C22.48 19.78, 19.3 21.4, 16.18 21.98 C13.06 22.56, 8.27 22.31, 5.56 21.22 C2.86 20.12, 0.76 17.72, -0.06 15.42 C-0.88 13.13, -0.43 9.66, 0.65 7.44 C1.73 5.23, 3.75 3.26, 6.42 2.13 C9.1 1, 14.84 1.15, 16.71 0.66 C18.58 0.16, 17.57 -0.99, 17.65 -0.83" stroke="#000000" stroke-width="1" fill="none"></path></g><g transform="translate(620.5234375 56.05859375) rotate(0 64 12.5)"><text x="0" y="18" font-family="Virgil, Segoe UI Emoji" font-size="20px" fill="#000000" text-anchor="start" style="white-space: pre;" direction="ltr">nestedFilters</text></g><g transform="translate(578.3046875 49.64453125) rotate(0 5 12.5)"><text x="0" y="18" font-family="Virgil, Segoe UI Emoji" font-size="20px" fill="#000000" text-anchor="start" style="white-space: pre;" direction="ltr">*</text></g><g transform="translate(444.759765625 54.98828125) rotate(0 44.5 37.5)"><text x="44.5" y="18" font-family="Virgil, Segoe UI Emoji" font-size="20px" fill="#000000" text-anchor="middle" style="white-space: pre;" direction="ltr">Itinarary</text><text x="44.5" y="43" font-family="Virgil, Segoe UI Emoji" font-size="20px" fill="#000000" text-anchor="middle" style="white-space: pre;" direction="ltr">List</text><text x="44.5" y="68" font-family="Virgil, Segoe UI Emoji" font-size="20px" fill="#000000" text-anchor="middle" style="white-space: pre;" direction="ltr">Filter</text></g><g stroke-linecap="round" transform="translate(483.13671875 301.37890625) rotate(0 81.2109375 101.7734375)"><path d="M1.53 -1.17 C41.49 -2.06, 85.23 -2.49, 161.55 0.24 M0.03 -0.66 C33.36 -0.02, 65.44 -0.35, 162.51 -0.33 M164.13 1.16 C162.2 71.64, 162.46 142.92, 163.72 204.61 M162.55 -0.01 C162.49 59.67, 162.9 118.18, 162.86 203.5 M161.29 205.36 C104.9 204.88, 49.16 202.97, 1.46 202.4 M162.47 204.42 C115.29 204.28, 68.87 203.76, 0.29 202.89 M0.45 203.96 C2.19 157.82, 0.93 111.77, -1.37 -0.12 M-0.33 203.24 C2.13 123.53, 0.99 46.09, -0.18 0.86" stroke="#000000" stroke-width="1" fill="none"></path></g><g stroke-linecap="round"><g transform="translate(107.90386219210927 236.35814261278136) rotate(0 -2.4728068640455376 33.27580315675587)"><path d="M0.47 1.13 C-0.56 12.19, -4.4 55, -5.42 65.88 M-0.74 0.67 C-1.45 11.41, -2.62 53.35, -3.02 64.01" stroke="#000000" stroke-width="1" fill="none"></path></g></g><g stroke-linecap="round"><g transform="translate(810.0986678550578 233.36954065971076) rotate(0 1.6755690344143659 39.93934459085577)"><path d="M0.41 -0.92 C0.74 12.23, 1.43 65.84, 1.81 79.48 M-0.83 1.21 C-0.09 14.48, 3.71 67.8, 4.19 80.8" stroke="#000000" stroke-width="1" fill="none"></path></g></g><g stroke-linecap="round"><g transform="translate(341.6266303699464 237.40472429908812) rotate(0 -0.3738674838179463 33.320886663571)"><path d="M0.28 -0.04 C0.36 10.9, -0.13 55.04, -0.2 66.34 M-1.03 -1.11 C-0.99 9.96, -0.83 56.56, -0.73 67.75" stroke="#000000" stroke-width="1" fill="none"></path></g></g><g stroke-linecap="round"><g transform="translate(560.295878627766 236.38462788682432) rotate(0 0.7253519941825743 29.478225490152823)"><path d="M1.14 -0.45 C1.27 9.55, 1.19 49.57, 1.01 59.61 M0.28 -1.74 C0.27 8.42, 0.47 50.27, 0.25 60.69" stroke="#000000" stroke-width="1" fill="none"></path></g></g><g stroke-linecap="round" transform="translate(31.77734375 304.1953125) rotate(0 81.74609375 47.6796875)"><path d="M-1.31 1.49 C42.26 -0.71, 79.49 0.26, 163.38 -0.03 M-0.55 0.77 C55.29 -0.98, 110.43 -0.82, 163.51 0.31 M164 -0.79 C163.99 33.79, 164.05 69.46, 163.88 93.56 M163.07 -0.97 C163.01 26.74, 162.75 53.91, 162.74 94.7 M163.56 95.75 C126.21 94.97, 90.19 95.38, 1.83 94.7 M163.76 96.24 C128.23 94.16, 90.86 94.43, -0.03 94.83 M-0.3 95.42 C-0.05 69.59, 0.82 46.52, -0.7 -0.61 M-0.73 94.7 C1.27 66.58, 0.94 36.23, 0.77 -0.74" stroke="#000000" stroke-width="1" fill="none"></path></g><g stroke-linecap="round" transform="translate(257.05078125 304.55078125) rotate(0 81.74609375 47.6796875)"><path d="M-1.32 -1.24 C38.13 -0.04, 78.41 0.27, 162.04 0.48 M-0.06 -0.91 C63.79 -1.02, 127.47 -0.65, 162.7 0.41 M165.02 -1.17 C162.58 24.41, 163.68 49.02, 162.62 95.6 M163.53 -0.66 C163.82 19.34, 163 38.32, 163.58 95.03 M165.4 96.66 C106.81 93.75, 49.18 92.81, 1.45 96.55 M163.64 95.35 C116.25 96.19, 69.47 95.86, 0.49 95.31 M-1.13 97.17 C-1.82 63.39, -1.61 28.64, 1.46 -1.15 M0.05 96.23 C0.18 68.59, 0.77 40.47, 0.29 -0.65" stroke="#000000" stroke-width="1" fill="none"></path></g><g transform="translate(726.9765625 345.27734375) rotate(0 78.5 12.5)"><text x="78.5" y="18" font-family="Virgil, Segoe UI Emoji" font-size="20px" fill="#000000" text-anchor="middle" style="white-space: pre;" direction="ltr">DecoratingFilter</text></g><g transform="translate(49.5234375 339.375) rotate(0 64 12.5)"><text x="64" y="18" font-family="Virgil, Segoe UI Emoji" font-size="20px" fill="#000000" text-anchor="middle" style="white-space: pre;" direction="ltr">FilteringFilter</text></g><g stroke-linecap="round" transform="translate(724.54296875 312.58203125) rotate(0 81.74609375 47.6796875)"><path d="M1.45 1.19 C44.43 1.28, 89.14 1.5, 163.47 -0.02 M0.49 -0.05 C65.11 -0.77, 129.6 -1.59, 164.4 -0.79 M164.95 -1.15 C162.63 32.17, 162.71 65.69, 165.23 95.12 M163.78 -0.65 C163.19 36.33, 163.94 73.46, 163.72 96.3 M161.96 95.23 C117.17 93.35, 67.8 94.13, -0.68 97.03 M163.3 96.32 C130.71 97.76, 97.55 97.77, 0.49 96.12 M-0.97 94.59 C-1.99 67.22, -1.9 37.82, 1.61 -1.88 M-0.55 96.17 C-0.76 74.24, -1.04 52.08, -0.04 -0.34" stroke="#000000" stroke-width="1" fill="none"></path></g><g transform="translate(267.25 339.45703125) rotate(0 59.5 12.5)"><text x="59.5" y="18" font-family="Virgil, Segoe UI Emoji" font-size="20px" fill="#000000" text-anchor="middle" style="white-space: pre;" direction="ltr">SortingFilter</text></g><g stroke-linecap="round"><g transform="translate(108.01671084234499 236.26219583114607) rotate(0 350.52693575148464 -1.4521170416846871)"><path d="M1.1 -0.83 C117.39 -1.41, 582.41 -3.79, 698.68 -4.26 M0.22 1.36 C116.79 0.93, 584.01 -2.67, 700.83 -3.34" stroke="#000000" stroke-width="1" fill="none"></path></g></g><g transform="translate(42.5546875 516.685546875) rotate(0 78 87.5)"><text x="78" y="18" font-family="Virgil, Segoe UI Emoji" font-size="20px" fill="#000000" text-anchor="middle" style="white-space: pre;" direction="ltr">ItineraryTagger</text><text x="78" y="43" font-family="Virgil, Segoe UI Emoji" font-size="20px" fill="#000000" text-anchor="middle" style="white-space: pre;" direction="ltr">-------</text><text x="78" y="68" font-family="Virgil, Segoe UI Emoji" font-size="20px" fill="#000000" text-anchor="middle" style="white-space: pre;" direction="ltr">name()</text><text x="78" y="93" font-family="Virgil, Segoe UI Emoji" font-size="20px" fill="#000000" text-anchor="middle" style="white-space: pre;" direction="ltr">tagItineraries()</text><text x="78" y="118" font-family="Virgil, Segoe UI Emoji" font-size="20px" fill="#000000" text-anchor="middle" style="white-space: pre;" direction="ltr">filterUntagged-</text><text x="78" y="143" font-family="Virgil, Segoe UI Emoji" font-size="20px" fill="#000000" text-anchor="middle" style="white-space: pre;" direction="ltr">Itineraries()</text><text x="78" y="168" font-family="Virgil, Segoe UI Emoji" font-size="20px" fill="#000000" text-anchor="middle" style="white-space: pre;" direction="ltr"></text></g></svg>