<svg version="1.1" xmlns="http://www.w3.org/2000/svg" viewBox="0 0 926.546875 774.73046875" width="926.546875" height="774.73046875">
  <!-- svg-source:excalidraw -->
  
  <defs>
    <style>
      @font-face {
        font-family: "Virgil";
        src: url("https://excalidraw.com/Virgil.woff2");
      }
      @font-face {
        font-family: "Cascadia";
        src: url("https://excalidraw.com/Cascadia.woff2");
      }
    </style>
  </defs>
  <rect x="0" y="0" width="926.546875" height="774.73046875" fill="#ffffff"></rect><g stroke-linecap="round"><g transform="translate(138.75849134032399 403.3365669790845) rotate(0 1.795879537310725 38.090997635851465)"><path d="M0.36 1.1 C0.77 13.66, 1.95 63.29, 2.27 75.55 M-0.91 0.63 C-0.12 12.86, 3.56 61.43, 4.5 74" stroke="#000000" stroke-width="1" fill="none"></path></g><g transform="translate(138.75849134032399 403.3365669790845) rotate(0 1.795879537310725 38.090997635851465)"><path d="M-6.01 45.11 C-2.42 52.93, -0.37 61.86, 5.52 74.65 M-7.34 46.2 C-5.13 53.42, -2.94 59.49, 4.17 73.01" stroke="#000000" stroke-width="1" fill="none"></path></g><g transform="translate(138.75849134032399 403.3365669790845) rotate(0 1.795879537310725 38.090997635851465)"><path d="M14.46 43.58 C12.18 51.9, 8.37 61.26, 5.52 74.65 M13.13 44.67 C10.45 52.19, 7.77 58.62, 4.17 73.01" stroke="#000000" stroke-width="1" fill="none"></path></g></g><g stroke-linecap="round" transform="translate(10 482.22265625) rotate(0 137.322265625 141.25390625)"><path d="M143.38 -0.49 C157.99 -2.08, 174.65 4.93, 188.4 10.61 C202.16 16.29, 214.52 23.66, 225.92 33.58 C237.31 43.51, 248.94 56.83, 256.79 70.17 C264.63 83.52, 270.16 98.61, 272.98 113.65 C275.81 128.7, 275.97 145.09, 273.73 160.46 C271.49 175.84, 266.48 192, 259.53 205.92 C252.57 219.84, 242.66 233.47, 231.97 243.97 C221.28 254.48, 209 262.74, 195.41 268.95 C181.81 275.15, 165.45 279.59, 150.4 281.2 C135.35 282.8, 119.75 282.14, 105.1 278.58 C90.45 275.02, 75.07 268.31, 62.51 259.83 C49.94 251.35, 38.93 239.69, 29.73 227.69 C20.53 215.7, 12.17 202.18, 7.31 187.88 C2.45 173.58, 0.59 157.25, 0.58 141.87 C0.57 126.5, 2.5 110.25, 7.26 95.63 C12.02 81.02, 19.68 66.41, 29.13 54.19 C38.59 41.97, 51.24 30.81, 63.99 22.29 C76.75 13.78, 90.4 6.54, 105.69 3.09 C120.98 -0.36, 145.25 1.11, 155.72 1.58 C166.2 2.05, 168.76 3.7, 168.55 5.93 M98.99 6.26 C111.87 -0.06, 128.41 -0.98, 142.95 -0.5 C157.48 -0.02, 172.2 3.48, 186.22 9.14 C200.24 14.8, 215.51 23.09, 227.08 33.48 C238.65 43.86, 248.29 58.09, 255.62 71.46 C262.95 84.83, 267.85 98.84, 271.04 113.71 C274.23 128.58, 276.53 145.48, 274.77 160.68 C273 175.87, 267.28 191.13, 260.44 204.89 C253.59 218.66, 244.47 232.69, 233.7 243.26 C222.93 253.84, 209.58 262.14, 195.81 268.34 C182.05 274.53, 166.19 278.71, 151.11 280.46 C136.03 282.21, 119.87 282.02, 105.32 278.85 C90.77 275.67, 76.4 269.98, 63.81 261.42 C51.22 252.87, 38.99 240.03, 29.8 227.52 C20.6 215.01, 13.58 200.71, 8.65 186.36 C3.72 172, 0.6 156.53, 0.23 141.38 C-0.15 126.24, 1.49 110.2, 6.42 95.5 C11.35 80.8, 20.29 65.32, 29.82 53.18 C39.35 41.05, 52.25 30.67, 63.61 22.7 C74.97 14.74, 92.07 7.94, 97.98 5.39 C103.9 2.85, 98.65 4.83, 99.1 7.43" stroke="#000000" stroke-width="1" fill="none"></path></g><g stroke-linecap="round" transform="translate(295.4140625 488.62890625) rotate(0 88.01953125 85.044921875)"><path d="M105.95 2.59 C117.43 3.55, 129.22 8.97, 138.94 15.83 C148.66 22.7, 158.02 33.64, 164.26 43.8 C170.49 53.96, 175.13 65.24, 176.35 76.8 C177.58 88.37, 175.59 102.07, 171.59 113.2 C167.59 124.34, 160.49 135.28, 152.36 143.62 C144.23 151.95, 133.87 158.84, 122.81 163.22 C111.75 167.61, 98.34 170.1, 86.01 169.92 C73.69 169.74, 59.74 167.09, 48.87 162.14 C38 157.19, 28.54 149.35, 20.78 140.23 C13.02 131.11, 5.75 118.74, 2.31 107.41 C-1.13 96.07, -1.86 83.66, 0.14 72.23 C2.14 60.79, 7.67 48.7, 14.31 38.81 C20.94 28.92, 29.74 19.36, 39.93 12.89 C50.13 6.42, 63.72 1.54, 75.48 -0.01 C87.25 -1.56, 103.83 2.72, 110.51 3.58 C117.19 4.44, 115.91 3.81, 115.55 5.16 M64.44 3.05 C74.94 -1.27, 89.04 -2.14, 101.29 -0.18 C113.53 1.79, 127.88 8.36, 137.91 14.87 C147.94 21.38, 155.21 29.36, 161.48 38.87 C167.75 48.38, 173.69 60.23, 175.54 71.93 C177.39 83.63, 176.13 97.56, 172.57 109.08 C169.02 120.6, 161.82 132.38, 154.2 141.06 C146.59 149.74, 137.89 156.51, 126.88 161.14 C115.87 165.76, 100.21 168.3, 88.12 168.81 C76.04 169.32, 65.28 168.66, 54.37 164.2 C43.46 159.73, 31.02 150.71, 22.66 142.03 C14.31 133.35, 7.78 122.88, 4.26 112.12 C0.73 101.36, 0.21 89.16, 1.5 77.48 C2.79 65.79, 6.2 52.4, 12 42.03 C17.81 31.65, 27.45 21.73, 36.33 15.24 C45.21 8.76, 60.31 4.68, 65.29 3.11 C70.27 1.55, 65.69 4.35, 66.22 5.86" stroke="#000000" stroke-width="1" fill="none"></path></g><g stroke-linecap="round"><g transform="translate(382.80568059166137 404.550838662507) rotate(0 0.846280762624815 39.73122486601267)"><path d="M1.02 -0.65 C1.47 12.54, 1.67 65.78, 1.57 79.02 M0.1 1.62 C0.55 14.95, 1.11 67.14, 0.99 80.11" stroke="#000000" stroke-width="1" fill="none"></path></g><g transform="translate(382.80568059166137 404.550838662507) rotate(0 0.846280762624815 39.73122486601267)"><path d="M-10.43 53.13 C-8.63 56.91, -6.95 64.53, 0.99 81.99 M-10.13 52.7 C-6.27 60.61, -3.18 69.13, 0.14 80.08" stroke="#000000" stroke-width="1" fill="none"></path></g><g transform="translate(382.80568059166137 404.550838662507) rotate(0 0.846280762624815 39.73122486601267)"><path d="M10.09 53.07 C7.64 57.04, 5.08 64.68, 0.99 81.99 M10.4 52.64 C7.92 60.42, 4.7 68.96, 0.14 80.08" stroke="#000000" stroke-width="1" fill="none"></path></g></g><g transform="translate(332.15234375 544.455078125) rotate(0 56.5 25)"><text x="56.5" y="18" font-family="Virgil, Segoe UI Emoji" font-size="20px" fill="#000000" text-anchor="middle" style="white-space: pre;" direction="ltr">Comparator</text><text x="56.5" y="43" font-family="Virgil, Segoe UI Emoji" font-size="20px" fill="#000000" text-anchor="middle" style="white-space: pre;" direction="ltr">&lt;Itinerary&gt;</text></g><g transform="translate(164.462890625 53.673828125) rotate(0 62.5 25)"><text x="62.5" y="18" font-family="Virgil, Segoe UI Emoji" font-size="20px" fill="#000000" text-anchor="middle" style="white-space: pre;" direction="ltr">ItineraryList</text><text x="62.5" y="43" font-family="Virgil, Segoe UI Emoji" font-size="20px" fill="#000000" text-anchor="middle" style="white-space: pre;" direction="ltr">FilterChain</text></g><g stroke-linecap="round"><g transform="translate(311.3702071915468 75.54358598396709) rotate(0 58.65716921667661 -3.845266840765106)"><path d="M0.56 0.22 C20.39 -1.29, 98.44 -6.8, 117.91 -7.91 M-0.6 -0.72 C19.26 -1.59, 97.99 -5.59, 117.59 -6.88" stroke="#000000" stroke-width="1" fill="none"></path></g><g transform="translate(311.3702071915468 75.54358598396709) rotate(0 58.65716921667661 -3.845266840765106)"><path d="M90.39 6.96 C94.18 3.46, 102.56 0, 117.34 -5.43 M89.32 5.08 C95.86 3.01, 101.84 -0.1, 118.04 -6.39" stroke="#000000" stroke-width="1" fill="none"></path></g><g transform="translate(311.3702071915468 75.54358598396709) rotate(0 58.65716921667661 -3.845266840765106)"><path d="M89.22 -13.53 C93.45 -12.66, 102.08 -11.75, 117.34 -5.43 M88.16 -15.41 C94.96 -12.9, 101.2 -11.45, 118.04 -6.39" stroke="#000000" stroke-width="1" fill="none"></path></g></g><g stroke-linecap="round" transform="translate(152.08203125 32.42578125) rotate(0 73.375 44.185546875)"><path d="M0.29 1.07 C53.72 -0.31, 104.45 1.75, 148.32 -0.25 M-0.63 0.13 C41.9 -1.41, 82.74 -0.5, 147.03 0.41 M147.5 -0.44 C147.44 18.07, 147.26 39.86, 148.11 89.14 M146.67 0.82 C145.86 32.88, 145.75 68.72, 147.7 88.69 M148.41 88.21 C101.31 91.01, 51.88 89.08, -1.02 89.11 M147.02 87.74 C101.69 87.96, 56.52 88.41, 0.41 89.29 M0.57 88.45 C-0.21 62.72, 1.27 35.89, 1.53 -0.94 M-0.76 87.86 C1.13 70.59, 1 51.63, 0.29 0.51" stroke="#000000" stroke-width="1" fill="none"></path></g><g transform="translate(412.703125 39.296875) rotate(0 5 12.5)"><text x="0" y="18" font-family="Virgil, Segoe UI Emoji" font-size="20px" fill="#000000" text-anchor="start" style="white-space: pre;" direction="ltr">*</text></g><g stroke-linecap="round"><g transform="translate(515.359375 177.1015625) rotate(0 -1.0244102331034242 26.821260151229836)"><path d="M-0.06 -0.22 C-0.1 9.05, -0.45 46.06, -0.65 55.03 M-1.54 -1.39 C-1.76 7.61, -2.26 44.01, -1.82 53.34" stroke="#000000" stroke-width="1" fill="none"></path></g></g><g transform="translate(513.96484375 154.77734375) rotate(0 0.46484375 9.380859375)" stroke="none" fill="#000000"><path d="M -1.95,4.65 Q -1.95,4.65 -4.01,6.31 -6.06,7.97 -7.65,9.26 -9.23,10.54 -10.83,11.64 -12.42,12.73 -14.35,13.81 -16.29,14.90 -17.09,15.65 -17.90,16.39 -17.02,17.05 -16.15,17.71 -11.96,17.33 -7.78,16.95 -5.84,17.03 -3.90,17.11 -2.57,17.06 -1.25,17.02 0.43,17.03 2.12,17.04 3.60,17.02 5.09,17.00 6.71,16.87 8.33,16.75 10.38,16.68 12.43,16.60 13.51,16.52 14.58,16.44 15.72,16.29 16.85,16.14 18.13,15.78 19.41,15.41 18.98,17.12 18.54,18.84 17.72,18.09 16.91,17.35 15.66,16.22 14.41,15.09 13.03,14.02 11.66,12.95 10.55,12.02 9.43,11.09 8.82,10.14 8.20,9.19 7.36,8.24 6.52,7.29 5.68,6.41 4.84,5.54 3.58,4.60 2.31,3.66 1.58,3.56 0.85,3.46 0.32,3.33 -0.21,3.21 -0.67,2.91 -1.13,2.62 -1.48,2.20 -1.82,1.77 -2.02,1.26 -2.21,0.75 -2.23,0.20 -2.24,-0.33 -2.09,-0.86 -1.93,-1.38 -1.61,-1.83 -1.30,-2.27 -0.86,-2.60 -0.41,-2.92 0.10,-3.08 0.62,-3.25 1.17,-3.24 1.71,-3.23 2.23,-3.04 2.74,-2.86 3.17,-2.52 3.60,-2.18 3.90,-1.72 4.20,-1.26 4.33,-0.73 4.47,-0.20 4.43,0.34 4.39,0.88 4.17,1.39 3.96,1.89 3.60,2.30 3.24,2.71 2.76,2.98 2.29,3.26 1.75,3.36 1.21,3.47 0.67,3.40 0.13,3.33 -0.35,3.09 -0.84,2.85 -1.23,2.47 -1.62,2.08 -1.87,1.59 -2.12,1.10 -2.19,0.56 -2.27,0.02 -2.17,-0.51 -2.07,-1.05 -1.81,-1.52 -1.54,-2.00 -1.14,-2.37 -0.73,-2.74 -0.23,-2.96 0.26,-3.18 0.81,-3.22 1.35,-3.27 2.56,-3.23 3.76,-3.18 5.23,-2.30 6.70,-1.42 7.67,-0.68 8.64,0.05 9.74,1.16 10.83,2.26 11.89,3.50 12.95,4.74 13.68,6.09 14.42,7.45 15.55,8.31 16.67,9.16 17.56,9.82 18.44,10.49 20.01,11.97 21.58,13.45 22.57,15.20 23.56,16.95 22.03,19.01 20.51,21.08 19.04,21.31 17.57,21.55 16.08,21.74 14.59,21.94 13.51,21.86 12.43,21.78 10.38,21.70 8.32,21.63 6.70,21.50 5.08,21.38 3.60,21.36 2.12,21.33 0.42,21.34 -1.27,21.35 -2.59,21.30 -3.92,21.24 -5.87,21.30 -7.81,21.36 -11.19,21.49 -14.57,21.61 -16.42,21.53 -18.27,21.44 -19.55,20.20 -20.82,18.96 -21.30,17.62 -21.77,16.28 -20.94,14.92 -20.10,13.56 -19.00,12.86 -17.90,12.16 -16.10,11.04 -14.30,9.92 -12.83,8.96 -11.35,8.00 -9.82,6.69 -8.30,5.37 -6.39,3.64 -4.49,1.92 -2.70,0.28 -0.90,-1.35 -0.70,-1.43 -0.49,-1.52 -0.27,-1.55 -0.04,-1.58 0.17,-1.56 0.39,-1.54 0.61,-1.46 0.82,-1.39 1.01,-1.27 1.19,-1.14 1.35,-0.98 1.50,-0.82 1.61,-0.62 1.72,-0.42 1.78,-0.21 1.84,0.00 1.84,0.22 1.85,0.45 1.80,0.67 1.75,0.89 1.66,1.09 1.56,1.29 1.41,1.46 1.27,1.64 -0.34,3.14 L -1.95,4.65 Z"></path></g><g stroke-linecap="round" transform="translate(447.0546875 10) rotate(0 74.189453125 68.26171875)"><path d="M-0.38 -0.88 C59.81 0.02, 116.74 -1.32, 146.42 1.14 M0.05 -0.12 C45.98 -0.6, 92.1 -0.53, 148.37 -0.81 M148.6 0.69 C149.88 39.96, 150.35 77.92, 147.71 137.67 M148.02 -0.29 C148.37 52.88, 148.34 106.38, 148.57 137.37 M149.16 136.36 C110.86 133.8, 76.57 133.83, 1.54 136.37 M148.85 136.7 C115.92 137.12, 82.04 138.37, 0.11 136.4 M-1.46 135.11 C1.28 85.04, 2.02 33.84, 0.02 0.9 M-0.99 135.66 C-0.27 88.17, -0.35 41.27, -0.65 0.38" stroke="#000000" stroke-width="1" fill="none"></path></g><g stroke-linecap="round"><g transform="translate(678.1154716623762 317.60682307398883) rotate(0 -33.23986817117975 -119.54143279379838)"><path d="M0.19 -0.15 C1.85 -7.92, 8.38 -9.43, 9.44 -46.04 C10.51 -82.65, 21.62 -188.19, 6.57 -219.8 C-8.48 -251.4, -66.33 -232.79, -80.87 -235.66 M-1.17 -1.27 C0.42 -9.41, 7.57 -11.4, 8.77 -47.62 C9.98 -83.83, 20.99 -186.86, 6.05 -218.56 C-8.88 -250.27, -66.11 -234.76, -80.83 -237.83" stroke="#000000" stroke-width="1" fill="none"></path></g><g transform="translate(678.1154716623762 317.60682307398883) rotate(0 -33.23986817117975 -119.54143279379838)"><path d="M-53.11 -247.8 C-58.28 -245.05, -67.47 -243.7, -79.58 -238.16 M-52.05 -248 C-59.65 -245.73, -67.74 -243.07, -80.14 -237.59" stroke="#000000" stroke-width="1" fill="none"></path></g><g transform="translate(678.1154716623762 317.60682307398883) rotate(0 -33.23986817117975 -119.54143279379838)"><path d="M-52.67 -227.29 C-58.06 -229.82, -67.36 -233.75, -79.58 -238.16 M-51.62 -227.48 C-59.23 -230.3, -67.43 -232.73, -80.14 -237.59" stroke="#000000" stroke-width="1" fill="none"></path></g></g><g transform="translate(526.24609375 322.73828125) rotate(0 66.5 37.5)"><text x="66.5" y="18" font-family="Virgil, Segoe UI Emoji" font-size="20px" fill="#000000" text-anchor="middle" style="white-space: pre;" direction="ltr">GroupByFilter</text><text x="66.5" y="43" font-family="Virgil, Segoe UI Emoji" font-size="20px" fill="#000000" text-anchor="middle" style="white-space: pre;" direction="ltr">&lt;GroupId&gt;</text><text x="66.5" y="68" font-family="Virgil, Segoe UI Emoji" font-size="20px" fill="#000000" text-anchor="middle" style="white-space: pre;" direction="ltr"></text></g><g stroke-linecap="round" transform="translate(552.3828125 22.04296875) rotate(0 14.01171875 10.76171875)"><path d="M3.2 4.1 C3.2 4.1, 3.2 4.1, 3.2 4.1 M3.2 4.1 C3.2 4.1, 3.2 4.1, 3.2 4.1 M2.4 10.96 C6.15 7.99, 6.73 5.48, 10.9 1.09 M1.19 11.78 C5.33 7.28, 8.85 3.37, 10.73 0.58 M3.51 16.95 C5.62 12.31, 9.98 8.16, 15.46 1.99 M3.24 16.66 C6 12.98, 8.74 10.99, 14.38 3.35 M5.68 21.43 C11.18 15.48, 15.86 8.84, 22.33 1.92 M4.9 19.96 C10.27 12.93, 16.85 6.93, 21.33 1.1 M9.13 23.07 C14.55 17.04, 18.41 10.22, 22.28 4.24 M10.31 21.34 C13.89 16.09, 17.21 11.35, 24.69 4.03 M15.37 20.53 C17.14 19.49, 21.88 14.68, 27.02 9.22 M14.46 22.48 C17.35 18, 20.51 13.5, 25.86 7.5 M20.09 18.92 C24.24 17.41, 24.19 16.75, 29.9 10.88 M21.09 19.49 C23.07 17.66, 25.58 14.22, 30.32 9.48" stroke="#228be6" stroke-width="0.5" fill="none"></path><path d="M11.87 0.78 C14.55 0.3, 18.09 -0.35, 20.58 0.79 C23.08 1.92, 25.61 5.22, 26.83 7.58 C28.05 9.94, 28.92 12.98, 27.9 14.94 C26.88 16.89, 23.5 18.36, 20.7 19.3 C17.9 20.24, 14.08 20.86, 11.1 20.58 C8.13 20.3, 4.57 19.1, 2.85 17.62 C1.13 16.14, 0.71 13.98, 0.78 11.71 C0.85 9.44, 0.92 6.1, 3.29 4 C5.66 1.9, 12.28 -0.56, 15.02 -0.9 C17.77 -1.24, 19.54 1.65, 19.75 1.97 M16.08 -0.78 C19.23 -0.42, 24.2 3.51, 26.02 5.27 C27.84 7.02, 27.29 7.66, 27 9.74 C26.71 11.82, 26.09 15.7, 24.29 17.74 C22.48 19.78, 19.3 21.4, 16.18 21.98 C13.06 22.56, 8.27 22.31, 5.56 21.22 C2.86 20.12, 0.76 17.72, -0.06 15.42 C-0.88 13.13, -0.43 9.66, 0.65 7.44 C1.73 5.23, 3.75 3.26, 6.42 2.13 C9.1 1, 14.84 1.15, 16.71 0.66 C18.58 0.16, 17.57 -0.99, 17.65 -0.83" stroke="#000000" stroke-width="1" fill="none"></path></g><g transform="translate(649.03515625 56.05859375) rotate(0 64 12.5)"><text x="0" y="18" font-family="Virgil, Segoe UI Emoji" font-size="20px" fill="#000000" text-anchor="start" style="white-space: pre;" direction="ltr">nestedFilters</text></g><g transform="translate(606.81640625 49.64453125) rotate(0 5 12.5)"><text x="0" y="18" font-family="Virgil, Segoe UI Emoji" font-size="20px" fill="#000000" text-anchor="start" style="white-space: pre;" direction="ltr">*</text></g><g transform="translate(473.271484375 54.98828125) rotate(0 44.5 37.5)"><text x="44.5" y="18" font-family="Virgil, Segoe UI Emoji" font-size="20px" fill="#000000" text-anchor="middle" style="white-space: pre;" direction="ltr">Itinarary</text><text x="44.5" y="43" font-family="Virgil, Segoe UI Emoji" font-size="20px" fill="#000000" text-anchor="middle" style="white-space: pre;" direction="ltr">List</text><text x="44.5" y="68" font-family="Virgil, Segoe UI Emoji" font-size="20px" fill="#000000" text-anchor="middle" style="white-space: pre;" direction="ltr">Filter</text></g><g stroke-linecap="round" transform="translate(511.6484375 301.37890625) rotate(0 81.2109375 49.44921875)"><path d="M1.53 -1.17 C41.49 -2.06, 85.23 -2.49, 161.55 0.24 M0.03 -0.66 C33.36 -0.02, 65.44 -0.35, 162.51 -0.33 M164.33 1.3 C162.94 34.5, 163.23 68.61, 163.87 100.09 M162.57 -0.01 C162.45 29.53, 162.91 57.78, 162.92 98.85 M161.29 100.71 C104.9 100.23, 49.16 98.32, 1.46 97.75 M162.47 99.77 C115.29 99.63, 68.87 99.11, 0.29 98.24 M0.5 99.36 C2.16 76.62, 0.75 53.96, -1.53 -0.13 M-0.37 98.56 C1.59 59.46, 0.31 22.91, -0.2 0.96" stroke="#000000" stroke-width="1" fill="none"></path></g><g stroke-linecap="round"><g transform="translate(136.41558094210927 236.35814261278136) rotate(0 -2.4728068640455376 33.27580315675587)"><path d="M0.47 1.13 C-0.56 12.19, -4.4 55, -5.42 65.88 M-0.74 0.67 C-1.45 11.41, -2.62 53.35, -3.02 64.01" stroke="#000000" stroke-width="1" fill="none"></path></g></g><g stroke-linecap="round"><g transform="translate(838.6103866050578 233.36954065971076) rotate(0 1.6755690344143659 39.93934459085577)"><path d="M0.41 -0.92 C0.74 12.23, 1.43 65.84, 1.81 79.48 M-0.83 1.21 C-0.09 14.48, 3.71 67.8, 4.19 80.8" stroke="#000000" stroke-width="1" fill="none"></path></g></g><g stroke-linecap="round"><g transform="translate(370.1383491199464 237.40472429908812) rotate(0 -0.3738674838179463 33.320886663571)"><path d="M0.28 -0.04 C0.36 10.9, -0.13 55.04, -0.2 66.34 M-1.03 -1.11 C-0.99 9.96, -0.83 56.56, -0.73 67.75" stroke="#000000" stroke-width="1" fill="none"></path></g></g><g stroke-linecap="round"><g transform="translate(588.807597377766 236.38462788682432) rotate(0 0.7253519941825743 29.478225490152823)"><path d="M1.14 -0.45 C1.27 9.55, 1.19 49.57, 1.01 59.61 M0.28 -1.74 C0.27 8.42, 0.47 50.27, 0.25 60.69" stroke="#000000" stroke-width="1" fill="none"></path></g></g><g stroke-linecap="round" transform="translate(26.328125 301.2890625) rotate(0 113.044921875 47.6796875)"><path d="M-1.12 1.28 C57.54 -0.39, 110.78 0.43, 225.99 -0.03 M-0.47 0.66 C76.56 -1.28, 152.99 -1.14, 226.1 0.26 M226.6 -0.79 C226.59 33.79, 226.64 69.46, 226.48 93.56 M225.67 -0.97 C225.6 26.74, 225.35 53.91, 225.33 94.7 M226.15 95.7 C174.59 95.49, 124.18 95.84, 1.57 94.8 M226.32 96.11 C176.92 94.13, 125.95 94.37, -0.03 94.91 M-0.3 95.42 C-0.05 69.59, 0.82 46.52, -0.7 -0.61 M-0.73 94.7 C1.27 66.58, 0.94 36.23, 0.77 -0.74" stroke="#000000" stroke-width="1" fill="none"></path></g><g stroke-linecap="round" transform="translate(285.5625 304.55078125) rotate(0 81.74609375 47.6796875)"><path d="M-1.32 -1.24 C38.13 -0.04, 78.41 0.27, 162.04 0.48 M-0.06 -0.91 C63.79 -1.02, 127.47 -0.65, 162.7 0.41 M165.02 -1.17 C162.58 24.41, 163.68 49.02, 162.62 95.6 M163.53 -0.66 C163.82 19.34, 163 38.32, 163.58 95.03 M165.4 96.66 C106.81 93.75, 49.18 92.81, 1.45 96.55 M163.64 95.35 C116.25 96.19, 69.47 95.86, 0.49 95.31 M-1.13 97.17 C-1.82 63.39, -1.61 28.64, 1.46 -1.15 M0.05 96.23 C0.18 68.59, 0.77 40.47, 0.29 -0.65" stroke="#000000" stroke-width="1" fill="none"></path></g><g transform="translate(755.48828125 345.27734375) rotate(0 78.5 12.5)"><text x="78.5" y="18" font-family="Virgil, Segoe UI Emoji" font-size="20px" fill="#000000" text-anchor="middle" style="white-space: pre;" direction="ltr">DecoratingFilter</text></g><g transform="translate(39.53515625 339.375) rotate(0 102.5 12.5)"><text x="102.5" y="18" font-family="Virgil, Segoe UI Emoji" font-size="20px" fill="#000000" text-anchor="middle" style="white-space: pre;" direction="ltr">DeletionFlaggingFilter</text></g><g stroke-linecap="round" transform="translate(753.0546875 312.58203125) rotate(0 81.74609375 47.6796875)"><path d="M1.45 1.19 C44.43 1.28, 89.14 1.5, 163.47 -0.02 M0.49 -0.05 C65.11 -0.77, 129.6 -1.59, 164.4 -0.79 M164.95 -1.15 C162.63 32.17, 162.71 65.69, 165.23 95.12 M163.78 -0.65 C163.19 36.33, 163.94 73.46, 163.72 96.3 M161.96 95.23 C117.17 93.35, 67.8 94.13, -0.68 97.03 M163.3 96.32 C130.71 97.76, 97.55 97.77, 0.49 96.12 M-0.97 94.59 C-1.99 67.22, -1.9 37.82, 1.61 -1.88 M-0.55 96.17 C-0.76 74.24, -1.04 52.08, -0.04 -0.34" stroke="#000000" stroke-width="1" fill="none"></path></g><g transform="translate(295.76171875 339.45703125) rotate(0 59.5 12.5)"><text x="59.5" y="18" font-family="Virgil, Segoe UI Emoji" font-size="20px" fill="#000000" text-anchor="middle" style="white-space: pre;" direction="ltr">SortingFilter</text></g><g stroke-linecap="round"><g transform="translate(136.528429592345 236.26219583114607) rotate(0 350.52693575148464 -1.4521170416846871)"><path d="M1.1 -0.83 C117.39 -1.41, 582.41 -3.79, 698.68 -4.26 M0.22 1.36 C116.79 0.93, 584.01 -2.67, 700.83 -3.34" stroke="#000000" stroke-width="1" fill="none"></path></g></g><g transform="translate(59.56640625 516.951171875) rotate(0 89.5 112.5)"><text x="89.5" y="18" font-family="Virgil, Segoe UI Emoji" font-size="20px" fill="#000000" text-anchor="middle" style="white-space: pre;" direction="ltr">Itinerary</text><text x="89.5" y="43" font-family="Virgil, Segoe UI Emoji" font-size="20px" fill="#000000" text-anchor="middle" style="white-space: pre;" direction="ltr">DeletionFlagger</text><text x="89.5" y="68" font-family="Virgil, Segoe UI Emoji" font-size="20px" fill="#000000" text-anchor="middle" style="white-space: pre;" direction="ltr">-------</text><text x="89.5" y="93" font-family="Virgil, Segoe UI Emoji" font-size="20px" fill="#000000" text-anchor="middle" style="white-space: pre;" direction="ltr">predicate()</text><text x="89.5" y="118" font-family="Virgil, Segoe UI Emoji" font-size="20px" fill="#000000" text-anchor="middle" style="white-space: pre;" direction="ltr">getFlagged</text><text x="89.5" y="143" font-family="Virgil, Segoe UI Emoji" font-size="20px" fill="#000000" text-anchor="middle" style="white-space: pre;" direction="ltr">Itineraries(List)</text><text x="89.5" y="168" font-family="Virgil, Segoe UI Emoji" font-size="20px" fill="#000000" text-anchor="middle" style="white-space: pre;" direction="ltr">skipAlreadyFlagged</text><text x="89.5" y="193" font-family="Virgil, Segoe UI Emoji" font-size="20px" fill="#000000" text-anchor="middle" style="white-space: pre;" direction="ltr">Itineraries()</text><text x="89.5" y="218" font-family="Virgil, Segoe UI Emoji" font-size="20px" fill="#000000" text-anchor="middle" style="white-space: pre;" direction="ltr"></text></g></svg>