<svg version="1.1" xmlns="http://www.w3.org/2000/svg" viewBox="0 0 1505.1053709551347 636.8278403873246" width="3010.2107419102695" height="1273.6556807746492">
  <!-- svg-source:excalidraw -->
  
  <defs>
    <style class="style-fonts">
      @font-face {
        font-family: "Virgil";
        src: url("https://excalidraw.com/Virgil.woff2");
      }
      @font-face {
        font-family: "Cascadia";
        src: url("https://excalidraw.com/Cascadia.woff2");
      }
      @font-face {
        font-family: "Assistant";
        src: url("https://excalidraw.com/Assistant-Regular.woff2");
      }
    </style>
    
  </defs>
  <rect x="0" y="0" width="1505.1053709551347" height="636.8278403873246" fill="#ffffff"></rect><g stroke-linecap="round"><g transform="translate(885.4798217828749 493.93113049833664) rotate(0 23.20654158347611 25.669313447277545)"><path d="M0 0 C2.35 7.85, 6.34 38.52, 14.08 47.07 C21.81 55.63, 41.02 50.63, 46.41 51.34 M0 0 C2.35 7.85, 6.34 38.52, 14.08 47.07 C21.81 55.63, 41.02 50.63, 46.41 51.34" stroke="#1e1e1e" stroke-width="2" fill="none"></path></g><g transform="translate(885.4798217828749 493.93113049833664) rotate(0 23.20654158347611 25.669313447277545)"><path d="M31.38 57.65 C36.23 55.61, 41.07 53.58, 46.41 51.34 M31.38 57.65 C36.12 55.66, 40.86 53.67, 46.41 51.34" stroke="#1e1e1e" stroke-width="2" fill="none"></path></g><g transform="translate(885.4798217828749 493.93113049833664) rotate(0 23.20654158347611 25.669313447277545)"><path d="M30.84 46.51 C35.86 48.07, 40.88 49.62, 46.41 51.34 M30.84 46.51 C35.75 48.03, 40.66 49.55, 46.41 51.34" stroke="#1e1e1e" stroke-width="2" fill="none"></path></g></g><mask></mask><g stroke-linecap="round"><g transform="translate(884.7818179190891 491.78827335547885) rotate(0 22.98475948447981 47.311133635811075)"><path d="M0 0 C2.14 14.08, 5.17 68.73, 12.83 84.5 C20.49 100.27, 40.45 92.94, 45.97 94.62 M0 0 C2.14 14.08, 5.17 68.73, 12.83 84.5 C20.49 100.27, 40.45 92.94, 45.97 94.62" stroke="#1e1e1e" stroke-width="2" fill="none"></path></g><g transform="translate(884.7818179190891 491.78827335547885) rotate(0 22.98475948447981 47.311133635811075)"><path d="M29.73 100.65 C33.23 99.35, 36.73 98.05, 45.97 94.62 M29.73 100.65 C35.9 98.36, 42.07 96.07, 45.97 94.62" stroke="#1e1e1e" stroke-width="2" fill="none"></path></g><g transform="translate(884.7818179190891 491.78827335547885) rotate(0 22.98475948447981 47.311133635811075)"><path d="M29.65 88.8 C33.17 90.05, 36.69 91.31, 45.97 94.62 M29.65 88.8 C35.85 91.01, 42.05 93.22, 45.97 94.62" stroke="#1e1e1e" stroke-width="2" fill="none"></path></g></g><mask></mask><g stroke-linecap="round" transform="translate(812.5952540308955 260.9055183396813) rotate(0 100.75 41.875)"><path d="M20.94 0 C68.03 0, 115.12 0, 180.56 0 C194.52 0, 201.5 6.98, 201.5 20.94 C201.5 32.84, 201.5 44.75, 201.5 62.81 C201.5 76.77, 194.52 83.75, 180.56 83.75 C119.24 83.75, 57.91 83.75, 20.94 83.75 C6.98 83.75, 0 76.77, 0 62.81 C0 48.88, 0 34.95, 0 20.94 C0 6.98, 6.98 0, 20.94 0" stroke="none" stroke-width="0" fill="#ffffff"></path><path d="M20.94 0 C72.75 0, 124.56 0, 180.56 0 M20.94 0 C68.78 0, 116.63 0, 180.56 0 M180.56 0 C194.52 0, 201.5 6.98, 201.5 20.94 M180.56 0 C194.52 0, 201.5 6.98, 201.5 20.94 M201.5 20.94 C201.5 32.12, 201.5 43.3, 201.5 62.81 M201.5 20.94 C201.5 37.6, 201.5 54.27, 201.5 62.81 M201.5 62.81 C201.5 76.77, 194.52 83.75, 180.56 83.75 M201.5 62.81 C201.5 76.77, 194.52 83.75, 180.56 83.75 M180.56 83.75 C120.39 83.75, 60.21 83.75, 20.94 83.75 M180.56 83.75 C130.91 83.75, 81.27 83.75, 20.94 83.75 M20.94 83.75 C6.98 83.75, 0 76.77, 0 62.81 M20.94 83.75 C6.98 83.75, 0 76.77, 0 62.81 M0 62.81 C0 52.87, 0 42.92, 0 20.94 M0 62.81 C0 51.53, 0 40.24, 0 20.94 M0 20.94 C0 6.98, 6.98 0, 20.94 0 M0 20.94 C0 6.98, 6.98 0, 20.94 0" stroke="#1e1e1e" stroke-width="2" fill="none"></path></g><g transform="translate(854.3752528101924 265.9055183396813) rotate(0 58.970001220703125 12.5)"><text x="58.970001220703125" y="17.52" font-family="Virgil, Segoe UI Emoji" font-size="20px" fill="#1e1e1e" text-anchor="middle" style="white-space: pre;" direction="ltr" dominant-baseline="alphabetic">Timetable C</text></g><g stroke-linecap="round" transform="translate(791.8452540308955 282.4055183396813) rotate(0 100.75 41.875)"><path d="M20.94 0 C71.47 0, 122.01 0, 180.56 0 C194.52 0, 201.5 6.98, 201.5 20.94 C201.5 34.62, 201.5 48.31, 201.5 62.81 C201.5 76.77, 194.52 83.75, 180.56 83.75 C143.7 83.75, 106.84 83.75, 20.94 83.75 C6.98 83.75, 0 76.77, 0 62.81 C0 51.79, 0 40.76, 0 20.94 C0 6.98, 6.98 0, 20.94 0" stroke="none" stroke-width="0" fill="#ffffff"></path><path d="M20.94 0 C70.41 0, 119.89 0, 180.56 0 M20.94 0 C75.97 0, 131 0, 180.56 0 M180.56 0 C194.52 0, 201.5 6.98, 201.5 20.94 M180.56 0 C194.52 0, 201.5 6.98, 201.5 20.94 M201.5 20.94 C201.5 29.36, 201.5 37.79, 201.5 62.81 M201.5 20.94 C201.5 30.43, 201.5 39.93, 201.5 62.81 M201.5 62.81 C201.5 76.77, 194.52 83.75, 180.56 83.75 M201.5 62.81 C201.5 76.77, 194.52 83.75, 180.56 83.75 M180.56 83.75 C121.19 83.75, 61.81 83.75, 20.94 83.75 M180.56 83.75 C135.7 83.75, 90.83 83.75, 20.94 83.75 M20.94 83.75 C6.98 83.75, 0 76.77, 0 62.81 M20.94 83.75 C6.98 83.75, 0 76.77, 0 62.81 M0 62.81 C0 49.83, 0 36.84, 0 20.94 M0 62.81 C0 47.8, 0 32.78, 0 20.94 M0 20.94 C0 6.98, 6.98 0, 20.94 0 M0 20.94 C0 6.98, 6.98 0, 20.94 0" stroke="#1e1e1e" stroke-width="2" fill="none"></path></g><g transform="translate(832.7952509791377 287.4055183396813) rotate(0 59.80000305175781 12.5)"><text x="59.80000305175781" y="17.52" font-family="Virgil, Segoe UI Emoji" font-size="20px" fill="#1e1e1e" text-anchor="middle" style="white-space: pre;" direction="ltr" dominant-baseline="alphabetic">Timetable B</text></g><g stroke-linecap="round" transform="translate(934.1905558687614 528.3924338246943) rotate(0 138.75 17.5)"><path d="M8.75 0 C70.93 0, 133.11 0, 268.75 0 C274.58 0, 277.5 2.92, 277.5 8.75 C277.5 15.51, 277.5 22.27, 277.5 26.25 C277.5 32.08, 274.58 35, 268.75 35 C206.04 35, 143.33 35, 8.75 35 C2.92 35, 0 32.08, 0 26.25 C0 22.48, 0 18.7, 0 8.75 C0 2.92, 2.92 0, 8.75 0" stroke="none" stroke-width="0" fill="#ffffff"></path><path d="M8.75 0 C102.92 0, 197.09 0, 268.75 0 M8.75 0 C82.84 0, 156.93 0, 268.75 0 M268.75 0 C274.58 0, 277.5 2.92, 277.5 8.75 M268.75 0 C274.58 0, 277.5 2.92, 277.5 8.75 M277.5 8.75 C277.5 12.9, 277.5 17.05, 277.5 26.25 M277.5 8.75 C277.5 12.85, 277.5 16.94, 277.5 26.25 M277.5 26.25 C277.5 32.08, 274.58 35, 268.75 35 M277.5 26.25 C277.5 32.08, 274.58 35, 268.75 35 M268.75 35 C165.69 35, 62.63 35, 8.75 35 M268.75 35 C201.36 35, 133.96 35, 8.75 35 M8.75 35 C2.92 35, 0 32.08, 0 26.25 M8.75 35 C2.92 35, 0 32.08, 0 26.25 M0 26.25 C0 22.01, 0 17.78, 0 8.75 M0 26.25 C0 21.49, 0 16.73, 0 8.75 M0 8.75 C0 2.92, 2.92 0, 8.75 0 M0 8.75 C0 2.92, 2.92 0, 8.75 0" stroke="#1e1e1e" stroke-width="2" fill="none"></path></g><g transform="translate(967.2405436617302 533.3924338246943) rotate(0 105.70001220703125 12.5)"><text x="105.70001220703125" y="17.52" font-family="Virgil, Segoe UI Emoji" font-size="20px" fill="#1e1e1e" text-anchor="middle" style="white-space: pre;" direction="ltr" dominant-baseline="alphabetic">arrivalTimes per stop</text></g><g transform="translate(940.4879199458695 68.01398769467778) rotate(0 75.1760025024414 10)"><text x="0" y="14.016" font-family="Virgil, Segoe UI Emoji" font-size="16px" fill="#1e1e1e" text-anchor="start" style="white-space: pre;" direction="ltr" dominant-baseline="alphabetic">LIVE SNAPSHOT T</text></g><g transform="translate(439.4879199458694 10) rotate(0 105.51200103759766 10)"><text x="0" y="14.016" font-family="Virgil, Segoe UI Emoji" font-size="16px" fill="#1e1e1e" text-anchor="start" style="white-space: pre;" direction="ltr" dominant-baseline="alphabetic">TimetableSnapshotManager</text></g><g stroke-linecap="round" transform="translate(576.7738254594663 112.94123262539506) rotate(0 119.375 50.625)"><path d="M25.31 0 C94.21 0, 163.11 0, 213.44 0 C230.31 0, 238.75 8.44, 238.75 25.31 C238.75 41.98, 238.75 58.65, 238.75 75.94 C238.75 92.81, 230.31 101.25, 213.44 101.25 C153.57 101.25, 93.71 101.25, 25.31 101.25 C8.44 101.25, 0 92.81, 0 75.94 C0 58.21, 0 40.49, 0 25.31 C0 8.44, 8.44 0, 25.31 0" stroke="none" stroke-width="0" fill="#a5d8ff"></path><path d="M25.31 0 C63.2 0, 101.08 0, 213.44 0 M25.31 0 C73.43 0, 121.54 0, 213.44 0 M213.44 0 C230.31 0, 238.75 8.44, 238.75 25.31 M213.44 0 C230.31 0, 238.75 8.44, 238.75 25.31 M238.75 25.31 C238.75 40.99, 238.75 56.66, 238.75 75.94 M238.75 25.31 C238.75 35.54, 238.75 45.77, 238.75 75.94 M238.75 75.94 C238.75 92.81, 230.31 101.25, 213.44 101.25 M238.75 75.94 C238.75 92.81, 230.31 101.25, 213.44 101.25 M213.44 101.25 C155.06 101.25, 96.69 101.25, 25.31 101.25 M213.44 101.25 C161.74 101.25, 110.05 101.25, 25.31 101.25 M25.31 101.25 C8.44 101.25, 0 92.81, 0 75.94 M25.31 101.25 C8.44 101.25, 0 92.81, 0 75.94 M0 75.94 C0 64.83, 0 53.72, 0 25.31 M0 75.94 C0 58.38, 0 40.82, 0 25.31 M0 25.31 C0 8.44, 8.44 0, 25.31 0 M0 25.31 C0 8.44, 8.44 0, 25.31 0" stroke="#1e1e1e" stroke-width="2" fill="none"></path></g><g transform="translate(602.0488193559506 117.94123262539506) rotate(0 94.10000610351562 12.5)"><text x="94.10000610351562" y="17.52" font-family="Virgil, Segoe UI Emoji" font-size="20px" fill="#1e1e1e" text-anchor="middle" style="white-space: pre;" direction="ltr" dominant-baseline="alphabetic">TimetableSnapshot'</text></g><g stroke-linecap="round" transform="translate(591.2082217837349 151.77340498194098) rotate(0 106.00000000000006 25)"><path d="M12.5 0 C74.25 0, 136 0, 199.5 0 C207.83 0, 212 4.17, 212 12.5 C212 18.28, 212 24.06, 212 37.5 C212 45.83, 207.83 50, 199.5 50 C128.83 50, 58.15 50, 12.5 50 C4.17 50, 0 45.83, 0 37.5 C0 30.41, 0 23.32, 0 12.5 C0 4.17, 4.17 0, 12.5 0" stroke="none" stroke-width="0" fill="#a5d8ff"></path><path d="M12.5 0 C71.5 0, 130.5 0, 199.5 0 M12.5 0 C76.31 0, 140.12 0, 199.5 0 M199.5 0 C207.83 0, 212 4.17, 212 12.5 M199.5 0 C207.83 0, 212 4.17, 212 12.5 M212 12.5 C212 18.89, 212 25.28, 212 37.5 M212 12.5 C212 19.59, 212 26.67, 212 37.5 M212 37.5 C212 45.83, 207.83 50, 199.5 50 M212 37.5 C212 45.83, 207.83 50, 199.5 50 M199.5 50 C153.29 50, 107.09 50, 12.5 50 M199.5 50 C141 50, 82.51 50, 12.5 50 M12.5 50 C4.17 50, 0 45.83, 0 37.5 M12.5 50 C4.17 50, 0 45.83, 0 37.5 M0 37.5 C0 29.73, 0 21.97, 0 12.5 M0 37.5 C0 31.94, 0 26.38, 0 12.5 M0 12.5 C0 4.17, 4.17 0, 12.5 0 M0 12.5 C0 4.17, 4.17 0, 12.5 0" stroke="#1e1e1e" stroke-width="2" fill="none"></path></g><g transform="translate(597.2322162295357 156.77340498194098) rotate(0 99.97600555419922 20)"><text x="99.97600555419922" y="14.016" font-family="Virgil, Segoe UI Emoji" font-size="16px" fill="#1e1e1e" text-anchor="middle" style="white-space: pre;" direction="ltr" dominant-baseline="alphabetic">Map</text><text x="99.97600555419922" y="34.016" font-family="Virgil, Segoe UI Emoji" font-size="16px" fill="#1e1e1e" text-anchor="middle" style="white-space: pre;" direction="ltr" dominant-baseline="alphabetic">TripPattern -&gt; Timetable</text></g><g mask="url(#mask-6CkeAFNIVwfpWrKtpD15J)" stroke-linecap="round"><g transform="translate(638.9311226504826 201.34483355336943) rotate(0 63.962168765780405 71.01475122418606)"><path d="M0 0 C2.61 19.67, -5.65 94.36, 15.67 118.04 C36.99 141.71, 109.22 138.03, 127.92 142.03 M0 0 C2.61 19.67, -5.65 94.36, 15.67 118.04 C36.99 141.71, 109.22 138.03, 127.92 142.03" stroke="#1e1e1e" stroke-width="2" fill="none"></path></g><g transform="translate(638.9311226504826 201.34483355336943) rotate(0 63.962168765780405 71.01475122418606)"><path d="M103.78 148.52 C111.26 146.51, 118.73 144.5, 127.92 142.03 M103.78 148.52 C108.66 147.21, 113.53 145.9, 127.92 142.03" stroke="#1e1e1e" stroke-width="2" fill="none"></path></g><g transform="translate(638.9311226504826 201.34483355336943) rotate(0 63.962168765780405 71.01475122418606)"><path d="M105.26 131.48 C112.28 134.74, 119.29 138.01, 127.92 142.03 M105.26 131.48 C109.84 133.61, 114.42 135.74, 127.92 142.03" stroke="#1e1e1e" stroke-width="2" fill="none"></path></g></g><mask id="mask-6CkeAFNIVwfpWrKtpD15J"><rect x="0" y="0" fill="#fff" width="866.8554601820434" height="443.37433600174154"></rect><rect x="645.3457531087544" y="309.38062269454167" fill="#000" width="18.512001037597656" height="20" opacity="1"></rect></mask><g transform="translate(645.3457531087545 309.38062269454167) rotate(0 57.54753830750866 -37.02103791698619)"><text x="9.256000518798828" y="14.016" font-family="Virgil, Segoe UI Emoji" font-size="16px" fill="#1e1e1e" text-anchor="middle" style="white-space: pre;" direction="ltr" dominant-baseline="alphabetic">1:N</text></g><g stroke-linecap="round" transform="translate(933.5965879855431 570.8773890904031) rotate(0 138.63560267857122 17.5)"><path d="M8.75 0 C106.8 0, 204.85 0, 268.52 0 C274.35 0, 277.27 2.92, 277.27 8.75 C277.27 13.45, 277.27 18.16, 277.27 26.25 C277.27 32.08, 274.35 35, 268.52 35 C192.48 35, 116.45 35, 8.75 35 C2.92 35, 0 32.08, 0 26.25 C0 19.95, 0 13.65, 0 8.75 C0 2.92, 2.92 0, 8.75 0" stroke="none" stroke-width="0" fill="#a5d8ff"></path><path d="M8.75 0 C86.03 0, 163.31 0, 268.52 0 M8.75 0 C70.11 0, 131.47 0, 268.52 0 M268.52 0 C274.35 0, 277.27 2.92, 277.27 8.75 M268.52 0 C274.35 0, 277.27 2.92, 277.27 8.75 M277.27 8.75 C277.27 15.04, 277.27 21.33, 277.27 26.25 M277.27 8.75 C277.27 12.42, 277.27 16.09, 277.27 26.25 M277.27 26.25 C277.27 32.08, 274.35 35, 268.52 35 M277.27 26.25 C277.27 32.08, 274.35 35, 268.52 35 M268.52 35 C173.19 35, 77.86 35, 8.75 35 M268.52 35 C205.34 35, 142.16 35, 8.75 35 M8.75 35 C2.92 35, 0 32.08, 0 26.25 M8.75 35 C2.92 35, 0 32.08, 0 26.25 M0 26.25 C0 21.54, 0 16.84, 0 8.75 M0 26.25 C0 20.09, 0 13.94, 0 8.75 M0 8.75 C0 2.92, 2.92 0, 8.75 0 M0 8.75 C0 2.92, 2.92 0, 8.75 0" stroke="#1e1e1e" stroke-width="2" fill="none"></path></g><g transform="translate(947.7021766260285 575.8773890904031) rotate(0 124.53001403808594 12.5)"><text x="124.53001403808594" y="17.52" font-family="Virgil, Segoe UI Emoji" font-size="20px" fill="#1e1e1e" text-anchor="middle" style="white-space: pre;" direction="ltr" dominant-baseline="alphabetic">departureTimes' per stop</text></g><g stroke-linecap="round"><g transform="translate(543.1465465898207 65.93995934128543) rotate(0 0 280.1688369405779)"><path d="M-2.34 -1.79 C-2.7 91.77, 0.44 467.39, 0.54 560.89" stroke="#1e1e1e" stroke-width="2.5" fill="none" stroke-dasharray="1.5 8"></path></g></g><mask></mask><g transform="translate(270.1249999999999 68.01398769467778) rotate(0 31.527997970581055 10)"><text x="0" y="14.016" font-family="Virgil, Segoe UI Emoji" font-size="16px" fill="#1e1e1e" text-anchor="start" style="white-space: pre;" direction="ltr" dominant-baseline="alphabetic">BUFFER</text></g><g stroke-linecap="round" transform="translate(10 112.26398769467778) rotate(0 119.375 50.625)"><path d="M25.31 0 C82.34 0, 139.36 0, 213.44 0 C230.31 0, 238.75 8.44, 238.75 25.31 C238.75 45.54, 238.75 65.77, 238.75 75.94 C238.75 92.81, 230.31 101.25, 213.44 101.25 C168.17 101.25, 122.9 101.25, 25.31 101.25 C8.44 101.25, 0 92.81, 0 75.94 C0 64.55, 0 53.16, 0 25.31 C0 8.44, 8.44 0, 25.31 0" stroke="none" stroke-width="0" fill="#b2f2bb"></path><path d="M25.31 0 C85.35 0, 145.38 0, 213.44 0 M25.31 0 C84.93 0, 144.56 0, 213.44 0 M213.44 0 C230.31 0, 238.75 8.44, 238.75 25.31 M213.44 0 C230.31 0, 238.75 8.44, 238.75 25.31 M238.75 25.31 C238.75 44.96, 238.75 64.6, 238.75 75.94 M238.75 25.31 C238.75 39.08, 238.75 52.84, 238.75 75.94 M238.75 75.94 C238.75 92.81, 230.31 101.25, 213.44 101.25 M238.75 75.94 C238.75 92.81, 230.31 101.25, 213.44 101.25 M213.44 101.25 C139.62 101.25, 65.8 101.25, 25.31 101.25 M213.44 101.25 C140.77 101.25, 68.1 101.25, 25.31 101.25 M25.31 101.25 C8.44 101.25, 0 92.81, 0 75.94 M25.31 101.25 C8.44 101.25, 0 92.81, 0 75.94 M0 75.94 C0 56.18, 0 36.42, 0 25.31 M0 75.94 C0 65.02, 0 54.11, 0 25.31 M0 25.31 C0 8.44, 8.44 0, 25.31 0 M0 25.31 C0 8.44, 8.44 0, 25.31 0" stroke="#1e1e1e" stroke-width="2" fill="none"></path></g><g transform="translate(32.614990234375 117.26398769467778) rotate(0 96.760009765625 12.5)"><text x="96.760009765625" y="17.52" font-family="Virgil, Segoe UI Emoji" font-size="20px" fill="#1e1e1e" text-anchor="middle" style="white-space: pre;" direction="ltr" dominant-baseline="alphabetic">TimetableSnapshot''</text></g><g mask="url(#mask-KaNryYRGDdfoD2Y-xh3NH)" stroke-linecap="round"><g transform="translate(53.705046709844225 202.0961600512237) rotate(0 367.8035688147968 40.25536884893381)"><path d="M0 0 C18.51 11.45, -11.54 55.27, 111.06 68.69 C233.67 82.11, 631.52 78.54, 735.61 80.51 M0 0 C18.51 11.45, -11.54 55.27, 111.06 68.69 C233.67 82.11, 631.52 78.54, 735.61 80.51" stroke="#1e1e1e" stroke-width="2" fill="none"></path></g><g transform="translate(53.705046709844225 202.0961600512237) rotate(0 367.8035688147968 40.25536884893381)"><path d="M712.07 88.93 C718.68 86.56, 725.3 84.2, 735.61 80.51 M712.07 88.93 C721.41 85.59, 730.76 82.24, 735.61 80.51" stroke="#1e1e1e" stroke-width="2" fill="none"></path></g><g transform="translate(53.705046709844225 202.0961600512237) rotate(0 367.8035688147968 40.25536884893381)"><path d="M712.16 71.83 C718.75 74.27, 725.34 76.71, 735.61 80.51 M712.16 71.83 C721.47 75.28, 730.78 78.72, 735.61 80.51" stroke="#1e1e1e" stroke-width="2" fill="none"></path></g></g><mask id="mask-KaNryYRGDdfoD2Y-xh3NH"><rect x="0" y="0" fill="#fff" width="889.3121843394376" height="382.60689774909133"></rect><rect x="144.033615079993" y="260.7831869160382" fill="#000" width="41.47200012207031" height="20" opacity="1"></rect></mask><g transform="translate(144.033615079993 260.7831869160382) rotate(0 277.475000444648 -18.431658015880657)"><text x="20.736000061035156" y="14.016" font-family="Virgil, Segoe UI Emoji" font-size="16px" fill="#1e1e1e" text-anchor="middle" style="white-space: pre;" direction="ltr" dominant-baseline="alphabetic">1:(N-1)</text></g><g stroke-linecap="round" transform="translate(24.43439632426862 151.0961600512237) rotate(0 106.00000000000006 25)"><path d="M12.5 0 C57.25 0, 102 0, 199.5 0 C207.83 0, 212 4.17, 212 12.5 C212 21.36, 212 30.22, 212 37.5 C212 45.83, 207.83 50, 199.5 50 C136.28 50, 73.06 50, 12.5 50 C4.17 50, 0 45.83, 0 37.5 C0 32.41, 0 27.31, 0 12.5 C0 4.17, 4.17 0, 12.5 0" stroke="none" stroke-width="0" fill="#b2f2bb"></path><path d="M12.5 0 C58.71 0, 104.91 0, 199.5 0 M12.5 0 C71 0, 129.49 0, 199.5 0 M199.5 0 C207.83 0, 212 4.17, 212 12.5 M199.5 0 C207.83 0, 212 4.17, 212 12.5 M212 12.5 C212 20.27, 212 28.03, 212 37.5 M212 12.5 C212 18.06, 212 23.62, 212 37.5 M212 37.5 C212 45.83, 207.83 50, 199.5 50 M212 37.5 C212 45.83, 207.83 50, 199.5 50 M199.5 50 C137.75 50, 76 50, 12.5 50 M199.5 50 C137.93 50, 76.35 50, 12.5 50 M12.5 50 C4.17 50, 0 45.83, 0 37.5 M12.5 50 C4.17 50, 0 45.83, 0 37.5 M0 37.5 C0 28.05, 0 18.6, 0 12.5 M0 37.5 C0 28.75, 0 19.99, 0 12.5 M0 12.5 C0 4.17, 4.17 0, 12.5 0 M0 12.5 C0 4.17, 4.17 0, 12.5 0" stroke="#1e1e1e" stroke-width="2" fill="none"></path></g><g transform="translate(30.4583907700694 156.0961600512237) rotate(0 99.97600555419922 20)"><text x="99.97600555419922" y="14.016" font-family="Virgil, Segoe UI Emoji" font-size="16px" fill="#1e1e1e" text-anchor="middle" style="white-space: pre;" direction="ltr" dominant-baseline="alphabetic">Map</text><text x="99.97600555419922" y="34.016" font-family="Virgil, Segoe UI Emoji" font-size="16px" fill="#1e1e1e" text-anchor="middle" style="white-space: pre;" direction="ltr" dominant-baseline="alphabetic">TripPattern -&gt; Timetable</text></g><g stroke-linecap="round" transform="translate(150.09589710473324 457.34418391601866) rotate(0 79.99999999999997 17.5)"><path d="M8.75 0 C60.04 0, 111.34 0, 151.25 0 C157.08 0, 160 2.92, 160 8.75 C160 14.84, 160 20.94, 160 26.25 C160 32.08, 157.08 35, 151.25 35 C102.58 35, 53.9 35, 8.75 35 C2.92 35, 0 32.08, 0 26.25 C0 20.59, 0 14.93, 0 8.75 C0 2.92, 2.92 0, 8.75 0" stroke="none" stroke-width="0" fill="#b2f2bb"></path><path d="M8.75 0 C57.83 0, 106.91 0, 151.25 0 M8.75 0 C45.99 0, 83.23 0, 151.25 0 M151.25 0 C157.08 0, 160 2.92, 160 8.75 M151.25 0 C157.08 0, 160 2.92, 160 8.75 M160 8.75 C160 13.6, 160 18.45, 160 26.25 M160 8.75 C160 12.88, 160 17.01, 160 26.25 M160 26.25 C160 32.08, 157.08 35, 151.25 35 M160 26.25 C160 32.08, 157.08 35, 151.25 35 M151.25 35 C113.92 35, 76.59 35, 8.75 35 M151.25 35 C118.31 35, 85.38 35, 8.75 35 M8.75 35 C2.92 35, 0 32.08, 0 26.25 M8.75 35 C2.92 35, 0 32.08, 0 26.25 M0 26.25 C0 19.67, 0 13.08, 0 8.75 M0 26.25 C0 21.29, 0 16.32, 0 8.75 M0 8.75 C0 2.92, 2.92 0, 8.75 0 M0 8.75 C0 2.92, 2.92 0, 8.75 0" stroke="#1e1e1e" stroke-width="2" fill="none"></path></g><g transform="translate(161.43589344262386 462.34418391601866) rotate(0 68.66000366210938 12.5)"><text x="68.66000366210938" y="17.52" font-family="Virgil, Segoe UI Emoji" font-size="20px" fill="#1e1e1e" text-anchor="middle" style="white-space: pre;" direction="ltr" dominant-baseline="alphabetic">TripTimes B3'</text></g><g stroke-linecap="round" transform="translate(75.79824618579983 302.64000032879267) rotate(0 100.75 41.875)"><path d="M20.94 0 C70.19 0, 119.44 0, 180.56 0 C194.52 0, 201.5 6.98, 201.5 20.94 C201.5 33.8, 201.5 46.67, 201.5 62.81 C201.5 76.77, 194.52 83.75, 180.56 83.75 C121.69 83.75, 62.82 83.75, 20.94 83.75 C6.98 83.75, 0 76.77, 0 62.81 C0 46.66, 0 30.5, 0 20.94 C0 6.98, 6.98 0, 20.94 0" stroke="none" stroke-width="0" fill="#b2f2bb"></path><path d="M20.94 0 C63.68 0, 106.42 0, 180.56 0 M20.94 0 C62.13 0, 103.32 0, 180.56 0 M180.56 0 C194.52 0, 201.5 6.98, 201.5 20.94 M180.56 0 C194.52 0, 201.5 6.98, 201.5 20.94 M201.5 20.94 C201.5 35.7, 201.5 50.47, 201.5 62.81 M201.5 20.94 C201.5 31.69, 201.5 42.44, 201.5 62.81 M201.5 62.81 C201.5 76.77, 194.52 83.75, 180.56 83.75 M201.5 62.81 C201.5 76.77, 194.52 83.75, 180.56 83.75 M180.56 83.75 C122.39 83.75, 64.21 83.75, 20.94 83.75 M180.56 83.75 C137.33 83.75, 94.1 83.75, 20.94 83.75 M20.94 83.75 C6.98 83.75, 0 76.77, 0 62.81 M20.94 83.75 C6.98 83.75, 0 76.77, 0 62.81 M0 62.81 C0 50.89, 0 38.96, 0 20.94 M0 62.81 C0 47.84, 0 32.87, 0 20.94 M0 20.94 C0 6.98, 6.98 0, 20.94 0 M0 20.94 C0 6.98, 6.98 0, 20.94 0" stroke="#1e1e1e" stroke-width="2" fill="none"></path></g><g transform="translate(114.0882432866299 307.64000032879267) rotate(0 62.46000289916992 12.5)"><text x="62.46000289916992" y="17.52" font-family="Virgil, Segoe UI Emoji" font-size="20px" fill="#1e1e1e" text-anchor="middle" style="white-space: pre;" direction="ltr" dominant-baseline="alphabetic">Timetable B'</text></g><g stroke-linecap="round" transform="translate(88.8576425100689 337.2221726853386) rotate(0 88.50000000000011 20)"><path d="M10 0 C47.37 0, 84.74 0, 167 0 C173.67 0, 177 3.33, 177 10 C177 15.38, 177 20.76, 177 30 C177 36.67, 173.67 40, 167 40 C113.39 40, 59.77 40, 10 40 C3.33 40, 0 36.67, 0 30 C0 22.8, 0 15.6, 0 10 C0 3.33, 3.33 0, 10 0" stroke="none" stroke-width="0" fill="#b2f2bb"></path><path d="M10 0 C56.32 0, 102.63 0, 167 0 M10 0 C45.82 0, 81.64 0, 167 0 M167 0 C173.67 0, 177 3.33, 177 10 M167 0 C173.67 0, 177 3.33, 177 10 M177 10 C177 17.68, 177 25.37, 177 30 M177 10 C177 16.82, 177 23.64, 177 30 M177 30 C177 36.67, 173.67 40, 167 40 M177 30 C177 36.67, 173.67 40, 167 40 M167 40 C127.27 40, 87.54 40, 10 40 M167 40 C129.94 40, 92.88 40, 10 40 M10 40 C3.33 40, 0 36.67, 0 30 M10 40 C3.33 40, 0 36.67, 0 30 M0 30 C0 24.24, 0 18.49, 0 10 M0 30 C0 24.18, 0 18.36, 0 10 M0 10 C0 3.33, 3.33 0, 10 0 M0 10 C0 3.33, 3.33 0, 10 0" stroke="#1e1e1e" stroke-width="2" fill="none"></path></g><g transform="translate(115.69364485992253 347.2221726853386) rotate(0 61.663997650146484 10)"><text x="61.663997650146484" y="14.016" font-family="Virgil, Segoe UI Emoji" font-size="16px" fill="#1e1e1e" text-anchor="middle" style="white-space: pre;" direction="ltr" dominant-baseline="alphabetic">List&lt;TripTimes&gt;</text></g><g stroke-linecap="round"><g transform="translate(113.02768720063045 376.79360125676703) rotate(0 12.068209904102616 49.406022357482016)"><path d="M0 0 C-1.78 14.06, -16.48 67.92, -10.68 84.39 C-4.88 100.86, 27.23 96.41, 34.82 98.81 M0 0 C-1.78 14.06, -16.48 67.92, -10.68 84.39 C-4.88 100.86, 27.23 96.41, 34.82 98.81" stroke="#1e1e1e" stroke-width="2" fill="none"></path></g><g transform="translate(113.02768720063045 376.79360125676703) rotate(0 12.068209904102616 49.406022357482016)"><path d="M11.76 104.98 C19.06 103.03, 26.36 101.07, 34.82 98.81 M11.76 104.98 C18.32 103.22, 24.87 101.47, 34.82 98.81" stroke="#1e1e1e" stroke-width="2" fill="none"></path></g><g transform="translate(113.02768720063045 376.79360125676703) rotate(0 12.068209904102616 49.406022357482016)"><path d="M13.19 88.71 C20.04 91.91, 26.89 95.11, 34.82 98.81 M13.19 88.71 C19.34 91.59, 25.49 94.46, 34.82 98.81" stroke="#1e1e1e" stroke-width="2" fill="none"></path></g></g><mask></mask><g stroke-linecap="round" transform="translate(216.76386585473335 570.7547282223713) rotate(0 135.92863944894407 17.5)"><path d="M8.75 0 C72.11 0, 135.47 0, 263.11 0 C268.94 0, 271.86 2.92, 271.86 8.75 C271.86 13.05, 271.86 17.35, 271.86 26.25 C271.86 32.08, 268.94 35, 263.11 35 C192.03 35, 120.95 35, 8.75 35 C2.92 35, 0 32.08, 0 26.25 C0 22.33, 0 18.4, 0 8.75 C0 2.92, 2.92 0, 8.75 0" stroke="none" stroke-width="0" fill="#b2f2bb"></path><path d="M8.75 0 C64.56 0, 120.38 0, 263.11 0 M8.75 0 C96.96 0, 185.18 0, 263.11 0 M263.11 0 C268.94 0, 271.86 2.92, 271.86 8.75 M263.11 0 C268.94 0, 271.86 2.92, 271.86 8.75 M271.86 8.75 C271.86 15.16, 271.86 21.57, 271.86 26.25 M271.86 8.75 C271.86 15.14, 271.86 21.53, 271.86 26.25 M271.86 26.25 C271.86 32.08, 268.94 35, 263.11 35 M271.86 26.25 C271.86 32.08, 268.94 35, 263.11 35 M263.11 35 C182.17 35, 101.23 35, 8.75 35 M263.11 35 C205.71 35, 148.3 35, 8.75 35 M8.75 35 C2.92 35, 0 32.08, 0 26.25 M8.75 35 C2.92 35, 0 32.08, 0 26.25 M0 26.25 C0 22.64, 0 19.03, 0 8.75 M0 26.25 C0 21.89, 0 17.53, 0 8.75 M0 8.75 C0 2.92, 2.92 0, 8.75 0 M0 8.75 C0 2.92, 2.92 0, 8.75 0" stroke="#1e1e1e" stroke-width="2" fill="none"></path></g><g transform="translate(228.16249126559148 575.7547282223713) rotate(0 124.53001403808594 12.5)"><text x="124.53001403808594" y="17.52" font-family="Virgil, Segoe UI Emoji" font-size="20px" fill="#1e1e1e" text-anchor="middle" style="white-space: pre;" direction="ltr" dominant-baseline="alphabetic">departureTimes' per stop</text></g><g stroke-linecap="round"><g transform="translate(53.60993152428239 202.0961600512237) rotate(0 -0.8000649053553275 66.84436780996339)"><path d="M0 0 C-3.65 19.8, -25.29 96.53, -21.91 118.81 C-18.52 141.09, 13.27 131.21, 20.31 133.69 M0 0 C-3.65 19.8, -25.29 96.53, -21.91 118.81 C-18.52 141.09, 13.27 131.21, 20.31 133.69" stroke="#1e1e1e" stroke-width="2" fill="none"></path></g><g transform="translate(53.60993152428239 202.0961600512237) rotate(0 -0.8000649053553275 66.84436780996339)"><path d="M-0.79 141.17 C4.26 139.38, 9.3 137.59, 20.31 133.69 M-0.79 141.17 C5.73 138.86, 12.24 136.55, 20.31 133.69" stroke="#1e1e1e" stroke-width="2" fill="none"></path></g><g transform="translate(53.60993152428239 202.0961600512237) rotate(0 -0.8000649053553275 66.84436780996339)"><path d="M-0.66 125.86 C4.36 127.73, 9.37 129.61, 20.31 133.69 M-0.66 125.86 C5.82 128.28, 12.29 130.7, 20.31 133.69" stroke="#1e1e1e" stroke-width="2" fill="none"></path></g></g><mask></mask><g stroke-linecap="round" transform="translate(901.3958831322617 411.0947677387194) rotate(0 80 17.5)"><path d="M8.75 0 C64.86 0, 120.96 0, 151.25 0 C157.08 0, 160 2.92, 160 8.75 C160 12.29, 160 15.83, 160 26.25 C160 32.08, 157.08 35, 151.25 35 C118.81 35, 86.37 35, 8.75 35 C2.92 35, 0 32.08, 0 26.25 C0 21.09, 0 15.94, 0 8.75 C0 2.92, 2.92 0, 8.75 0" stroke="none" stroke-width="0" fill="#ffffff"></path><path d="M8.75 0 C41.66 0, 74.56 0, 151.25 0 M8.75 0 C56.15 0, 103.55 0, 151.25 0 M151.25 0 C157.08 0, 160 2.92, 160 8.75 M151.25 0 C157.08 0, 160 2.92, 160 8.75 M160 8.75 C160 14.97, 160 21.2, 160 26.25 M160 8.75 C160 14.04, 160 19.32, 160 26.25 M160 26.25 C160 32.08, 157.08 35, 151.25 35 M160 26.25 C160 32.08, 157.08 35, 151.25 35 M151.25 35 C96.83 35, 42.4 35, 8.75 35 M151.25 35 C95.65 35, 40.04 35, 8.75 35 M8.75 35 C2.92 35, 0 32.08, 0 26.25 M8.75 35 C2.92 35, 0 32.08, 0 26.25 M0 26.25 C0 20.76, 0 15.27, 0 8.75 M0 26.25 C0 21.54, 0 16.83, 0 8.75 M0 8.75 C0 2.92, 2.92 0, 8.75 0 M0 8.75 C0 2.92, 2.92 0, 8.75 0" stroke="#1e1e1e" stroke-width="2" fill="none"></path></g><g transform="translate(916.1058822167344 416.0947677387194) rotate(0 65.29000091552734 12.5)"><text x="65.29000091552734" y="17.52" font-family="Virgil, Segoe UI Emoji" font-size="20px" fill="#1e1e1e" text-anchor="middle" style="white-space: pre;" direction="ltr" dominant-baseline="alphabetic">TripTimes A3</text></g><g stroke-linecap="round" transform="translate(1096.2052794565298 410.3321125090588) rotate(0 73.75 17.5)"><path d="M8.75 0 C44.14 0, 79.54 0, 138.75 0 C144.58 0, 147.5 2.92, 147.5 8.75 C147.5 13.24, 147.5 17.74, 147.5 26.25 C147.5 32.08, 144.58 35, 138.75 35 C98.14 35, 57.52 35, 8.75 35 C2.92 35, 0 32.08, 0 26.25 C0 22.11, 0 17.96, 0 8.75 C0 2.92, 2.92 0, 8.75 0" stroke="none" stroke-width="0" fill="#ffffff"></path><path d="M8.75 0 C56.13 0, 103.51 0, 138.75 0 M8.75 0 C42.98 0, 77.2 0, 138.75 0 M138.75 0 C144.58 0, 147.5 2.92, 147.5 8.75 M138.75 0 C144.58 0, 147.5 2.92, 147.5 8.75 M147.5 8.75 C147.5 14.23, 147.5 19.7, 147.5 26.25 M147.5 8.75 C147.5 12.8, 147.5 16.85, 147.5 26.25 M147.5 26.25 C147.5 32.08, 144.58 35, 138.75 35 M147.5 26.25 C147.5 32.08, 144.58 35, 138.75 35 M138.75 35 C89.83 35, 40.91 35, 8.75 35 M138.75 35 C93.35 35, 47.94 35, 8.75 35 M8.75 35 C2.92 35, 0 32.08, 0 26.25 M8.75 35 C2.92 35, 0 32.08, 0 26.25 M0 26.25 C0 20.76, 0 15.27, 0 8.75 M0 26.25 C0 21.72, 0 17.18, 0 8.75 M0 8.75 C0 2.92, 2.92 0, 8.75 0 M0 8.75 C0 2.92, 2.92 0, 8.75 0" stroke="#1e1e1e" stroke-width="2" fill="none"></path></g><g transform="translate(1132.125277625475 415.3321125090588) rotate(0 37.83000183105469 12.5)"><text x="37.83000183105469" y="17.52" font-family="Virgil, Segoe UI Emoji" font-size="20px" fill="#1e1e1e" text-anchor="middle" style="white-space: pre;" direction="ltr" dominant-baseline="alphabetic">Trip A3</text></g><g stroke-linecap="round"><g transform="translate(1062.4552794565307 430.3321125090588) rotate(0 16.503617177873025 0)"><path d="M0 0 C5.5 0, 27.51 0, 33.01 0 M0 0 C5.5 0, 27.51 0, 33.01 0" stroke="#1e1e1e" stroke-width="2" fill="none"></path></g><g transform="translate(1062.4552794565307 430.3321125090588) rotate(0 16.503617177873025 0)"><path d="M17.5 5.64 C21.67 4.13, 25.84 2.61, 33.01 0 M17.5 5.64 C22.95 3.66, 28.41 1.67, 33.01 0" stroke="#1e1e1e" stroke-width="2" fill="none"></path></g><g transform="translate(1062.4552794565307 430.3321125090588) rotate(0 16.503617177873025 0)"><path d="M17.5 -5.64 C21.67 -4.13, 25.84 -2.61, 33.01 0 M17.5 -5.64 C22.95 -3.66, 28.41 -1.67, 33.01 0" stroke="#1e1e1e" stroke-width="2" fill="none"></path></g></g><mask></mask><g stroke-linecap="round" transform="translate(880.8958831322617 434.3447677387194) rotate(0 80 17.5)"><path d="M8.75 0 C60.45 0, 112.15 0, 151.25 0 C157.08 0, 160 2.92, 160 8.75 C160 13.79, 160 18.82, 160 26.25 C160 32.08, 157.08 35, 151.25 35 C107.98 35, 64.7 35, 8.75 35 C2.92 35, 0 32.08, 0 26.25 C0 21.96, 0 17.67, 0 8.75 C0 2.92, 2.92 0, 8.75 0" stroke="none" stroke-width="0" fill="#ffffff"></path><path d="M8.75 0 C46.08 0, 83.41 0, 151.25 0 M8.75 0 C41.69 0, 74.62 0, 151.25 0 M151.25 0 C157.08 0, 160 2.92, 160 8.75 M151.25 0 C157.08 0, 160 2.92, 160 8.75 M160 8.75 C160 15.33, 160 21.92, 160 26.25 M160 8.75 C160 13.71, 160 18.68, 160 26.25 M160 26.25 C160 32.08, 157.08 35, 151.25 35 M160 26.25 C160 32.08, 157.08 35, 151.25 35 M151.25 35 C99.96 35, 48.66 35, 8.75 35 M151.25 35 C100.75 35, 50.24 35, 8.75 35 M8.75 35 C2.92 35, 0 32.08, 0 26.25 M8.75 35 C2.92 35, 0 32.08, 0 26.25 M0 26.25 C0 20.27, 0 14.29, 0 8.75 M0 26.25 C0 22.68, 0 19.12, 0 8.75 M0 8.75 C0 2.92, 2.92 0, 8.75 0 M0 8.75 C0 2.92, 2.92 0, 8.75 0" stroke="#1e1e1e" stroke-width="2" fill="none"></path></g><g transform="translate(895.2958770287461 439.3447677387194) rotate(0 65.60000610351562 12.5)"><text x="65.60000610351562" y="17.52" font-family="Virgil, Segoe UI Emoji" font-size="20px" fill="#1e1e1e" text-anchor="middle" style="white-space: pre;" direction="ltr" dominant-baseline="alphabetic">TripTimes A2</text></g><g stroke-linecap="round" transform="translate(1077.7052794565298 433.5821125090588) rotate(0 73.75 17.5)"><path d="M8.75 0 C42.81 0, 76.88 0, 138.75 0 C144.58 0, 147.5 2.92, 147.5 8.75 C147.5 12.28, 147.5 15.81, 147.5 26.25 C147.5 32.08, 144.58 35, 138.75 35 C90.28 35, 41.81 35, 8.75 35 C2.92 35, 0 32.08, 0 26.25 C0 21.37, 0 16.48, 0 8.75 C0 2.92, 2.92 0, 8.75 0" stroke="none" stroke-width="0" fill="#ffffff"></path><path d="M8.75 0 C56.13 0, 103.5 0, 138.75 0 M8.75 0 C43.96 0, 79.17 0, 138.75 0 M138.75 0 C144.58 0, 147.5 2.92, 147.5 8.75 M138.75 0 C144.58 0, 147.5 2.92, 147.5 8.75 M147.5 8.75 C147.5 13.73, 147.5 18.72, 147.5 26.25 M147.5 8.75 C147.5 15.01, 147.5 21.27, 147.5 26.25 M147.5 26.25 C147.5 32.08, 144.58 35, 138.75 35 M147.5 26.25 C147.5 32.08, 144.58 35, 138.75 35 M138.75 35 C98.64 35, 58.53 35, 8.75 35 M138.75 35 C93.48 35, 48.21 35, 8.75 35 M8.75 35 C2.92 35, 0 32.08, 0 26.25 M8.75 35 C2.92 35, 0 32.08, 0 26.25 M0 26.25 C0 19.8, 0 13.34, 0 8.75 M0 26.25 C0 20.59, 0 14.93, 0 8.75 M0 8.75 C0 2.92, 2.92 0, 8.75 0 M0 8.75 C0 2.92, 2.92 0, 8.75 0" stroke="#1e1e1e" stroke-width="2" fill="none"></path></g><g transform="translate(1113.3152800668813 438.5821125090588) rotate(0 38.13999938964844 12.5)"><text x="38.13999938964844" y="17.52" font-family="Virgil, Segoe UI Emoji" font-size="20px" fill="#1e1e1e" text-anchor="middle" style="white-space: pre;" direction="ltr" dominant-baseline="alphabetic">Trip A2</text></g><g stroke-linecap="round"><g transform="translate(1041.9552794565307 453.5821125090588) rotate(0 16.253617177873025 0)"><path d="M0 0 C5.42 0, 27.09 0, 32.51 0 M0 0 C5.42 0, 27.09 0, 32.51 0" stroke="#1e1e1e" stroke-width="2" fill="none"></path></g><g transform="translate(1041.9552794565307 453.5821125090588) rotate(0 16.253617177873025 0)"><path d="M17.23 5.56 C21.1 4.15, 24.96 2.75, 32.51 0 M17.23 5.56 C20.84 4.25, 24.44 2.93, 32.51 0" stroke="#1e1e1e" stroke-width="2" fill="none"></path></g><g transform="translate(1041.9552794565307 453.5821125090588) rotate(0 16.253617177873025 0)"><path d="M17.23 -5.56 C21.1 -4.15, 24.96 -2.75, 32.51 0 M17.23 -5.56 C20.84 -4.25, 24.44 -2.93, 32.51 0" stroke="#1e1e1e" stroke-width="2" fill="none"></path></g></g><mask></mask><g stroke-linecap="round" transform="translate(1053.7231485511297 457.9101855013505) rotate(0 73.75 17.5)"><path d="M8.75 0 C37.37 0, 66 0, 138.75 0 C144.58 0, 147.5 2.92, 147.5 8.75 C147.5 12.91, 147.5 17.08, 147.5 26.25 C147.5 32.08, 144.58 35, 138.75 35 C104.68 35, 70.61 35, 8.75 35 C2.92 35, 0 32.08, 0 26.25 C0 22.3, 0 18.36, 0 8.75 C0 2.92, 2.92 0, 8.75 0" stroke="none" stroke-width="0" fill="#ffffff"></path><path d="M8.75 0 C39.67 0, 70.6 0, 138.75 0 M8.75 0 C56.37 0, 103.99 0, 138.75 0 M138.75 0 C144.58 0, 147.5 2.92, 147.5 8.75 M138.75 0 C144.58 0, 147.5 2.92, 147.5 8.75 M147.5 8.75 C147.5 14.57, 147.5 20.39, 147.5 26.25 M147.5 8.75 C147.5 15.74, 147.5 22.74, 147.5 26.25 M147.5 26.25 C147.5 32.08, 144.58 35, 138.75 35 M147.5 26.25 C147.5 32.08, 144.58 35, 138.75 35 M138.75 35 C89.61 35, 40.47 35, 8.75 35 M138.75 35 C109.5 35, 80.25 35, 8.75 35 M8.75 35 C2.92 35, 0 32.08, 0 26.25 M8.75 35 C2.92 35, 0 32.08, 0 26.25 M0 26.25 C0 20.09, 0 13.93, 0 8.75 M0 26.25 C0 19.85, 0 13.44, 0 8.75 M0 8.75 C0 2.92, 2.92 0, 8.75 0 M0 8.75 C0 2.92, 2.92 0, 8.75 0" stroke="#1e1e1e" stroke-width="2" fill="none"></path></g><g transform="translate(1093.7431490088934 462.9101855013505) rotate(0 33.72999954223633 12.5)"><text x="33.72999954223633" y="17.52" font-family="Virgil, Segoe UI Emoji" font-size="20px" fill="#1e1e1e" text-anchor="middle" style="white-space: pre;" direction="ltr" dominant-baseline="alphabetic">Trip A1</text></g><g stroke-linecap="round" transform="translate(803.962513812277 317.9672796799314) rotate(0 88.50000000000011 20)"><path d="M10 0 C52.04 0, 94.08 0, 167 0 C173.67 0, 177 3.33, 177 10 C177 15.5, 177 21, 177 30 C177 36.67, 173.67 40, 167 40 C128.06 40, 89.12 40, 10 40 C3.33 40, 0 36.67, 0 30 C0 25.3, 0 20.59, 0 10 C0 3.33, 3.33 0, 10 0" stroke="none" stroke-width="0" fill="#ffffff"></path><path d="M10 0 C59.96 0, 109.92 0, 167 0 M10 0 C45.43 0, 80.86 0, 167 0 M167 0 C173.67 0, 177 3.33, 177 10 M167 0 C173.67 0, 177 3.33, 177 10 M177 10 C177 14.12, 177 18.25, 177 30 M177 10 C177 14.98, 177 19.96, 177 30 M177 30 C177 36.67, 173.67 40, 167 40 M177 30 C177 36.67, 173.67 40, 167 40 M167 40 C127.89 40, 88.78 40, 10 40 M167 40 C127 40, 86.99 40, 10 40 M10 40 C3.33 40, 0 36.67, 0 30 M10 40 C3.33 40, 0 36.67, 0 30 M0 30 C0 24.41, 0 18.82, 0 10 M0 30 C0 25.27, 0 20.53, 0 10 M0 10 C0 3.33, 3.33 0, 10 0 M0 10 C0 3.33, 3.33 0, 10 0" stroke="#1e1e1e" stroke-width="2" fill="none"></path></g><g transform="translate(830.7985161621306 327.9672796799314) rotate(0 61.663997650146484 10)"><text x="61.663997650146484" y="14.016" font-family="Virgil, Segoe UI Emoji" font-size="16px" fill="#1e1e1e" text-anchor="middle" style="white-space: pre;" direction="ltr" dominant-baseline="alphabetic">List&lt;TripTimes&gt;</text></g><g stroke-linecap="round" transform="translate(1182.1053709551347 73.16315021564424) rotate(0 156.5 47.5)"><path d="M23.75 0 C125.15 0, 226.55 0, 289.25 0 M23.75 0 C127.35 0, 230.95 0, 289.25 0 M289.25 0 C305.08 0, 313 7.92, 313 23.75 M289.25 0 C305.08 0, 313 7.92, 313 23.75 M313 23.75 C313 38.65, 313 53.56, 313 71.25 M313 23.75 C313 36.53, 313 49.32, 313 71.25 M313 71.25 C313 87.08, 305.08 95, 289.25 95 M313 71.25 C313 87.08, 305.08 95, 289.25 95 M289.25 95 C184.71 95, 80.18 95, 23.75 95 M289.25 95 C193.69 95, 98.13 95, 23.75 95 M23.75 95 C7.92 95, 0 87.08, 0 71.25 M23.75 95 C7.92 95, 0 87.08, 0 71.25 M0 71.25 C0 60.44, 0 49.62, 0 23.75 M0 71.25 C0 56.62, 0 41.99, 0 23.75 M0 23.75 C0 7.92, 7.92 0, 23.75 0 M0 23.75 C0 7.92, 7.92 0, 23.75 0" stroke="#1e1e1e" stroke-width="2" fill="none"></path></g><g transform="translate(1302.3093733355058 78.16315021564424) rotate(0 36.295997619628906 10)"><text x="36.295997619628906" y="14.016" font-family="Virgil, Segoe UI Emoji" font-size="16px" fill="#1e1e1e" text-anchor="middle" style="white-space: pre;" direction="ltr" dominant-baseline="alphabetic">Requests</text></g><g stroke-linecap="round" transform="translate(1391.1053709551343 107.16315021564424) rotate(0 46.02884615384619 25)"><path d="M12.5 0 C37.74 0, 62.97 0, 79.56 0 M12.5 0 C35.92 0, 59.34 0, 79.56 0 M79.56 0 C87.89 0, 92.06 4.17, 92.06 12.5 M79.56 0 C87.89 0, 92.06 4.17, 92.06 12.5 M92.06 12.5 C92.06 20.34, 92.06 28.19, 92.06 37.5 M92.06 12.5 C92.06 18.98, 92.06 25.45, 92.06 37.5 M92.06 37.5 C92.06 45.83, 87.89 50, 79.56 50 M92.06 37.5 C92.06 45.83, 87.89 50, 79.56 50 M79.56 50 C61.3 50, 43.04 50, 12.5 50 M79.56 50 C65.99 50, 52.43 50, 12.5 50 M12.5 50 C4.17 50, 0 45.83, 0 37.5 M12.5 50 C4.17 50, 0 45.83, 0 37.5 M0 37.5 C0 29.69, 0 21.88, 0 12.5 M0 37.5 C0 30.13, 0 22.77, 0 12.5 M0 12.5 C0 4.17, 4.17 0, 12.5 0 M0 12.5 C0 4.17, 4.17 0, 12.5 0" stroke="#1e1e1e" stroke-width="2" fill="none"></path></g><g transform="translate(1402.878220404879 112.16315021564424) rotate(0 34.25599670410156 20)"><text x="34.25599670410156" y="14.016" font-family="Virgil, Segoe UI Emoji" font-size="16px" fill="#1e1e1e" text-anchor="middle" style="white-space: pre;" direction="ltr" dominant-baseline="alphabetic">Thread 1</text><text x="34.25599670410156" y="34.016" font-family="Virgil, Segoe UI Emoji" font-size="16px" fill="#1e1e1e" text-anchor="middle" style="white-space: pre;" direction="ltr" dominant-baseline="alphabetic">Idle</text></g><g stroke-linecap="round" transform="translate(1293.1053709551343 107.16315021564424) rotate(0 46 25)"><path d="M12.5 0 C32.11 0, 51.72 0, 79.5 0 M12.5 0 C29.22 0, 45.94 0, 79.5 0 M79.5 0 C87.83 0, 92 4.17, 92 12.5 M79.5 0 C87.83 0, 92 4.17, 92 12.5 M92 12.5 C92 18.21, 92 23.92, 92 37.5 M92 12.5 C92 19.74, 92 26.99, 92 37.5 M92 37.5 C92 45.83, 87.83 50, 79.5 50 M92 37.5 C92 45.83, 87.83 50, 79.5 50 M79.5 50 C56.97 50, 34.44 50, 12.5 50 M79.5 50 C62.29 50, 45.08 50, 12.5 50 M12.5 50 C4.17 50, 0 45.83, 0 37.5 M12.5 50 C4.17 50, 0 45.83, 0 37.5 M0 37.5 C0 31.71, 0 25.92, 0 12.5 M0 37.5 C0 31.58, 0 25.66, 0 12.5 M0 12.5 C0 4.17, 4.17 0, 12.5 0 M0 12.5 C0 4.17, 4.17 0, 12.5 0" stroke="#1e1e1e" stroke-width="2" fill="none"></path></g><g transform="translate(1301.321374373103 112.16315021564424) rotate(0 37.78399658203125 20)"><text x="37.78399658203125" y="14.016" font-family="Virgil, Segoe UI Emoji" font-size="16px" fill="#1e1e1e" text-anchor="middle" style="white-space: pre;" direction="ltr" dominant-baseline="alphabetic">Thread 2</text><text x="37.78399658203125" y="34.016" font-family="Virgil, Segoe UI Emoji" font-size="16px" fill="#1e1e1e" text-anchor="middle" style="white-space: pre;" direction="ltr" dominant-baseline="alphabetic">Idle</text></g><g stroke-linecap="round" transform="translate(1195.1053709551347 107.16315021564424) rotate(0 46.04166666666663 25)"><path d="M12.5 0 C37 0, 61.5 0, 79.58 0 M12.5 0 C36.66 0, 60.81 0, 79.58 0 M79.58 0 C87.92 0, 92.08 4.17, 92.08 12.5 M79.58 0 C87.92 0, 92.08 4.17, 92.08 12.5 M92.08 12.5 C92.08 19.01, 92.08 25.53, 92.08 37.5 M92.08 12.5 C92.08 21.54, 92.08 30.57, 92.08 37.5 M92.08 37.5 C92.08 45.83, 87.92 50, 79.58 50 M92.08 37.5 C92.08 45.83, 87.92 50, 79.58 50 M79.58 50 C55.61 50, 31.64 50, 12.5 50 M79.58 50 C62.48 50, 45.38 50, 12.5 50 M12.5 50 C4.17 50, 0 45.83, 0 37.5 M12.5 50 C4.17 50, 0 45.83, 0 37.5 M0 37.5 C0 29.36, 0 21.22, 0 12.5 M0 37.5 C0 27.58, 0 17.65, 0 12.5 M0 12.5 C0 4.17, 4.17 0, 12.5 0 M0 12.5 C0 4.17, 4.17 0, 12.5 0" stroke="#1e1e1e" stroke-width="2" fill="none"></path></g><g transform="translate(1203.6110421384028 112.16315021564424) rotate(0 37.53599548339844 20)"><text x="37.53599548339844" y="14.016" font-family="Virgil, Segoe UI Emoji" font-size="16px" fill="#1e1e1e" text-anchor="middle" style="white-space: pre;" direction="ltr" dominant-baseline="alphabetic">Thread 3</text><text x="37.53599548339844" y="34.016" font-family="Virgil, Segoe UI Emoji" font-size="16px" fill="#1e1e1e" text-anchor="middle" style="white-space: pre;" direction="ltr" dominant-baseline="alphabetic">Routing</text></g><g stroke-linecap="round" transform="translate(770.9166826023235 304.08408976825285) rotate(0 100.75 41.875)"><path d="M20.94 0 C62.76 0, 104.57 0, 180.56 0 C194.52 0, 201.5 6.98, 201.5 20.94 C201.5 32.28, 201.5 43.62, 201.5 62.81 C201.5 76.77, 194.52 83.75, 180.56 83.75 C120.5 83.75, 60.45 83.75, 20.94 83.75 C6.98 83.75, 0 76.77, 0 62.81 C0 47.84, 0 32.87, 0 20.94 C0 6.98, 6.98 0, 20.94 0" stroke="none" stroke-width="0" fill="#a5d8ff"></path><path d="M20.94 0 C68.1 0, 115.25 0, 180.56 0 M20.94 0 C84.4 0, 147.86 0, 180.56 0 M180.56 0 C194.52 0, 201.5 6.98, 201.5 20.94 M180.56 0 C194.52 0, 201.5 6.98, 201.5 20.94 M201.5 20.94 C201.5 34.58, 201.5 48.21, 201.5 62.81 M201.5 20.94 C201.5 34.32, 201.5 47.71, 201.5 62.81 M201.5 62.81 C201.5 76.77, 194.52 83.75, 180.56 83.75 M201.5 62.81 C201.5 76.77, 194.52 83.75, 180.56 83.75 M180.56 83.75 C125.58 83.75, 70.6 83.75, 20.94 83.75 M180.56 83.75 C138.85 83.75, 97.13 83.75, 20.94 83.75 M20.94 83.75 C6.98 83.75, 0 76.77, 0 62.81 M20.94 83.75 C6.98 83.75, 0 76.77, 0 62.81 M0 62.81 C0 51.21, 0 39.61, 0 20.94 M0 62.81 C0 52.93, 0 43.05, 0 20.94 M0 20.94 C0 6.98, 6.98 0, 20.94 0 M0 20.94 C0 6.98, 6.98 0, 20.94 0" stroke="#1e1e1e" stroke-width="2" fill="none"></path></g><g transform="translate(809.9166787876262 309.08408976825285) rotate(0 61.750003814697266 12.5)"><text x="61.750003814697266" y="17.52" font-family="Virgil, Segoe UI Emoji" font-size="20px" fill="#1e1e1e" text-anchor="middle" style="white-space: pre;" direction="ltr" dominant-baseline="alphabetic">Timetable A'</text></g><g stroke-linecap="round" transform="translate(783.9760789265921 338.6662621247988) rotate(0 88.50000000000011 20)"><path d="M10 0 C47.35 0, 84.7 0, 167 0 C173.67 0, 177 3.33, 177 10 C177 14.51, 177 19.03, 177 30 C177 36.67, 173.67 40, 167 40 C114.79 40, 62.58 40, 10 40 C3.33 40, 0 36.67, 0 30 C0 25.02, 0 20.04, 0 10 C0 3.33, 3.33 0, 10 0" stroke="none" stroke-width="0" fill="#a5d8ff"></path><path d="M10 0 C41.96 0, 73.91 0, 167 0 M10 0 C50.25 0, 90.49 0, 167 0 M167 0 C173.67 0, 177 3.33, 177 10 M167 0 C173.67 0, 177 3.33, 177 10 M177 10 C177 15.62, 177 21.24, 177 30 M177 10 C177 17.94, 177 25.88, 177 30 M177 30 C177 36.67, 173.67 40, 167 40 M177 30 C177 36.67, 173.67 40, 167 40 M167 40 C107.09 40, 47.17 40, 10 40 M167 40 C115.51 40, 64.01 40, 10 40 M10 40 C3.33 40, 0 36.67, 0 30 M10 40 C3.33 40, 0 36.67, 0 30 M0 30 C0 22.41, 0 14.82, 0 10 M0 30 C0 23.48, 0 16.97, 0 10 M0 10 C0 3.33, 3.33 0, 10 0 M0 10 C0 3.33, 3.33 0, 10 0" stroke="#1e1e1e" stroke-width="2" fill="none"></path></g><g transform="translate(810.8120812764456 348.6662621247988) rotate(0 61.663997650146484 10)"><text x="61.663997650146484" y="14.016" font-family="Virgil, Segoe UI Emoji" font-size="16px" fill="#1e1e1e" text-anchor="middle" style="white-space: pre;" direction="ltr" dominant-baseline="alphabetic">List&lt;TripTimes&gt;</text></g><g stroke-linecap="round" transform="translate(860.0000478069711 457.93113049833664) rotate(0 80 17.5)"><path d="M8.75 0 C43.24 0, 77.73 0, 151.25 0 C157.08 0, 160 2.92, 160 8.75 C160 13.51, 160 18.27, 160 26.25 C160 32.08, 157.08 35, 151.25 35 C117.17 35, 83.09 35, 8.75 35 C2.92 35, 0 32.08, 0 26.25 C0 19.49, 0 12.73, 0 8.75 C0 2.92, 2.92 0, 8.75 0" stroke="none" stroke-width="0" fill="#a5d8ff"></path><path d="M8.75 0 C52.66 0, 96.58 0, 151.25 0 M8.75 0 C58.52 0, 108.29 0, 151.25 0 M151.25 0 C157.08 0, 160 2.92, 160 8.75 M151.25 0 C157.08 0, 160 2.92, 160 8.75 M160 8.75 C160 15.09, 160 21.43, 160 26.25 M160 8.75 C160 13.74, 160 18.72, 160 26.25 M160 26.25 C160 32.08, 157.08 35, 151.25 35 M160 26.25 C160 32.08, 157.08 35, 151.25 35 M151.25 35 C117.47 35, 83.68 35, 8.75 35 M151.25 35 C117.89 35, 84.53 35, 8.75 35 M8.75 35 C2.92 35, 0 32.08, 0 26.25 M8.75 35 C2.92 35, 0 32.08, 0 26.25 M0 26.25 C0 19.31, 0 12.38, 0 8.75 M0 26.25 C0 21.71, 0 17.18, 0 8.75 M0 8.75 C0 2.92, 2.92 0, 8.75 0 M0 8.75 C0 2.92, 2.92 0, 8.75 0" stroke="#1e1e1e" stroke-width="2" fill="none"></path></g><g transform="translate(876.1500455181528 462.93113049833664) rotate(0 63.85000228881836 12.5)"><text x="63.85000228881836" y="17.52" font-family="Virgil, Segoe UI Emoji" font-size="20px" fill="#1e1e1e" text-anchor="middle" style="white-space: pre;" direction="ltr" dominant-baseline="alphabetic">TripTimes A1'</text></g><g stroke-linecap="round"><g transform="translate(814.4046503551637 379.47200764230456) rotate(0 21.047698725903956 51.440859411769)"><path d="M0 0 C0.3 14.13, -5.21 67.65, 1.81 84.8 C8.83 101.95, 35.38 99.87, 42.1 102.88 M0 0 C0.3 14.13, -5.21 67.65, 1.81 84.8 C8.83 101.95, 35.38 99.87, 42.1 102.88" stroke="#1e1e1e" stroke-width="2" fill="none"></path></g><g transform="translate(814.4046503551637 379.47200764230456) rotate(0 21.047698725903956 51.440859411769)"><path d="M20.29 106.37 C25.87 105.48, 31.44 104.58, 42.1 102.88 M20.29 106.37 C26.47 105.38, 32.65 104.39, 42.1 102.88" stroke="#1e1e1e" stroke-width="2" fill="none"></path></g><g transform="translate(814.4046503551637 379.47200764230456) rotate(0 21.047698725903956 51.440859411769)"><path d="M23.15 91.54 C28 94.44, 32.84 97.34, 42.1 102.88 M23.15 91.54 C28.52 94.75, 33.89 97.97, 42.1 102.88" stroke="#1e1e1e" stroke-width="2" fill="none"></path></g></g><mask></mask><g mask="url(#mask-fFbJK5E1YKcZdLBiePEY2)" stroke-linecap="round"><g transform="translate(113.10790745350073 376.79360125676703) rotate(0 335.9524713859415 -20.845562641957258)"><path d="M0 0 C13.45 8.71, 10.12 65.68, 80.72 52.24 C151.31 38.81, 325.04 -56.12, 423.58 -80.62 C522.11 -105.11, 630.52 -92.36, 671.9 -94.71 M0 0 C13.45 8.71, 10.12 65.68, 80.72 52.24 C151.31 38.81, 325.04 -56.12, 423.58 -80.62 C522.11 -105.11, 630.52 -92.36, 671.9 -94.71" stroke="#1e1e1e" stroke-width="2" fill="none"></path></g></g><mask id="mask-fFbJK5E1YKcZdLBiePEY2"><rect x="0" y="0" fill="#fff" width="885.0128502253838" height="623.745562001458"></rect><rect x="347.4448382409412" y="350.8487247790681" fill="#000" width="41.47200012207031" height="20" opacity="1"></rect></mask><g transform="translate(347.4448382409412 350.8487247790681) rotate(0 101.61554059850107 5.099313835741668)"><text x="20.736000061035156" y="14.016" font-family="Virgil, Segoe UI Emoji" font-size="16px" fill="#1e1e1e" text-anchor="middle" style="white-space: pre;" direction="ltr" dominant-baseline="alphabetic">1:(N-1)</text></g><g stroke-linecap="round" transform="translate(216.89732125641274 529.9054582782437) rotate(0 135.92863944894407 17.5)"><path d="M8.75 0 C83.14 0, 157.53 0, 263.11 0 C268.94 0, 271.86 2.92, 271.86 8.75 C271.86 15.4, 271.86 22.04, 271.86 26.25 C271.86 32.08, 268.94 35, 263.11 35 C207.22 35, 151.34 35, 8.75 35 C2.92 35, 0 32.08, 0 26.25 C0 20.1, 0 13.95, 0 8.75 C0 2.92, 2.92 0, 8.75 0" stroke="none" stroke-width="0" fill="#b2f2bb"></path><path d="M8.75 0 C60.44 0, 112.13 0, 263.11 0 M8.75 0 C101.01 0, 193.27 0, 263.11 0 M263.11 0 C268.94 0, 271.86 2.92, 271.86 8.75 M263.11 0 C268.94 0, 271.86 2.92, 271.86 8.75 M271.86 8.75 C271.86 12.52, 271.86 16.3, 271.86 26.25 M271.86 8.75 C271.86 14.03, 271.86 19.32, 271.86 26.25 M271.86 26.25 C271.86 32.08, 268.94 35, 263.11 35 M271.86 26.25 C271.86 32.08, 268.94 35, 263.11 35 M263.11 35 C169.97 35, 76.84 35, 8.75 35 M263.11 35 C205.66 35, 148.21 35, 8.75 35 M8.75 35 C2.92 35, 0 32.08, 0 26.25 M8.75 35 C2.92 35, 0 32.08, 0 26.25 M0 26.25 C0 22.13, 0 18.01, 0 8.75 M0 26.25 C0 22.67, 0 19.09, 0 8.75 M0 8.75 C0 2.92, 2.92 0, 8.75 0 M0 8.75 C0 2.92, 2.92 0, 8.75 0" stroke="#1e1e1e" stroke-width="2" fill="none"></path></g><g transform="translate(244.4659524656107 534.9054582782437) rotate(0 108.3600082397461 12.5)"><text x="108.3600082397461" y="17.52" font-family="Virgil, Segoe UI Emoji" font-size="20px" fill="#1e1e1e" text-anchor="middle" style="white-space: pre;" direction="ltr" dominant-baseline="alphabetic">arrivalTimes' per stop</text></g><g stroke-linecap="round"><g transform="translate(166.87953213392916 492.1099079463347) rotate(0 24.089285714285097 27.312412532100097)"><path d="M0 0 C2.47 7.56, 6.81 36.24, 14.84 45.35 C22.87 54.45, 42.62 53.08, 48.18 54.62 M0 0 C2.47 7.56, 6.81 36.24, 14.84 45.35 C22.87 54.45, 42.62 53.08, 48.18 54.62" stroke="#1e1e1e" stroke-width="2" fill="none"></path></g><g transform="translate(166.87953213392916 492.1099079463347) rotate(0 24.089285714285097 27.312412532100097)"><path d="M31.34 58.58 C37.3 57.18, 43.25 55.78, 48.18 54.62 M31.34 58.58 C35.36 57.64, 39.38 56.69, 48.18 54.62" stroke="#1e1e1e" stroke-width="2" fill="none"></path></g><g transform="translate(166.87953213392916 492.1099079463347) rotate(0 24.089285714285097 27.312412532100097)"><path d="M32.73 46.83 C38.2 49.59, 43.66 52.35, 48.18 54.62 M32.73 46.83 C36.42 48.69, 40.11 50.55, 48.18 54.62" stroke="#1e1e1e" stroke-width="2" fill="none"></path></g></g><mask></mask><g stroke-linecap="round"><g transform="translate(166.87953213392916 494.2099003558251) rotate(0 23.51850168339604 46.15368749770323)"><path d="M0 0 C1.91 13.21, 3.63 63.86, 11.47 79.25 C19.31 94.63, 41.11 90.13, 47.04 92.31 M0 0 C1.91 13.21, 3.63 63.86, 11.47 79.25 C19.31 94.63, 41.11 90.13, 47.04 92.31" stroke="#1e1e1e" stroke-width="2" fill="none"></path></g><g transform="translate(166.87953213392916 494.2099003558251) rotate(0 23.51850168339604 46.15368749770323)"><path d="M28.68 97 C33.17 95.85, 37.65 94.71, 47.04 92.31 M28.68 97 C33.19 95.85, 37.69 94.7, 47.04 92.31" stroke="#1e1e1e" stroke-width="2" fill="none"></path></g><g transform="translate(166.87953213392916 494.2099003558251) rotate(0 23.51850168339604 46.15368749770323)"><path d="M29.96 84.11 C34.13 86.11, 38.31 88.11, 47.04 92.31 M29.96 84.11 C34.15 86.12, 38.34 88.13, 47.04 92.31" stroke="#1e1e1e" stroke-width="2" fill="none"></path></g></g><mask></mask><g stroke-linecap="round"><g transform="translate(1195.2545321339285 133.73333913762144) rotate(0 -187.8571428571429 15)"><path d="M0 0 C-62.62 5, -313.1 25, -375.71 30 M0 0 C-62.62 5, -313.1 25, -375.71 30" stroke="#1e1e1e" stroke-width="2" fill="none"></path></g><g transform="translate(1195.2545321339285 133.73333913762144) rotate(0 -187.8571428571429 15)"><path d="M-352.98 19.61 C-358.7 22.22, -364.43 24.84, -375.71 30 M-352.98 19.61 C-358.05 21.93, -363.13 24.25, -375.71 30" stroke="#1e1e1e" stroke-width="2" fill="none"></path></g><g transform="translate(1195.2545321339285 133.73333913762144) rotate(0 -187.8571428571429 15)"><path d="M-351.62 36.65 C-357.68 34.98, -363.75 33.3, -375.71 30 M-351.62 36.65 C-356.99 35.17, -362.37 33.68, -375.71 30" stroke="#1e1e1e" stroke-width="2" fill="none"></path></g></g><mask></mask><g stroke-linecap="round"><g transform="translate(1020.9688178482141 476.0406075528008) rotate(0 15.714285714285666 0)"><path d="M0 0 C5.24 0, 26.19 0, 31.43 0 M0 0 C5.24 0, 26.19 0, 31.43 0" stroke="#1e1e1e" stroke-width="2" fill="none"></path></g><g transform="translate(1020.9688178482141 476.0406075528008) rotate(0 15.714285714285666 0)"><path d="M16.66 5.37 C20.06 4.14, 23.46 2.9, 31.43 0 M16.66 5.37 C21.2 3.72, 25.73 2.07, 31.43 0" stroke="#1e1e1e" stroke-width="2" fill="none"></path></g><g transform="translate(1020.9688178482141 476.0406075528008) rotate(0 15.714285714285666 0)"><path d="M16.66 -5.37 C20.06 -4.14, 23.46 -2.9, 31.43 0 M16.66 -5.37 C21.2 -3.72, 25.73 -2.07, 31.43 0" stroke="#1e1e1e" stroke-width="2" fill="none"></path></g></g><mask></mask></svg>