<svg version="1.1" xmlns="http://www.w3.org/2000/svg" viewBox="0 0 1660.450648889514 583.3377288073302" width="3320.901297779028" height="1166.6754576146604">
  <!-- svg-source:excalidraw -->
  
  <defs>
    <style class="style-fonts">
      @font-face {
        font-family: "Virgil";
        src: url("https://excalidraw.com/Virgil.woff2");
      }
      @font-face {
        font-family: "Cascadia";
        src: url("https://excalidraw.com/Cascadia.woff2");
      }
      @font-face {
        font-family: "Assistant";
        src: url("https://excalidraw.com/Assistant-Regular.woff2");
      }
    </style>
    
  </defs>
  <rect x="0" y="0" width="1660.450648889514" height="583.3377288073302" fill="#ffffff"></rect><g stroke-linecap="round"><g transform="translate(202.43941578613715 447.14541621262106) rotate(0 352.5541175663977 29.228271612661047)"><path d="M0 0 C24.58 6.54, 29.97 29.47, 147.49 39.22 C265.01 48.96, 612.17 55.25, 705.11 58.46 M0 0 C24.58 6.54, 29.97 29.47, 147.49 39.22 C265.01 48.96, 612.17 55.25, 705.11 58.46" stroke="#1e1e1e" stroke-width="2" fill="none"></path></g><g transform="translate(202.43941578613715 447.14541621262106) rotate(0 352.5541175663977 29.228271612661047)"><path d="M681.4 66.37 C688.53 63.99, 695.66 61.61, 705.11 58.46 M681.4 66.37 C688.19 64.11, 694.98 61.84, 705.11 58.46" stroke="#1e1e1e" stroke-width="2" fill="none"></path></g><g transform="translate(202.43941578613715 447.14541621262106) rotate(0 352.5541175663977 29.228271612661047)"><path d="M681.85 49.28 C688.85 52.04, 695.84 54.8, 705.11 58.46 M681.85 49.28 C688.51 51.91, 695.18 54.54, 705.11 58.46" stroke="#1e1e1e" stroke-width="2" fill="none"></path></g></g><mask></mask><g stroke-linecap="round"><g transform="translate(198.08225366021475 447.14541621262106) rotate(0 23.019057455612 42.39230943238158)"><path d="M0 0 C0.7 12.3, -3.49 59.66, 4.19 73.79 C11.86 87.92, 39.06 82.95, 46.04 84.78 M0 0 C0.7 12.3, -3.49 59.66, 4.19 73.79 C11.86 87.92, 39.06 82.95, 46.04 84.78" stroke="#1e1e1e" stroke-width="2" fill="none"></path></g><g transform="translate(198.08225366021475 447.14541621262106) rotate(0 23.019057455612 42.39230943238158)"><path d="M25.38 91.2 C33.13 88.79, 40.88 86.38, 46.04 84.78 M25.38 91.2 C31.57 89.28, 37.77 87.35, 46.04 84.78" stroke="#1e1e1e" stroke-width="2" fill="none"></path></g><g transform="translate(198.08225366021475 447.14541621262106) rotate(0 23.019057455612 42.39230943238158)"><path d="M26.09 76.42 C33.57 79.56, 41.06 82.7, 46.04 84.78 M26.09 76.42 C32.07 78.93, 38.05 81.44, 46.04 84.78" stroke="#1e1e1e" stroke-width="2" fill="none"></path></g></g><mask></mask><g stroke-linecap="round" transform="translate(152.54765091893285 411.14541621262106) rotate(0 79.99999999999997 17.5)"><path d="M8.75 0 C41.43 0, 74.1 0, 151.25 0 C157.08 0, 160 2.92, 160 8.75 C160 13.87, 160 18.99, 160 26.25 C160 32.08, 157.08 35, 151.25 35 C119.11 35, 86.97 35, 8.75 35 C2.92 35, 0 32.08, 0 26.25 C0 21.36, 0 16.47, 0 8.75 C0 2.92, 2.92 0, 8.75 0" stroke="none" stroke-width="0" fill="#a5d8ff"></path><path d="M8.75 0 C45.34 0, 81.92 0, 151.25 0 M8.75 0 C60.14 0, 111.53 0, 151.25 0 M151.25 0 C157.08 0, 160 2.92, 160 8.75 M151.25 0 C157.08 0, 160 2.92, 160 8.75 M160 8.75 C160 14.76, 160 20.78, 160 26.25 M160 8.75 C160 15.45, 160 22.15, 160 26.25 M160 26.25 C160 32.08, 157.08 35, 151.25 35 M160 26.25 C160 32.08, 157.08 35, 151.25 35 M151.25 35 C116.29 35, 81.33 35, 8.75 35 M151.25 35 C117.81 35, 84.37 35, 8.75 35 M8.75 35 C2.92 35, 0 32.08, 0 26.25 M8.75 35 C2.92 35, 0 32.08, 0 26.25 M0 26.25 C0 20.58, 0 14.92, 0 8.75 M0 26.25 C0 20.91, 0 15.56, 0 8.75 M0 8.75 C0 2.92, 2.92 0, 8.75 0 M0 8.75 C0 2.92, 2.92 0, 8.75 0" stroke="#1e1e1e" stroke-width="2" fill="none"></path></g><g transform="translate(168.6976486301145 416.14541621262106) rotate(0 63.85000228881836 12.5)"><text x="63.85000228881836" y="17.52" font-family="Virgil, Segoe UI Emoji" font-size="20px" fill="#1e1e1e" text-anchor="middle" style="white-space: pre;" direction="ltr" dominant-baseline="alphabetic">TripTimes A1'</text></g><g stroke-linecap="round"><g transform="translate(313.60704724320146 432.6129949011611) rotate(0 356.8557951068373 14.989339951763213)"><path d="M0 0 C99.2 5, 476.24 27.17, 595.19 29.98 C714.14 32.79, 693.96 19.03, 713.71 16.85 M0 0 C99.2 5, 476.24 27.17, 595.19 29.98 C714.14 32.79, 693.96 19.03, 713.71 16.85" stroke="#1e1e1e" stroke-width="2" fill="none"></path></g><g transform="translate(313.60704724320146 432.6129949011611) rotate(0 356.8557951068373 14.989339951763213)"><path d="M694.59 32.95 C698.6 29.58, 702.6 26.21, 713.71 16.85 M694.59 32.95 C701.56 27.08, 708.53 21.21, 713.71 16.85" stroke="#1e1e1e" stroke-width="2" fill="none"></path></g><g transform="translate(313.60704724320146 432.6129949011611) rotate(0 356.8557951068373 14.989339951763213)"><path d="M688.71 16.9 C693.95 16.88, 699.18 16.87, 713.71 16.85 M688.71 16.9 C697.82 16.88, 706.94 16.86, 713.71 16.85" stroke="#1e1e1e" stroke-width="2" fill="none"></path></g></g><mask></mask><g stroke-linecap="round" transform="translate(787.2500000000003 217.69123262539506) rotate(0 100.75000000000006 41.875)"><path d="M20.94 0 C60.08 0, 99.22 0, 180.56 0 C194.52 0, 201.5 6.98, 201.5 20.94 C201.5 29.99, 201.5 39.05, 201.5 62.81 C201.5 76.77, 194.52 83.75, 180.56 83.75 C143.3 83.75, 106.03 83.75, 20.94 83.75 C6.98 83.75, 0 76.77, 0 62.81 C0 49.36, 0 35.92, 0 20.94 C0 6.98, 6.98 0, 20.94 0" stroke="none" stroke-width="0" fill="#ffffff"></path><path d="M20.94 0 C52.89 0, 84.84 0, 180.56 0 M20.94 0 C56.92 0, 92.89 0, 180.56 0 M180.56 0 C194.52 0, 201.5 6.98, 201.5 20.94 M180.56 0 C194.52 0, 201.5 6.98, 201.5 20.94 M201.5 20.94 C201.5 37.05, 201.5 53.16, 201.5 62.81 M201.5 20.94 C201.5 34.86, 201.5 48.78, 201.5 62.81 M201.5 62.81 C201.5 76.77, 194.52 83.75, 180.56 83.75 M201.5 62.81 C201.5 76.77, 194.52 83.75, 180.56 83.75 M180.56 83.75 C126.65 83.75, 72.74 83.75, 20.94 83.75 M180.56 83.75 C135.68 83.75, 90.79 83.75, 20.94 83.75 M20.94 83.75 C6.98 83.75, 0 76.77, 0 62.81 M20.94 83.75 C6.98 83.75, 0 76.77, 0 62.81 M0 62.81 C0 52.25, 0 41.7, 0 20.94 M0 62.81 C0 48.32, 0 33.82, 0 20.94 M0 20.94 C0 6.98, 6.98 0, 20.94 0 M0 20.94 C0 6.98, 6.98 0, 20.94 0" stroke="#1e1e1e" stroke-width="2" fill="none"></path></g><g transform="translate(829.0299987792972 222.69123262539506) rotate(0 58.97000122070318 12.5)"><text x="58.970001220703125" y="17.52" font-family="Virgil, Segoe UI Emoji" font-size="20px" fill="#1e1e1e" text-anchor="middle" style="white-space: pre;" direction="ltr" dominant-baseline="alphabetic">Timetable C</text></g><g stroke-linecap="round" transform="translate(766.5000000000003 239.19123262539506) rotate(0 100.75000000000006 41.875)"><path d="M20.94 0 C58.07 0, 95.2 0, 180.56 0 C194.52 0, 201.5 6.98, 201.5 20.94 C201.5 37.55, 201.5 54.16, 201.5 62.81 C201.5 76.77, 194.52 83.75, 180.56 83.75 C126.29 83.75, 72.02 83.75, 20.94 83.75 C6.98 83.75, 0 76.77, 0 62.81 C0 46.59, 0 30.36, 0 20.94 C0 6.98, 6.98 0, 20.94 0" stroke="none" stroke-width="0" fill="#ffffff"></path><path d="M20.94 0 C83.51 0, 146.09 0, 180.56 0 M20.94 0 C73.16 0, 125.38 0, 180.56 0 M180.56 0 C194.52 0, 201.5 6.98, 201.5 20.94 M180.56 0 C194.52 0, 201.5 6.98, 201.5 20.94 M201.5 20.94 C201.5 31.15, 201.5 41.37, 201.5 62.81 M201.5 20.94 C201.5 32.24, 201.5 43.54, 201.5 62.81 M201.5 62.81 C201.5 76.77, 194.52 83.75, 180.56 83.75 M201.5 62.81 C201.5 76.77, 194.52 83.75, 180.56 83.75 M180.56 83.75 C117.22 83.75, 53.88 83.75, 20.94 83.75 M180.56 83.75 C126.34 83.75, 72.11 83.75, 20.94 83.75 M20.94 83.75 C6.98 83.75, 0 76.77, 0 62.81 M20.94 83.75 C6.98 83.75, 0 76.77, 0 62.81 M0 62.81 C0 51.76, 0 40.72, 0 20.94 M0 62.81 C0 51.67, 0 40.53, 0 20.94 M0 20.94 C0 6.98, 6.98 0, 20.94 0 M0 20.94 C0 6.98, 6.98 0, 20.94 0" stroke="#1e1e1e" stroke-width="2" fill="none"></path></g><g transform="translate(807.4499969482425 244.19123262539506) rotate(0 59.80000305175787 12.5)"><text x="59.80000305175781" y="17.52" font-family="Virgil, Segoe UI Emoji" font-size="20px" fill="#1e1e1e" text-anchor="middle" style="white-space: pre;" direction="ltr" dominant-baseline="alphabetic">Timetable B</text></g><g stroke-linecap="round" transform="translate(556.0953018378653 92.18408203125) rotate(0 119.375 50.625)"><path d="M25.31 0 C92.09 0, 158.86 0, 213.44 0 M25.31 0 C89.99 0, 154.68 0, 213.44 0 M213.44 0 C230.31 0, 238.75 8.44, 238.75 25.31 M213.44 0 C230.31 0, 238.75 8.44, 238.75 25.31 M238.75 25.31 C238.75 45.03, 238.75 64.74, 238.75 75.94 M238.75 25.31 C238.75 45.05, 238.75 64.78, 238.75 75.94 M238.75 75.94 C238.75 92.81, 230.31 101.25, 213.44 101.25 M238.75 75.94 C238.75 92.81, 230.31 101.25, 213.44 101.25 M213.44 101.25 C170.34 101.25, 127.25 101.25, 25.31 101.25 M213.44 101.25 C151.99 101.25, 90.54 101.25, 25.31 101.25 M25.31 101.25 C8.44 101.25, 0 92.81, 0 75.94 M25.31 101.25 C8.44 101.25, 0 92.81, 0 75.94 M0 75.94 C0 65.43, 0 54.92, 0 25.31 M0 75.94 C0 63.88, 0 51.82, 0 25.31 M0 25.31 C0 8.44, 8.44 0, 25.31 0 M0 25.31 C0 8.44, 8.44 0, 25.31 0" stroke="#1e1e1e" stroke-width="2" fill="none"></path></g><g transform="translate(584.0302993964591 97.18408203125) rotate(0 91.44000244140625 12.5)"><text x="91.44000244140625" y="17.52" font-family="Virgil, Segoe UI Emoji" font-size="20px" fill="#1e1e1e" text-anchor="middle" style="white-space: pre;" direction="ltr" dominant-baseline="alphabetic">TimetableSnapshot</text></g><g stroke-linecap="round" transform="translate(570.529698162134 131.01625438779593) rotate(0 106.00000000000006 25)"><path d="M12.5 0 C78.25 0, 143.99 0, 199.5 0 M12.5 0 C79.75 0, 147.01 0, 199.5 0 M199.5 0 C207.83 0, 212 4.17, 212 12.5 M199.5 0 C207.83 0, 212 4.17, 212 12.5 M212 12.5 C212 17.87, 212 23.25, 212 37.5 M212 12.5 C212 21.13, 212 29.77, 212 37.5 M212 37.5 C212 45.83, 207.83 50, 199.5 50 M212 37.5 C212 45.83, 207.83 50, 199.5 50 M199.5 50 C132.23 50, 64.96 50, 12.5 50 M199.5 50 C150.19 50, 100.88 50, 12.5 50 M12.5 50 C4.17 50, 0 45.83, 0 37.5 M12.5 50 C4.17 50, 0 45.83, 0 37.5 M0 37.5 C0 29, 0 20.51, 0 12.5 M0 37.5 C0 31.17, 0 24.84, 0 12.5 M0 12.5 C0 4.17, 4.17 0, 12.5 0 M0 12.5 C0 4.17, 4.17 0, 12.5 0" stroke="#1e1e1e" stroke-width="2" fill="none"></path></g><g transform="translate(576.5536926079349 136.01625438779593) rotate(0 99.97600555419922 20)"><text x="99.97600555419922" y="14.016" font-family="Virgil, Segoe UI Emoji" font-size="16px" fill="#1e1e1e" text-anchor="middle" style="white-space: pre;" direction="ltr" dominant-baseline="alphabetic">Map</text><text x="99.97600555419922" y="34.016" font-family="Virgil, Segoe UI Emoji" font-size="16px" fill="#1e1e1e" text-anchor="middle" style="white-space: pre;" direction="ltr" dominant-baseline="alphabetic">TripPattern -&gt; Timetable</text></g><g stroke-linecap="round" transform="translate(909.8453018378659 487.1781481104099) rotate(0 138.75 17.5)"><path d="M8.75 0 C69.69 0, 130.62 0, 268.75 0 M8.75 0 C109.59 0, 210.44 0, 268.75 0 M268.75 0 C274.58 0, 277.5 2.92, 277.5 8.75 M268.75 0 C274.58 0, 277.5 2.92, 277.5 8.75 M277.5 8.75 C277.5 12.59, 277.5 16.44, 277.5 26.25 M277.5 8.75 C277.5 12.9, 277.5 17.06, 277.5 26.25 M277.5 26.25 C277.5 32.08, 274.58 35, 268.75 35 M277.5 26.25 C277.5 32.08, 274.58 35, 268.75 35 M268.75 35 C176.59 35, 84.43 35, 8.75 35 M268.75 35 C181.05 35, 93.36 35, 8.75 35 M8.75 35 C2.92 35, 0 32.08, 0 26.25 M8.75 35 C2.92 35, 0 32.08, 0 26.25 M0 26.25 C0 20.42, 0 14.58, 0 8.75 M0 26.25 C0 22.13, 0 18, 0 8.75 M0 8.75 C0 2.92, 2.92 0, 8.75 0 M0 8.75 C0 2.92, 2.92 0, 8.75 0" stroke="#1e1e1e" stroke-width="2" fill="none"></path></g><g transform="translate(942.8952896308347 492.1781481104099) rotate(0 105.70001220703125 12.5)"><text x="105.70001220703125" y="17.52" font-family="Virgil, Segoe UI Emoji" font-size="20px" fill="#1e1e1e" text-anchor="middle" style="white-space: pre;" direction="ltr" dominant-baseline="alphabetic">arrivalTimes per stop</text></g><g stroke-linecap="round" transform="translate(911.1968643378659 528.43408203125) rotate(0 137.83203125 17.5)"><path d="M8.75 0 C107.73 0, 206.71 0, 266.91 0 M8.75 0 C68.42 0, 128.09 0, 266.91 0 M266.91 0 C272.75 0, 275.66 2.92, 275.66 8.75 M266.91 0 C272.75 0, 275.66 2.92, 275.66 8.75 M275.66 8.75 C275.66 14.42, 275.66 20.1, 275.66 26.25 M275.66 8.75 C275.66 14.74, 275.66 20.72, 275.66 26.25 M275.66 26.25 C275.66 32.08, 272.75 35, 266.91 35 M275.66 26.25 C275.66 32.08, 272.75 35, 266.91 35 M266.91 35 C213.62 35, 160.33 35, 8.75 35 M266.91 35 C168.89 35, 70.86 35, 8.75 35 M8.75 35 C2.92 35, 0 32.08, 0 26.25 M8.75 35 C2.92 35, 0 32.08, 0 26.25 M0 26.25 C0 21.97, 0 17.68, 0 8.75 M0 26.25 C0 21.94, 0 17.62, 0 8.75 M0 8.75 C0 2.92, 2.92 0, 8.75 0 M0 8.75 C0 2.92, 2.92 0, 8.75 0" stroke="#1e1e1e" stroke-width="2" fill="none"></path></g><g transform="translate(927.1588852118894 533.43408203125) rotate(0 121.87001037597656 12.5)"><text x="121.87001037597656" y="17.52" font-family="Virgil, Segoe UI Emoji" font-size="20px" fill="#1e1e1e" text-anchor="middle" style="white-space: pre;" direction="ltr" dominant-baseline="alphabetic">departureTimes per stop</text></g><g stroke-linecap="round" transform="translate(744.8453018378658 260.18408203125) rotate(0 100.75000000000006 41.875)"><path d="M20.94 0 C54.22 0, 87.51 0, 180.56 0 C194.52 0, 201.5 6.98, 201.5 20.94 C201.5 29.76, 201.5 38.58, 201.5 62.81 C201.5 76.77, 194.52 83.75, 180.56 83.75 C135.91 83.75, 91.25 83.75, 20.94 83.75 C6.98 83.75, 0 76.77, 0 62.81 C0 48.12, 0 33.44, 0 20.94 C0 6.98, 6.98 0, 20.94 0" stroke="none" stroke-width="0" fill="#ffffff"></path><path d="M20.94 0 C67.54 0, 114.14 0, 180.56 0 M20.94 0 C74.45 0, 127.96 0, 180.56 0 M180.56 0 C194.52 0, 201.5 6.98, 201.5 20.94 M180.56 0 C194.52 0, 201.5 6.98, 201.5 20.94 M201.5 20.94 C201.5 36, 201.5 51.07, 201.5 62.81 M201.5 20.94 C201.5 30.12, 201.5 39.29, 201.5 62.81 M201.5 62.81 C201.5 76.77, 194.52 83.75, 180.56 83.75 M201.5 62.81 C201.5 76.77, 194.52 83.75, 180.56 83.75 M180.56 83.75 C127.48 83.75, 74.39 83.75, 20.94 83.75 M180.56 83.75 C119.27 83.75, 57.99 83.75, 20.94 83.75 M20.94 83.75 C6.98 83.75, 0 76.77, 0 62.81 M20.94 83.75 C6.98 83.75, 0 76.77, 0 62.81 M0 62.81 C0 52.52, 0 42.24, 0 20.94 M0 62.81 C0 46.61, 0 30.41, 0 20.94 M0 20.94 C0 6.98, 6.98 0, 20.94 0 M0 20.94 C0 6.98, 6.98 0, 20.94 0" stroke="#1e1e1e" stroke-width="2" fill="none"></path></g><g transform="translate(786.5052978705806 265.18408203125) rotate(0 59.09000396728521 12.5)"><text x="59.090003967285156" y="17.52" font-family="Virgil, Segoe UI Emoji" font-size="20px" fill="#1e1e1e" text-anchor="middle" style="white-space: pre;" direction="ltr" dominant-baseline="alphabetic">Timetable A</text></g><g mask="url(#mask-G7IlC6BVJzTx6CmOeYtXO)" stroke-linecap="round"><g transform="translate(777.8445583346424 335.7662543877959) rotate(0 25.776796111959584 47.537000364721735)"><path d="M0 0 C0.59 14, -5.04 68.16, 3.55 84 C12.14 99.85, 43.55 93.23, 51.55 95.07 M0 0 C0.59 14, -5.04 68.16, 3.55 84 C12.14 99.85, 43.55 93.23, 51.55 95.07" stroke="#1e1e1e" stroke-width="2" fill="none"></path></g><g transform="translate(777.8445583346424 335.7662543877959) rotate(0 25.776796111959584 47.537000364721735)"><path d="M28.27 103.1 C36.65 100.21, 45.04 97.32, 51.55 95.07 M28.27 103.1 C34.01 101.12, 39.76 99.14, 51.55 95.07" stroke="#1e1e1e" stroke-width="2" fill="none"></path></g><g transform="translate(777.8445583346424 335.7662543877959) rotate(0 25.776796111959584 47.537000364721735)"><path d="M28.55 86.25 C36.84 89.43, 45.12 92.61, 51.55 95.07 M28.55 86.25 C34.23 88.43, 39.91 90.61, 51.55 95.07" stroke="#1e1e1e" stroke-width="2" fill="none"></path></g></g><mask id="mask-G7IlC6BVJzTx6CmOeYtXO"><rect x="0" y="0" fill="#fff" width="929.3981505585616" height="530.8402551172394"></rect><rect x="772.1359608976577" y="409.7689999563372" fill="#000" width="18.512001037597656" height="20" opacity="1"></rect></mask><g transform="translate(772.1359608976576 409.7689999563372) rotate(0 30.848795724986815 -26.46574520381955)"><text x="9.256000518798828" y="14.016" font-family="Virgil, Segoe UI Emoji" font-size="16px" fill="#1e1e1e" text-anchor="middle" style="white-space: pre;" direction="ltr" dominant-baseline="alphabetic">1:N</text></g><g stroke-linecap="round"><g transform="translate(846.3266487100555 452.278909617457) rotate(0 31.259326563905006 19.424428377881213)"><path d="M0 0 C2.9 4.16, 6.98 18.49, 17.4 24.97 C27.82 31.44, 55 36.53, 62.52 38.85 M0 0 C2.9 4.16, 6.98 18.49, 17.4 24.97 C27.82 31.44, 55 36.53, 62.52 38.85" stroke="#1e1e1e" stroke-width="2" fill="none"></path></g><g transform="translate(846.3266487100555 452.278909617457) rotate(0 31.259326563905006 19.424428377881213)"><path d="M39.04 41.26 C47.86 40.35, 56.69 39.45, 62.52 38.85 M39.04 41.26 C46.67 40.47, 54.31 39.69, 62.52 38.85" stroke="#1e1e1e" stroke-width="2" fill="none"></path></g><g transform="translate(846.3266487100555 452.278909617457) rotate(0 31.259326563905006 19.424428377881213)"><path d="M42.98 25.6 C50.33 30.58, 57.67 35.56, 62.52 38.85 M42.98 25.6 C49.34 29.91, 55.69 34.22, 62.52 38.85" stroke="#1e1e1e" stroke-width="2" fill="none"></path></g></g><mask></mask><g stroke-linecap="round"><g transform="translate(844.551429032854 451.91684065193976) rotate(0 31.822717652505844 42.587818680539385)"><path d="M0 0 C1.55 9.07, -1.31 40.24, 9.29 54.43 C19.9 68.63, 54.59 80.05, 63.65 85.18 M0 0 C1.55 9.07, -1.31 40.24, 9.29 54.43 C19.9 68.63, 54.59 80.05, 63.65 85.18" stroke="#1e1e1e" stroke-width="2" fill="none"></path></g><g transform="translate(844.551429032854 451.91684065193976) rotate(0 31.822717652505844 42.587818680539385)"><path d="M38.72 83.27 C46.25 83.85, 53.78 84.42, 63.65 85.18 M38.72 83.27 C43.75 83.66, 48.78 84.04, 63.65 85.18" stroke="#1e1e1e" stroke-width="2" fill="none"></path></g><g transform="translate(844.551429032854 451.91684065193976) rotate(0 31.822717652505844 42.587818680539385)"><path d="M45.77 67.7 C51.17 72.98, 56.57 78.26, 63.65 85.18 M45.77 67.7 C49.38 71.23, 52.99 74.75, 63.65 85.18" stroke="#1e1e1e" stroke-width="2" fill="none"></path></g></g><mask></mask><g mask="url(#mask-hOVFUuqrhihj4pkhsZJyW)" stroke-linecap="round"><g transform="translate(637.6916062230665 182.01625438779593) rotate(0 51.07684780739959 58.60520676915439)"><path d="M0 0 C2.46 16.69, -2.24 80.63, 14.79 100.17 C31.81 119.7, 87.59 114.37, 102.15 117.21 M0 0 C2.46 16.69, -2.24 80.63, 14.79 100.17 C31.81 119.7, 87.59 114.37, 102.15 117.21" stroke="#1e1e1e" stroke-width="2" fill="none"></path></g><g transform="translate(637.6916062230665 182.01625438779593) rotate(0 51.07684780739959 58.60520676915439)"><path d="M78.22 124.43 C85.74 122.16, 93.26 119.89, 102.15 117.21 M78.22 124.43 C86.4 121.96, 94.59 119.49, 102.15 117.21" stroke="#1e1e1e" stroke-width="2" fill="none"></path></g><g transform="translate(637.6916062230665 182.01625438779593) rotate(0 51.07684780739959 58.60520676915439)"><path d="M79.18 107.35 C86.4 110.45, 93.61 113.55, 102.15 117.21 M79.18 107.35 C87.03 110.72, 94.89 114.09, 102.15 117.21" stroke="#1e1e1e" stroke-width="2" fill="none"></path></g></g><mask id="mask-hOVFUuqrhihj4pkhsZJyW"><rect x="0" y="0" fill="#fff" width="839.8453018378657" height="399.2266679261047"></rect><rect x="643.2210226740671" y="272.18408203125" fill="#000" width="18.512001037597656" height="20" opacity="1"></rect></mask><g transform="translate(643.2210226740671 272.18408203125) rotate(0 45.547431356399045 -31.562620874299682)"><text x="9.256000518798828" y="14.016" font-family="Virgil, Segoe UI Emoji" font-size="16px" fill="#1e1e1e" text-anchor="middle" style="white-space: pre;" direction="ltr" dominant-baseline="alphabetic">1:N</text></g><g stroke-linecap="round"><g transform="translate(533.964094486403 46) rotate(0 0 264.54583740234375)"><path d="M0.68 1.17 C0.95 89.52, 2.55 439.44, 2.71 527.34" stroke="#1e1e1e" stroke-width="2.5" fill="none" stroke-dasharray="1.5 8"></path></g></g><mask></mask><g transform="translate(622.964094486403 56) rotate(0 64.74400329589844 10)"><text x="0" y="14.016" font-family="Virgil, Segoe UI Emoji" font-size="16px" fill="#1e1e1e" text-anchor="start" style="white-space: pre;" direction="ltr" dominant-baseline="alphabetic">LIVE SNAPSHOT</text></g><g transform="translate(329.96409448640304 54) rotate(0 31.527997970581055 10)"><text x="0" y="14.016" font-family="Virgil, Segoe UI Emoji" font-size="16px" fill="#1e1e1e" text-anchor="start" style="white-space: pre;" direction="ltr" dominant-baseline="alphabetic">BUFFER</text></g><g transform="translate(428.96409448640304 10) rotate(0 105.51200103759766 10)"><text x="0" y="14.016" font-family="Virgil, Segoe UI Emoji" font-size="16px" fill="#1e1e1e" text-anchor="start" style="white-space: pre;" direction="ltr" dominant-baseline="alphabetic">TimetableSnapshotManager</text></g><g stroke-linecap="round" transform="translate(757.9046981621344 294.7662543877959) rotate(0 88.50000000000006 20)"><path d="M10 0 C45.96 0, 81.93 0, 167 0 M10 0 C61.28 0, 112.57 0, 167 0 M167 0 C173.67 0, 177 3.33, 177 10 M167 0 C173.67 0, 177 3.33, 177 10 M177 10 C177 14.15, 177 18.3, 177 30 M177 10 C177 14.76, 177 19.53, 177 30 M177 30 C177 36.67, 173.67 40, 167 40 M177 30 C177 36.67, 173.67 40, 167 40 M167 40 C122.59 40, 78.18 40, 10 40 M167 40 C104.72 40, 42.45 40, 10 40 M10 40 C3.33 40, 0 36.67, 0 30 M10 40 C3.33 40, 0 36.67, 0 30 M0 30 C0 23.76, 0 17.52, 0 10 M0 30 C0 22.25, 0 14.5, 0 10 M0 10 C0 3.33, 3.33 0, 10 0 M0 10 C0 3.33, 3.33 0, 10 0" stroke="#1e1e1e" stroke-width="2" fill="none"></path></g><g transform="translate(784.740700511988 304.7662543877959) rotate(0 61.663997650146484 10)"><text x="61.663997650146484" y="14.016" font-family="Virgil, Segoe UI Emoji" font-size="16px" fill="#1e1e1e" text-anchor="middle" style="white-space: pre;" direction="ltr" dominant-baseline="alphabetic">List&lt;TripTimes&gt;</text></g><g stroke-linecap="round" transform="translate(10 95.44123262539506) rotate(0 119.375 50.625)"><path d="M25.31 0 C80.55 0, 135.78 0, 213.44 0 C230.31 0, 238.75 8.44, 238.75 25.31 C238.75 44.24, 238.75 63.18, 238.75 75.94 C238.75 92.81, 230.31 101.25, 213.44 101.25 C138.34 101.25, 63.25 101.25, 25.31 101.25 C8.44 101.25, 0 92.81, 0 75.94 C0 65.66, 0 55.39, 0 25.31 C0 8.44, 8.44 0, 25.31 0" stroke="none" stroke-width="0" fill="#a5d8ff"></path><path d="M25.31 0 C82.42 0, 139.54 0, 213.44 0 M25.31 0 C81.89 0, 138.47 0, 213.44 0 M213.44 0 C230.31 0, 238.75 8.44, 238.75 25.31 M213.44 0 C230.31 0, 238.75 8.44, 238.75 25.31 M238.75 25.31 C238.75 41.54, 238.75 57.76, 238.75 75.94 M238.75 25.31 C238.75 39.08, 238.75 52.84, 238.75 75.94 M238.75 75.94 C238.75 92.81, 230.31 101.25, 213.44 101.25 M238.75 75.94 C238.75 92.81, 230.31 101.25, 213.44 101.25 M213.44 101.25 C164.34 101.25, 115.25 101.25, 25.31 101.25 M213.44 101.25 C142.57 101.25, 71.69 101.25, 25.31 101.25 M25.31 101.25 C8.44 101.25, 0 92.81, 0 75.94 M25.31 101.25 C8.44 101.25, 0 92.81, 0 75.94 M0 75.94 C0 63.51, 0 51.08, 0 25.31 M0 75.94 C0 59.49, 0 43.03, 0 25.31 M0 25.31 C0 8.44, 8.44 0, 25.31 0 M0 25.31 C0 8.44, 8.44 0, 25.31 0" stroke="#1e1e1e" stroke-width="2" fill="none"></path></g><g transform="translate(35.274993896484375 100.44123262539506) rotate(0 94.10000610351562 12.5)"><text x="94.10000610351562" y="17.52" font-family="Virgil, Segoe UI Emoji" font-size="20px" fill="#1e1e1e" text-anchor="middle" style="white-space: pre;" direction="ltr" dominant-baseline="alphabetic">TimetableSnapshot'</text></g><g stroke-linecap="round" transform="translate(24.43439632426862 134.27340498194098) rotate(0 106.00000000000006 25)"><path d="M12.5 0 C69.99 0, 127.48 0, 199.5 0 C207.83 0, 212 4.17, 212 12.5 C212 19.62, 212 26.73, 212 37.5 C212 45.83, 207.83 50, 199.5 50 C143.92 50, 88.34 50, 12.5 50 C4.17 50, 0 45.83, 0 37.5 C0 28.84, 0 20.19, 0 12.5 C0 4.17, 4.17 0, 12.5 0" stroke="none" stroke-width="0" fill="#a5d8ff"></path><path d="M12.5 0 C59.65 0, 106.8 0, 199.5 0 M12.5 0 C77.23 0, 141.97 0, 199.5 0 M199.5 0 C207.83 0, 212 4.17, 212 12.5 M199.5 0 C207.83 0, 212 4.17, 212 12.5 M212 12.5 C212 18.63, 212 24.76, 212 37.5 M212 12.5 C212 19.75, 212 27.01, 212 37.5 M212 37.5 C212 45.83, 207.83 50, 199.5 50 M212 37.5 C212 45.83, 207.83 50, 199.5 50 M199.5 50 C155.84 50, 112.19 50, 12.5 50 M199.5 50 C145.39 50, 91.28 50, 12.5 50 M12.5 50 C4.17 50, 0 45.83, 0 37.5 M12.5 50 C4.17 50, 0 45.83, 0 37.5 M0 37.5 C0 32.31, 0 27.12, 0 12.5 M0 37.5 C0 31.05, 0 24.6, 0 12.5 M0 12.5 C0 4.17, 4.17 0, 12.5 0 M0 12.5 C0 4.17, 4.17 0, 12.5 0" stroke="#1e1e1e" stroke-width="2" fill="none"></path></g><g transform="translate(30.458390770069457 139.27340498194098) rotate(0 99.97600555419922 20)"><text x="99.97600555419922" y="14.016" font-family="Virgil, Segoe UI Emoji" font-size="16px" fill="#1e1e1e" text-anchor="middle" style="white-space: pre;" direction="ltr" dominant-baseline="alphabetic">Map</text><text x="99.97600555419922" y="34.016" font-family="Virgil, Segoe UI Emoji" font-size="16px" fill="#1e1e1e" text-anchor="middle" style="white-space: pre;" direction="ltr" dominant-baseline="alphabetic">TripPattern -&gt; Timetable</text></g><g stroke-linecap="round" transform="translate(75.99999999999989 260.44123262539506) rotate(0 100.75 41.875)"><path d="M20.94 0 C55.05 0, 89.15 0, 180.56 0 C194.52 0, 201.5 6.98, 201.5 20.94 C201.5 34.53, 201.5 48.13, 201.5 62.81 C201.5 76.77, 194.52 83.75, 180.56 83.75 C120.75 83.75, 60.94 83.75, 20.94 83.75 C6.98 83.75, 0 76.77, 0 62.81 C0 48.85, 0 34.89, 0 20.94 C0 6.98, 6.98 0, 20.94 0" stroke="none" stroke-width="0" fill="#a5d8ff"></path><path d="M20.94 0 C63.05 0, 105.17 0, 180.56 0 M20.94 0 C63.4 0, 105.86 0, 180.56 0 M180.56 0 C194.52 0, 201.5 6.98, 201.5 20.94 M180.56 0 C194.52 0, 201.5 6.98, 201.5 20.94 M201.5 20.94 C201.5 30.68, 201.5 40.42, 201.5 62.81 M201.5 20.94 C201.5 29.99, 201.5 39.05, 201.5 62.81 M201.5 62.81 C201.5 76.77, 194.52 83.75, 180.56 83.75 M201.5 62.81 C201.5 76.77, 194.52 83.75, 180.56 83.75 M180.56 83.75 C126.29 83.75, 72.02 83.75, 20.94 83.75 M180.56 83.75 C129.3 83.75, 78.03 83.75, 20.94 83.75 M20.94 83.75 C6.98 83.75, 0 76.77, 0 62.81 M20.94 83.75 C6.98 83.75, 0 76.77, 0 62.81 M0 62.81 C0 48.28, 0 33.76, 0 20.94 M0 62.81 C0 46.07, 0 29.32, 0 20.94 M0 20.94 C0 6.98, 6.98 0, 20.94 0 M0 20.94 C0 6.98, 6.98 0, 20.94 0" stroke="#1e1e1e" stroke-width="2" fill="none"></path></g><g transform="translate(114.99999618530262 265.44123262539506) rotate(0 61.750003814697266 12.5)"><text x="61.750003814697266" y="17.52" font-family="Virgil, Segoe UI Emoji" font-size="20px" fill="#1e1e1e" text-anchor="middle" style="white-space: pre;" direction="ltr" dominant-baseline="alphabetic">Timetable A'</text></g><g mask="url(#mask-Mgrr7LfiwjEnehP-pnY3L)" stroke-linecap="round"><g transform="translate(111.58521875648262 336.023404981941) rotate(0 369.1013555248371 30.604750755769373)"><path d="M0 0 C41.66 9.17, 126.93 44.8, 249.96 55 C373 65.2, 656.83 60.18, 738.2 61.21 M0 0 C41.66 9.17, 126.93 44.8, 249.96 55 C373 65.2, 656.83 60.18, 738.2 61.21" stroke="#1e1e1e" stroke-width="2" fill="none"></path></g><g transform="translate(111.58521875648262 336.023404981941) rotate(0 369.1013555248371 30.604750755769373)"><path d="M714.72 69.79 C719.6 68.01, 724.47 66.23, 738.2 61.21 M714.72 69.79 C720.31 67.74, 725.91 65.7, 738.2 61.21" stroke="#1e1e1e" stroke-width="2" fill="none"></path></g><g transform="translate(111.58521875648262 336.023404981941) rotate(0 369.1013555248371 30.604750755769373)"><path d="M714.7 52.69 C719.58 54.45, 724.46 56.22, 738.2 61.21 M714.7 52.69 C720.3 54.72, 725.9 56.75, 738.2 61.21" stroke="#1e1e1e" stroke-width="2" fill="none"></path></g></g><mask id="mask-Mgrr7LfiwjEnehP-pnY3L"><rect x="0" y="0" fill="#fff" width="949.7879298061569" height="497.23290649347973"></rect><rect x="340.8106595175557" y="381.02615055048227" fill="#000" width="41.47200012207031" height="20" opacity="1"></rect></mask><g transform="translate(340.8106595175557 381.02615055048227) rotate(0 139.87591476376406 -14.22335949591411)"><text x="20.736000061035156" y="14.016" font-family="Virgil, Segoe UI Emoji" font-size="16px" fill="#1e1e1e" text-anchor="middle" style="white-space: pre;" direction="ltr" dominant-baseline="alphabetic">1:(N-1)</text></g><g stroke-linecap="round"><g transform="translate(44.98251156307515 185.27340498194167) rotate(0 7.373233700943388 60.38953854346698)"><path d="M0 0 C-2.09 15.99, -17.07 75.79, -12.52 95.92 C-7.98 116.05, 20.64 116.64, 27.27 120.78 M0 0 C-2.09 15.99, -17.07 75.79, -12.52 95.92 C-7.98 116.05, 20.64 116.64, 27.27 120.78" stroke="#1e1e1e" stroke-width="2" fill="none"></path></g><g transform="translate(44.98251156307515 185.27340498194167) rotate(0 7.373233700943388 60.38953854346698)"><path d="M3.83 121.74 C11.8 121.41, 19.76 121.09, 27.27 120.78 M3.83 121.74 C9.76 121.5, 15.7 121.25, 27.27 120.78" stroke="#1e1e1e" stroke-width="2" fill="none"></path></g><g transform="translate(44.98251156307515 185.27340498194167) rotate(0 7.373233700943388 60.38953854346698)"><path d="M8.7 106.45 C15.01 111.32, 21.32 116.19, 27.27 120.78 M8.7 106.45 C13.4 110.08, 18.1 113.7, 27.27 120.78" stroke="#1e1e1e" stroke-width="2" fill="none"></path></g></g><mask></mask><g stroke-linecap="round" transform="translate(89.0593963242685 295.023404981941) rotate(0 88.50000000000011 20)"><path d="M10 0 C63.83 0, 117.66 0, 167 0 C173.67 0, 177 3.33, 177 10 C177 15.64, 177 21.27, 177 30 C177 36.67, 173.67 40, 167 40 C129.39 40, 91.77 40, 10 40 C3.33 40, 0 36.67, 0 30 C0 22.47, 0 14.95, 0 10 C0 3.33, 3.33 0, 10 0" stroke="none" stroke-width="0" fill="#a5d8ff"></path><path d="M10 0 C48.57 0, 87.13 0, 167 0 M10 0 C45.66 0, 81.31 0, 167 0 M167 0 C173.67 0, 177 3.33, 177 10 M167 0 C173.67 0, 177 3.33, 177 10 M177 10 C177 15.57, 177 21.14, 177 30 M177 10 C177 15.61, 177 21.21, 177 30 M177 30 C177 36.67, 173.67 40, 167 40 M177 30 C177 36.67, 173.67 40, 167 40 M167 40 C106.48 40, 45.96 40, 10 40 M167 40 C115.36 40, 63.73 40, 10 40 M10 40 C3.33 40, 0 36.67, 0 30 M10 40 C3.33 40, 0 36.67, 0 30 M0 30 C0 22.68, 0 15.37, 0 10 M0 30 C0 23.18, 0 16.35, 0 10 M0 10 C0 3.33, 3.33 0, 10 0 M0 10 C0 3.33, 3.33 0, 10 0" stroke="#1e1e1e" stroke-width="2" fill="none"></path></g><g transform="translate(115.89539867412213 305.023404981941) rotate(0 61.663997650146484 10)"><text x="61.663997650146484" y="14.016" font-family="Virgil, Segoe UI Emoji" font-size="16px" fill="#1e1e1e" text-anchor="middle" style="white-space: pre;" direction="ltr" dominant-baseline="alphabetic">List&lt;TripTimes&gt;</text></g><g mask="url(#mask-urTZ263bvn2WOwPokUWC-)" stroke-linecap="round"><g transform="translate(47.87158290529902 185.2734049819412) rotate(0 360.7200870551171 26.22568331847981)"><path d="M0 0 C27.25 8.21, 43.29 40.54, 163.53 49.29 C283.77 58.03, 628.45 51.92, 721.44 52.45 M0 0 C27.25 8.21, 43.29 40.54, 163.53 49.29 C283.77 58.03, 628.45 51.92, 721.44 52.45" stroke="#1e1e1e" stroke-width="2" fill="none"></path></g><g transform="translate(47.87158290529902 185.2734049819412) rotate(0 360.7200870551171 26.22568331847981)"><path d="M697.99 61.13 C705.51 58.35, 713.02 55.57, 721.44 52.45 M697.99 61.13 C704.37 58.77, 710.74 56.41, 721.44 52.45" stroke="#1e1e1e" stroke-width="2" fill="none"></path></g><g transform="translate(47.87158290529902 185.2734049819412) rotate(0 360.7200870551171 26.22568331847981)"><path d="M697.9 44.03 C705.45 46.73, 712.99 49.43, 721.44 52.45 M697.9 44.03 C704.3 46.32, 710.7 48.61, 721.44 52.45" stroke="#1e1e1e" stroke-width="2" fill="none"></path></g></g><mask id="mask-urTZ263bvn2WOwPokUWC-"><rect x="0" y="0" fill="#fff" width="869.3117570155332" height="337.72477161890083"></rect><rect x="190.66335667848023" y="224.55919412311118" fill="#000" width="41.47200012207031" height="20" opacity="1"></rect></mask><g transform="translate(190.66335667848023 224.5591941231114) rotate(0 217.9283132819359 -12.267862690029347)"><text x="20.736000061035156" y="14.016" font-family="Virgil, Segoe UI Emoji" font-size="16px" fill="#1e1e1e" text-anchor="middle" style="white-space: pre;" direction="ltr" dominant-baseline="alphabetic">1:(N-1)</text></g><g stroke-linecap="round"><g transform="translate(108.35886410061647 336.023404981941) rotate(0 20.344393409158187 45.85150536963238)"><path d="M0 0 C1.49 12.39, 2.16 59.03, 8.94 74.32 C15.72 89.6, 35.4 88.81, 40.69 91.7 M0 0 C1.49 12.39, 2.16 59.03, 8.94 74.32 C15.72 89.6, 35.4 88.81, 40.69 91.7" stroke="#1e1e1e" stroke-width="2" fill="none"></path></g><g transform="translate(108.35886410061647 336.023404981941) rotate(0 20.344393409158187 45.85150536963238)"><path d="M22.65 93.23 C26.87 92.87, 31.09 92.51, 40.69 91.7 M22.65 93.23 C29.34 92.66, 36.02 92.1, 40.69 91.7" stroke="#1e1e1e" stroke-width="2" fill="none"></path></g><g transform="translate(108.35886410061647 336.023404981941) rotate(0 20.344393409158187 45.85150536963238)"><path d="M25.89 81.28 C29.35 83.72, 32.81 86.15, 40.69 91.7 M25.89 81.28 C31.38 85.14, 36.86 89.01, 40.69 91.7" stroke="#1e1e1e" stroke-width="2" fill="none"></path></g></g><mask></mask><g stroke-linecap="round" transform="translate(246.96561966893285 519.0916748046875) rotate(0 132.20703124999994 17.5)"><path d="M8.75 0 C83.6 0, 158.44 0, 255.66 0 C261.5 0, 264.41 2.92, 264.41 8.75 C264.41 12.28, 264.41 15.81, 264.41 26.25 C264.41 32.08, 261.5 35, 255.66 35 C175.1 35, 94.54 35, 8.75 35 C2.92 35, 0 32.08, 0 26.25 C0 21.8, 0 17.35, 0 8.75 C0 2.92, 2.92 0, 8.75 0" stroke="none" stroke-width="0" fill="#a5d8ff"></path><path d="M8.75 0 C97.59 0, 186.43 0, 255.66 0 M8.75 0 C60.52 0, 112.3 0, 255.66 0 M255.66 0 C261.5 0, 264.41 2.92, 264.41 8.75 M255.66 0 C261.5 0, 264.41 2.92, 264.41 8.75 M264.41 8.75 C264.41 15.25, 264.41 21.74, 264.41 26.25 M264.41 8.75 C264.41 14.59, 264.41 20.44, 264.41 26.25 M264.41 26.25 C264.41 32.08, 261.5 35, 255.66 35 M264.41 26.25 C264.41 32.08, 261.5 35, 255.66 35 M255.66 35 C205.25 35, 154.83 35, 8.75 35 M255.66 35 C168.78 35, 81.9 35, 8.75 35 M8.75 35 C2.92 35, 0 32.08, 0 26.25 M8.75 35 C2.92 35, 0 32.08, 0 26.25 M0 26.25 C0 22.73, 0 19.22, 0 8.75 M0 26.25 C0 22.73, 0 19.21, 0 8.75 M0 8.75 C0 2.92, 2.92 0, 8.75 0 M0 8.75 C0 2.92, 2.92 0, 8.75 0" stroke="#1e1e1e" stroke-width="2" fill="none"></path></g><g transform="translate(254.6426368808469 524.0916748046875) rotate(0 124.53001403808594 12.5)"><text x="124.53001403808594" y="17.52" font-family="Virgil, Segoe UI Emoji" font-size="20px" fill="#1e1e1e" text-anchor="middle" style="white-space: pre;" direction="ltr" dominant-baseline="alphabetic">departureTimes' per stop</text></g><g stroke-linecap="round" transform="translate(874.8562404317211 367.72173990340707) rotate(0 80 17.5)"><path d="M8.75 0 C62.62 0, 116.49 0, 151.25 0 C157.08 0, 160 2.92, 160 8.75 C160 14.17, 160 19.6, 160 26.25 C160 32.08, 157.08 35, 151.25 35 C121.78 35, 92.31 35, 8.75 35 C2.92 35, 0 32.08, 0 26.25 C0 22.27, 0 18.3, 0 8.75 C0 2.92, 2.92 0, 8.75 0" stroke="none" stroke-width="0" fill="#ffffff"></path><path d="M8.75 0 C45.61 0, 82.47 0, 151.25 0 M8.75 0 C56.84 0, 104.93 0, 151.25 0 M151.25 0 C157.08 0, 160 2.92, 160 8.75 M151.25 0 C157.08 0, 160 2.92, 160 8.75 M160 8.75 C160 12.86, 160 16.97, 160 26.25 M160 8.75 C160 12.81, 160 16.87, 160 26.25 M160 26.25 C160 32.08, 157.08 35, 151.25 35 M160 26.25 C160 32.08, 157.08 35, 151.25 35 M151.25 35 C121.02 35, 90.8 35, 8.75 35 M151.25 35 C95.59 35, 39.93 35, 8.75 35 M8.75 35 C2.92 35, 0 32.08, 0 26.25 M8.75 35 C2.92 35, 0 32.08, 0 26.25 M0 26.25 C0 22.11, 0 17.98, 0 8.75 M0 26.25 C0 19.52, 0 12.8, 0 8.75 M0 8.75 C0 2.92, 2.92 0, 8.75 0 M0 8.75 C0 2.92, 2.92 0, 8.75 0" stroke="#1e1e1e" stroke-width="2" fill="none"></path></g><g transform="translate(889.5662395161937 372.72173990340707) rotate(0 65.29000091552734 12.5)"><text x="65.29000091552734" y="17.52" font-family="Virgil, Segoe UI Emoji" font-size="20px" fill="#1e1e1e" text-anchor="middle" style="white-space: pre;" direction="ltr" dominant-baseline="alphabetic">TripTimes A3</text></g><g stroke-linecap="round" transform="translate(1069.6656367559892 366.9590846737465) rotate(0 73.75 17.5)"><path d="M8.75 0 C47.39 0, 86.04 0, 138.75 0 C144.58 0, 147.5 2.92, 147.5 8.75 C147.5 14.21, 147.5 19.66, 147.5 26.25 C147.5 32.08, 144.58 35, 138.75 35 C90.86 35, 42.97 35, 8.75 35 C2.92 35, 0 32.08, 0 26.25 C0 19.99, 0 13.74, 0 8.75 C0 2.92, 2.92 0, 8.75 0" stroke="none" stroke-width="0" fill="#ffffff"></path><path d="M8.75 0 C44.74 0, 80.73 0, 138.75 0 M8.75 0 C40.35 0, 71.95 0, 138.75 0 M138.75 0 C144.58 0, 147.5 2.92, 147.5 8.75 M138.75 0 C144.58 0, 147.5 2.92, 147.5 8.75 M147.5 8.75 C147.5 15.2, 147.5 21.66, 147.5 26.25 M147.5 8.75 C147.5 12.31, 147.5 15.86, 147.5 26.25 M147.5 26.25 C147.5 32.08, 144.58 35, 138.75 35 M147.5 26.25 C147.5 32.08, 144.58 35, 138.75 35 M138.75 35 C111.09 35, 83.43 35, 8.75 35 M138.75 35 C87.53 35, 36.32 35, 8.75 35 M8.75 35 C2.92 35, 0 32.08, 0 26.25 M8.75 35 C2.92 35, 0 32.08, 0 26.25 M0 26.25 C0 21.43, 0 16.61, 0 8.75 M0 26.25 C0 22.02, 0 17.8, 0 8.75 M0 8.75 C0 2.92, 2.92 0, 8.75 0 M0 8.75 C0 2.92, 2.92 0, 8.75 0" stroke="#1e1e1e" stroke-width="2" fill="none"></path></g><g transform="translate(1105.5856349249345 371.9590846737465) rotate(0 37.83000183105469 12.5)"><text x="37.83000183105469" y="17.52" font-family="Virgil, Segoe UI Emoji" font-size="20px" fill="#1e1e1e" text-anchor="middle" style="white-space: pre;" direction="ltr" dominant-baseline="alphabetic">Trip A3</text></g><g stroke-linecap="round"><g transform="translate(1035.9156367559901 386.9590846737465) rotate(0 16.374999999999545 0)"><path d="M0 0 C5.46 0, 27.29 0, 32.75 0 M0 0 C5.46 0, 27.29 0, 32.75 0" stroke="#1e1e1e" stroke-width="2" fill="none"></path></g><g transform="translate(1035.9156367559901 386.9590846737465) rotate(0 16.374999999999545 0)"><path d="M17.36 5.6 C23.12 3.5, 28.88 1.41, 32.75 0 M17.36 5.6 C22.35 3.79, 27.34 1.97, 32.75 0" stroke="#1e1e1e" stroke-width="2" fill="none"></path></g><g transform="translate(1035.9156367559901 386.9590846737465) rotate(0 16.374999999999545 0)"><path d="M17.36 -5.6 C23.12 -3.5, 28.88 -1.41, 32.75 0 M17.36 -5.6 C22.35 -3.79, 27.34 -1.97, 32.75 0" stroke="#1e1e1e" stroke-width="2" fill="none"></path></g></g><mask></mask><g stroke-linecap="round" transform="translate(854.3562404317211 390.97173990340707) rotate(0 80 17.5)"><path d="M8.75 0 C38.99 0, 69.22 0, 151.25 0 C157.08 0, 160 2.92, 160 8.75 C160 13.71, 160 18.67, 160 26.25 C160 32.08, 157.08 35, 151.25 35 C100.4 35, 49.54 35, 8.75 35 C2.92 35, 0 32.08, 0 26.25 C0 19.44, 0 12.62, 0 8.75 C0 2.92, 2.92 0, 8.75 0" stroke="none" stroke-width="0" fill="#ffffff"></path><path d="M8.75 0 C65.44 0, 122.13 0, 151.25 0 M8.75 0 C53.07 0, 97.39 0, 151.25 0 M151.25 0 C157.08 0, 160 2.92, 160 8.75 M151.25 0 C157.08 0, 160 2.92, 160 8.75 M160 8.75 C160 13.28, 160 17.82, 160 26.25 M160 8.75 C160 13.74, 160 18.72, 160 26.25 M160 26.25 C160 32.08, 157.08 35, 151.25 35 M160 26.25 C160 32.08, 157.08 35, 151.25 35 M151.25 35 C110.77 35, 70.29 35, 8.75 35 M151.25 35 C108.69 35, 66.12 35, 8.75 35 M8.75 35 C2.92 35, 0 32.08, 0 26.25 M8.75 35 C2.92 35, 0 32.08, 0 26.25 M0 26.25 C0 20.44, 0 14.62, 0 8.75 M0 26.25 C0 21.04, 0 15.83, 0 8.75 M0 8.75 C0 2.92, 2.92 0, 8.75 0 M0 8.75 C0 2.92, 2.92 0, 8.75 0" stroke="#1e1e1e" stroke-width="2" fill="none"></path></g><g transform="translate(868.7562343282054 395.97173990340707) rotate(0 65.60000610351562 12.5)"><text x="65.60000610351562" y="17.52" font-family="Virgil, Segoe UI Emoji" font-size="20px" fill="#1e1e1e" text-anchor="middle" style="white-space: pre;" direction="ltr" dominant-baseline="alphabetic">TripTimes A2</text></g><g stroke-linecap="round" transform="translate(1051.1656367559892 390.2090846737465) rotate(0 73.75 17.5)"><path d="M8.75 0 C41.76 0, 74.76 0, 138.75 0 C144.58 0, 147.5 2.92, 147.5 8.75 C147.5 14.43, 147.5 20.1, 147.5 26.25 C147.5 32.08, 144.58 35, 138.75 35 C99.77 35, 60.78 35, 8.75 35 C2.92 35, 0 32.08, 0 26.25 C0 19.4, 0 12.56, 0 8.75 C0 2.92, 2.92 0, 8.75 0" stroke="none" stroke-width="0" fill="#ffffff"></path><path d="M8.75 0 C54.21 0, 99.67 0, 138.75 0 M8.75 0 C39 0, 69.25 0, 138.75 0 M138.75 0 C144.58 0, 147.5 2.92, 147.5 8.75 M138.75 0 C144.58 0, 147.5 2.92, 147.5 8.75 M147.5 8.75 C147.5 13.42, 147.5 18.09, 147.5 26.25 M147.5 8.75 C147.5 14.9, 147.5 21.05, 147.5 26.25 M147.5 26.25 C147.5 32.08, 144.58 35, 138.75 35 M147.5 26.25 C147.5 32.08, 144.58 35, 138.75 35 M138.75 35 C99.31 35, 59.86 35, 8.75 35 M138.75 35 C87.12 35, 35.49 35, 8.75 35 M8.75 35 C2.92 35, 0 32.08, 0 26.25 M8.75 35 C2.92 35, 0 32.08, 0 26.25 M0 26.25 C0 21.18, 0 16.12, 0 8.75 M0 26.25 C0 22.4, 0 18.55, 0 8.75 M0 8.75 C0 2.92, 2.92 0, 8.75 0 M0 8.75 C0 2.92, 2.92 0, 8.75 0" stroke="#1e1e1e" stroke-width="2" fill="none"></path></g><g transform="translate(1086.7756373663408 395.2090846737465) rotate(0 38.13999938964844 12.5)"><text x="38.13999938964844" y="17.52" font-family="Virgil, Segoe UI Emoji" font-size="20px" fill="#1e1e1e" text-anchor="middle" style="white-space: pre;" direction="ltr" dominant-baseline="alphabetic">Trip A2</text></g><g stroke-linecap="round"><g transform="translate(1015.4156367559901 410.2090846737465) rotate(0 17.374999999999545 0)"><path d="M0 0 C5.79 0, 28.96 0, 34.75 0 M0 0 C5.79 0, 28.96 0, 34.75 0" stroke="#1e1e1e" stroke-width="2" fill="none"></path></g><g transform="translate(1015.4156367559901 410.2090846737465) rotate(0 17.374999999999545 0)"><path d="M18.42 5.94 C23.75 4, 29.09 2.06, 34.75 0 M18.42 5.94 C22.12 4.6, 25.81 3.25, 34.75 0" stroke="#1e1e1e" stroke-width="2" fill="none"></path></g><g transform="translate(1015.4156367559901 410.2090846737465) rotate(0 17.374999999999545 0)"><path d="M18.42 -5.94 C23.75 -4, 29.09 -2.06, 34.75 0 M18.42 -5.94 C22.12 -4.6, 25.81 -3.25, 34.75 0" stroke="#1e1e1e" stroke-width="2" fill="none"></path></g></g><mask></mask><g stroke-linecap="round" transform="translate(832.374109526321 415.29981289569696) rotate(0 80 17.5)"><path d="M8.75 0 C58.48 0, 108.21 0, 151.25 0 C157.08 0, 160 2.92, 160 8.75 C160 12.95, 160 17.14, 160 26.25 C160 32.08, 157.08 35, 151.25 35 C115.14 35, 79.02 35, 8.75 35 C2.92 35, 0 32.08, 0 26.25 C0 21.87, 0 17.49, 0 8.75 C0 2.92, 2.92 0, 8.75 0" stroke="none" stroke-width="0" fill="#ffffff"></path><path d="M8.75 0 C45.31 0, 81.88 0, 151.25 0 M8.75 0 C62.13 0, 115.52 0, 151.25 0 M151.25 0 C157.08 0, 160 2.92, 160 8.75 M151.25 0 C157.08 0, 160 2.92, 160 8.75 M160 8.75 C160 15.75, 160 22.74, 160 26.25 M160 8.75 C160 12.88, 160 17.01, 160 26.25 M160 26.25 C160 32.08, 157.08 35, 151.25 35 M160 26.25 C160 32.08, 157.08 35, 151.25 35 M151.25 35 C120.08 35, 88.92 35, 8.75 35 M151.25 35 C97.61 35, 43.97 35, 8.75 35 M8.75 35 C2.92 35, 0 32.08, 0 26.25 M8.75 35 C2.92 35, 0 32.08, 0 26.25 M0 26.25 C0 21.68, 0 17.11, 0 8.75 M0 26.25 C0 22.04, 0 17.83, 0 8.75 M0 8.75 C0 2.92, 2.92 0, 8.75 0 M0 8.75 C0 2.92, 2.92 0, 8.75 0" stroke="#1e1e1e" stroke-width="2" fill="none"></path></g><g transform="translate(851.1841070849148 420.29981289569696) rotate(0 61.19000244140625 12.5)"><text x="61.19000244140625" y="17.52" font-family="Virgil, Segoe UI Emoji" font-size="20px" fill="#1e1e1e" text-anchor="middle" style="white-space: pre;" direction="ltr" dominant-baseline="alphabetic">TripTimes A1</text></g><g stroke-linecap="round" transform="translate(1027.1835058505892 414.53715766603636) rotate(0 73.75 17.5)"><path d="M8.75 0 C44.55 0, 80.34 0, 138.75 0 C144.58 0, 147.5 2.92, 147.5 8.75 C147.5 13.63, 147.5 18.52, 147.5 26.25 C147.5 32.08, 144.58 35, 138.75 35 C98.4 35, 58.06 35, 8.75 35 C2.92 35, 0 32.08, 0 26.25 C0 21.22, 0 16.18, 0 8.75 C0 2.92, 2.92 0, 8.75 0" stroke="none" stroke-width="0" fill="#ffffff"></path><path d="M8.75 0 C50.74 0, 92.72 0, 138.75 0 M8.75 0 C57.43 0, 106.11 0, 138.75 0 M138.75 0 C144.58 0, 147.5 2.92, 147.5 8.75 M138.75 0 C144.58 0, 147.5 2.92, 147.5 8.75 M147.5 8.75 C147.5 12.82, 147.5 16.89, 147.5 26.25 M147.5 8.75 C147.5 15.13, 147.5 21.52, 147.5 26.25 M147.5 26.25 C147.5 32.08, 144.58 35, 138.75 35 M147.5 26.25 C147.5 32.08, 144.58 35, 138.75 35 M138.75 35 C109.07 35, 79.4 35, 8.75 35 M138.75 35 C87.86 35, 36.97 35, 8.75 35 M8.75 35 C2.92 35, 0 32.08, 0 26.25 M8.75 35 C2.92 35, 0 32.08, 0 26.25 M0 26.25 C0 19.63, 0 13, 0 8.75 M0 26.25 C0 21.81, 0 17.37, 0 8.75 M0 8.75 C0 2.92, 2.92 0, 8.75 0 M0 8.75 C0 2.92, 2.92 0, 8.75 0" stroke="#1e1e1e" stroke-width="2" fill="none"></path></g><g transform="translate(1067.2035063083529 419.53715766603636) rotate(0 33.72999954223633 12.5)"><text x="33.72999954223633" y="17.52" font-family="Virgil, Segoe UI Emoji" font-size="20px" fill="#1e1e1e" text-anchor="middle" style="white-space: pre;" direction="ltr" dominant-baseline="alphabetic">Trip A1</text></g><g stroke-linecap="round"><g transform="translate(993.4335058505897 434.53715766603636) rotate(0 16.374999999999773 0)"><path d="M0 0 C5.46 0, 27.29 0, 32.75 0 M0 0 C5.46 0, 27.29 0, 32.75 0" stroke="#1e1e1e" stroke-width="2" fill="none"></path></g><g transform="translate(993.4335058505897 434.53715766603636) rotate(0 16.374999999999773 0)"><path d="M17.36 5.6 C20.93 4.3, 24.5 3, 32.75 0 M17.36 5.6 C22.3 3.8, 27.23 2.01, 32.75 0" stroke="#1e1e1e" stroke-width="2" fill="none"></path></g><g transform="translate(993.4335058505897 434.53715766603636) rotate(0 16.374999999999773 0)"><path d="M17.36 -5.6 C20.93 -4.3, 24.5 -3, 32.75 0 M17.36 -5.6 C22.3 -3.8, 27.23 -2.01, 32.75 0" stroke="#1e1e1e" stroke-width="2" fill="none"></path></g></g><mask></mask><g stroke-linecap="round" transform="translate(1337.450648889514 37.263969405103126) rotate(0 156.5 47.5)"><path d="M23.75 0 C97.71 0, 171.67 0, 289.25 0 M23.75 0 C122.82 0, 221.89 0, 289.25 0 M289.25 0 C305.08 0, 313 7.92, 313 23.75 M289.25 0 C305.08 0, 313 7.92, 313 23.75 M313 23.75 C313 42.51, 313 61.26, 313 71.25 M313 23.75 C313 42.21, 313 60.67, 313 71.25 M313 71.25 C313 87.08, 305.08 95, 289.25 95 M313 71.25 C313 87.08, 305.08 95, 289.25 95 M289.25 95 C232.05 95, 174.86 95, 23.75 95 M289.25 95 C210.06 95, 130.87 95, 23.75 95 M23.75 95 C7.92 95, 0 87.08, 0 71.25 M23.75 95 C7.92 95, 0 87.08, 0 71.25 M0 71.25 C0 59.35, 0 47.45, 0 23.75 M0 71.25 C0 52.99, 0 34.74, 0 23.75 M0 23.75 C0 7.92, 7.92 0, 23.75 0 M0 23.75 C0 7.92, 7.92 0, 23.75 0" stroke="#1e1e1e" stroke-width="2" fill="none"></path></g><g transform="translate(1457.654651269885 42.263969405103126) rotate(0 36.295997619628906 10)"><text x="36.295997619628906" y="14.016" font-family="Virgil, Segoe UI Emoji" font-size="16px" fill="#1e1e1e" text-anchor="middle" style="white-space: pre;" direction="ltr" dominant-baseline="alphabetic">Requests</text></g><g stroke-linecap="round" transform="translate(1546.450648889514 71.26396940510313) rotate(0 46.02884615384619 25)"><path d="M12.5 0 C31.75 0, 51.01 0, 79.56 0 M12.5 0 C28.42 0, 44.35 0, 79.56 0 M79.56 0 C87.89 0, 92.06 4.17, 92.06 12.5 M79.56 0 C87.89 0, 92.06 4.17, 92.06 12.5 M92.06 12.5 C92.06 20.08, 92.06 27.66, 92.06 37.5 M92.06 12.5 C92.06 20.27, 92.06 28.04, 92.06 37.5 M92.06 37.5 C92.06 45.83, 87.89 50, 79.56 50 M92.06 37.5 C92.06 45.83, 87.89 50, 79.56 50 M79.56 50 C65.52 50, 51.48 50, 12.5 50 M79.56 50 C62.08 50, 44.61 50, 12.5 50 M12.5 50 C4.17 50, 0 45.83, 0 37.5 M12.5 50 C4.17 50, 0 45.83, 0 37.5 M0 37.5 C0 31.61, 0 25.71, 0 12.5 M0 37.5 C0 29.4, 0 21.31, 0 12.5 M0 12.5 C0 4.17, 4.17 0, 12.5 0 M0 12.5 C0 4.17, 4.17 0, 12.5 0" stroke="#1e1e1e" stroke-width="2" fill="none"></path></g><g transform="translate(1558.2234983392586 76.26396940510313) rotate(0 34.25599670410156 20)"><text x="34.25599670410156" y="14.016" font-family="Virgil, Segoe UI Emoji" font-size="16px" fill="#1e1e1e" text-anchor="middle" style="white-space: pre;" direction="ltr" dominant-baseline="alphabetic">Thread 1</text><text x="34.25599670410156" y="34.016" font-family="Virgil, Segoe UI Emoji" font-size="16px" fill="#1e1e1e" text-anchor="middle" style="white-space: pre;" direction="ltr" dominant-baseline="alphabetic">Routing</text></g><g stroke-linecap="round" transform="translate(1448.450648889514 71.26396940510313) rotate(0 46 25)"><path d="M12.5 0 C33.6 0, 54.7 0, 79.5 0 M12.5 0 C29.02 0, 45.55 0, 79.5 0 M79.5 0 C87.83 0, 92 4.17, 92 12.5 M79.5 0 C87.83 0, 92 4.17, 92 12.5 M92 12.5 C92 21.62, 92 30.75, 92 37.5 M92 12.5 C92 20.67, 92 28.83, 92 37.5 M92 37.5 C92 45.83, 87.83 50, 79.5 50 M92 37.5 C92 45.83, 87.83 50, 79.5 50 M79.5 50 C61.93 50, 44.37 50, 12.5 50 M79.5 50 C56.47 50, 33.45 50, 12.5 50 M12.5 50 C4.17 50, 0 45.83, 0 37.5 M12.5 50 C4.17 50, 0 45.83, 0 37.5 M0 37.5 C0 31.06, 0 24.62, 0 12.5 M0 37.5 C0 27.77, 0 18.03, 0 12.5 M0 12.5 C0 4.17, 4.17 0, 12.5 0 M0 12.5 C0 4.17, 4.17 0, 12.5 0" stroke="#1e1e1e" stroke-width="2" fill="none"></path></g><g transform="translate(1456.6666523074828 76.26396940510313) rotate(0 37.78399658203125 20)"><text x="37.78399658203125" y="14.016" font-family="Virgil, Segoe UI Emoji" font-size="16px" fill="#1e1e1e" text-anchor="middle" style="white-space: pre;" direction="ltr" dominant-baseline="alphabetic">Thread 2</text><text x="37.78399658203125" y="34.016" font-family="Virgil, Segoe UI Emoji" font-size="16px" fill="#1e1e1e" text-anchor="middle" style="white-space: pre;" direction="ltr" dominant-baseline="alphabetic">GraphQL</text></g><g stroke-linecap="round" transform="translate(1350.450648889514 71.26396940510313) rotate(0 46.04166666666663 25)"><path d="M12.5 0 C35.12 0, 57.75 0, 79.58 0 M12.5 0 C37.47 0, 62.44 0, 79.58 0 M79.58 0 C87.92 0, 92.08 4.17, 92.08 12.5 M79.58 0 C87.92 0, 92.08 4.17, 92.08 12.5 M92.08 12.5 C92.08 19.65, 92.08 26.81, 92.08 37.5 M92.08 12.5 C92.08 21.92, 92.08 31.34, 92.08 37.5 M92.08 37.5 C92.08 45.83, 87.92 50, 79.58 50 M92.08 37.5 C92.08 45.83, 87.92 50, 79.58 50 M79.58 50 C65.38 50, 51.19 50, 12.5 50 M79.58 50 C62.36 50, 45.13 50, 12.5 50 M12.5 50 C4.17 50, 0 45.83, 0 37.5 M12.5 50 C4.17 50, 0 45.83, 0 37.5 M0 37.5 C0 30.37, 0 23.25, 0 12.5 M0 37.5 C0 31.03, 0 24.56, 0 12.5 M0 12.5 C0 4.17, 4.17 0, 12.5 0 M0 12.5 C0 4.17, 4.17 0, 12.5 0" stroke="#1e1e1e" stroke-width="2" fill="none"></path></g><g transform="translate(1358.9563200727823 76.26396940510313) rotate(0 37.53599548339844 20)"><text x="37.53599548339844" y="14.016" font-family="Virgil, Segoe UI Emoji" font-size="16px" fill="#1e1e1e" text-anchor="middle" style="white-space: pre;" direction="ltr" dominant-baseline="alphabetic">Thread 3</text><text x="37.53599548339844" y="34.016" font-family="Virgil, Segoe UI Emoji" font-size="16px" fill="#1e1e1e" text-anchor="middle" style="white-space: pre;" direction="ltr" dominant-baseline="alphabetic">Idle</text></g><g stroke-linecap="round"><g transform="translate(1593.450648889514 121.21050260822813) rotate(0 -398.00000000000006 26.5)"><path d="M0 0 C-30.83 8.5, -52.33 42.17, -185 51 C-317.67 59.83, -694.17 52.67, -796 53 M0 0 C-30.83 8.5, -52.33 42.17, -185 51 C-317.67 59.83, -694.17 52.67, -796 53" stroke="#1e1e1e" stroke-width="2" fill="none"></path></g><g transform="translate(1593.450648889514 121.21050260822813) rotate(0 -398.00000000000006 26.5)"><path d="M-772.45 44.62 C-779.91 47.27, -787.37 49.93, -796 53 M-772.45 44.62 C-781.84 47.96, -791.22 51.3, -796 53" stroke="#1e1e1e" stroke-width="2" fill="none"></path></g><g transform="translate(1593.450648889514 121.21050260822813) rotate(0 -398.00000000000006 26.5)"><path d="M-772.57 61.72 C-779.99 58.96, -787.41 56.2, -796 53 M-772.57 61.72 C-781.91 58.24, -791.25 54.77, -796 53" stroke="#1e1e1e" stroke-width="2" fill="none"></path></g></g><mask></mask><g stroke-linecap="round"><g transform="translate(1498.950648889514 120.88030241291563) rotate(0 -349.50000000000006 13.5)"><path d="M0 0 C-22.83 4.33, -20.5 21.5, -137 26 C-253.5 30.5, -605.33 26.83, -699 27 M0 0 C-22.83 4.33, -20.5 21.5, -137 26 C-253.5 30.5, -605.33 26.83, -699 27" stroke="#1e1e1e" stroke-width="2" fill="none"></path></g><g transform="translate(1498.950648889514 120.88030241291563) rotate(0 -349.50000000000006 13.5)"><path d="M-675.47 18.54 C-680.59 20.38, -685.72 22.22, -699 27 M-675.47 18.54 C-683.18 21.31, -690.88 24.08, -699 27" stroke="#1e1e1e" stroke-width="2" fill="none"></path></g><g transform="translate(1498.950648889514 120.88030241291563) rotate(0 -349.50000000000006 13.5)"><path d="M-675.54 35.64 C-680.65 33.76, -685.75 31.88, -699 27 M-675.54 35.64 C-683.22 32.81, -690.9 29.98, -699 27" stroke="#1e1e1e" stroke-width="2" fill="none"></path></g></g><mask></mask></svg>