<svg version="1.1" xmlns="http://www.w3.org/2000/svg" viewBox="0 0 1548.152997970581 493.01730415845896" width="3096.305995941162" height="986.0346083169179">
  <!-- svg-source:excalidraw -->
  
  <defs>
    <style class="style-fonts">
      @font-face {
        font-family: "Virgil";
        src: url("https://excalidraw.com/Virgil.woff2");
      }
      @font-face {
        font-family: "Cascadia";
        src: url("https://excalidraw.com/Cascadia.woff2");
      }
      @font-face {
        font-family: "Assistant";
        src: url("https://excalidraw.com/Assistant-Regular.woff2");
      }
    </style>
    
  </defs>
  <rect x="0" y="0" width="1548.152997970581" height="493.01730415845896" fill="#ffffff"></rect><g stroke-linecap="round" transform="translate(670.7500000000002 219.77445475260402) rotate(0 100.74999999999994 41.875)"><path d="M20.94 0 C54.62 0, 88.3 0, 180.56 0 C194.52 0, 201.5 6.98, 201.5 20.94 C201.5 34.77, 201.5 48.61, 201.5 62.81 C201.5 76.77, 194.52 83.75, 180.56 83.75 C141.09 83.75, 101.61 83.75, 20.94 83.75 C6.98 83.75, 0 76.77, 0 62.81 C0 47.47, 0 32.12, 0 20.94 C0 6.98, 6.98 0, 20.94 0" stroke="none" stroke-width="0" fill="#ffffff"></path><path d="M20.94 0 C84.27 0, 147.6 0, 180.56 0 M20.94 0 C54.58 0, 88.22 0, 180.56 0 M180.56 0 C194.52 0, 201.5 6.98, 201.5 20.94 M180.56 0 C194.52 0, 201.5 6.98, 201.5 20.94 M201.5 20.94 C201.5 29.73, 201.5 38.53, 201.5 62.81 M201.5 20.94 C201.5 34.05, 201.5 47.17, 201.5 62.81 M201.5 62.81 C201.5 76.77, 194.52 83.75, 180.56 83.75 M201.5 62.81 C201.5 76.77, 194.52 83.75, 180.56 83.75 M180.56 83.75 C125.3 83.75, 70.03 83.75, 20.94 83.75 M180.56 83.75 C143.44 83.75, 106.32 83.75, 20.94 83.75 M20.94 83.75 C6.98 83.75, 0 76.77, 0 62.81 M20.94 83.75 C6.98 83.75, 0 76.77, 0 62.81 M0 62.81 C0 53.85, 0 44.88, 0 20.94 M0 62.81 C0 47.69, 0 32.57, 0 20.94 M0 20.94 C0 6.98, 6.98 0, 20.94 0 M0 20.94 C0 6.98, 6.98 0, 20.94 0" stroke="#1e1e1e" stroke-width="2" fill="none"></path></g><g transform="translate(712.5300521850588 224.77445475260402) rotate(0 58.96994781494135 12.5)"><text x="58.969947814941406" y="17.52" font-family="Virgil, Segoe UI Emoji" font-size="20px" fill="#1e1e1e" text-anchor="middle" style="white-space: pre;" direction="ltr" dominant-baseline="alphabetic">Timetable C</text></g><g stroke-linecap="round" transform="translate(650.0000000000001 241.27445475260402) rotate(0 100.75 41.875)"><path d="M20.94 0 C80.6 0, 140.26 0, 180.56 0 C194.52 0, 201.5 6.98, 201.5 20.94 C201.5 32.66, 201.5 44.38, 201.5 62.81 C201.5 76.77, 194.52 83.75, 180.56 83.75 C146.06 83.75, 111.56 83.75, 20.94 83.75 C6.98 83.75, 0 76.77, 0 62.81 C0 51.49, 0 40.16, 0 20.94 C0 6.98, 6.98 0, 20.94 0" stroke="none" stroke-width="0" fill="#ffffff"></path><path d="M20.94 0 C66.71 0, 112.48 0, 180.56 0 M20.94 0 C73.18 0, 125.43 0, 180.56 0 M180.56 0 C194.52 0, 201.5 6.98, 201.5 20.94 M180.56 0 C194.52 0, 201.5 6.98, 201.5 20.94 M201.5 20.94 C201.5 29.96, 201.5 38.99, 201.5 62.81 M201.5 20.94 C201.5 30.81, 201.5 40.69, 201.5 62.81 M201.5 62.81 C201.5 76.77, 194.52 83.75, 180.56 83.75 M201.5 62.81 C201.5 76.77, 194.52 83.75, 180.56 83.75 M180.56 83.75 C140.29 83.75, 100.02 83.75, 20.94 83.75 M180.56 83.75 C146.48 83.75, 112.39 83.75, 20.94 83.75 M20.94 83.75 C6.98 83.75, 0 76.77, 0 62.81 M20.94 83.75 C6.98 83.75, 0 76.77, 0 62.81 M0 62.81 C0 53.14, 0 43.47, 0 20.94 M0 62.81 C0 53.27, 0 43.74, 0 20.94 M0 20.94 C0 6.98, 6.98 0, 20.94 0 M0 20.94 C0 6.98, 6.98 0, 20.94 0" stroke="#1e1e1e" stroke-width="2" fill="none"></path></g><g transform="translate(690.950050354004 246.27445475260402) rotate(0 59.799949645996094 12.5)"><text x="59.799949645996094" y="17.52" font-family="Virgil, Segoe UI Emoji" font-size="20px" fill="#1e1e1e" text-anchor="middle" style="white-space: pre;" direction="ltr" dominant-baseline="alphabetic">Timetable B</text></g><g stroke-linecap="round" transform="translate(439.59530183786546 94.26730415845896) rotate(0 119.375 50.625)"><path d="M25.31 0 C94.14 0, 162.97 0, 213.44 0 M25.31 0 C92.05 0, 158.79 0, 213.44 0 M213.44 0 C230.31 0, 238.75 8.44, 238.75 25.31 M213.44 0 C230.31 0, 238.75 8.44, 238.75 25.31 M238.75 25.31 C238.75 41.38, 238.75 57.45, 238.75 75.94 M238.75 25.31 C238.75 39.64, 238.75 53.97, 238.75 75.94 M238.75 75.94 C238.75 92.81, 230.31 101.25, 213.44 101.25 M238.75 75.94 C238.75 92.81, 230.31 101.25, 213.44 101.25 M213.44 101.25 C156.99 101.25, 100.54 101.25, 25.31 101.25 M213.44 101.25 C158.48 101.25, 103.53 101.25, 25.31 101.25 M25.31 101.25 C8.44 101.25, 0 92.81, 0 75.94 M25.31 101.25 C8.44 101.25, 0 92.81, 0 75.94 M0 75.94 C0 61.39, 0 46.84, 0 25.31 M0 75.94 C0 56.26, 0 36.58, 0 25.31 M0 25.31 C0 8.44, 8.44 0, 25.31 0 M0 25.31 C0 8.44, 8.44 0, 25.31 0" stroke="#1e1e1e" stroke-width="2" fill="none"></path></g><g transform="translate(467.5303909491936 99.26730415845896) rotate(0 91.43991088867188 12.5)"><text x="91.43991088867188" y="17.52" font-family="Virgil, Segoe UI Emoji" font-size="20px" fill="#1e1e1e" text-anchor="middle" style="white-space: pre;" direction="ltr" dominant-baseline="alphabetic">TimetableSnapshot</text></g><g stroke-linecap="round" transform="translate(454.0296981621341 133.09947651500488) rotate(0 106.00000000000006 25)"><path d="M12.5 0 C63.66 0, 114.82 0, 199.5 0 M12.5 0 C77.24 0, 141.98 0, 199.5 0 M199.5 0 C207.83 0, 212 4.17, 212 12.5 M199.5 0 C207.83 0, 212 4.17, 212 12.5 M212 12.5 C212 19.99, 212 27.48, 212 37.5 M212 12.5 C212 18.18, 212 23.86, 212 37.5 M212 37.5 C212 45.83, 207.83 50, 199.5 50 M212 37.5 C212 45.83, 207.83 50, 199.5 50 M199.5 50 C153.32 50, 107.14 50, 12.5 50 M199.5 50 C126.23 50, 52.97 50, 12.5 50 M12.5 50 C4.17 50, 0 45.83, 0 37.5 M12.5 50 C4.17 50, 0 45.83, 0 37.5 M0 37.5 C0 28.51, 0 19.52, 0 12.5 M0 37.5 C0 31.22, 0 24.94, 0 12.5 M0 12.5 C0 4.17, 4.17 0, 12.5 0 M0 12.5 C0 4.17, 4.17 0, 12.5 0" stroke="#1e1e1e" stroke-width="2" fill="none"></path></g><g transform="translate(460.05376127248576 138.09947651500488) rotate(0 99.97593688964844 20)"><text x="99.97593688964844" y="14.016" font-family="Virgil, Segoe UI Emoji" font-size="16px" fill="#1e1e1e" text-anchor="middle" style="white-space: pre;" direction="ltr" dominant-baseline="alphabetic">Map</text><text x="99.97593688964844" y="34.016" font-family="Virgil, Segoe UI Emoji" font-size="16px" fill="#1e1e1e" text-anchor="middle" style="white-space: pre;" direction="ltr" dominant-baseline="alphabetic">TripPattern -&gt; Timetable</text></g><g stroke-linecap="round" transform="translate(707.5953018378656 358.86213174466593) rotate(0 80 17.5)"><path d="M8.75 0 C44.75 0, 80.75 0, 151.25 0 M8.75 0 C61.85 0, 114.95 0, 151.25 0 M151.25 0 C157.08 0, 160 2.92, 160 8.75 M151.25 0 C157.08 0, 160 2.92, 160 8.75 M160 8.75 C160 13.39, 160 18.03, 160 26.25 M160 8.75 C160 14.48, 160 20.2, 160 26.25 M160 26.25 C160 32.08, 157.08 35, 151.25 35 M160 26.25 C160 32.08, 157.08 35, 151.25 35 M151.25 35 C99.8 35, 48.35 35, 8.75 35 M151.25 35 C101.92 35, 52.59 35, 8.75 35 M8.75 35 C2.92 35, 0 32.08, 0 26.25 M8.75 35 C2.92 35, 0 32.08, 0 26.25 M0 26.25 C0 20.04, 0 13.83, 0 8.75 M0 26.25 C0 20.2, 0 14.16, 0 8.75 M0 8.75 C0 2.92, 2.92 0, 8.75 0 M0 8.75 C0 2.92, 2.92 0, 8.75 0" stroke="#1e1e1e" stroke-width="2" fill="none"></path></g><g transform="translate(740.675357074682 363.86213174466593) rotate(0 46.919944763183594 12.5)"><text x="46.919944763183594" y="17.52" font-family="Virgil, Segoe UI Emoji" font-size="20px" fill="#1e1e1e" text-anchor="middle" style="white-space: pre;" direction="ltr" dominant-baseline="alphabetic">TripTimes</text></g><g stroke-linecap="round" transform="translate(784.5953018378656 406.76137023761885) rotate(0 138.75 17.5)"><path d="M8.75 0 C72.96 0, 137.16 0, 268.75 0 M8.75 0 C96.35 0, 183.95 0, 268.75 0 M268.75 0 C274.58 0, 277.5 2.92, 277.5 8.75 M268.75 0 C274.58 0, 277.5 2.92, 277.5 8.75 M277.5 8.75 C277.5 13.81, 277.5 18.87, 277.5 26.25 M277.5 8.75 C277.5 13.21, 277.5 17.66, 277.5 26.25 M277.5 26.25 C277.5 32.08, 274.58 35, 268.75 35 M277.5 26.25 C277.5 32.08, 274.58 35, 268.75 35 M268.75 35 C204.05 35, 139.35 35, 8.75 35 M268.75 35 C165.88 35, 63 35, 8.75 35 M8.75 35 C2.92 35, 0 32.08, 0 26.25 M8.75 35 C2.92 35, 0 32.08, 0 26.25 M0 26.25 C0 22.56, 0 18.88, 0 8.75 M0 26.25 C0 21.34, 0 16.43, 0 8.75 M0 8.75 C0 2.92, 2.92 0, 8.75 0 M0 8.75 C0 2.92, 2.92 0, 8.75 0" stroke="#1e1e1e" stroke-width="2" fill="none"></path></g><g transform="translate(817.6454040717523 411.76137023761885) rotate(0 105.69989776611328 12.5)"><text x="105.69989776611328" y="17.52" font-family="Virgil, Segoe UI Emoji" font-size="20px" fill="#1e1e1e" text-anchor="middle" style="white-space: pre;" direction="ltr" dominant-baseline="alphabetic">arrivalTimes per stop</text></g><g stroke-linecap="round" transform="translate(785.9468643378656 448.01730415845896) rotate(0 137.83203125 17.5)"><path d="M8.75 0 C108.92 0, 209.08 0, 266.91 0 M8.75 0 C100.28 0, 191.82 0, 266.91 0 M266.91 0 C272.75 0, 275.66 2.92, 275.66 8.75 M266.91 0 C272.75 0, 275.66 2.92, 275.66 8.75 M275.66 8.75 C275.66 12.85, 275.66 16.95, 275.66 26.25 M275.66 8.75 C275.66 13.89, 275.66 19.03, 275.66 26.25 M275.66 26.25 C275.66 32.08, 272.75 35, 266.91 35 M275.66 26.25 C275.66 32.08, 272.75 35, 266.91 35 M266.91 35 C188.36 35, 109.81 35, 8.75 35 M266.91 35 C165.4 35, 63.89 35, 8.75 35 M8.75 35 C2.92 35, 0 32.08, 0 26.25 M8.75 35 C2.92 35, 0 32.08, 0 26.25 M0 26.25 C0 21.83, 0 17.41, 0 8.75 M0 26.25 C0 21.38, 0 16.51, 0 8.75 M0 8.75 C0 2.92, 2.92 0, 8.75 0 M0 8.75 C0 2.92, 2.92 0, 8.75 0" stroke="#1e1e1e" stroke-width="2" fill="none"></path></g><g transform="translate(801.9090225409906 453.01730415845896) rotate(0 121.869873046875 12.5)"><text x="121.869873046875" y="17.52" font-family="Virgil, Segoe UI Emoji" font-size="20px" fill="#1e1e1e" text-anchor="middle" style="white-space: pre;" direction="ltr" dominant-baseline="alphabetic">departureTimes per stop</text></g><g stroke-linecap="round" transform="translate(628.3453018378656 262.26730415845896) rotate(0 100.75 41.875)"><path d="M20.94 0 C81.21 0, 141.48 0, 180.56 0 C194.52 0, 201.5 6.98, 201.5 20.94 C201.5 32.11, 201.5 43.29, 201.5 62.81 C201.5 76.77, 194.52 83.75, 180.56 83.75 C122.86 83.75, 65.15 83.75, 20.94 83.75 C6.98 83.75, 0 76.77, 0 62.81 C0 47.72, 0 32.62, 0 20.94 C0 6.98, 6.98 0, 20.94 0" stroke="none" stroke-width="0" fill="#ffffff"></path><path d="M20.94 0 C83.94 0, 146.95 0, 180.56 0 M20.94 0 C77.36 0, 133.77 0, 180.56 0 M180.56 0 C194.52 0, 201.5 6.98, 201.5 20.94 M180.56 0 C194.52 0, 201.5 6.98, 201.5 20.94 M201.5 20.94 C201.5 35.64, 201.5 50.34, 201.5 62.81 M201.5 20.94 C201.5 35.22, 201.5 49.5, 201.5 62.81 M201.5 62.81 C201.5 76.77, 194.52 83.75, 180.56 83.75 M201.5 62.81 C201.5 76.77, 194.52 83.75, 180.56 83.75 M180.56 83.75 C131.28 83.75, 81.99 83.75, 20.94 83.75 M180.56 83.75 C147.96 83.75, 115.36 83.75, 20.94 83.75 M20.94 83.75 C6.98 83.75, 0 76.77, 0 62.81 M20.94 83.75 C6.98 83.75, 0 76.77, 0 62.81 M0 62.81 C0 46.36, 0 29.91, 0 20.94 M0 62.81 C0 47.19, 0 31.58, 0 20.94 M0 20.94 C0 6.98, 6.98 0, 20.94 0 M0 20.94 C0 6.98, 6.98 0, 20.94 0" stroke="#1e1e1e" stroke-width="2" fill="none"></path></g><g transform="translate(670.0053512763421 267.26730415845896) rotate(0 59.08995056152344 12.5)"><text x="59.08995056152344" y="17.52" font-family="Virgil, Segoe UI Emoji" font-size="20px" fill="#1e1e1e" text-anchor="middle" style="white-space: pre;" direction="ltr" dominant-baseline="alphabetic">Timetable A</text></g><g mask="url(#mask-jM3qNJlg03ePJgXCW4r1p)" stroke-linecap="round"><g transform="translate(661.3445583346421 337.8494765150049) rotate(0 20.89433665469005 19.864417667073894)"><path d="M0 0 C1.22 5.46, 0.33 26.13, 7.3 32.75 C14.26 39.37, 36.04 38.57, 41.79 39.73 M0 0 C1.22 5.46, 0.33 26.13, 7.3 32.75 C14.26 39.37, 36.04 38.57, 41.79 39.73" stroke="#1e1e1e" stroke-width="2" fill="none"></path></g><g transform="translate(661.3445583346421 337.8494765150049) rotate(0 20.89433665469005 19.864417667073894)"><path d="M24.79 44.26 C31.14 42.57, 37.49 40.88, 41.79 39.73 M24.79 44.26 C29.45 43.02, 34.1 41.78, 41.79 39.73" stroke="#1e1e1e" stroke-width="2" fill="none"></path></g><g transform="translate(661.3445583346421 337.8494765150049) rotate(0 20.89433665469005 19.864417667073894)"><path d="M25.85 32.28 C31.8 35.06, 37.76 37.84, 41.79 39.73 M25.85 32.28 C30.22 34.32, 34.58 36.36, 41.79 39.73" stroke="#1e1e1e" stroke-width="2" fill="none"></path></g></g><mask id="mask-jM3qNJlg03ePJgXCW4r1p"><rect x="0" y="0" fill="#fff" width="803.1332316440222" height="477.57831184915267"></rect><rect x="659.385972341749" y="360.6022220835464" fill="#000" width="18.511978149414062" height="20" opacity="1"></rect></mask><g transform="translate(659.385972341749 360.6022220835464) rotate(0 22.852922647583 -2.888327901467619)"><text x="9.255989074707031" y="14.016" font-family="Virgil, Segoe UI Emoji" font-size="16px" fill="#1e1e1e" text-anchor="middle" style="white-space: pre;" direction="ltr" dominant-baseline="alphabetic">1:N</text></g><g stroke-linecap="round"><g transform="translate(721.0766487100553 396.86213174466593) rotate(0 31.25932656390512 14.60327161266082)"><path d="M0 0 C2.9 4.16, 6.98 20.1, 17.4 24.97 C27.82 29.83, 55 28.5, 62.52 29.21 M0 0 C2.9 4.16, 6.98 20.1, 17.4 24.97 C27.82 29.83, 55 28.5, 62.52 29.21" stroke="#1e1e1e" stroke-width="2" fill="none"></path></g><g transform="translate(721.0766487100553 396.86213174466593) rotate(0 31.25932656390512 14.60327161266082)"><path d="M41.02 36.36 C45.72 34.8, 50.41 33.24, 62.52 29.21 M41.02 36.36 C46.81 34.44, 52.59 32.51, 62.52 29.21" stroke="#1e1e1e" stroke-width="2" fill="none"></path></g><g transform="translate(721.0766487100553 396.86213174466593) rotate(0 31.25932656390512 14.60327161266082)"><path d="M41.45 20.87 C46.05 22.69, 50.65 24.51, 62.52 29.21 M41.45 20.87 C47.12 23.11, 52.79 25.36, 62.52 29.21" stroke="#1e1e1e" stroke-width="2" fill="none"></path></g></g><mask></mask><g stroke-linecap="round"><g transform="translate(719.301429032854 396.5000627791487) rotate(0 31.822717652505787 35.2772253992523)"><path d="M0 0 C1.55 9.07, -1.31 42.67, 9.29 54.43 C19.9 66.19, 54.59 67.87, 63.65 70.55 M0 0 C1.55 9.07, -1.31 42.67, 9.29 54.43 C19.9 66.19, 54.59 67.87, 63.65 70.55" stroke="#1e1e1e" stroke-width="2" fill="none"></path></g><g transform="translate(719.301429032854 396.5000627791487) rotate(0 31.822717652505787 35.2772253992523)"><path d="M39.02 74.85 C45.55 73.71, 52.07 72.57, 63.65 70.55 M39.02 74.85 C47.08 73.45, 55.13 72.04, 63.65 70.55" stroke="#1e1e1e" stroke-width="2" fill="none"></path></g><g transform="translate(719.301429032854 396.5000627791487) rotate(0 31.822717652505787 35.2772253992523)"><path d="M42.02 58.02 C47.75 61.34, 53.48 64.66, 63.65 70.55 M42.02 58.02 C49.09 62.12, 56.17 66.22, 63.65 70.55" stroke="#1e1e1e" stroke-width="2" fill="none"></path></g></g><mask></mask><g mask="url(#mask-vTZrbvR9khR3XWa7ph_tQ)" stroke-linecap="round"><g transform="translate(521.1916062230665 184.09947651500488) rotate(0 51.076847807399645 58.60520676915428)"><path d="M0 0 C2.46 16.69, -2.24 80.63, 14.79 100.17 C31.81 119.7, 87.59 114.37, 102.15 117.21 M0 0 C2.46 16.69, -2.24 80.63, 14.79 100.17 C31.81 119.7, 87.59 114.37, 102.15 117.21" stroke="#1e1e1e" stroke-width="2" fill="none"></path></g><g transform="translate(521.1916062230665 184.09947651500488) rotate(0 51.076847807399645 58.60520676915428)"><path d="M78.22 124.43 C83.27 122.91, 88.31 121.38, 102.15 117.21 M78.22 124.43 C85.5 122.23, 92.79 120.03, 102.15 117.21" stroke="#1e1e1e" stroke-width="2" fill="none"></path></g><g transform="translate(521.1916062230665 184.09947651500488) rotate(0 51.076847807399645 58.60520676915428)"><path d="M79.18 107.35 C84.02 109.43, 88.87 111.51, 102.15 117.21 M79.18 107.35 C86.17 110.35, 93.17 113.35, 102.15 117.21" stroke="#1e1e1e" stroke-width="2" fill="none"></path></g></g><mask id="mask-vTZrbvR9khR3XWa7ph_tQ"><rect x="0" y="0" fill="#fff" width="723.3453018378658" height="401.30989005331344"></rect><rect x="526.7210341181587" y="274.26730415845896" fill="#000" width="18.511978149414062" height="20" opacity="1"></rect></mask><g transform="translate(526.7210341181587 274.26730415845896) rotate(0 45.547419912307305 -31.562620874299796)"><text x="9.255989074707031" y="14.016" font-family="Virgil, Segoe UI Emoji" font-size="16px" fill="#1e1e1e" text-anchor="middle" style="white-space: pre;" direction="ltr" dominant-baseline="alphabetic">1:N</text></g><g stroke-linecap="round"><g transform="translate(417.46409448640316 48.083222127208955) rotate(0 0 195.63312719389796)"><path d="M-1.84 0.12 C-1.46 65, -0.5 324.54, 0.04 390" stroke="#1e1e1e" stroke-width="2.5" fill="none" stroke-dasharray="1.5 8"></path></g></g><mask></mask><g transform="translate(506.46409448640316 58.083222127208955) rotate(0 64.74400329589844 10)"><text x="0" y="14.016" font-family="Virgil, Segoe UI Emoji" font-size="16px" fill="#1e1e1e" text-anchor="start" style="white-space: pre;" direction="ltr" dominant-baseline="alphabetic">LIVE SNAPSHOT</text></g><g transform="translate(213.46409448640316 56.083222127208955) rotate(0 31.527997970581055 10)"><text x="0" y="14.016" font-family="Virgil, Segoe UI Emoji" font-size="16px" fill="#1e1e1e" text-anchor="start" style="white-space: pre;" direction="ltr" dominant-baseline="alphabetic">BUFFER</text></g><g transform="translate(312.46409448640316 12.083222127208955) rotate(0 105.51200103759766 10)"><text x="0" y="14.016" font-family="Virgil, Segoe UI Emoji" font-size="16px" fill="#1e1e1e" text-anchor="start" style="white-space: pre;" direction="ltr" dominant-baseline="alphabetic">TimetableSnapshotManager</text></g><g stroke-linecap="round" transform="translate(641.4046981621342 296.8494765150049) rotate(0 88.50000000000011 20)"><path d="M10 0 C57.11 0, 104.22 0, 167 0 M10 0 C55.86 0, 101.72 0, 167 0 M167 0 C173.67 0, 177 3.33, 177 10 M167 0 C173.67 0, 177 3.33, 177 10 M177 10 C177 15.75, 177 21.5, 177 30 M177 10 C177 17.77, 177 25.55, 177 30 M177 30 C177 36.67, 173.67 40, 167 40 M177 30 C177 36.67, 173.67 40, 167 40 M167 40 C127.42 40, 87.84 40, 10 40 M167 40 C105.37 40, 43.75 40, 10 40 M10 40 C3.33 40, 0 36.67, 0 30 M10 40 C3.33 40, 0 36.67, 0 30 M0 30 C0 25.18, 0 20.35, 0 10 M0 30 C0 24.76, 0 19.53, 0 10 M0 10 C0 3.33, 3.33 0, 10 0 M0 10 C0 3.33, 3.33 0, 10 0" stroke="#1e1e1e" stroke-width="2" fill="none"></path></g><g transform="translate(668.2407424736577 306.8494765150049) rotate(0 61.663955688476506 10)"><text x="61.66395568847656" y="14.016" font-family="Virgil, Segoe UI Emoji" font-size="16px" fill="#1e1e1e" text-anchor="middle" style="white-space: pre;" direction="ltr" dominant-baseline="alphabetic">List&lt;TripTimes&gt;</text></g><g stroke-linecap="round" transform="translate(902.4046981621342 358.0994765150049) rotate(0 73.75 17.5)"><path d="M8.75 0 C40.85 0, 72.95 0, 138.75 0 M8.75 0 C59.68 0, 110.62 0, 138.75 0 M138.75 0 C144.58 0, 147.5 2.92, 147.5 8.75 M138.75 0 C144.58 0, 147.5 2.92, 147.5 8.75 M147.5 8.75 C147.5 15.04, 147.5 21.34, 147.5 26.25 M147.5 8.75 C147.5 13.15, 147.5 17.54, 147.5 26.25 M147.5 26.25 C147.5 32.08, 144.58 35, 138.75 35 M147.5 26.25 C147.5 32.08, 144.58 35, 138.75 35 M138.75 35 C95.78 35, 52.81 35, 8.75 35 M138.75 35 C89.36 35, 39.97 35, 8.75 35 M8.75 35 C2.92 35, 0 32.08, 0 26.25 M8.75 35 C2.92 35, 0 32.08, 0 26.25 M0 26.25 C0 19.65, 0 13.05, 0 8.75 M0 26.25 C0 22.03, 0 17.82, 0 8.75 M0 8.75 C0 2.92, 2.92 0, 8.75 0 M0 8.75 C0 2.92, 2.92 0, 8.75 0" stroke="#1e1e1e" stroke-width="2" fill="none"></path></g><g transform="translate(956.6947219658451 363.0994765150049) rotate(0 19.459976196289062 12.5)"><text x="19.459976196289062" y="17.52" font-family="Virgil, Segoe UI Emoji" font-size="20px" fill="#1e1e1e" text-anchor="middle" style="white-space: pre;" direction="ltr" dominant-baseline="alphabetic">Trip</text></g><g stroke-linecap="round"><g transform="translate(868.6546981621342 378.0994765150049) rotate(0 16.375 0)"><path d="M0 0 C5.46 0, 27.29 0, 32.75 0 M0 0 C5.46 0, 27.29 0, 32.75 0" stroke="#1e1e1e" stroke-width="2" fill="none"></path></g><g transform="translate(868.6546981621342 378.0994765150049) rotate(0 16.375 0)"><path d="M17.36 5.6 C22.92 3.58, 28.47 1.56, 32.75 0 M17.36 5.6 C22.69 3.66, 28.02 1.72, 32.75 0" stroke="#1e1e1e" stroke-width="2" fill="none"></path></g><g transform="translate(868.6546981621342 378.0994765150049) rotate(0 16.375 0)"><path d="M17.36 -5.6 C22.92 -3.58, 28.47 -1.56, 32.75 0 M17.36 -5.6 C22.69 -3.66, 28.02 -1.72, 32.75 0" stroke="#1e1e1e" stroke-width="2" fill="none"></path></g></g><mask></mask><g stroke-linecap="round" transform="translate(10 101.02445475260402) rotate(0 119.375 50.625)"><path d="M25.31 0 C89.42 0, 153.53 0, 213.44 0 C230.31 0, 238.75 8.44, 238.75 25.31 C238.75 37.58, 238.75 49.84, 238.75 75.94 C238.75 92.81, 230.31 101.25, 213.44 101.25 C145.25 101.25, 77.06 101.25, 25.31 101.25 C8.44 101.25, 0 92.81, 0 75.94 C0 56.4, 0 36.87, 0 25.31 C0 8.44, 8.44 0, 25.31 0" stroke="none" stroke-width="0" fill="#a5d8ff"></path><path d="M25.31 0 C99.72 0, 174.13 0, 213.44 0 M25.31 0 C86.55 0, 147.78 0, 213.44 0 M213.44 0 C230.31 0, 238.75 8.44, 238.75 25.31 M213.44 0 C230.31 0, 238.75 8.44, 238.75 25.31 M238.75 25.31 C238.75 41.54, 238.75 57.78, 238.75 75.94 M238.75 25.31 C238.75 41.25, 238.75 57.2, 238.75 75.94 M238.75 75.94 C238.75 92.81, 230.31 101.25, 213.44 101.25 M238.75 75.94 C238.75 92.81, 230.31 101.25, 213.44 101.25 M213.44 101.25 C148.72 101.25, 84.01 101.25, 25.31 101.25 M213.44 101.25 C161.47 101.25, 109.51 101.25, 25.31 101.25 M25.31 101.25 C8.44 101.25, 0 92.81, 0 75.94 M25.31 101.25 C8.44 101.25, 0 92.81, 0 75.94 M0 75.94 C0 57.21, 0 38.49, 0 25.31 M0 75.94 C0 56.63, 0 37.32, 0 25.31 M0 25.31 C0 8.44, 8.44 0, 25.31 0 M0 25.31 C0 8.44, 8.44 0, 25.31 0" stroke="#1e1e1e" stroke-width="2" fill="none"></path></g><g transform="translate(35.27509307861328 106.02445475260402) rotate(0 94.09990692138672 12.5)"><text x="94.09990692138672" y="17.52" font-family="Virgil, Segoe UI Emoji" font-size="20px" fill="#1e1e1e" text-anchor="middle" style="white-space: pre;" direction="ltr" dominant-baseline="alphabetic">TimetableSnapshot'</text></g><g stroke-linecap="round" transform="translate(24.43439632426862 139.85662710914994) rotate(0 106.00000000000006 25)"><path d="M12.5 0 C76.63 0, 140.76 0, 199.5 0 C207.83 0, 212 4.17, 212 12.5 C212 18.94, 212 25.37, 212 37.5 C212 45.83, 207.83 50, 199.5 50 C152.35 50, 105.2 50, 12.5 50 C4.17 50, 0 45.83, 0 37.5 C0 29.81, 0 22.13, 0 12.5 C0 4.17, 4.17 0, 12.5 0" stroke="none" stroke-width="0" fill="#a5d8ff"></path><path d="M12.5 0 C73.78 0, 135.06 0, 199.5 0 M12.5 0 C55.39 0, 98.28 0, 199.5 0 M199.5 0 C207.83 0, 212 4.17, 212 12.5 M199.5 0 C207.83 0, 212 4.17, 212 12.5 M212 12.5 C212 21.44, 212 30.38, 212 37.5 M212 12.5 C212 18.41, 212 24.31, 212 37.5 M212 37.5 C212 45.83, 207.83 50, 199.5 50 M212 37.5 C212 45.83, 207.83 50, 199.5 50 M199.5 50 C143.49 50, 87.47 50, 12.5 50 M199.5 50 C153.5 50, 107.49 50, 12.5 50 M12.5 50 C4.17 50, 0 45.83, 0 37.5 M12.5 50 C4.17 50, 0 45.83, 0 37.5 M0 37.5 C0 32.19, 0 26.89, 0 12.5 M0 37.5 C0 32.48, 0 27.46, 0 12.5 M0 12.5 C0 4.17, 4.17 0, 12.5 0 M0 12.5 C0 4.17, 4.17 0, 12.5 0" stroke="#1e1e1e" stroke-width="2" fill="none"></path></g><g transform="translate(30.458459434620238 144.85662710914994) rotate(0 99.97593688964844 20)"><text x="99.97593688964844" y="14.016" font-family="Virgil, Segoe UI Emoji" font-size="16px" fill="#1e1e1e" text-anchor="middle" style="white-space: pre;" direction="ltr" dominant-baseline="alphabetic">Map</text><text x="99.97593688964844" y="34.016" font-family="Virgil, Segoe UI Emoji" font-size="16px" fill="#1e1e1e" text-anchor="middle" style="white-space: pre;" direction="ltr" dominant-baseline="alphabetic">TripPattern -&gt; Timetable</text></g><g stroke-linecap="round" transform="translate(179.75 271.024454752604) rotate(0 100.75 41.875)"><path d="M20.94 0 C62.5 0, 104.07 0, 180.56 0 C194.52 0, 201.5 6.98, 201.5 20.94 C201.5 29.59, 201.5 38.23, 201.5 62.81 C201.5 76.77, 194.52 83.75, 180.56 83.75 C133.26 83.75, 85.97 83.75, 20.94 83.75 C6.98 83.75, 0 76.77, 0 62.81 C0 48.61, 0 34.4, 0 20.94 C0 6.98, 6.98 0, 20.94 0" stroke="none" stroke-width="0" fill="#a5d8ff"></path><path d="M20.94 0 C64.14 0, 107.35 0, 180.56 0 M20.94 0 C76.86 0, 132.79 0, 180.56 0 M180.56 0 C194.52 0, 201.5 6.98, 201.5 20.94 M180.56 0 C194.52 0, 201.5 6.98, 201.5 20.94 M201.5 20.94 C201.5 36.51, 201.5 52.08, 201.5 62.81 M201.5 20.94 C201.5 33.39, 201.5 45.85, 201.5 62.81 M201.5 62.81 C201.5 76.77, 194.52 83.75, 180.56 83.75 M201.5 62.81 C201.5 76.77, 194.52 83.75, 180.56 83.75 M180.56 83.75 C145.32 83.75, 110.08 83.75, 20.94 83.75 M180.56 83.75 C134.31 83.75, 88.07 83.75, 20.94 83.75 M20.94 83.75 C6.98 83.75, 0 76.77, 0 62.81 M20.94 83.75 C6.98 83.75, 0 76.77, 0 62.81 M0 62.81 C0 50.46, 0 38.11, 0 20.94 M0 62.81 C0 48.13, 0 33.44, 0 20.94 M0 20.94 C0 6.98, 6.98 0, 20.94 0 M0 20.94 C0 6.98, 6.98 0, 20.94 0" stroke="#1e1e1e" stroke-width="2" fill="none"></path></g><g transform="translate(218.75005340576172 276.024454752604) rotate(0 61.74994659423828 12.5)"><text x="61.74994659423828" y="17.52" font-family="Virgil, Segoe UI Emoji" font-size="20px" fill="#1e1e1e" text-anchor="middle" style="white-space: pre;" direction="ltr" dominant-baseline="alphabetic">Timetable A'</text></g><g mask="url(#mask-6zJk2gV3txR3FXkAwcP-y)" stroke-linecap="round"><g transform="translate(282.749256496777 346.60662710914994) rotate(0 210.26933665468977 23.61441766707412)"><path d="M0 0 C10.8 7.75, -5.29 38.63, 64.8 46.5 C134.89 54.37, 361.25 47.11, 420.54 47.23 M0 0 C10.8 7.75, -5.29 38.63, 64.8 46.5 C134.89 54.37, 361.25 47.11, 420.54 47.23" stroke="#1e1e1e" stroke-width="2" fill="none"></path></g><g transform="translate(282.749256496777 346.60662710914994) rotate(0 210.26933665468977 23.61441766707412)"><path d="M397.17 56.11 C406.22 52.67, 415.26 49.23, 420.54 47.23 M397.17 56.11 C405.24 53.04, 413.32 49.97, 420.54 47.23" stroke="#1e1e1e" stroke-width="2" fill="none"></path></g><g transform="translate(282.749256496777 346.60662710914994) rotate(0 210.26933665468977 23.61441766707412)"><path d="M396.93 39.01 C406.07 42.19, 415.21 45.37, 420.54 47.23 M396.93 39.01 C405.08 41.85, 413.24 44.69, 420.54 47.23" stroke="#1e1e1e" stroke-width="2" fill="none"></path></g></g><mask id="mask-6zJk2gV3txR3FXkAwcP-y"><rect x="0" y="0" fill="#fff" width="803.2879298061565" height="493.8354624432982"></rect><rect x="338.2906705038836" y="383.10937267769145" fill="#000" width="18.511978149414062" height="20" opacity="1"></rect></mask><g transform="translate(338.2906705038836 383.10937267769145) rotate(0 154.72792264758317 -11.417486600405368)"><text x="9.255989074707031" y="14.016" font-family="Virgil, Segoe UI Emoji" font-size="16px" fill="#1e1e1e" text-anchor="middle" style="white-space: pre;" direction="ltr" dominant-baseline="alphabetic">1:N</text></g><g stroke-linecap="round"><g transform="translate(97.12015891498629 190.85662710914994) rotate(0 38.8149205425068 59.307605180466794)"><path d="M0 0 C4.02 15.78, 11.15 74.9, 24.09 94.67 C37.03 114.44, 68.71 114.62, 77.63 118.62 M0 0 C4.02 15.78, 11.15 74.9, 24.09 94.67 C37.03 114.44, 68.71 114.62, 77.63 118.62" stroke="#1e1e1e" stroke-width="2" fill="none"></path></g><g transform="translate(97.12015891498629 190.85662710914994) rotate(0 38.8149205425068 59.307605180466794)"><path d="M52.78 121.33 C62.22 120.3, 71.66 119.27, 77.63 118.62 M52.78 121.33 C58.06 120.76, 63.34 120.18, 77.63 118.62" stroke="#1e1e1e" stroke-width="2" fill="none"></path></g><g transform="translate(97.12015891498629 190.85662710914994) rotate(0 38.8149205425068 59.307605180466794)"><path d="M56.85 104.72 C64.74 110, 72.64 115.28, 77.63 118.62 M56.85 104.72 C61.26 107.67, 65.67 110.62, 77.63 118.62" stroke="#1e1e1e" stroke-width="2" fill="none"></path></g></g><mask></mask><g stroke-linecap="round" transform="translate(192.80939632426862 305.60662710914994) rotate(0 88.50000000000011 20)"><path d="M10 0 C62.99 0, 115.97 0, 167 0 C173.67 0, 177 3.33, 177 10 C177 17.85, 177 25.7, 177 30 C177 36.67, 173.67 40, 167 40 C133.47 40, 99.94 40, 10 40 C3.33 40, 0 36.67, 0 30 C0 23.1, 0 16.21, 0 10 C0 3.33, 3.33 0, 10 0" stroke="none" stroke-width="0" fill="#a5d8ff"></path><path d="M10 0 C54.27 0, 98.54 0, 167 0 M10 0 C72.03 0, 134.06 0, 167 0 M167 0 C173.67 0, 177 3.33, 177 10 M167 0 C173.67 0, 177 3.33, 177 10 M177 10 C177 15.46, 177 20.93, 177 30 M177 10 C177 14.32, 177 18.63, 177 30 M177 30 C177 36.67, 173.67 40, 167 40 M177 30 C177 36.67, 173.67 40, 167 40 M167 40 C118.91 40, 70.82 40, 10 40 M167 40 C119.94 40, 72.89 40, 10 40 M10 40 C3.33 40, 0 36.67, 0 30 M10 40 C3.33 40, 0 36.67, 0 30 M0 30 C0 23.24, 0 16.49, 0 10 M0 30 C0 23.42, 0 16.85, 0 10 M0 10 C0 3.33, 3.33 0, 10 0 M0 10 C0 3.33, 3.33 0, 10 0" stroke="#1e1e1e" stroke-width="2" fill="none"></path></g><g transform="translate(219.64544063579217 315.60662710914994) rotate(0 61.66395568847656 10)"><text x="61.66395568847656" y="14.016" font-family="Virgil, Segoe UI Emoji" font-size="16px" fill="#1e1e1e" text-anchor="middle" style="white-space: pre;" direction="ltr" dominant-baseline="alphabetic">List&lt;TripTimes&gt;</text></g><g mask="url(#mask-5Jrn7U7PAjx0l4RnY_b8n)" stroke-linecap="round"><g transform="translate(95.94022631139404 190.85662710914994) rotate(0 278.435765352074 24.475683318479923)"><path d="M0 0 C18.78 7.21, 19.9 35.13, 112.71 43.29 C205.52 51.44, 482.84 48.01, 556.87 48.95 M0 0 C18.78 7.21, 19.9 35.13, 112.71 43.29 C205.52 51.44, 482.84 48.01, 556.87 48.95" stroke="#1e1e1e" stroke-width="2" fill="none"></path></g><g transform="translate(95.94022631139404 190.85662710914994) rotate(0 278.435765352074 24.475683318479923)"><path d="M533.37 57.48 C542.63 54.12, 551.9 50.76, 556.87 48.95 M533.37 57.48 C541.85 54.4, 550.34 51.32, 556.87 48.95" stroke="#1e1e1e" stroke-width="2" fill="none"></path></g><g transform="translate(95.94022631139404 190.85662710914994) rotate(0 278.435765352074 24.475683318479923)"><path d="M533.39 40.38 C542.64 43.76, 551.9 47.14, 556.87 48.95 M533.39 40.38 C541.86 43.47, 550.34 46.57, 556.87 48.95" stroke="#1e1e1e" stroke-width="2" fill="none"></path></g></g><mask id="mask-5Jrn7U7PAjx0l4RnY_b8n"><rect x="0" y="0" fill="#fff" width="752.8117570155421" height="339.8079937461098"></rect><rect x="187.91337956666365" y="224.14241625032037" fill="#000" width="41.471954345703125" height="20" opacity="1"></rect></mask><g transform="translate(187.9133795666637 224.14241625032037) rotate(0 186.46261209680432 -8.810105822690502)"><text x="20.735977172851562" y="14.016" font-family="Virgil, Segoe UI Emoji" font-size="16px" fill="#1e1e1e" text-anchor="middle" style="white-space: pre;" direction="ltr" dominant-baseline="alphabetic">1:(N-1)</text></g><g stroke-linecap="round" transform="translate(1225.152997970581 10) rotate(0 156.5 47.5)"><path d="M23.75 0 C114.4 0, 205.05 0, 289.25 0 M23.75 0 C80.47 0, 137.2 0, 289.25 0 M289.25 0 C305.08 0, 313 7.92, 313 23.75 M289.25 0 C305.08 0, 313 7.92, 313 23.75 M313 23.75 C313 39.31, 313 54.87, 313 71.25 M313 23.75 C313 33.33, 313 42.91, 313 71.25 M313 71.25 C313 87.08, 305.08 95, 289.25 95 M313 71.25 C313 87.08, 305.08 95, 289.25 95 M289.25 95 C218.82 95, 148.4 95, 23.75 95 M289.25 95 C234.76 95, 180.28 95, 23.75 95 M23.75 95 C7.92 95, 0 87.08, 0 71.25 M23.75 95 C7.92 95, 0 87.08, 0 71.25 M0 71.25 C0 57.47, 0 43.7, 0 23.75 M0 71.25 C0 58.67, 0 46.08, 0 23.75 M0 23.75 C0 7.92, 7.92 0, 23.75 0 M0 23.75 C0 7.92, 7.92 0, 23.75 0" stroke="#1e1e1e" stroke-width="2" fill="none"></path></g><g transform="translate(1345.3570232391357 15) rotate(0 36.29597473144531 10)"><text x="36.29597473144531" y="14.016" font-family="Virgil, Segoe UI Emoji" font-size="16px" fill="#1e1e1e" text-anchor="middle" style="white-space: pre;" direction="ltr" dominant-baseline="alphabetic">Requests</text></g><g stroke-linecap="round" transform="translate(1434.152997970581 44) rotate(0 46.02884615384619 25)"><path d="M12.5 0 C31.08 0, 49.66 0, 79.56 0 M12.5 0 C26.61 0, 40.73 0, 79.56 0 M79.56 0 C87.89 0, 92.06 4.17, 92.06 12.5 M79.56 0 C87.89 0, 92.06 4.17, 92.06 12.5 M92.06 12.5 C92.06 18.16, 92.06 23.83, 92.06 37.5 M92.06 12.5 C92.06 21.83, 92.06 31.17, 92.06 37.5 M92.06 37.5 C92.06 45.83, 87.89 50, 79.56 50 M92.06 37.5 C92.06 45.83, 87.89 50, 79.56 50 M79.56 50 C55.22 50, 30.89 50, 12.5 50 M79.56 50 C63.53 50, 47.49 50, 12.5 50 M12.5 50 C4.17 50, 0 45.83, 0 37.5 M12.5 50 C4.17 50, 0 45.83, 0 37.5 M0 37.5 C0 30.45, 0 23.39, 0 12.5 M0 37.5 C0 31.77, 0 26.04, 0 12.5 M0 12.5 C0 4.17, 4.17 0, 12.5 0 M0 12.5 C0 4.17, 4.17 0, 12.5 0" stroke="#1e1e1e" stroke-width="2" fill="none"></path></g><g transform="translate(1445.9258626791147 49) rotate(0 34.2559814453125 20)"><text x="34.2559814453125" y="14.016" font-family="Virgil, Segoe UI Emoji" font-size="16px" fill="#1e1e1e" text-anchor="middle" style="white-space: pre;" direction="ltr" dominant-baseline="alphabetic">Thread 1</text><text x="34.2559814453125" y="34.016" font-family="Virgil, Segoe UI Emoji" font-size="16px" fill="#1e1e1e" text-anchor="middle" style="white-space: pre;" direction="ltr" dominant-baseline="alphabetic">Routing</text></g><g stroke-linecap="round" transform="translate(1336.152997970581 44) rotate(0 46 25)"><path d="M12.5 0 C28.92 0, 45.34 0, 79.5 0 M12.5 0 C31.32 0, 50.13 0, 79.5 0 M79.5 0 C87.83 0, 92 4.17, 92 12.5 M79.5 0 C87.83 0, 92 4.17, 92 12.5 M92 12.5 C92 18.93, 92 25.35, 92 37.5 M92 12.5 C92 22.18, 92 31.85, 92 37.5 M92 37.5 C92 45.83, 87.83 50, 79.5 50 M92 37.5 C92 45.83, 87.83 50, 79.5 50 M79.5 50 C63.36 50, 47.22 50, 12.5 50 M79.5 50 C62.29 50, 45.08 50, 12.5 50 M12.5 50 C4.17 50, 0 45.83, 0 37.5 M12.5 50 C4.17 50, 0 45.83, 0 37.5 M0 37.5 C0 29.11, 0 20.71, 0 12.5 M0 37.5 C0 30.47, 0 23.44, 0 12.5 M0 12.5 C0 4.17, 4.17 0, 12.5 0 M0 12.5 C0 4.17, 4.17 0, 12.5 0" stroke="#1e1e1e" stroke-width="2" fill="none"></path></g><g transform="translate(1344.3690166473389 49) rotate(0 37.78398132324219 20)"><text x="37.78398132324219" y="14.016" font-family="Virgil, Segoe UI Emoji" font-size="16px" fill="#1e1e1e" text-anchor="middle" style="white-space: pre;" direction="ltr" dominant-baseline="alphabetic">Thread 2</text><text x="37.78398132324219" y="34.016" font-family="Virgil, Segoe UI Emoji" font-size="16px" fill="#1e1e1e" text-anchor="middle" style="white-space: pre;" direction="ltr" dominant-baseline="alphabetic">Idle</text></g><g stroke-linecap="round" transform="translate(1238.152997970581 44) rotate(0 46.04166666666663 25)"><path d="M12.5 0 C27.69 0, 42.89 0, 79.58 0 M12.5 0 C30.22 0, 47.94 0, 79.58 0 M79.58 0 C87.92 0, 92.08 4.17, 92.08 12.5 M79.58 0 C87.92 0, 92.08 4.17, 92.08 12.5 M92.08 12.5 C92.08 21.65, 92.08 30.81, 92.08 37.5 M92.08 12.5 C92.08 19.5, 92.08 26.49, 92.08 37.5 M92.08 37.5 C92.08 45.83, 87.92 50, 79.58 50 M92.08 37.5 C92.08 45.83, 87.92 50, 79.58 50 M79.58 50 C63.66 50, 47.74 50, 12.5 50 M79.58 50 C55.33 50, 31.08 50, 12.5 50 M12.5 50 C4.17 50, 0 45.83, 0 37.5 M12.5 50 C4.17 50, 0 45.83, 0 37.5 M0 37.5 C0 28.54, 0 19.58, 0 12.5 M0 37.5 C0 31.03, 0 24.57, 0 12.5 M0 12.5 C0 4.17, 4.17 0, 12.5 0 M0 12.5 C0 4.17, 4.17 0, 12.5 0" stroke="#1e1e1e" stroke-width="2" fill="none"></path></g><g transform="translate(1246.6586844126386 49) rotate(0 37.535980224609375 20)"><text x="37.535980224609375" y="14.016" font-family="Virgil, Segoe UI Emoji" font-size="16px" fill="#1e1e1e" text-anchor="middle" style="white-space: pre;" direction="ltr" dominant-baseline="alphabetic">Thread 3</text><text x="37.535980224609375" y="34.016" font-family="Virgil, Segoe UI Emoji" font-size="16px" fill="#1e1e1e" text-anchor="middle" style="white-space: pre;" direction="ltr" dominant-baseline="alphabetic">Idle</text></g><g stroke-linecap="round"><g transform="translate(1480.959049785838 95) rotate(0 -397.9030259076285 26.4732666015625)"><path d="M0 0 C-30.8 8.49, -52.17 42.12, -184.81 50.95 C-317.44 59.77, -693.97 52.61, -795.81 52.95 M0 0 C-30.8 8.49, -52.17 42.12, -184.81 50.95 C-317.44 59.77, -693.97 52.61, -795.81 52.95" stroke="#1e1e1e" stroke-width="2" fill="none"></path></g><g transform="translate(1480.959049785838 95) rotate(0 -397.9030259076285 26.4732666015625)"><path d="M-772.25 44.56 C-780.23 47.4, -788.21 50.24, -795.81 52.95 M-772.25 44.56 C-777.53 46.44, -782.81 48.32, -795.81 52.95" stroke="#1e1e1e" stroke-width="2" fill="none"></path></g><g transform="translate(1480.959049785838 95) rotate(0 -397.9030259076285 26.4732666015625)"><path d="M-772.38 61.67 C-780.31 58.71, -788.25 55.76, -795.81 52.95 M-772.38 61.67 C-777.63 59.71, -782.88 57.76, -795.81 52.95" stroke="#1e1e1e" stroke-width="2" fill="none"></path></g></g><mask></mask></svg>