<svg version="1.1" xmlns="http://www.w3.org/2000/svg" viewBox="0 0 1867.1410852408478 607.026760229468" width="3734.2821704816956" height="1214.053520458936">
  <!-- svg-source:excalidraw -->
  
  <defs>
    <style class="style-fonts">
      @font-face {
        font-family: "Virgil";
        src: url("https://excalidraw.com/Virgil.woff2");
      }
      @font-face {
        font-family: "Cascadia";
        src: url("https://excalidraw.com/Cascadia.woff2");
      }
      @font-face {
        font-family: "Assistant";
        src: url("https://excalidraw.com/Assistant-Regular.woff2");
      }
    </style>
    
  </defs>
  <rect x="0" y="0" width="1867.1410852408478" height="607.026760229468" fill="#ffffff"></rect><g stroke-linecap="round"><g transform="translate(726.2789175870791 469.6454162126215) rotate(0 350.5212793956598 26.72827161266082)"><path d="M0 0 C23.9 5.7, 26.58 25.31, 143.42 34.22 C260.26 43.12, 608.11 50.25, 701.04 53.46 M0 0 C23.9 5.7, 26.58 25.31, 143.42 34.22 C260.26 43.12, 608.11 50.25, 701.04 53.46" stroke="#1e1e1e" stroke-width="2" fill="none"></path></g><g transform="translate(726.2789175870791 469.6454162126215) rotate(0 350.5212793956598 26.72827161266082)"><path d="M677.32 61.35 C685.91 58.49, 694.5 55.63, 701.04 53.46 M677.32 61.35 C682.6 59.59, 687.87 57.84, 701.04 53.46" stroke="#1e1e1e" stroke-width="2" fill="none"></path></g><g transform="translate(726.2789175870791 469.6454162126215) rotate(0 350.5212793956598 26.72827161266082)"><path d="M677.8 44.25 C686.22 47.59, 694.63 50.92, 701.04 53.46 M677.8 44.25 C682.97 46.3, 688.14 48.35, 701.04 53.46" stroke="#1e1e1e" stroke-width="2" fill="none"></path></g></g><mask></mask><g stroke-linecap="round"><g transform="translate(718.9746771531345 469.64541621262106) rotate(0 22.459758438885387 39.89230943238158)"><path d="M0 0 C0.51 11.46, -4.42 55.49, 3.07 68.79 C10.55 82.09, 37.94 77.95, 44.92 79.78 M0 0 C0.51 11.46, -4.42 55.49, 3.07 68.79 C10.55 82.09, 37.94 77.95, 44.92 79.78" stroke="#1e1e1e" stroke-width="2" fill="none"></path></g><g transform="translate(718.9746771531345 469.64541621262106) rotate(0 22.459758438885387 39.89230943238158)"><path d="M24.17 85.9 C31.1 83.86, 38.04 81.81, 44.92 79.78 M24.17 85.9 C32.33 83.5, 40.48 81.09, 44.92 79.78" stroke="#1e1e1e" stroke-width="2" fill="none"></path></g><g transform="translate(718.9746771531345 469.64541621262106) rotate(0 22.459758438885387 39.89230943238158)"><path d="M25.09 71.13 C31.72 74.02, 38.35 76.92, 44.92 79.78 M25.09 71.13 C32.89 74.53, 40.68 77.94, 44.92 79.78" stroke="#1e1e1e" stroke-width="2" fill="none"></path></g></g><mask></mask><g stroke-linecap="round" transform="translate(673.5714763783994 433.64541621262106) rotate(0 80 17.5)"><path d="M8.75 0 C53.29 0, 97.82 0, 151.25 0 C157.08 0, 160 2.92, 160 8.75 C160 15.2, 160 21.65, 160 26.25 C160 32.08, 157.08 35, 151.25 35 C111.56 35, 71.87 35, 8.75 35 C2.92 35, 0 32.08, 0 26.25 C0 20.72, 0 15.18, 0 8.75 C0 2.92, 2.92 0, 8.75 0" stroke="none" stroke-width="0" fill="#a5d8ff"></path><path d="M8.75 0 C41.74 0, 74.73 0, 151.25 0 M8.75 0 C53.01 0, 97.26 0, 151.25 0 M151.25 0 C157.08 0, 160 2.92, 160 8.75 M151.25 0 C157.08 0, 160 2.92, 160 8.75 M160 8.75 C160 13.11, 160 17.48, 160 26.25 M160 8.75 C160 13.92, 160 19.09, 160 26.25 M160 26.25 C160 32.08, 157.08 35, 151.25 35 M160 26.25 C160 32.08, 157.08 35, 151.25 35 M151.25 35 C96.45 35, 41.65 35, 8.75 35 M151.25 35 C118.96 35, 86.67 35, 8.75 35 M8.75 35 C2.92 35, 0 32.08, 0 26.25 M8.75 35 C2.92 35, 0 32.08, 0 26.25 M0 26.25 C0 22.68, 0 19.11, 0 8.75 M0 26.25 C0 22.51, 0 18.77, 0 8.75 M0 8.75 C0 2.92, 2.92 0, 8.75 0 M0 8.75 C0 2.92, 2.92 0, 8.75 0" stroke="#1e1e1e" stroke-width="2" fill="none"></path></g><g transform="translate(689.7214740895811 438.64541621262106) rotate(0 63.85000228881836 12.5)"><text x="63.85000228881836" y="17.52" font-family="Virgil, Segoe UI Emoji" font-size="20px" fill="#1e1e1e" text-anchor="middle" style="white-space: pre;" direction="ltr" dominant-baseline="alphabetic">TripTimes A1'</text></g><g stroke-linecap="round"><g transform="translate(834.6308727026681 454.5228732752571) rotate(0 356.23079510683704 12.784400764715201)"><path d="M0 0 C98.99 4.26, 475.2 23.5, 593.94 25.57 C712.68 27.64, 692.71 14.62, 712.46 12.44 M0 0 C98.99 4.26, 475.2 23.5, 593.94 25.57 C712.68 27.64, 692.71 14.62, 712.46 12.44" stroke="#1e1e1e" stroke-width="2" fill="none"></path></g><g transform="translate(834.6308727026681 454.5228732752571) rotate(0 356.23079510683704 12.784400764715201)"><path d="M693.16 28.32 C697.29 24.92, 701.43 21.52, 712.46 12.44 M693.16 28.32 C698.68 23.78, 704.21 19.23, 712.46 12.44" stroke="#1e1e1e" stroke-width="2" fill="none"></path></g><g transform="translate(834.6308727026681 454.5228732752571) rotate(0 356.23079510683704 12.784400764715201)"><path d="M687.46 12.2 C692.82 12.25, 698.17 12.3, 712.46 12.44 M687.46 12.2 C694.62 12.27, 701.77 12.33, 712.46 12.44" stroke="#1e1e1e" stroke-width="2" fill="none"></path></g></g><mask></mask><g stroke-linecap="round" transform="translate(1307.023825459467 235.19123262539506) rotate(0 100.75 41.875)"><path d="M20.94 0 C61.72 0, 102.49 0, 180.56 0 C194.52 0, 201.5 6.98, 201.5 20.94 C201.5 36.48, 201.5 52.03, 201.5 62.81 C201.5 76.77, 194.52 83.75, 180.56 83.75 C147.41 83.75, 114.26 83.75, 20.94 83.75 C6.98 83.75, 0 76.77, 0 62.81 C0 46.64, 0 30.48, 0 20.94 C0 6.98, 6.98 0, 20.94 0" stroke="none" stroke-width="0" fill="#ffffff"></path><path d="M20.94 0 C71.1 0, 121.27 0, 180.56 0 M20.94 0 C64.61 0, 108.27 0, 180.56 0 M180.56 0 C194.52 0, 201.5 6.98, 201.5 20.94 M180.56 0 C194.52 0, 201.5 6.98, 201.5 20.94 M201.5 20.94 C201.5 34.35, 201.5 47.77, 201.5 62.81 M201.5 20.94 C201.5 31.97, 201.5 43, 201.5 62.81 M201.5 62.81 C201.5 76.77, 194.52 83.75, 180.56 83.75 M201.5 62.81 C201.5 76.77, 194.52 83.75, 180.56 83.75 M180.56 83.75 C124.07 83.75, 67.57 83.75, 20.94 83.75 M180.56 83.75 C127.01 83.75, 73.47 83.75, 20.94 83.75 M20.94 83.75 C6.98 83.75, 0 76.77, 0 62.81 M20.94 83.75 C6.98 83.75, 0 76.77, 0 62.81 M0 62.81 C0 49.22, 0 35.63, 0 20.94 M0 62.81 C0 47.37, 0 31.94, 0 20.94 M0 20.94 C0 6.98, 6.98 0, 20.94 0 M0 20.94 C0 6.98, 6.98 0, 20.94 0" stroke="#1e1e1e" stroke-width="2" fill="none"></path></g><g transform="translate(1348.8038242387638 240.19123262539506) rotate(0 58.970001220703125 12.5)"><text x="58.970001220703125" y="17.52" font-family="Virgil, Segoe UI Emoji" font-size="20px" fill="#1e1e1e" text-anchor="middle" style="white-space: pre;" direction="ltr" dominant-baseline="alphabetic">Timetable C</text></g><g stroke-linecap="round" transform="translate(1286.273825459467 256.69123262539506) rotate(0 100.75 41.875)"><path d="M20.94 0 C59.78 0, 98.62 0, 180.56 0 C194.52 0, 201.5 6.98, 201.5 20.94 C201.5 35.29, 201.5 49.65, 201.5 62.81 C201.5 76.77, 194.52 83.75, 180.56 83.75 C141.49 83.75, 102.41 83.75, 20.94 83.75 C6.98 83.75, 0 76.77, 0 62.81 C0 50.06, 0 37.31, 0 20.94 C0 6.98, 6.98 0, 20.94 0" stroke="none" stroke-width="0" fill="#ffffff"></path><path d="M20.94 0 C62.95 0, 104.97 0, 180.56 0 M20.94 0 C63.06 0, 105.18 0, 180.56 0 M180.56 0 C194.52 0, 201.5 6.98, 201.5 20.94 M180.56 0 C194.52 0, 201.5 6.98, 201.5 20.94 M201.5 20.94 C201.5 29.51, 201.5 38.08, 201.5 62.81 M201.5 20.94 C201.5 37.27, 201.5 53.59, 201.5 62.81 M201.5 62.81 C201.5 76.77, 194.52 83.75, 180.56 83.75 M201.5 62.81 C201.5 76.77, 194.52 83.75, 180.56 83.75 M180.56 83.75 C133.46 83.75, 86.36 83.75, 20.94 83.75 M180.56 83.75 C117.31 83.75, 54.05 83.75, 20.94 83.75 M20.94 83.75 C6.98 83.75, 0 76.77, 0 62.81 M20.94 83.75 C6.98 83.75, 0 76.77, 0 62.81 M0 62.81 C0 52.4, 0 41.98, 0 20.94 M0 62.81 C0 50.99, 0 39.18, 0 20.94 M0 20.94 C0 6.98, 6.98 0, 20.94 0 M0 20.94 C0 6.98, 6.98 0, 20.94 0" stroke="#1e1e1e" stroke-width="2" fill="none"></path></g><g transform="translate(1327.2238224077091 261.69123262539506) rotate(0 59.80000305175781 12.5)"><text x="59.80000305175781" y="17.52" font-family="Virgil, Segoe UI Emoji" font-size="20px" fill="#1e1e1e" text-anchor="middle" style="white-space: pre;" direction="ltr" dominant-baseline="alphabetic">Timetable B</text></g><g stroke-linecap="round" transform="translate(1075.869127297332 109.68408203125) rotate(0 119.375 50.625)"><path d="M25.31 0 C74.52 0, 123.72 0, 213.44 0 M25.31 0 C82.49 0, 139.66 0, 213.44 0 M213.44 0 C230.31 0, 238.75 8.44, 238.75 25.31 M213.44 0 C230.31 0, 238.75 8.44, 238.75 25.31 M238.75 25.31 C238.75 44.13, 238.75 62.95, 238.75 75.94 M238.75 25.31 C238.75 44.3, 238.75 63.29, 238.75 75.94 M238.75 75.94 C238.75 92.81, 230.31 101.25, 213.44 101.25 M238.75 75.94 C238.75 92.81, 230.31 101.25, 213.44 101.25 M213.44 101.25 C151.29 101.25, 89.13 101.25, 25.31 101.25 M213.44 101.25 C157.66 101.25, 101.88 101.25, 25.31 101.25 M25.31 101.25 C8.44 101.25, 0 92.81, 0 75.94 M25.31 101.25 C8.44 101.25, 0 92.81, 0 75.94 M0 75.94 C0 57.89, 0 39.84, 0 25.31 M0 75.94 C0 61.37, 0 46.8, 0 25.31 M0 25.31 C0 8.44, 8.44 0, 25.31 0 M0 25.31 C0 8.44, 8.44 0, 25.31 0" stroke="#1e1e1e" stroke-width="2" fill="none"></path></g><g transform="translate(1103.8041248559257 114.68408203125) rotate(0 91.44000244140625 12.5)"><text x="91.44000244140625" y="17.52" font-family="Virgil, Segoe UI Emoji" font-size="20px" fill="#1e1e1e" text-anchor="middle" style="white-space: pre;" direction="ltr" dominant-baseline="alphabetic">TimetableSnapshot</text></g><g stroke-linecap="round" transform="translate(1090.3035236216006 148.51625438779593) rotate(0 106.00000000000011 25)"><path d="M12.5 0 C66.22 0, 119.94 0, 199.5 0 M12.5 0 C53.44 0, 94.37 0, 199.5 0 M199.5 0 C207.83 0, 212 4.17, 212 12.5 M199.5 0 C207.83 0, 212 4.17, 212 12.5 M212 12.5 C212 21.7, 212 30.91, 212 37.5 M212 12.5 C212 21.88, 212 31.27, 212 37.5 M212 37.5 C212 45.83, 207.83 50, 199.5 50 M212 37.5 C212 45.83, 207.83 50, 199.5 50 M199.5 50 C129.33 50, 59.16 50, 12.5 50 M199.5 50 C138.95 50, 78.39 50, 12.5 50 M12.5 50 C4.17 50, 0 45.83, 0 37.5 M12.5 50 C4.17 50, 0 45.83, 0 37.5 M0 37.5 C0 29.19, 0 20.89, 0 12.5 M0 37.5 C0 32.39, 0 27.28, 0 12.5 M0 12.5 C0 4.17, 4.17 0, 12.5 0 M0 12.5 C0 4.17, 4.17 0, 12.5 0" stroke="#1e1e1e" stroke-width="2" fill="none"></path></g><g transform="translate(1096.3275180674013 153.51625438779593) rotate(0 99.97600555419922 20)"><text x="99.97600555419922" y="14.016" font-family="Virgil, Segoe UI Emoji" font-size="16px" fill="#1e1e1e" text-anchor="middle" style="white-space: pre;" direction="ltr" dominant-baseline="alphabetic">Map</text><text x="99.97600555419922" y="34.016" font-family="Virgil, Segoe UI Emoji" font-size="16px" fill="#1e1e1e" text-anchor="middle" style="white-space: pre;" direction="ltr" dominant-baseline="alphabetic">TripPattern -&gt; Timetable</text></g><g stroke-linecap="round" transform="translate(1429.6191272973324 504.6781481104099) rotate(0 138.75 17.5)"><path d="M8.75 0 C94.74 0, 180.73 0, 268.75 0 M8.75 0 C66.35 0, 123.96 0, 268.75 0 M268.75 0 C274.58 0, 277.5 2.92, 277.5 8.75 M268.75 0 C274.58 0, 277.5 2.92, 277.5 8.75 M277.5 8.75 C277.5 14.93, 277.5 21.11, 277.5 26.25 M277.5 8.75 C277.5 14.61, 277.5 20.46, 277.5 26.25 M277.5 26.25 C277.5 32.08, 274.58 35, 268.75 35 M277.5 26.25 C277.5 32.08, 274.58 35, 268.75 35 M268.75 35 C175.77 35, 82.78 35, 8.75 35 M268.75 35 C176.86 35, 84.97 35, 8.75 35 M8.75 35 C2.92 35, 0 32.08, 0 26.25 M8.75 35 C2.92 35, 0 32.08, 0 26.25 M0 26.25 C0 21.48, 0 16.71, 0 8.75 M0 26.25 C0 22.08, 0 17.91, 0 8.75 M0 8.75 C0 2.92, 2.92 0, 8.75 0 M0 8.75 C0 2.92, 2.92 0, 8.75 0" stroke="#1e1e1e" stroke-width="2" fill="none"></path></g><g transform="translate(1462.6691150903011 509.6781481104099) rotate(0 105.70001220703125 12.5)"><text x="105.70001220703125" y="17.52" font-family="Virgil, Segoe UI Emoji" font-size="20px" fill="#1e1e1e" text-anchor="middle" style="white-space: pre;" direction="ltr" dominant-baseline="alphabetic">arrivalTimes per stop</text></g><g stroke-linecap="round" transform="translate(1430.9706897973324 545.93408203125) rotate(0 137.83203125 17.5)"><path d="M8.75 0 C110.7 0, 212.66 0, 266.91 0 M8.75 0 C89.31 0, 169.86 0, 266.91 0 M266.91 0 C272.75 0, 275.66 2.92, 275.66 8.75 M266.91 0 C272.75 0, 275.66 2.92, 275.66 8.75 M275.66 8.75 C275.66 13.97, 275.66 19.2, 275.66 26.25 M275.66 8.75 C275.66 15.48, 275.66 22.2, 275.66 26.25 M275.66 26.25 C275.66 32.08, 272.75 35, 266.91 35 M275.66 26.25 C275.66 32.08, 272.75 35, 266.91 35 M266.91 35 C210.65 35, 154.38 35, 8.75 35 M266.91 35 C202.88 35, 138.85 35, 8.75 35 M8.75 35 C2.92 35, 0 32.08, 0 26.25 M8.75 35 C2.92 35, 0 32.08, 0 26.25 M0 26.25 C0 21.24, 0 16.23, 0 8.75 M0 26.25 C0 19.54, 0 12.82, 0 8.75 M0 8.75 C0 2.92, 2.92 0, 8.75 0 M0 8.75 C0 2.92, 2.92 0, 8.75 0" stroke="#1e1e1e" stroke-width="2" fill="none"></path></g><g transform="translate(1446.9327106713558 550.93408203125) rotate(0 121.87001037597656 12.5)"><text x="121.87001037597656" y="17.52" font-family="Virgil, Segoe UI Emoji" font-size="20px" fill="#1e1e1e" text-anchor="middle" style="white-space: pre;" direction="ltr" dominant-baseline="alphabetic">departureTimes per stop</text></g><g stroke-linecap="round" transform="translate(1264.6191272973324 277.68408203125) rotate(0 100.75 41.875)"><path d="M20.94 0 C84.68 0, 148.43 0, 180.56 0 C194.52 0, 201.5 6.98, 201.5 20.94 C201.5 36.35, 201.5 51.76, 201.5 62.81 C201.5 76.77, 194.52 83.75, 180.56 83.75 C147.18 83.75, 113.8 83.75, 20.94 83.75 C6.98 83.75, 0 76.77, 0 62.81 C0 50.1, 0 37.39, 0 20.94 C0 6.98, 6.98 0, 20.94 0" stroke="none" stroke-width="0" fill="#ffffff"></path><path d="M20.94 0 C68.07 0, 115.19 0, 180.56 0 M20.94 0 C65.32 0, 109.7 0, 180.56 0 M180.56 0 C194.52 0, 201.5 6.98, 201.5 20.94 M180.56 0 C194.52 0, 201.5 6.98, 201.5 20.94 M201.5 20.94 C201.5 37.19, 201.5 53.45, 201.5 62.81 M201.5 20.94 C201.5 31.13, 201.5 41.33, 201.5 62.81 M201.5 62.81 C201.5 76.77, 194.52 83.75, 180.56 83.75 M201.5 62.81 C201.5 76.77, 194.52 83.75, 180.56 83.75 M180.56 83.75 C131.22 83.75, 81.88 83.75, 20.94 83.75 M180.56 83.75 C139.41 83.75, 98.26 83.75, 20.94 83.75 M20.94 83.75 C6.98 83.75, 0 76.77, 0 62.81 M20.94 83.75 C6.98 83.75, 0 76.77, 0 62.81 M0 62.81 C0 50.43, 0 38.04, 0 20.94 M0 62.81 C0 53.52, 0 44.23, 0 20.94 M0 20.94 C0 6.98, 6.98 0, 20.94 0 M0 20.94 C0 6.98, 6.98 0, 20.94 0" stroke="#1e1e1e" stroke-width="2" fill="none"></path></g><g transform="translate(1306.2791233300472 282.68408203125) rotate(0 59.090003967285156 12.5)"><text x="59.090003967285156" y="17.52" font-family="Virgil, Segoe UI Emoji" font-size="20px" fill="#1e1e1e" text-anchor="middle" style="white-space: pre;" direction="ltr" dominant-baseline="alphabetic">Timetable A</text></g><g mask="url(#mask-TrFpRm_OHaipB942xzu2a)" stroke-linecap="round"><g transform="translate(1297.6183837941087 353.2662543877959) rotate(0 25.776796111959698 47.537000364721735)"><path d="M0 0 C0.59 14, -5.04 68.16, 3.55 84 C12.14 99.85, 43.55 93.23, 51.55 95.07 M0 0 C0.59 14, -5.04 68.16, 3.55 84 C12.14 99.85, 43.55 93.23, 51.55 95.07" stroke="#1e1e1e" stroke-width="2" fill="none"></path></g><g transform="translate(1297.6183837941087 353.2662543877959) rotate(0 25.776796111959698 47.537000364721735)"><path d="M28.27 103.1 C34.31 101.02, 40.36 98.93, 51.55 95.07 M28.27 103.1 C35.13 100.73, 42 98.37, 51.55 95.07" stroke="#1e1e1e" stroke-width="2" fill="none"></path></g><g transform="translate(1297.6183837941087 353.2662543877959) rotate(0 25.776796111959698 47.537000364721735)"><path d="M28.55 86.25 C34.53 88.54, 40.5 90.83, 51.55 95.07 M28.55 86.25 C35.33 88.85, 42.11 91.45, 51.55 95.07" stroke="#1e1e1e" stroke-width="2" fill="none"></path></g></g><mask id="mask-TrFpRm_OHaipB942xzu2a"><rect x="0" y="0" fill="#fff" width="1449.171976018028" height="548.3402551172394"></rect><rect x="1291.9097863571237" y="427.2689999563372" fill="#000" width="18.512001037597656" height="20" opacity="1"></rect></mask><g transform="translate(1291.9097863571237 427.2689999563372) rotate(0 30.84879572498687 -26.46574520381955)"><text x="9.256000518798828" y="14.016" font-family="Virgil, Segoe UI Emoji" font-size="16px" fill="#1e1e1e" text-anchor="middle" style="white-space: pre;" direction="ltr" dominant-baseline="alphabetic">1:N</text></g><g stroke-linecap="round"><g transform="translate(1366.100474169522 469.7789096174565) rotate(0 31.259326563905006 19.424428377881213)"><path d="M0 0 C2.9 4.16, 6.98 18.49, 17.4 24.97 C27.82 31.44, 55 36.53, 62.52 38.85 M0 0 C2.9 4.16, 6.98 18.49, 17.4 24.97 C27.82 31.44, 55 36.53, 62.52 38.85" stroke="#1e1e1e" stroke-width="2" fill="none"></path></g><g transform="translate(1366.100474169522 469.7789096174565) rotate(0 31.259326563905006 19.424428377881213)"><path d="M39.04 41.26 C46.75 40.47, 54.47 39.67, 62.52 38.85 M39.04 41.26 C46.67 40.47, 54.3 39.69, 62.52 38.85" stroke="#1e1e1e" stroke-width="2" fill="none"></path></g><g transform="translate(1366.100474169522 469.7789096174565) rotate(0 31.259326563905006 19.424428377881213)"><path d="M42.98 25.6 C49.4 29.95, 55.82 34.3, 62.52 38.85 M42.98 25.6 C49.33 29.91, 55.68 34.21, 62.52 38.85" stroke="#1e1e1e" stroke-width="2" fill="none"></path></g></g><mask></mask><g stroke-linecap="round"><g transform="translate(1364.3252544923205 469.4168406519384) rotate(0 31.822717652505844 42.587818680539385)"><path d="M0 0 C1.55 9.07, -1.31 40.24, 9.29 54.43 C19.9 68.63, 54.59 80.05, 63.65 85.18 M0 0 C1.55 9.07, -1.31 40.24, 9.29 54.43 C19.9 68.63, 54.59 80.05, 63.65 85.18" stroke="#1e1e1e" stroke-width="2" fill="none"></path></g><g transform="translate(1364.3252544923205 469.4168406519384) rotate(0 31.822717652505844 42.587818680539385)"><path d="M38.72 83.27 C47.9 83.97, 57.07 84.67, 63.65 85.18 M38.72 83.27 C48.07 83.99, 57.43 84.7, 63.65 85.18" stroke="#1e1e1e" stroke-width="2" fill="none"></path></g><g transform="translate(1364.3252544923205 469.4168406519384) rotate(0 31.822717652505844 42.587818680539385)"><path d="M45.77 67.7 C52.35 74.13, 58.93 80.57, 63.65 85.18 M45.77 67.7 C52.48 74.26, 59.19 80.82, 63.65 85.18" stroke="#1e1e1e" stroke-width="2" fill="none"></path></g></g><mask></mask><g mask="url(#mask-6nL37JXxiZunl6ssjSEu2)" stroke-linecap="round"><g transform="translate(1157.465431682533 199.51625438779593) rotate(0 51.076847807399645 58.60520676915439)"><path d="M0 0 C2.46 16.69, -2.24 80.63, 14.79 100.17 C31.81 119.7, 87.59 114.37, 102.15 117.21 M0 0 C2.46 16.69, -2.24 80.63, 14.79 100.17 C31.81 119.7, 87.59 114.37, 102.15 117.21" stroke="#1e1e1e" stroke-width="2" fill="none"></path></g><g transform="translate(1157.465431682533 199.51625438779593) rotate(0 51.076847807399645 58.60520676915439)"><path d="M78.22 124.43 C86.71 121.87, 95.2 119.31, 102.15 117.21 M78.22 124.43 C85.85 122.13, 93.48 119.83, 102.15 117.21" stroke="#1e1e1e" stroke-width="2" fill="none"></path></g><g transform="translate(1157.465431682533 199.51625438779593) rotate(0 51.076847807399645 58.60520676915439)"><path d="M79.18 107.35 C87.33 110.85, 95.48 114.35, 102.15 117.21 M79.18 107.35 C86.5 110.5, 93.83 113.64, 102.15 117.21" stroke="#1e1e1e" stroke-width="2" fill="none"></path></g></g><mask id="mask-6nL37JXxiZunl6ssjSEu2"><rect x="0" y="0" fill="#fff" width="1359.6191272973324" height="416.7266679261047"></rect><rect x="1162.9948481335339" y="289.68408203125" fill="#000" width="18.512001037597656" height="20" opacity="1"></rect></mask><g transform="translate(1162.9948481335339 289.68408203125) rotate(0 45.5474313563991 -31.562620874299682)"><text x="9.256000518798828" y="14.016" font-family="Virgil, Segoe UI Emoji" font-size="16px" fill="#1e1e1e" text-anchor="middle" style="white-space: pre;" direction="ltr" dominant-baseline="alphabetic">1:N</text></g><g stroke-linecap="round"><g transform="translate(1053.7379199458696 63.5) rotate(0 0 264.54583740234375)"><path d="M-0.04 0.52 C0.66 88.52, 1.09 442.37, 1.51 530.06" stroke="#1e1e1e" stroke-width="2.5" fill="none" stroke-dasharray="1.5 8"></path></g></g><mask></mask><g transform="translate(1336.4879199458696 71.6389876946796) rotate(0 73.60800170898438 10)"><text x="0" y="14.016" font-family="Virgil, Segoe UI Emoji" font-size="16px" fill="#1e1e1e" text-anchor="start" style="white-space: pre;" direction="ltr" dominant-baseline="alphabetic">LIVE SNAPSHOT S</text></g><g transform="translate(703.4879199458694 71.6389876946796) rotate(0 75.1760025024414 10)"><text x="0" y="14.016" font-family="Virgil, Segoe UI Emoji" font-size="16px" fill="#1e1e1e" text-anchor="start" style="white-space: pre;" direction="ltr" dominant-baseline="alphabetic">LIVE SNAPSHOT T</text></g><g transform="translate(392.4879199458695 10) rotate(0 105.51200103759766 10)"><text x="0" y="14.016" font-family="Virgil, Segoe UI Emoji" font-size="16px" fill="#1e1e1e" text-anchor="start" style="white-space: pre;" direction="ltr" dominant-baseline="alphabetic">TimetableSnapshotManager</text></g><g stroke-linecap="round" transform="translate(1277.678523621601 312.2662543877959) rotate(0 88.50000000000011 20)"><path d="M10 0 C56.33 0, 102.65 0, 167 0 M10 0 C72.22 0, 134.43 0, 167 0 M167 0 C173.67 0, 177 3.33, 177 10 M167 0 C173.67 0, 177 3.33, 177 10 M177 10 C177 14.97, 177 19.95, 177 30 M177 10 C177 15.64, 177 21.29, 177 30 M177 30 C177 36.67, 173.67 40, 167 40 M177 30 C177 36.67, 173.67 40, 167 40 M167 40 C128.8 40, 90.59 40, 10 40 M167 40 C108.71 40, 50.43 40, 10 40 M10 40 C3.33 40, 0 36.67, 0 30 M10 40 C3.33 40, 0 36.67, 0 30 M0 30 C0 25.1, 0 20.21, 0 10 M0 30 C0 22.28, 0 14.56, 0 10 M0 10 C0 3.33, 3.33 0, 10 0 M0 10 C0 3.33, 3.33 0, 10 0" stroke="#1e1e1e" stroke-width="2" fill="none"></path></g><g transform="translate(1304.5145259714545 322.2662543877959) rotate(0 61.663997650146484 10)"><text x="61.663997650146484" y="14.016" font-family="Virgil, Segoe UI Emoji" font-size="16px" fill="#1e1e1e" text-anchor="middle" style="white-space: pre;" direction="ltr" dominant-baseline="alphabetic">List&lt;TripTimes&gt;</text></g><g stroke-linecap="round" transform="translate(529.7738254594665 112.94123262539506) rotate(0 119.375 50.625)"><path d="M25.31 0 C77.66 0, 130 0, 213.44 0 C230.31 0, 238.75 8.44, 238.75 25.31 C238.75 38.76, 238.75 52.2, 238.75 75.94 C238.75 92.81, 230.31 101.25, 213.44 101.25 C138.66 101.25, 63.88 101.25, 25.31 101.25 C8.44 101.25, 0 92.81, 0 75.94 C0 60.14, 0 44.35, 0 25.31 C0 8.44, 8.44 0, 25.31 0" stroke="none" stroke-width="0" fill="#a5d8ff"></path><path d="M25.31 0 C84.11 0, 142.9 0, 213.44 0 M25.31 0 C84.71 0, 144.11 0, 213.44 0 M213.44 0 C230.31 0, 238.75 8.44, 238.75 25.31 M213.44 0 C230.31 0, 238.75 8.44, 238.75 25.31 M238.75 25.31 C238.75 39.41, 238.75 53.51, 238.75 75.94 M238.75 25.31 C238.75 36.2, 238.75 47.1, 238.75 75.94 M238.75 75.94 C238.75 92.81, 230.31 101.25, 213.44 101.25 M238.75 75.94 C238.75 92.81, 230.31 101.25, 213.44 101.25 M213.44 101.25 C145.99 101.25, 78.54 101.25, 25.31 101.25 M213.44 101.25 C158.09 101.25, 102.74 101.25, 25.31 101.25 M25.31 101.25 C8.44 101.25, 0 92.81, 0 75.94 M25.31 101.25 C8.44 101.25, 0 92.81, 0 75.94 M0 75.94 C0 64.68, 0 53.42, 0 25.31 M0 75.94 C0 60.28, 0 44.63, 0 25.31 M0 25.31 C0 8.44, 8.44 0, 25.31 0 M0 25.31 C0 8.44, 8.44 0, 25.31 0" stroke="#1e1e1e" stroke-width="2" fill="none"></path></g><g transform="translate(555.0488193559509 117.94123262539506) rotate(0 94.10000610351562 12.5)"><text x="94.10000610351562" y="17.52" font-family="Virgil, Segoe UI Emoji" font-size="20px" fill="#1e1e1e" text-anchor="middle" style="white-space: pre;" direction="ltr" dominant-baseline="alphabetic">TimetableSnapshot'</text></g><g stroke-linecap="round" transform="translate(544.2082217837351 151.77340498194098) rotate(0 106.00000000000006 25)"><path d="M12.5 0 C80.32 0, 148.14 0, 199.5 0 C207.83 0, 212 4.17, 212 12.5 C212 20.76, 212 29.02, 212 37.5 C212 45.83, 207.83 50, 199.5 50 C161.28 50, 123.06 50, 12.5 50 C4.17 50, 0 45.83, 0 37.5 C0 28.1, 0 18.69, 0 12.5 C0 4.17, 4.17 0, 12.5 0" stroke="none" stroke-width="0" fill="#a5d8ff"></path><path d="M12.5 0 C73.2 0, 133.91 0, 199.5 0 M12.5 0 C81.44 0, 150.39 0, 199.5 0 M199.5 0 C207.83 0, 212 4.17, 212 12.5 M199.5 0 C207.83 0, 212 4.17, 212 12.5 M212 12.5 C212 18.89, 212 25.27, 212 37.5 M212 12.5 C212 20.41, 212 28.31, 212 37.5 M212 37.5 C212 45.83, 207.83 50, 199.5 50 M212 37.5 C212 45.83, 207.83 50, 199.5 50 M199.5 50 C160.66 50, 121.83 50, 12.5 50 M199.5 50 C147.02 50, 94.53 50, 12.5 50 M12.5 50 C4.17 50, 0 45.83, 0 37.5 M12.5 50 C4.17 50, 0 45.83, 0 37.5 M0 37.5 C0 32.35, 0 27.21, 0 12.5 M0 37.5 C0 27.79, 0 18.08, 0 12.5 M0 12.5 C0 4.17, 4.17 0, 12.5 0 M0 12.5 C0 4.17, 4.17 0, 12.5 0" stroke="#1e1e1e" stroke-width="2" fill="none"></path></g><g transform="translate(550.2322162295359 156.77340498194098) rotate(0 99.97600555419922 20)"><text x="99.97600555419922" y="14.016" font-family="Virgil, Segoe UI Emoji" font-size="16px" fill="#1e1e1e" text-anchor="middle" style="white-space: pre;" direction="ltr" dominant-baseline="alphabetic">Map</text><text x="99.97600555419922" y="34.016" font-family="Virgil, Segoe UI Emoji" font-size="16px" fill="#1e1e1e" text-anchor="middle" style="white-space: pre;" direction="ltr" dominant-baseline="alphabetic">TripPattern -&gt; Timetable</text></g><g stroke-linecap="round" transform="translate(595.7738254594663 277.94123262539506) rotate(0 100.75 41.875)"><path d="M20.94 0 C56.62 0, 92.31 0, 180.56 0 C194.52 0, 201.5 6.98, 201.5 20.94 C201.5 30, 201.5 39.06, 201.5 62.81 C201.5 76.77, 194.52 83.75, 180.56 83.75 C116.85 83.75, 53.13 83.75, 20.94 83.75 C6.98 83.75, 0 76.77, 0 62.81 C0 47.16, 0 31.51, 0 20.94 C0 6.98, 6.98 0, 20.94 0" stroke="none" stroke-width="0" fill="#a5d8ff"></path><path d="M20.94 0 C60.64 0, 100.35 0, 180.56 0 M20.94 0 C65.99 0, 111.04 0, 180.56 0 M180.56 0 C194.52 0, 201.5 6.98, 201.5 20.94 M180.56 0 C194.52 0, 201.5 6.98, 201.5 20.94 M201.5 20.94 C201.5 31.13, 201.5 41.32, 201.5 62.81 M201.5 20.94 C201.5 36.48, 201.5 52.03, 201.5 62.81 M201.5 62.81 C201.5 76.77, 194.52 83.75, 180.56 83.75 M201.5 62.81 C201.5 76.77, 194.52 83.75, 180.56 83.75 M180.56 83.75 C141.49 83.75, 102.41 83.75, 20.94 83.75 M180.56 83.75 C118.93 83.75, 57.3 83.75, 20.94 83.75 M20.94 83.75 C6.98 83.75, 0 76.77, 0 62.81 M20.94 83.75 C6.98 83.75, 0 76.77, 0 62.81 M0 62.81 C0 48.89, 0 34.98, 0 20.94 M0 62.81 C0 49.26, 0 35.7, 0 20.94 M0 20.94 C0 6.98, 6.98 0, 20.94 0 M0 20.94 C0 6.98, 6.98 0, 20.94 0" stroke="#1e1e1e" stroke-width="2" fill="none"></path></g><g transform="translate(634.773821644769 282.94123262539506) rotate(0 61.750003814697266 12.5)"><text x="61.750003814697266" y="17.52" font-family="Virgil, Segoe UI Emoji" font-size="20px" fill="#1e1e1e" text-anchor="middle" style="white-space: pre;" direction="ltr" dominant-baseline="alphabetic">Timetable A'</text></g><g mask="url(#mask-iBEW8bpmwwj0oxolEhxTL)" stroke-linecap="round"><g transform="translate(631.3590442159505 353.523404981941) rotate(0 369.10135552483644 30.604750755769373)"><path d="M0 0 C41.66 9.17, 126.93 44.8, 249.96 55 C373 65.2, 656.83 60.18, 738.2 61.21 M0 0 C41.66 9.17, 126.93 44.8, 249.96 55 C373 65.2, 656.83 60.18, 738.2 61.21" stroke="#1e1e1e" stroke-width="2" fill="none"></path></g><g transform="translate(631.3590442159505 353.523404981941) rotate(0 369.10135552483644 30.604750755769373)"><path d="M714.72 69.79 C723.09 66.73, 731.46 63.67, 738.2 61.21 M714.72 69.79 C721.48 67.32, 728.24 64.85, 738.2 61.21" stroke="#1e1e1e" stroke-width="2" fill="none"></path></g><g transform="translate(631.3590442159505 353.523404981941) rotate(0 369.10135552483644 30.604750755769373)"><path d="M714.7 52.69 C723.08 55.72, 731.46 58.76, 738.2 61.21 M714.7 52.69 C721.46 55.14, 728.23 57.59, 738.2 61.21" stroke="#1e1e1e" stroke-width="2" fill="none"></path></g></g><mask id="mask-iBEW8bpmwwj0oxolEhxTL"><rect x="0" y="0" fill="#fff" width="1469.5617552656233" height="514.7329064934797"></rect><rect x="860.5844849770222" y="398.52615055048227" fill="#000" width="41.47200012207031" height="20" opacity="1"></rect></mask><g transform="translate(860.5844849770222 398.52615055048227) rotate(0 139.87591476376474 -14.22335949591411)"><text x="20.736000061035156" y="14.016" font-family="Virgil, Segoe UI Emoji" font-size="16px" fill="#1e1e1e" text-anchor="middle" style="white-space: pre;" direction="ltr" dominant-baseline="alphabetic">1:(N-1)</text></g><g stroke-linecap="round"><g transform="translate(564.7563370225416 202.77340498194098) rotate(0 5.498233700943388 56.63953854346687)"><path d="M0 0 C-3.13 15.36, -23.73 73.29, -18.77 92.17 C-13.81 111.05, 21.68 109.76, 29.77 113.28 M0 0 C-3.13 15.36, -23.73 73.29, -18.77 92.17 C-13.81 111.05, 21.68 109.76, 29.77 113.28" stroke="#1e1e1e" stroke-width="2" fill="none"></path></g></g><mask></mask><g stroke-linecap="round" transform="translate(608.8332217837351 312.523404981941) rotate(0 88.50000000000011 20)"><path d="M10 0 C53.27 0, 96.53 0, 167 0 C173.67 0, 177 3.33, 177 10 C177 15.87, 177 21.74, 177 30 C177 36.67, 173.67 40, 167 40 C121.45 40, 75.9 40, 10 40 C3.33 40, 0 36.67, 0 30 C0 23.57, 0 17.14, 0 10 C0 3.33, 3.33 0, 10 0" stroke="none" stroke-width="0" fill="#a5d8ff"></path><path d="M10 0 C54.68 0, 99.37 0, 167 0 M10 0 C55.95 0, 101.91 0, 167 0 M167 0 C173.67 0, 177 3.33, 177 10 M167 0 C173.67 0, 177 3.33, 177 10 M177 10 C177 16.01, 177 22.03, 177 30 M177 10 C177 16.41, 177 22.81, 177 30 M177 30 C177 36.67, 173.67 40, 167 40 M177 30 C177 36.67, 173.67 40, 167 40 M167 40 C132.97 40, 98.95 40, 10 40 M167 40 C128.02 40, 89.05 40, 10 40 M10 40 C3.33 40, 0 36.67, 0 30 M10 40 C3.33 40, 0 36.67, 0 30 M0 30 C0 25.28, 0 20.56, 0 10 M0 30 C0 22.76, 0 15.53, 0 10 M0 10 C0 3.33, 3.33 0, 10 0 M0 10 C0 3.33, 3.33 0, 10 0" stroke="#1e1e1e" stroke-width="2" fill="none"></path></g><g transform="translate(635.6692241335887 322.523404981941) rotate(0 61.663997650146484 10)"><text x="61.663997650146484" y="14.016" font-family="Virgil, Segoe UI Emoji" font-size="16px" fill="#1e1e1e" text-anchor="middle" style="white-space: pre;" direction="ltr" dominant-baseline="alphabetic">List&lt;TripTimes&gt;</text></g><g mask="url(#mask-0viPEoXFlEhnIHqT2BHGy)" stroke-linecap="round"><g transform="translate(567.6454083647653 202.77340498194098) rotate(0 360.72008705512184 26.225683318479696)"><path d="M0 0 C27.25 8.21, 43.29 40.54, 163.53 49.29 C283.77 58.03, 628.45 51.92, 721.44 52.45 M0 0 C27.25 8.21, 43.29 40.54, 163.53 49.29 C283.77 58.03, 628.45 51.92, 721.44 52.45" stroke="#1e1e1e" stroke-width="2" fill="none"></path></g></g><mask id="mask-0viPEoXFlEhnIHqT2BHGy"><rect x="0" y="0" fill="#fff" width="1389.085582475009" height="355.2247716189004"></rect><rect x="710.4371821379467" y="242.0591941231114" fill="#000" width="41.47200012207031" height="20" opacity="1"></rect></mask><g transform="translate(710.4371821379466 242.0591941231114) rotate(0 217.92831328194058 -12.267862690029688)"><text x="20.736000061035156" y="14.016" font-family="Virgil, Segoe UI Emoji" font-size="16px" fill="#1e1e1e" text-anchor="middle" style="white-space: pre;" direction="ltr" dominant-baseline="alphabetic">1:(N-1)</text></g><g stroke-linecap="round"><g transform="translate(628.132689560083 353.523404981941) rotate(0 20.969393409158215 47.26174335618862)"><path d="M0 0 C0.66 13.22, -3.05 63.56, 3.94 79.32 C10.93 95.07, 35.61 91.99, 41.94 94.52 M0 0 C0.66 13.22, -3.05 63.56, 3.94 79.32 C10.93 95.07, 35.61 91.99, 41.94 94.52" stroke="#1e1e1e" stroke-width="2" fill="none"></path></g><g transform="translate(628.132689560083 353.523404981941) rotate(0 20.969393409158215 47.26174335618862)"><path d="M21.89 98.65 C27.01 97.59, 32.14 96.54, 41.94 94.52 M21.89 98.65 C28.23 97.34, 34.57 96.04, 41.94 94.52" stroke="#1e1e1e" stroke-width="2" fill="none"></path></g><g transform="translate(628.132689560083 353.523404981941) rotate(0 20.969393409158215 47.26174335618862)"><path d="M23.93 84.8 C28.53 87.28, 33.13 89.77, 41.94 94.52 M23.93 84.8 C29.63 87.87, 35.32 90.95, 41.94 94.52" stroke="#1e1e1e" stroke-width="2" fill="none"></path></g></g><mask></mask><g stroke-linecap="round" transform="translate(766.7394451283994 536.5916748046875) rotate(0 132.20703125 17.5)"><path d="M8.75 0 C94.27 0, 179.79 0, 255.66 0 C261.5 0, 264.41 2.92, 264.41 8.75 C264.41 15.18, 264.41 21.61, 264.41 26.25 C264.41 32.08, 261.5 35, 255.66 35 C189.25 35, 122.84 35, 8.75 35 C2.92 35, 0 32.08, 0 26.25 C0 20.02, 0 13.79, 0 8.75 C0 2.92, 2.92 0, 8.75 0" stroke="none" stroke-width="0" fill="#a5d8ff"></path><path d="M8.75 0 C81.79 0, 154.82 0, 255.66 0 M8.75 0 C63.54 0, 118.32 0, 255.66 0 M255.66 0 C261.5 0, 264.41 2.92, 264.41 8.75 M255.66 0 C261.5 0, 264.41 2.92, 264.41 8.75 M264.41 8.75 C264.41 15.74, 264.41 22.73, 264.41 26.25 M264.41 8.75 C264.41 12.44, 264.41 16.13, 264.41 26.25 M264.41 26.25 C264.41 32.08, 261.5 35, 255.66 35 M264.41 26.25 C264.41 32.08, 261.5 35, 255.66 35 M255.66 35 C204.03 35, 152.39 35, 8.75 35 M255.66 35 C169.54 35, 83.42 35, 8.75 35 M8.75 35 C2.92 35, 0 32.08, 0 26.25 M8.75 35 C2.92 35, 0 32.08, 0 26.25 M0 26.25 C0 19.64, 0 13.03, 0 8.75 M0 26.25 C0 21.27, 0 16.29, 0 8.75 M0 8.75 C0 2.92, 2.92 0, 8.75 0 M0 8.75 C0 2.92, 2.92 0, 8.75 0" stroke="#1e1e1e" stroke-width="2" fill="none"></path></g><g transform="translate(774.4164623403135 541.5916748046875) rotate(0 124.53001403808594 12.5)"><text x="124.53001403808594" y="17.52" font-family="Virgil, Segoe UI Emoji" font-size="20px" fill="#1e1e1e" text-anchor="middle" style="white-space: pre;" direction="ltr" dominant-baseline="alphabetic">departureTimes' per stop</text></g><g stroke-linecap="round"><g transform="translate(496.1465465898208 65.93995934128725) rotate(0 0 264.54583740234375)"><path d="M-0.49 -2.19 C-0.42 86.25, -1.14 442.44, -1.4 531.09" stroke="#1e1e1e" stroke-width="2.5" fill="none" stroke-dasharray="1.5 8"></path></g></g><mask></mask><g transform="translate(223.125 71.6389876946796) rotate(0 31.527997970581055 10)"><text x="0" y="14.016" font-family="Virgil, Segoe UI Emoji" font-size="16px" fill="#1e1e1e" text-anchor="start" style="white-space: pre;" direction="ltr" dominant-baseline="alphabetic">BUFFER</text></g><g stroke-linecap="round" transform="translate(10 116.2639876946796) rotate(0 119.375 50.625)"><path d="M25.31 0 C79.31 0, 133.31 0, 213.44 0 C230.31 0, 238.75 8.44, 238.75 25.31 C238.75 42.15, 238.75 59, 238.75 75.94 C238.75 92.81, 230.31 101.25, 213.44 101.25 C158 101.25, 102.56 101.25, 25.31 101.25 C8.44 101.25, 0 92.81, 0 75.94 C0 64.21, 0 52.49, 0 25.31 C0 8.44, 8.44 0, 25.31 0" stroke="none" stroke-width="0" fill="#b2f2bb"></path><path d="M25.31 0 C72.35 0, 119.38 0, 213.44 0 M25.31 0 C70.46 0, 115.61 0, 213.44 0 M213.44 0 C230.31 0, 238.75 8.44, 238.75 25.31 M213.44 0 C230.31 0, 238.75 8.44, 238.75 25.31 M238.75 25.31 C238.75 37.25, 238.75 49.19, 238.75 75.94 M238.75 25.31 C238.75 43.31, 238.75 61.3, 238.75 75.94 M238.75 75.94 C238.75 92.81, 230.31 101.25, 213.44 101.25 M238.75 75.94 C238.75 92.81, 230.31 101.25, 213.44 101.25 M213.44 101.25 C154.26 101.25, 95.08 101.25, 25.31 101.25 M213.44 101.25 C143.38 101.25, 73.32 101.25, 25.31 101.25 M25.31 101.25 C8.44 101.25, 0 92.81, 0 75.94 M25.31 101.25 C8.44 101.25, 0 92.81, 0 75.94 M0 75.94 C0 58.31, 0 40.68, 0 25.31 M0 75.94 C0 56.7, 0 37.45, 0 25.31 M0 25.31 C0 8.44, 8.44 0, 25.31 0 M0 25.31 C0 8.44, 8.44 0, 25.31 0" stroke="#1e1e1e" stroke-width="2" fill="none"></path></g><g transform="translate(32.614990234375 121.2639876946796) rotate(0 96.760009765625 12.5)"><text x="96.760009765625" y="17.52" font-family="Virgil, Segoe UI Emoji" font-size="20px" fill="#1e1e1e" text-anchor="middle" style="white-space: pre;" direction="ltr" dominant-baseline="alphabetic">TimetableSnapshot''</text></g><g stroke-linecap="round"><g transform="translate(51.188410078185655 203.59616005122552) rotate(0 271.48842869597433 55.57770958271931)"><path d="M0 0 C46.57 13.34, 188.94 61.52, 279.44 80.04 C369.93 98.57, 499.05 105.97, 542.98 111.16 M0 0 C46.57 13.34, 188.94 61.52, 279.44 80.04 C369.93 98.57, 499.05 105.97, 542.98 111.16" stroke="#1e1e1e" stroke-width="2" fill="none"></path></g><g transform="translate(51.188410078185655 203.59616005122552) rotate(0 271.48842869597433 55.57770958271931)"><path d="M518.79 117.49 C527.46 115.22, 536.13 112.95, 542.98 111.16 M518.79 117.49 C525.91 115.63, 533.02 113.76, 542.98 111.16" stroke="#1e1e1e" stroke-width="2" fill="none"></path></g><g transform="translate(51.188410078185655 203.59616005122552) rotate(0 271.48842869597433 55.57770958271931)"><path d="M520.38 100.47 C528.48 104.3, 536.58 108.13, 542.98 111.16 M520.38 100.47 C527.03 103.61, 533.68 106.76, 542.98 111.16" stroke="#1e1e1e" stroke-width="2" fill="none"></path></g></g><mask></mask><g mask="url(#mask-HcZjVQoM8MscAEitFxX8T)" stroke-linecap="round"><g transform="translate(50.77593255838167 204.84616005122552) rotate(0 616.1454211579055 30.45606560983697)"><path d="M0 0 C64.38 10.15, 180.91 52.52, 386.29 60.91 C591.67 69.31, 1091.29 52.13, 1232.29 50.37 M0 0 C64.38 10.15, 180.91 52.52, 386.29 60.91 C591.67 69.31, 1091.29 52.13, 1232.29 50.37" stroke="#1e1e1e" stroke-width="2" fill="none"></path></g></g><mask id="mask-HcZjVQoM8MscAEitFxX8T"><rect x="0" y="0" fill="#fff" width="1383.0667748741926" height="365.75829127089946"></rect><rect x="412.80062236333606" y="255.75829127089946" fill="#000" width="48.52800369262695" height="20" opacity="1"></rect></mask><g transform="translate(412.80062236333606 255.75829127089946) rotate(0 254.1207313529511 -19.306916936586504)"><text x="24.264001846313477" y="14.016" font-family="Virgil, Segoe UI Emoji" font-size="16px" fill="#1e1e1e" text-anchor="middle" style="white-space: pre;" direction="ltr" dominant-baseline="alphabetic">1:(N-2)</text></g><g stroke-linecap="round"><g transform="translate(173.87253183523745 469.59418391602003) rotate(0 9.667927220748652 40.518496157578056)"><path d="M0 0 C-0.88 12.09, -9.41 59.03, -5.31 72.54 C-1.2 86.05, 19.65 79.62, 24.64 81.04 M0 0 C-0.88 12.09, -9.41 59.03, -5.31 72.54 C-1.2 86.05, 19.65 79.62, 24.64 81.04" stroke="#1e1e1e" stroke-width="2" fill="none"></path></g><g transform="translate(173.87253183523745 469.59418391602003) rotate(0 9.667927220748652 40.518496157578056)"><path d="M10.08 86.53 C13.27 85.33, 16.46 84.13, 24.64 81.04 M10.08 86.53 C13.35 85.3, 16.61 84.07, 24.64 81.04" stroke="#1e1e1e" stroke-width="2" fill="none"></path></g><g transform="translate(173.87253183523745 469.59418391602003) rotate(0 9.667927220748652 40.518496157578056)"><path d="M9.95 75.89 C13.17 77.01, 16.39 78.14, 24.64 81.04 M9.95 75.89 C13.25 77.04, 16.54 78.2, 24.64 81.04" stroke="#1e1e1e" stroke-width="2" fill="none"></path></g></g><mask></mask><g stroke-linecap="round" transform="translate(24.43439632426862 155.09616005122552) rotate(0 106.00000000000006 25)"><path d="M12.5 0 C66.76 0, 121.01 0, 199.5 0 C207.83 0, 212 4.17, 212 12.5 C212 20.54, 212 28.57, 212 37.5 C212 45.83, 207.83 50, 199.5 50 C125.06 50, 50.62 50, 12.5 50 C4.17 50, 0 45.83, 0 37.5 C0 28.68, 0 19.85, 0 12.5 C0 4.17, 4.17 0, 12.5 0" stroke="none" stroke-width="0" fill="#b2f2bb"></path><path d="M12.5 0 C68.73 0, 124.96 0, 199.5 0 M12.5 0 C72.4 0, 132.29 0, 199.5 0 M199.5 0 C207.83 0, 212 4.17, 212 12.5 M199.5 0 C207.83 0, 212 4.17, 212 12.5 M212 12.5 C212 17.92, 212 23.34, 212 37.5 M212 12.5 C212 18.71, 212 24.91, 212 37.5 M212 37.5 C212 45.83, 207.83 50, 199.5 50 M212 37.5 C212 45.83, 207.83 50, 199.5 50 M199.5 50 C155.35 50, 111.2 50, 12.5 50 M199.5 50 C131.84 50, 64.18 50, 12.5 50 M12.5 50 C4.17 50, 0 45.83, 0 37.5 M12.5 50 C4.17 50, 0 45.83, 0 37.5 M0 37.5 C0 30.61, 0 23.72, 0 12.5 M0 37.5 C0 31.99, 0 26.48, 0 12.5 M0 12.5 C0 4.17, 4.17 0, 12.5 0 M0 12.5 C0 4.17, 4.17 0, 12.5 0" stroke="#1e1e1e" stroke-width="2" fill="none"></path></g><g transform="translate(30.458390770069457 160.09616005122552) rotate(0 99.97600555419922 20)"><text x="99.97600555419922" y="14.016" font-family="Virgil, Segoe UI Emoji" font-size="16px" fill="#1e1e1e" text-anchor="middle" style="white-space: pre;" direction="ltr" dominant-baseline="alphabetic">Map</text><text x="99.97600555419922" y="34.016" font-family="Virgil, Segoe UI Emoji" font-size="16px" fill="#1e1e1e" text-anchor="middle" style="white-space: pre;" direction="ltr" dominant-baseline="alphabetic">TripPattern -&gt; Timetable</text></g><g stroke-linecap="round" transform="translate(150.09589710473313 432.3441839160196) rotate(0 79.99999999999997 17.5)"><path d="M8.75 0 C56 0, 103.25 0, 151.25 0 C157.08 0, 160 2.92, 160 8.75 C160 15.6, 160 22.45, 160 26.25 C160 32.08, 157.08 35, 151.25 35 C116.22 35, 81.19 35, 8.75 35 C2.92 35, 0 32.08, 0 26.25 C0 20.84, 0 15.43, 0 8.75 C0 2.92, 2.92 0, 8.75 0" stroke="none" stroke-width="0" fill="#b2f2bb"></path><path d="M8.75 0 C55.64 0, 102.52 0, 151.25 0 M8.75 0 C40.01 0, 71.27 0, 151.25 0 M151.25 0 C157.08 0, 160 2.92, 160 8.75 M151.25 0 C157.08 0, 160 2.92, 160 8.75 M160 8.75 C160 14.67, 160 20.59, 160 26.25 M160 8.75 C160 13.58, 160 18.42, 160 26.25 M160 26.25 C160 32.08, 157.08 35, 151.25 35 M160 26.25 C160 32.08, 157.08 35, 151.25 35 M151.25 35 C102.7 35, 54.15 35, 8.75 35 M151.25 35 C118.27 35, 85.28 35, 8.75 35 M8.75 35 C2.92 35, 0 32.08, 0 26.25 M8.75 35 C2.92 35, 0 32.08, 0 26.25 M0 26.25 C0 20.77, 0 15.29, 0 8.75 M0 26.25 C0 22.08, 0 17.9, 0 8.75 M0 8.75 C0 2.92, 2.92 0, 8.75 0 M0 8.75 C0 2.92, 2.92 0, 8.75 0" stroke="#1e1e1e" stroke-width="2" fill="none"></path></g><g transform="translate(161.43589344262375 437.3441839160196) rotate(0 68.66000366210938 12.5)"><text x="68.66000366210938" y="17.52" font-family="Virgil, Segoe UI Emoji" font-size="20px" fill="#1e1e1e" text-anchor="middle" style="white-space: pre;" direction="ltr" dominant-baseline="alphabetic">TripTimes B3'</text></g><g stroke-linecap="round" transform="translate(75.79824618579994 277.6400003287936) rotate(0 100.75 41.875)"><path d="M20.94 0 C65.6 0, 110.27 0, 180.56 0 C194.52 0, 201.5 6.98, 201.5 20.94 C201.5 31.31, 201.5 41.68, 201.5 62.81 C201.5 76.77, 194.52 83.75, 180.56 83.75 C132.21 83.75, 83.86 83.75, 20.94 83.75 C6.98 83.75, 0 76.77, 0 62.81 C0 52.16, 0 41.51, 0 20.94 C0 6.98, 6.98 0, 20.94 0" stroke="none" stroke-width="0" fill="#b2f2bb"></path><path d="M20.94 0 C67 0, 113.06 0, 180.56 0 M20.94 0 C77.82 0, 134.7 0, 180.56 0 M180.56 0 C194.52 0, 201.5 6.98, 201.5 20.94 M180.56 0 C194.52 0, 201.5 6.98, 201.5 20.94 M201.5 20.94 C201.5 35.53, 201.5 50.13, 201.5 62.81 M201.5 20.94 C201.5 30.06, 201.5 39.17, 201.5 62.81 M201.5 62.81 C201.5 76.77, 194.52 83.75, 180.56 83.75 M201.5 62.81 C201.5 76.77, 194.52 83.75, 180.56 83.75 M180.56 83.75 C146.9 83.75, 113.23 83.75, 20.94 83.75 M180.56 83.75 C122.87 83.75, 65.17 83.75, 20.94 83.75 M20.94 83.75 C6.98 83.75, 0 76.77, 0 62.81 M20.94 83.75 C6.98 83.75, 0 76.77, 0 62.81 M0 62.81 C0 49.3, 0 35.79, 0 20.94 M0 62.81 C0 48.34, 0 33.87, 0 20.94 M0 20.94 C0 6.98, 6.98 0, 20.94 0 M0 20.94 C0 6.98, 6.98 0, 20.94 0" stroke="#1e1e1e" stroke-width="2" fill="none"></path></g><g transform="translate(114.08824328663002 282.6400003287936) rotate(0 62.46000289916992 12.5)"><text x="62.46000289916992" y="17.52" font-family="Virgil, Segoe UI Emoji" font-size="20px" fill="#1e1e1e" text-anchor="middle" style="white-space: pre;" direction="ltr" dominant-baseline="alphabetic">Timetable B'</text></g><g stroke-linecap="round" transform="translate(88.85764251006879 312.2221726853395) rotate(0 88.50000000000011 20)"><path d="M10 0 C42.28 0, 74.57 0, 167 0 C173.67 0, 177 3.33, 177 10 C177 14.71, 177 19.42, 177 30 C177 36.67, 173.67 40, 167 40 C127.82 40, 88.64 40, 10 40 C3.33 40, 0 36.67, 0 30 C0 25.58, 0 21.16, 0 10 C0 3.33, 3.33 0, 10 0" stroke="none" stroke-width="0" fill="#b2f2bb"></path><path d="M10 0 C56.53 0, 103.06 0, 167 0 M10 0 C44.55 0, 79.11 0, 167 0 M167 0 C173.67 0, 177 3.33, 177 10 M167 0 C173.67 0, 177 3.33, 177 10 M177 10 C177 14.63, 177 19.27, 177 30 M177 10 C177 15.89, 177 21.77, 177 30 M177 30 C177 36.67, 173.67 40, 167 40 M177 30 C177 36.67, 173.67 40, 167 40 M167 40 C127.71 40, 88.41 40, 10 40 M167 40 C133.57 40, 100.14 40, 10 40 M10 40 C3.33 40, 0 36.67, 0 30 M10 40 C3.33 40, 0 36.67, 0 30 M0 30 C0 22.61, 0 15.22, 0 10 M0 30 C0 25.23, 0 20.45, 0 10 M0 10 C0 3.33, 3.33 0, 10 0 M0 10 C0 3.33, 3.33 0, 10 0" stroke="#1e1e1e" stroke-width="2" fill="none"></path></g><g transform="translate(115.69364485992241 322.2221726853395) rotate(0 61.663997650146484 10)"><text x="61.663997650146484" y="14.016" font-family="Virgil, Segoe UI Emoji" font-size="16px" fill="#1e1e1e" text-anchor="middle" style="white-space: pre;" direction="ltr" dominant-baseline="alphabetic">List&lt;TripTimes&gt;</text></g><g stroke-linecap="round"><g transform="translate(101.59911577205912 353.2221726853395) rotate(0 23.123390666336974 48.691736643196236)"><path d="M0 0 C0.12 14.3, -6.96 69.59, 0.75 85.82 C8.45 102.05, 38.66 95.46, 46.25 97.38 M0 0 C0.12 14.3, -6.96 69.59, 0.75 85.82 C8.45 102.05, 38.66 95.46, 46.25 97.38" stroke="#1e1e1e" stroke-width="2" fill="none"></path></g><g transform="translate(101.59911577205912 353.2221726853395) rotate(0 23.123390666336974 48.691736643196236)"><path d="M24 104.88 C32.27 102.1, 40.53 99.31, 46.25 97.38 M24 104.88 C29.31 103.09, 34.61 101.3, 46.25 97.38" stroke="#1e1e1e" stroke-width="2" fill="none"></path></g><g transform="translate(101.59911577205912 353.2221726853395) rotate(0 23.123390666336974 48.691736643196236)"><path d="M24.39 88.83 C32.51 92.01, 40.63 95.18, 46.25 97.38 M24.39 88.83 C29.6 90.87, 34.82 92.91, 46.25 97.38" stroke="#1e1e1e" stroke-width="2" fill="none"></path></g></g><mask></mask><g stroke-linecap="round" transform="translate(200.76386585473313 534.040442508086) rotate(0 135.92863944894407 17.5)"><path d="M8.75 0 C69.09 0, 129.43 0, 263.11 0 C268.94 0, 271.86 2.92, 271.86 8.75 C271.86 12.38, 271.86 16.02, 271.86 26.25 C271.86 32.08, 268.94 35, 263.11 35 C167.68 35, 72.26 35, 8.75 35 C2.92 35, 0 32.08, 0 26.25 C0 20.87, 0 15.49, 0 8.75 C0 2.92, 2.92 0, 8.75 0" stroke="none" stroke-width="0" fill="#b2f2bb"></path><path d="M8.75 0 C78.09 0, 147.43 0, 263.11 0 M8.75 0 C78.48 0, 148.22 0, 263.11 0 M263.11 0 C268.94 0, 271.86 2.92, 271.86 8.75 M263.11 0 C268.94 0, 271.86 2.92, 271.86 8.75 M271.86 8.75 C271.86 14.34, 271.86 19.94, 271.86 26.25 M271.86 8.75 C271.86 14.64, 271.86 20.54, 271.86 26.25 M271.86 26.25 C271.86 32.08, 268.94 35, 263.11 35 M271.86 26.25 C271.86 32.08, 268.94 35, 263.11 35 M263.11 35 C188.45 35, 113.79 35, 8.75 35 M263.11 35 C184.71 35, 106.31 35, 8.75 35 M8.75 35 C2.92 35, 0 32.08, 0 26.25 M8.75 35 C2.92 35, 0 32.08, 0 26.25 M0 26.25 C0 20.48, 0 14.72, 0 8.75 M0 26.25 C0 21.95, 0 17.64, 0 8.75 M0 8.75 C0 2.92, 2.92 0, 8.75 0 M0 8.75 C0 2.92, 2.92 0, 8.75 0" stroke="#1e1e1e" stroke-width="2" fill="none"></path></g><g transform="translate(212.16249126559126 539.040442508086) rotate(0 124.53001403808594 12.5)"><text x="124.53001403808594" y="17.52" font-family="Virgil, Segoe UI Emoji" font-size="20px" fill="#1e1e1e" text-anchor="middle" style="white-space: pre;" direction="ltr" dominant-baseline="alphabetic">departureTimes' per stop</text></g><g mask="url(#mask-ir7hLghaxZygbZAx9sO4J)" stroke-linecap="round"><g transform="translate(106.59929508718903 353.2221726853395) rotate(0 593.5032329497376 -14.95762658186004)"><path d="M0 0 C70.54 11.77, 225.41 87.37, 423.25 70.62 C621.08 53.86, 1059.71 -72.01, 1187.01 -100.53 M0 0 C70.54 11.77, 225.41 87.37, 423.25 70.62 C621.08 53.86, 1059.71 -72.01, 1187.01 -100.53" stroke="#1e1e1e" stroke-width="2" fill="none"></path></g><g transform="translate(106.59929508718903 353.2221726853395) rotate(0 593.5032329497376 -14.95762658186004)"><path d="M1166.32 -86.49 C1172.23 -90.5, 1178.13 -94.51, 1187.01 -100.53 M1166.32 -86.49 C1173.18 -91.14, 1180.03 -95.8, 1187.01 -100.53" stroke="#1e1e1e" stroke-width="2" fill="none"></path></g><g transform="translate(106.59929508718903 353.2221726853395) rotate(0 593.5032329497376 -14.95762658186004)"><path d="M1162.14 -103.07 C1169.24 -102.35, 1176.34 -101.62, 1187.01 -100.53 M1162.14 -103.07 C1170.38 -102.23, 1178.62 -101.39, 1187.01 -100.53" stroke="#1e1e1e" stroke-width="2" fill="none"></path></g></g><mask id="mask-ir7hLghaxZygbZAx9sO4J"><rect x="0" y="0" fill="#fff" width="1393.6057609866643" height="624.3699822627077"></rect><rect x="509.112172506502" y="413.83845089216356" fill="#000" width="41.47200012207031" height="20" opacity="1"></rect></mask><g transform="translate(509.112172506502 413.83845089216356) rotate(0 190.9903555304246 -74.36776624360687)"><text x="20.736000061035156" y="14.016" font-family="Virgil, Segoe UI Emoji" font-size="16px" fill="#1e1e1e" text-anchor="middle" style="white-space: pre;" direction="ltr" dominant-baseline="alphabetic">1:(N-1)</text></g><g stroke-linecap="round"><g transform="translate(311.0958971047331 466.1640413596024) rotate(0 485.7225430585277 -99.97203517034677)"><path d="M0 0 C94.02 1.9, 402.23 46.65, 564.14 11.42 C726.05 -23.8, 903.56 -174.24, 971.45 -211.37 M0 0 C94.02 1.9, 402.23 46.65, 564.14 11.42 C726.05 -23.8, 903.56 -174.24, 971.45 -211.37" stroke="#1e1e1e" stroke-width="2" fill="none"></path></g></g><mask></mask><g stroke-linecap="round"><g transform="translate(51.103148119332104 206.09616005122552) rotate(0 3.8495756424521517 55.91579638139183)"><path d="M0 0 C-2.52 16.87, -18.92 82.6, -15.12 101.24 C-11.31 119.88, 16.49 110.07, 22.81 111.83 M0 0 C-2.52 16.87, -18.92 82.6, -15.12 101.24 C-11.31 119.88, 16.49 110.07, 22.81 111.83" stroke="#1e1e1e" stroke-width="2" fill="none"></path></g><g transform="translate(51.103148119332104 206.09616005122552) rotate(0 3.8495756424521517 55.91579638139183)"><path d="M4.63 119.38 C9.88 117.2, 15.12 115.02, 22.81 111.83 M4.63 119.38 C11.14 116.68, 17.65 113.98, 22.81 111.83" stroke="#1e1e1e" stroke-width="2" fill="none"></path></g><g transform="translate(51.103148119332104 206.09616005122552) rotate(0 3.8495756424521517 55.91579638139183)"><path d="M4.03 105.93 C9.45 107.63, 14.87 109.33, 22.81 111.83 M4.03 105.93 C10.75 108.04, 17.48 110.15, 22.81 111.83" stroke="#1e1e1e" stroke-width="2" fill="none"></path></g></g><mask></mask><g stroke-linecap="round" transform="translate(1393.0744545608327 384.61952425587515) rotate(0 80 17.5)"><path d="M8.75 0 C39.96 0, 71.17 0, 151.25 0 C157.08 0, 160 2.92, 160 8.75 C160 14.02, 160 19.29, 160 26.25 C160 32.08, 157.08 35, 151.25 35 C110.26 35, 69.27 35, 8.75 35 C2.92 35, 0 32.08, 0 26.25 C0 20.33, 0 14.41, 0 8.75 C0 2.92, 2.92 0, 8.75 0" stroke="none" stroke-width="0" fill="#ffffff"></path><path d="M8.75 0 C43.26 0, 77.76 0, 151.25 0 M8.75 0 C40.62 0, 72.49 0, 151.25 0 M151.25 0 C157.08 0, 160 2.92, 160 8.75 M151.25 0 C157.08 0, 160 2.92, 160 8.75 M160 8.75 C160 14.81, 160 20.87, 160 26.25 M160 8.75 C160 14.05, 160 19.35, 160 26.25 M160 26.25 C160 32.08, 157.08 35, 151.25 35 M160 26.25 C160 32.08, 157.08 35, 151.25 35 M151.25 35 C122.37 35, 93.49 35, 8.75 35 M151.25 35 C94.83 35, 38.4 35, 8.75 35 M8.75 35 C2.92 35, 0 32.08, 0 26.25 M8.75 35 C2.92 35, 0 32.08, 0 26.25 M0 26.25 C0 22.01, 0 17.78, 0 8.75 M0 26.25 C0 20.3, 0 14.35, 0 8.75 M0 8.75 C0 2.92, 2.92 0, 8.75 0 M0 8.75 C0 2.92, 2.92 0, 8.75 0" stroke="#1e1e1e" stroke-width="2" fill="none"></path></g><g transform="translate(1407.7844536453053 389.61952425587515) rotate(0 65.29000091552734 12.5)"><text x="65.29000091552734" y="17.52" font-family="Virgil, Segoe UI Emoji" font-size="20px" fill="#1e1e1e" text-anchor="middle" style="white-space: pre;" direction="ltr" dominant-baseline="alphabetic">TripTimes A3</text></g><g stroke-linecap="round" transform="translate(1587.8838508851009 383.85686902621455) rotate(0 73.75 17.5)"><path d="M8.75 0 C53.97 0, 99.19 0, 138.75 0 C144.58 0, 147.5 2.92, 147.5 8.75 C147.5 14.83, 147.5 20.91, 147.5 26.25 C147.5 32.08, 144.58 35, 138.75 35 C89.74 35, 40.72 35, 8.75 35 C2.92 35, 0 32.08, 0 26.25 C0 22.46, 0 18.67, 0 8.75 C0 2.92, 2.92 0, 8.75 0" stroke="none" stroke-width="0" fill="#ffffff"></path><path d="M8.75 0 C42.53 0, 76.31 0, 138.75 0 M8.75 0 C35.46 0, 62.16 0, 138.75 0 M138.75 0 C144.58 0, 147.5 2.92, 147.5 8.75 M138.75 0 C144.58 0, 147.5 2.92, 147.5 8.75 M147.5 8.75 C147.5 15.27, 147.5 21.79, 147.5 26.25 M147.5 8.75 C147.5 14.29, 147.5 19.82, 147.5 26.25 M147.5 26.25 C147.5 32.08, 144.58 35, 138.75 35 M147.5 26.25 C147.5 32.08, 144.58 35, 138.75 35 M138.75 35 C87.35 35, 35.96 35, 8.75 35 M138.75 35 C99.53 35, 60.3 35, 8.75 35 M8.75 35 C2.92 35, 0 32.08, 0 26.25 M8.75 35 C2.92 35, 0 32.08, 0 26.25 M0 26.25 C0 19.62, 0 12.99, 0 8.75 M0 26.25 C0 21.82, 0 17.39, 0 8.75 M0 8.75 C0 2.92, 2.92 0, 8.75 0 M0 8.75 C0 2.92, 2.92 0, 8.75 0" stroke="#1e1e1e" stroke-width="2" fill="none"></path></g><g transform="translate(1623.8038490540462 388.85686902621455) rotate(0 37.83000183105469 12.5)"><text x="37.83000183105469" y="17.52" font-family="Virgil, Segoe UI Emoji" font-size="20px" fill="#1e1e1e" text-anchor="middle" style="white-space: pre;" direction="ltr" dominant-baseline="alphabetic">Trip A3</text></g><g stroke-linecap="round"><g transform="translate(1554.1338508851018 403.85686902621455) rotate(0 16.374999999999545 0)"><path d="M0 0 C5.46 0, 27.29 0, 32.75 0 M0 0 C5.46 0, 27.29 0, 32.75 0" stroke="#1e1e1e" stroke-width="2" fill="none"></path></g><g transform="translate(1554.1338508851018 403.85686902621455) rotate(0 16.374999999999545 0)"><path d="M17.36 5.6 C22.32 3.8, 27.27 1.99, 32.75 0 M17.36 5.6 C21.27 4.18, 25.17 2.76, 32.75 0" stroke="#1e1e1e" stroke-width="2" fill="none"></path></g><g transform="translate(1554.1338508851018 403.85686902621455) rotate(0 16.374999999999545 0)"><path d="M17.36 -5.6 C22.32 -3.8, 27.27 -1.99, 32.75 0 M17.36 -5.6 C21.27 -4.18, 25.17 -2.76, 32.75 0" stroke="#1e1e1e" stroke-width="2" fill="none"></path></g></g><mask></mask><g stroke-linecap="round" transform="translate(1372.5744545608327 407.86952425587515) rotate(0 80 17.5)"><path d="M8.75 0 C62.34 0, 115.93 0, 151.25 0 C157.08 0, 160 2.92, 160 8.75 C160 13.48, 160 18.22, 160 26.25 C160 32.08, 157.08 35, 151.25 35 C108.3 35, 65.36 35, 8.75 35 C2.92 35, 0 32.08, 0 26.25 C0 19.51, 0 12.76, 0 8.75 C0 2.92, 2.92 0, 8.75 0" stroke="none" stroke-width="0" fill="#ffffff"></path><path d="M8.75 0 C65.41 0, 122.08 0, 151.25 0 M8.75 0 C40.89 0, 73.02 0, 151.25 0 M151.25 0 C157.08 0, 160 2.92, 160 8.75 M151.25 0 C157.08 0, 160 2.92, 160 8.75 M160 8.75 C160 13.39, 160 18.02, 160 26.25 M160 8.75 C160 14.51, 160 20.28, 160 26.25 M160 26.25 C160 32.08, 157.08 35, 151.25 35 M160 26.25 C160 32.08, 157.08 35, 151.25 35 M151.25 35 C120.9 35, 90.55 35, 8.75 35 M151.25 35 C121.72 35, 92.19 35, 8.75 35 M8.75 35 C2.92 35, 0 32.08, 0 26.25 M8.75 35 C2.92 35, 0 32.08, 0 26.25 M0 26.25 C0 19.5, 0 12.75, 0 8.75 M0 26.25 C0 19.76, 0 13.28, 0 8.75 M0 8.75 C0 2.92, 2.92 0, 8.75 0 M0 8.75 C0 2.92, 2.92 0, 8.75 0" stroke="#1e1e1e" stroke-width="2" fill="none"></path></g><g transform="translate(1386.974448457317 412.86952425587515) rotate(0 65.60000610351562 12.5)"><text x="65.60000610351562" y="17.52" font-family="Virgil, Segoe UI Emoji" font-size="20px" fill="#1e1e1e" text-anchor="middle" style="white-space: pre;" direction="ltr" dominant-baseline="alphabetic">TripTimes A2</text></g><g stroke-linecap="round" transform="translate(1569.3838508851009 407.10686902621455) rotate(0 73.75 17.5)"><path d="M8.75 0 C39.61 0, 70.47 0, 138.75 0 C144.58 0, 147.5 2.92, 147.5 8.75 C147.5 13.55, 147.5 18.35, 147.5 26.25 C147.5 32.08, 144.58 35, 138.75 35 C102.88 35, 67.02 35, 8.75 35 C2.92 35, 0 32.08, 0 26.25 C0 21.7, 0 17.15, 0 8.75 C0 2.92, 2.92 0, 8.75 0" stroke="none" stroke-width="0" fill="#ffffff"></path><path d="M8.75 0 C58.66 0, 108.57 0, 138.75 0 M8.75 0 C45.03 0, 81.31 0, 138.75 0 M138.75 0 C144.58 0, 147.5 2.92, 147.5 8.75 M138.75 0 C144.58 0, 147.5 2.92, 147.5 8.75 M147.5 8.75 C147.5 13.89, 147.5 19.04, 147.5 26.25 M147.5 8.75 C147.5 14, 147.5 19.26, 147.5 26.25 M147.5 26.25 C147.5 32.08, 144.58 35, 138.75 35 M147.5 26.25 C147.5 32.08, 144.58 35, 138.75 35 M138.75 35 C106.66 35, 74.57 35, 8.75 35 M138.75 35 C102.84 35, 66.92 35, 8.75 35 M8.75 35 C2.92 35, 0 32.08, 0 26.25 M8.75 35 C2.92 35, 0 32.08, 0 26.25 M0 26.25 C0 20, 0 13.76, 0 8.75 M0 26.25 C0 22.34, 0 18.43, 0 8.75 M0 8.75 C0 2.92, 2.92 0, 8.75 0 M0 8.75 C0 2.92, 2.92 0, 8.75 0" stroke="#1e1e1e" stroke-width="2" fill="none"></path></g><g transform="translate(1604.9938514954524 412.10686902621455) rotate(0 38.13999938964844 12.5)"><text x="38.13999938964844" y="17.52" font-family="Virgil, Segoe UI Emoji" font-size="20px" fill="#1e1e1e" text-anchor="middle" style="white-space: pre;" direction="ltr" dominant-baseline="alphabetic">Trip A2</text></g><g stroke-linecap="round"><g transform="translate(1533.6338508851018 427.10686902621455) rotate(0 17.374999999999545 0)"><path d="M0 0 C5.79 0, 28.96 0, 34.75 0 M0 0 C5.79 0, 28.96 0, 34.75 0" stroke="#1e1e1e" stroke-width="2" fill="none"></path></g><g transform="translate(1533.6338508851018 427.10686902621455) rotate(0 17.374999999999545 0)"><path d="M18.42 5.94 C23.7 4.02, 28.97 2.1, 34.75 0 M18.42 5.94 C23.86 3.96, 29.3 1.98, 34.75 0" stroke="#1e1e1e" stroke-width="2" fill="none"></path></g><g transform="translate(1533.6338508851018 427.10686902621455) rotate(0 17.374999999999545 0)"><path d="M18.42 -5.94 C23.7 -4.02, 28.97 -2.1, 34.75 0 M18.42 -5.94 C23.86 -3.96, 29.3 -1.98, 34.75 0" stroke="#1e1e1e" stroke-width="2" fill="none"></path></g></g><mask></mask><g stroke-linecap="round" transform="translate(1350.5923236554327 432.19759724816504) rotate(0 80 17.5)"><path d="M8.75 0 C43.01 0, 77.27 0, 151.25 0 C157.08 0, 160 2.92, 160 8.75 C160 15.12, 160 21.48, 160 26.25 C160 32.08, 157.08 35, 151.25 35 C101.29 35, 51.34 35, 8.75 35 C2.92 35, 0 32.08, 0 26.25 C0 22.09, 0 17.92, 0 8.75 C0 2.92, 2.92 0, 8.75 0" stroke="none" stroke-width="0" fill="#ffffff"></path><path d="M8.75 0 C57.17 0, 105.59 0, 151.25 0 M8.75 0 C51.78 0, 94.82 0, 151.25 0 M151.25 0 C157.08 0, 160 2.92, 160 8.75 M151.25 0 C157.08 0, 160 2.92, 160 8.75 M160 8.75 C160 13.15, 160 17.56, 160 26.25 M160 8.75 C160 12.32, 160 15.89, 160 26.25 M160 26.25 C160 32.08, 157.08 35, 151.25 35 M160 26.25 C160 32.08, 157.08 35, 151.25 35 M151.25 35 C119.64 35, 88.02 35, 8.75 35 M151.25 35 C122.2 35, 93.14 35, 8.75 35 M8.75 35 C2.92 35, 0 32.08, 0 26.25 M8.75 35 C2.92 35, 0 32.08, 0 26.25 M0 26.25 C0 19.55, 0 12.86, 0 8.75 M0 26.25 C0 22.54, 0 18.83, 0 8.75 M0 8.75 C0 2.92, 2.92 0, 8.75 0 M0 8.75 C0 2.92, 2.92 0, 8.75 0" stroke="#1e1e1e" stroke-width="2" fill="none"></path></g><g transform="translate(1369.4023212140264 437.19759724816504) rotate(0 61.19000244140625 12.5)"><text x="61.19000244140625" y="17.52" font-family="Virgil, Segoe UI Emoji" font-size="20px" fill="#1e1e1e" text-anchor="middle" style="white-space: pre;" direction="ltr" dominant-baseline="alphabetic">TripTimes A1</text></g><g stroke-linecap="round" transform="translate(1545.4017199797008 431.43494201850444) rotate(0 73.75 17.5)"><path d="M8.75 0 C35.09 0, 61.42 0, 138.75 0 C144.58 0, 147.5 2.92, 147.5 8.75 C147.5 15.36, 147.5 21.97, 147.5 26.25 C147.5 32.08, 144.58 35, 138.75 35 C93.39 35, 48.02 35, 8.75 35 C2.92 35, 0 32.08, 0 26.25 C0 19.85, 0 13.44, 0 8.75 C0 2.92, 2.92 0, 8.75 0" stroke="none" stroke-width="0" fill="#ffffff"></path><path d="M8.75 0 C45.38 0, 82.02 0, 138.75 0 M8.75 0 C58.56 0, 108.36 0, 138.75 0 M138.75 0 C144.58 0, 147.5 2.92, 147.5 8.75 M138.75 0 C144.58 0, 147.5 2.92, 147.5 8.75 M147.5 8.75 C147.5 12.96, 147.5 17.17, 147.5 26.25 M147.5 8.75 C147.5 15.62, 147.5 22.5, 147.5 26.25 M147.5 26.25 C147.5 32.08, 144.58 35, 138.75 35 M147.5 26.25 C147.5 32.08, 144.58 35, 138.75 35 M138.75 35 C103.05 35, 67.35 35, 8.75 35 M138.75 35 C93.07 35, 47.39 35, 8.75 35 M8.75 35 C2.92 35, 0 32.08, 0 26.25 M8.75 35 C2.92 35, 0 32.08, 0 26.25 M0 26.25 C0 22.11, 0 17.98, 0 8.75 M0 26.25 C0 20.58, 0 14.91, 0 8.75 M0 8.75 C0 2.92, 2.92 0, 8.75 0 M0 8.75 C0 2.92, 2.92 0, 8.75 0" stroke="#1e1e1e" stroke-width="2" fill="none"></path></g><g transform="translate(1585.4217204374645 436.43494201850444) rotate(0 33.72999954223633 12.5)"><text x="33.72999954223633" y="17.52" font-family="Virgil, Segoe UI Emoji" font-size="20px" fill="#1e1e1e" text-anchor="middle" style="white-space: pre;" direction="ltr" dominant-baseline="alphabetic">Trip A1</text></g><g stroke-linecap="round"><g transform="translate(1511.6517199797013 451.43494201850444) rotate(0 16.374999999999773 0)"><path d="M0 0 C5.46 0, 27.29 0, 32.75 0 M0 0 C5.46 0, 27.29 0, 32.75 0" stroke="#1e1e1e" stroke-width="2" fill="none"></path></g><g transform="translate(1511.6517199797013 451.43494201850444) rotate(0 16.374999999999773 0)"><path d="M17.36 5.6 C22.85 3.6, 28.34 1.6, 32.75 0 M17.36 5.6 C23.16 3.49, 28.95 1.38, 32.75 0" stroke="#1e1e1e" stroke-width="2" fill="none"></path></g><g transform="translate(1511.6517199797013 451.43494201850444) rotate(0 16.374999999999773 0)"><path d="M17.36 -5.6 C22.85 -3.6, 28.34 -1.6, 32.75 0 M17.36 -5.6 C23.16 -3.49, 28.95 -1.38, 32.75 0" stroke="#1e1e1e" stroke-width="2" fill="none"></path></g></g><mask></mask><g stroke-linecap="round" transform="translate(1544.1410852408478 58.925141665836236) rotate(0 156.5 47.5)"><path d="M23.75 0 C83.1 0, 142.45 0, 289.25 0 M23.75 0 C100.51 0, 177.26 0, 289.25 0 M289.25 0 C305.08 0, 313 7.92, 313 23.75 M289.25 0 C305.08 0, 313 7.92, 313 23.75 M313 23.75 C313 38.98, 313 54.21, 313 71.25 M313 23.75 C313 35.76, 313 47.77, 313 71.25 M313 71.25 C313 87.08, 305.08 95, 289.25 95 M313 71.25 C313 87.08, 305.08 95, 289.25 95 M289.25 95 C199.45 95, 109.65 95, 23.75 95 M289.25 95 C215.75 95, 142.26 95, 23.75 95 M23.75 95 C7.92 95, 0 87.08, 0 71.25 M23.75 95 C7.92 95, 0 87.08, 0 71.25 M0 71.25 C0 54.03, 0 36.82, 0 23.75 M0 71.25 C0 59.14, 0 47.02, 0 23.75 M0 23.75 C0 7.92, 7.92 0, 23.75 0 M0 23.75 C0 7.92, 7.92 0, 23.75 0" stroke="#1e1e1e" stroke-width="2" fill="none"></path></g><g transform="translate(1664.345087621219 63.925141665836236) rotate(0 36.295997619628906 10)"><text x="36.295997619628906" y="14.016" font-family="Virgil, Segoe UI Emoji" font-size="16px" fill="#1e1e1e" text-anchor="middle" style="white-space: pre;" direction="ltr" dominant-baseline="alphabetic">Requests</text></g><g stroke-linecap="round" transform="translate(1753.1410852408478 92.92514166583624) rotate(0 46.02884615384619 25)"><path d="M12.5 0 C30.53 0, 48.55 0, 79.56 0 M12.5 0 C32.49 0, 52.47 0, 79.56 0 M79.56 0 C87.89 0, 92.06 4.17, 92.06 12.5 M79.56 0 C87.89 0, 92.06 4.17, 92.06 12.5 M92.06 12.5 C92.06 19.74, 92.06 26.98, 92.06 37.5 M92.06 12.5 C92.06 21.95, 92.06 31.39, 92.06 37.5 M92.06 37.5 C92.06 45.83, 87.89 50, 79.56 50 M92.06 37.5 C92.06 45.83, 87.89 50, 79.56 50 M79.56 50 C53 50, 26.43 50, 12.5 50 M79.56 50 C63.09 50, 46.62 50, 12.5 50 M12.5 50 C4.17 50, 0 45.83, 0 37.5 M12.5 50 C4.17 50, 0 45.83, 0 37.5 M0 37.5 C0 28.88, 0 20.25, 0 12.5 M0 37.5 C0 27.5, 0 17.51, 0 12.5 M0 12.5 C0 4.17, 4.17 0, 12.5 0 M0 12.5 C0 4.17, 4.17 0, 12.5 0" stroke="#1e1e1e" stroke-width="2" fill="none"></path></g><g transform="translate(1764.9139346905924 97.92514166583624) rotate(0 34.25599670410156 20)"><text x="34.25599670410156" y="14.016" font-family="Virgil, Segoe UI Emoji" font-size="16px" fill="#1e1e1e" text-anchor="middle" style="white-space: pre;" direction="ltr" dominant-baseline="alphabetic">Thread 1</text><text x="34.25599670410156" y="34.016" font-family="Virgil, Segoe UI Emoji" font-size="16px" fill="#1e1e1e" text-anchor="middle" style="white-space: pre;" direction="ltr" dominant-baseline="alphabetic">Idle</text></g><g stroke-linecap="round" transform="translate(1655.1410852408478 92.92514166583624) rotate(0 46 25)"><path d="M12.5 0 C36.34 0, 60.17 0, 79.5 0 M12.5 0 C29.03 0, 45.55 0, 79.5 0 M79.5 0 C87.83 0, 92 4.17, 92 12.5 M79.5 0 C87.83 0, 92 4.17, 92 12.5 M92 12.5 C92 19.05, 92 25.61, 92 37.5 M92 12.5 C92 20.33, 92 28.17, 92 37.5 M92 37.5 C92 45.83, 87.83 50, 79.5 50 M92 37.5 C92 45.83, 87.83 50, 79.5 50 M79.5 50 C59.97 50, 40.43 50, 12.5 50 M79.5 50 C61.16 50, 42.82 50, 12.5 50 M12.5 50 C4.17 50, 0 45.83, 0 37.5 M12.5 50 C4.17 50, 0 45.83, 0 37.5 M0 37.5 C0 28.23, 0 18.97, 0 12.5 M0 37.5 C0 29.22, 0 20.94, 0 12.5 M0 12.5 C0 4.17, 4.17 0, 12.5 0 M0 12.5 C0 4.17, 4.17 0, 12.5 0" stroke="#1e1e1e" stroke-width="2" fill="none"></path></g><g transform="translate(1663.3570886588166 97.92514166583624) rotate(0 37.78399658203125 20)"><text x="37.78399658203125" y="14.016" font-family="Virgil, Segoe UI Emoji" font-size="16px" fill="#1e1e1e" text-anchor="middle" style="white-space: pre;" direction="ltr" dominant-baseline="alphabetic">Thread 2</text><text x="37.78399658203125" y="34.016" font-family="Virgil, Segoe UI Emoji" font-size="16px" fill="#1e1e1e" text-anchor="middle" style="white-space: pre;" direction="ltr" dominant-baseline="alphabetic">GraphQL</text></g><g stroke-linecap="round" transform="translate(1557.1410852408478 92.92514166583624) rotate(0 46.04166666666663 25)"><path d="M12.5 0 C34.52 0, 56.54 0, 79.58 0 M12.5 0 C35.16 0, 57.83 0, 79.58 0 M79.58 0 C87.92 0, 92.08 4.17, 92.08 12.5 M79.58 0 C87.92 0, 92.08 4.17, 92.08 12.5 M92.08 12.5 C92.08 17.84, 92.08 23.18, 92.08 37.5 M92.08 12.5 C92.08 18.27, 92.08 24.05, 92.08 37.5 M92.08 37.5 C92.08 45.83, 87.92 50, 79.58 50 M92.08 37.5 C92.08 45.83, 87.92 50, 79.58 50 M79.58 50 C57.38 50, 35.18 50, 12.5 50 M79.58 50 C59.35 50, 39.11 50, 12.5 50 M12.5 50 C4.17 50, 0 45.83, 0 37.5 M12.5 50 C4.17 50, 0 45.83, 0 37.5 M0 37.5 C0 30.56, 0 23.63, 0 12.5 M0 37.5 C0 28.55, 0 19.6, 0 12.5 M0 12.5 C0 4.17, 4.17 0, 12.5 0 M0 12.5 C0 4.17, 4.17 0, 12.5 0" stroke="#1e1e1e" stroke-width="2" fill="none"></path></g><g transform="translate(1565.6467564241161 97.92514166583624) rotate(0 37.53599548339844 20)"><text x="37.53599548339844" y="14.016" font-family="Virgil, Segoe UI Emoji" font-size="16px" fill="#1e1e1e" text-anchor="middle" style="white-space: pre;" direction="ltr" dominant-baseline="alphabetic">Thread 3</text><text x="37.53599548339844" y="34.016" font-family="Virgil, Segoe UI Emoji" font-size="16px" fill="#1e1e1e" text-anchor="middle" style="white-space: pre;" direction="ltr" dominant-baseline="alphabetic">Routing</text></g><g stroke-linecap="round"><g transform="translate(1705.6410852408478 142.54147467364874) rotate(0 -192.5 16)"><path d="M0 0 C-20.33 4.67, -57.83 22.67, -122 28 C-186.17 33.33, -341.17 31.33, -385 32 M0 0 C-20.33 4.67, -57.83 22.67, -122 28 C-186.17 33.33, -341.17 31.33, -385 32" stroke="#1e1e1e" stroke-width="2" fill="none"></path></g><g transform="translate(1705.6410852408478 142.54147467364874) rotate(0 -192.5 16)"><path d="M-361.53 23.39 C-370.16 26.56, -378.78 29.72, -385 32 M-361.53 23.39 C-370.43 26.66, -379.33 29.92, -385 32" stroke="#1e1e1e" stroke-width="2" fill="none"></path></g><g transform="translate(1705.6410852408478 142.54147467364874) rotate(0 -192.5 16)"><path d="M-361.49 40.5 C-370.13 37.37, -378.77 34.25, -385 32 M-361.49 40.5 C-370.4 37.27, -379.32 34.05, -385 32" stroke="#1e1e1e" stroke-width="2" fill="none"></path></g></g><mask></mask><g stroke-linecap="round"><g transform="translate(1554.8910852408478 116.77633795489828) rotate(0 -391.00000000000006 7.5)"><path d="M0 0 C-73.17 -4.17, -308.67 -31.67, -439 -25 C-569.33 -18.33, -724.83 29.17, -782 40 M0 0 C-73.17 -4.17, -308.67 -31.67, -439 -25 C-569.33 -18.33, -724.83 29.17, -782 40" stroke="#1e1e1e" stroke-width="2" fill="none"></path></g><g transform="translate(1554.8910852408478 116.77633795489828) rotate(0 -391.00000000000006 7.5)"><path d="M-761.09 26.3 C-768.35 31.06, -775.61 35.81, -782 40 M-761.09 26.3 C-766.76 30.01, -772.42 33.72, -782 40" stroke="#1e1e1e" stroke-width="2" fill="none"></path></g><g transform="translate(1554.8910852408478 116.77633795489828) rotate(0 -391.00000000000006 7.5)"><path d="M-757.17 42.95 C-765.79 41.92, -774.41 40.9, -782 40 M-757.17 42.95 C-763.9 42.15, -770.63 41.35, -782 40" stroke="#1e1e1e" stroke-width="2" fill="none"></path></g></g><mask></mask></svg>