<svg version="1.1" xmlns="http://www.w3.org/2000/svg" viewBox="0 0 1743.277997970581 605.6929550439118" width="3486.555995941162" height="1211.3859100878235">
  <!-- svg-source:excalidraw -->
  
  <defs>
    <style class="style-fonts">
      @font-face {
        font-family: "Virgil";
        src: url("https://excalidraw.com/Virgil.woff2");
      }
      @font-face {
        font-family: "Cascadia";
        src: url("https://excalidraw.com/Cascadia.woff2");
      }
      @font-face {
        font-family: "Assistant";
        src: url("https://excalidraw.com/Assistant-Regular.woff2");
      }
    </style>
    
  </defs>
  <rect x="0" y="0" width="1743.277997970581" height="605.6929550439118" fill="#ffffff"></rect><g stroke-linecap="round"><g transform="translate(599.2132412456041 464.64541621262106) rotate(0 352.55411756639745 29.228271612661047)"><path d="M0 0 C24.58 6.54, 29.97 29.47, 147.49 39.22 C265.01 48.96, 612.17 55.25, 705.11 58.46 M0 0 C24.58 6.54, 29.97 29.47, 147.49 39.22 C265.01 48.96, 612.17 55.25, 705.11 58.46" stroke="#1e1e1e" stroke-width="2" fill="none"></path></g><g transform="translate(599.2132412456041 464.64541621262106) rotate(0 352.55411756639745 29.228271612661047)"><path d="M681.4 66.37 C690.65 63.29, 699.9 60.2, 705.11 58.46 M681.4 66.37 C689.56 63.65, 697.73 60.92, 705.11 58.46" stroke="#1e1e1e" stroke-width="2" fill="none"></path></g><g transform="translate(599.2132412456041 464.64541621262106) rotate(0 352.55411756639745 29.228271612661047)"><path d="M681.85 49.28 C690.93 52.86, 700 56.44, 705.11 58.46 M681.85 49.28 C689.86 52.44, 697.87 55.6, 705.11 58.46" stroke="#1e1e1e" stroke-width="2" fill="none"></path></g></g><mask></mask><g stroke-linecap="round"><g transform="translate(594.8560791196812 464.64541621262106) rotate(0 23.019057455612028 42.39230943238158)"><path d="M0 0 C0.7 12.3, -3.49 59.66, 4.19 73.79 C11.86 87.92, 39.06 82.95, 46.04 84.78 M0 0 C0.7 12.3, -3.49 59.66, 4.19 73.79 C11.86 87.92, 39.06 82.95, 46.04 84.78" stroke="#1e1e1e" stroke-width="2" fill="none"></path></g><g transform="translate(594.8560791196812 464.64541621262106) rotate(0 23.019057455612028 42.39230943238158)"><path d="M25.38 91.2 C32.66 88.94, 39.94 86.68, 46.04 84.78 M25.38 91.2 C32.17 89.09, 38.96 86.98, 46.04 84.78" stroke="#1e1e1e" stroke-width="2" fill="none"></path></g><g transform="translate(594.8560791196812 464.64541621262106) rotate(0 23.019057455612028 42.39230943238158)"><path d="M26.09 76.42 C33.12 79.37, 40.15 82.32, 46.04 84.78 M26.09 76.42 C32.64 79.17, 39.2 81.92, 46.04 84.78" stroke="#1e1e1e" stroke-width="2" fill="none"></path></g></g><mask></mask><g stroke-linecap="round" transform="translate(549.3214763783994 428.64541621262106) rotate(0 80 17.5)"><path d="M8.75 0 C42.81 0, 76.86 0, 151.25 0 C157.08 0, 160 2.92, 160 8.75 C160 14.75, 160 20.75, 160 26.25 C160 32.08, 157.08 35, 151.25 35 C96.38 35, 41.51 35, 8.75 35 C2.92 35, 0 32.08, 0 26.25 C0 22.09, 0 17.92, 0 8.75 C0 2.92, 2.92 0, 8.75 0" stroke="none" stroke-width="0" fill="#a5d8ff"></path><path d="M8.75 0 C38.77 0, 68.79 0, 151.25 0 M8.75 0 C40.22 0, 71.69 0, 151.25 0 M151.25 0 C157.08 0, 160 2.92, 160 8.75 M151.25 0 C157.08 0, 160 2.92, 160 8.75 M160 8.75 C160 13.72, 160 18.68, 160 26.25 M160 8.75 C160 12.38, 160 16.01, 160 26.25 M160 26.25 C160 32.08, 157.08 35, 151.25 35 M160 26.25 C160 32.08, 157.08 35, 151.25 35 M151.25 35 C116.74 35, 82.23 35, 8.75 35 M151.25 35 C115.89 35, 80.53 35, 8.75 35 M8.75 35 C2.92 35, 0 32.08, 0 26.25 M8.75 35 C2.92 35, 0 32.08, 0 26.25 M0 26.25 C0 21.09, 0 15.93, 0 8.75 M0 26.25 C0 20.38, 0 14.5, 0 8.75 M0 8.75 C0 2.92, 2.92 0, 8.75 0 M0 8.75 C0 2.92, 2.92 0, 8.75 0" stroke="#1e1e1e" stroke-width="2" fill="none"></path></g><g transform="translate(565.4715389394346 433.64541621262106) rotate(0 63.849937438964844 12.5)"><text x="63.849937438964844" y="17.52" font-family="Virgil, Segoe UI Emoji" font-size="20px" fill="#1e1e1e" text-anchor="middle" style="white-space: pre;" direction="ltr" dominant-baseline="alphabetic">TripTimes A1'</text></g><g stroke-linecap="round"><g transform="translate(710.3808727026681 450.1129949011611) rotate(0 356.8557951068374 14.989339951763213)"><path d="M0 0 C99.2 5, 476.24 27.17, 595.19 29.98 C714.14 32.79, 693.96 19.03, 713.71 16.85 M0 0 C99.2 5, 476.24 27.17, 595.19 29.98 C714.14 32.79, 693.96 19.03, 713.71 16.85" stroke="#1e1e1e" stroke-width="2" fill="none"></path></g><g transform="translate(710.3808727026681 450.1129949011611) rotate(0 356.8557951068374 14.989339951763213)"><path d="M694.59 32.95 C700.97 27.58, 707.34 22.21, 713.71 16.85 M694.59 32.95 C698.87 29.35, 703.15 25.74, 713.71 16.85" stroke="#1e1e1e" stroke-width="2" fill="none"></path></g><g transform="translate(710.3808727026681 450.1129949011611) rotate(0 356.8557951068374 14.989339951763213)"><path d="M688.71 16.9 C697.05 16.88, 705.39 16.86, 713.71 16.85 M688.71 16.9 C694.31 16.88, 699.9 16.87, 713.71 16.85" stroke="#1e1e1e" stroke-width="2" fill="none"></path></g></g><mask></mask><g stroke-linecap="round" transform="translate(1184.023825459467 235.19123262539506) rotate(0 100.75 41.875)"><path d="M20.94 0 C65.92 0, 110.91 0, 180.56 0 C194.52 0, 201.5 6.98, 201.5 20.94 C201.5 36.52, 201.5 52.09, 201.5 62.81 C201.5 76.77, 194.52 83.75, 180.56 83.75 C146.07 83.75, 111.57 83.75, 20.94 83.75 C6.98 83.75, 0 76.77, 0 62.81 C0 47.49, 0 32.16, 0 20.94 C0 6.98, 6.98 0, 20.94 0" stroke="none" stroke-width="0" fill="#ffffff"></path><path d="M20.94 0 C59 0, 97.07 0, 180.56 0 M20.94 0 C59.72 0, 98.51 0, 180.56 0 M180.56 0 C194.52 0, 201.5 6.98, 201.5 20.94 M180.56 0 C194.52 0, 201.5 6.98, 201.5 20.94 M201.5 20.94 C201.5 30.17, 201.5 39.41, 201.5 62.81 M201.5 20.94 C201.5 34.31, 201.5 47.67, 201.5 62.81 M201.5 62.81 C201.5 76.77, 194.52 83.75, 180.56 83.75 M201.5 62.81 C201.5 76.77, 194.52 83.75, 180.56 83.75 M180.56 83.75 C125.75 83.75, 70.94 83.75, 20.94 83.75 M180.56 83.75 C130.24 83.75, 79.92 83.75, 20.94 83.75 M20.94 83.75 C6.98 83.75, 0 76.77, 0 62.81 M20.94 83.75 C6.98 83.75, 0 76.77, 0 62.81 M0 62.81 C0 54.07, 0 45.33, 0 20.94 M0 62.81 C0 48.46, 0 34.1, 0 20.94 M0 20.94 C0 6.98, 6.98 0, 20.94 0 M0 20.94 C0 6.98, 6.98 0, 20.94 0" stroke="#1e1e1e" stroke-width="2" fill="none"></path></g><g transform="translate(1225.8038776445255 240.19123262539506) rotate(0 58.969947814941406 12.5)"><text x="58.969947814941406" y="17.52" font-family="Virgil, Segoe UI Emoji" font-size="20px" fill="#1e1e1e" text-anchor="middle" style="white-space: pre;" direction="ltr" dominant-baseline="alphabetic">Timetable C</text></g><g stroke-linecap="round" transform="translate(1163.273825459467 256.69123262539506) rotate(0 100.75 41.875)"><path d="M20.94 0 C66.38 0, 111.82 0, 180.56 0 C194.52 0, 201.5 6.98, 201.5 20.94 C201.5 35.31, 201.5 49.68, 201.5 62.81 C201.5 76.77, 194.52 83.75, 180.56 83.75 C124.33 83.75, 68.09 83.75, 20.94 83.75 C6.98 83.75, 0 76.77, 0 62.81 C0 53.98, 0 45.16, 0 20.94 C0 6.98, 6.98 0, 20.94 0" stroke="none" stroke-width="0" fill="#ffffff"></path><path d="M20.94 0 C68.39 0, 115.85 0, 180.56 0 M20.94 0 C84.58 0, 148.23 0, 180.56 0 M180.56 0 C194.52 0, 201.5 6.98, 201.5 20.94 M180.56 0 C194.52 0, 201.5 6.98, 201.5 20.94 M201.5 20.94 C201.5 32.93, 201.5 44.92, 201.5 62.81 M201.5 20.94 C201.5 36.4, 201.5 51.87, 201.5 62.81 M201.5 62.81 C201.5 76.77, 194.52 83.75, 180.56 83.75 M201.5 62.81 C201.5 76.77, 194.52 83.75, 180.56 83.75 M180.56 83.75 C142.14 83.75, 103.72 83.75, 20.94 83.75 M180.56 83.75 C131.94 83.75, 83.31 83.75, 20.94 83.75 M20.94 83.75 C6.98 83.75, 0 76.77, 0 62.81 M20.94 83.75 C6.98 83.75, 0 76.77, 0 62.81 M0 62.81 C0 51.64, 0 40.46, 0 20.94 M0 62.81 C0 48.71, 0 34.61, 0 20.94 M0 20.94 C0 6.98, 6.98 0, 20.94 0 M0 20.94 C0 6.98, 6.98 0, 20.94 0" stroke="#1e1e1e" stroke-width="2" fill="none"></path></g><g transform="translate(1204.2238758134708 261.69123262539506) rotate(0 59.799949645996094 12.5)"><text x="59.799949645996094" y="17.52" font-family="Virgil, Segoe UI Emoji" font-size="20px" fill="#1e1e1e" text-anchor="middle" style="white-space: pre;" direction="ltr" dominant-baseline="alphabetic">Timetable B</text></g><g stroke-linecap="round" transform="translate(952.8691272973319 109.68408203125) rotate(0 119.375 50.625)"><path d="M25.31 0 C88.93 0, 152.55 0, 213.44 0 M25.31 0 C100.51 0, 175.71 0, 213.44 0 M213.44 0 C230.31 0, 238.75 8.44, 238.75 25.31 M213.44 0 C230.31 0, 238.75 8.44, 238.75 25.31 M238.75 25.31 C238.75 39.8, 238.75 54.3, 238.75 75.94 M238.75 25.31 C238.75 38.21, 238.75 51.11, 238.75 75.94 M238.75 75.94 C238.75 92.81, 230.31 101.25, 213.44 101.25 M238.75 75.94 C238.75 92.81, 230.31 101.25, 213.44 101.25 M213.44 101.25 C175.38 101.25, 137.32 101.25, 25.31 101.25 M213.44 101.25 C158.62 101.25, 103.81 101.25, 25.31 101.25 M25.31 101.25 C8.44 101.25, 0 92.81, 0 75.94 M25.31 101.25 C8.44 101.25, 0 92.81, 0 75.94 M0 75.94 C0 55.81, 0 35.69, 0 25.31 M0 75.94 C0 57.61, 0 39.29, 0 25.31 M0 25.31 C0 8.44, 8.44 0, 25.31 0 M0 25.31 C0 8.44, 8.44 0, 25.31 0" stroke="#1e1e1e" stroke-width="2" fill="none"></path></g><g transform="translate(980.8042164086601 114.68408203125) rotate(0 91.43991088867188 12.5)"><text x="91.43991088867188" y="17.52" font-family="Virgil, Segoe UI Emoji" font-size="20px" fill="#1e1e1e" text-anchor="middle" style="white-space: pre;" direction="ltr" dominant-baseline="alphabetic">TimetableSnapshot</text></g><g stroke-linecap="round" transform="translate(967.3035236216006 148.51625438779593) rotate(0 106 25)"><path d="M12.5 0 C59.53 0, 106.56 0, 199.5 0 M12.5 0 C79.58 0, 146.65 0, 199.5 0 M199.5 0 C207.83 0, 212 4.17, 212 12.5 M199.5 0 C207.83 0, 212 4.17, 212 12.5 M212 12.5 C212 19.49, 212 26.47, 212 37.5 M212 12.5 C212 17.99, 212 23.48, 212 37.5 M212 37.5 C212 45.83, 207.83 50, 199.5 50 M212 37.5 C212 45.83, 207.83 50, 199.5 50 M199.5 50 C151.61 50, 103.72 50, 12.5 50 M199.5 50 C152.61 50, 105.72 50, 12.5 50 M12.5 50 C4.17 50, 0 45.83, 0 37.5 M12.5 50 C4.17 50, 0 45.83, 0 37.5 M0 37.5 C0 27.56, 0 17.63, 0 12.5 M0 37.5 C0 29.38, 0 21.25, 0 12.5 M0 12.5 C0 4.17, 4.17 0, 12.5 0 M0 12.5 C0 4.17, 4.17 0, 12.5 0" stroke="#1e1e1e" stroke-width="2" fill="none"></path></g><g transform="translate(973.3275867319521 153.51625438779593) rotate(0 99.97593688964844 20)"><text x="99.97593688964844" y="14.016" font-family="Virgil, Segoe UI Emoji" font-size="16px" fill="#1e1e1e" text-anchor="middle" style="white-space: pre;" direction="ltr" dominant-baseline="alphabetic">Map</text><text x="99.97593688964844" y="34.016" font-family="Virgil, Segoe UI Emoji" font-size="16px" fill="#1e1e1e" text-anchor="middle" style="white-space: pre;" direction="ltr" dominant-baseline="alphabetic">TripPattern -&gt; Timetable</text></g><g stroke-linecap="round" transform="translate(1306.6191272973324 504.6781481104099) rotate(0 138.75 17.5)"><path d="M8.75 0 C97.21 0, 185.66 0, 268.75 0 M8.75 0 C106.46 0, 204.17 0, 268.75 0 M268.75 0 C274.58 0, 277.5 2.92, 277.5 8.75 M268.75 0 C274.58 0, 277.5 2.92, 277.5 8.75 M277.5 8.75 C277.5 14.66, 277.5 20.56, 277.5 26.25 M277.5 8.75 C277.5 13.92, 277.5 19.08, 277.5 26.25 M277.5 26.25 C277.5 32.08, 274.58 35, 268.75 35 M277.5 26.25 C277.5 32.08, 274.58 35, 268.75 35 M268.75 35 C205.7 35, 142.65 35, 8.75 35 M268.75 35 C178.94 35, 89.13 35, 8.75 35 M8.75 35 C2.92 35, 0 32.08, 0 26.25 M8.75 35 C2.92 35, 0 32.08, 0 26.25 M0 26.25 C0 21.42, 0 16.6, 0 8.75 M0 26.25 C0 20.66, 0 15.06, 0 8.75 M0 8.75 C0 2.92, 2.92 0, 8.75 0 M0 8.75 C0 2.92, 2.92 0, 8.75 0" stroke="#1e1e1e" stroke-width="2" fill="none"></path></g><g transform="translate(1339.6692295312191 509.6781481104099) rotate(0 105.69989776611328 12.5)"><text x="105.69989776611328" y="17.52" font-family="Virgil, Segoe UI Emoji" font-size="20px" fill="#1e1e1e" text-anchor="middle" style="white-space: pre;" direction="ltr" dominant-baseline="alphabetic">arrivalTimes per stop</text></g><g stroke-linecap="round" transform="translate(1307.9706897973324 545.93408203125) rotate(0 137.83203125 17.5)"><path d="M8.75 0 C91.3 0, 173.85 0, 266.91 0 M8.75 0 C96.21 0, 183.67 0, 266.91 0 M266.91 0 C272.75 0, 275.66 2.92, 275.66 8.75 M266.91 0 C272.75 0, 275.66 2.92, 275.66 8.75 M275.66 8.75 C275.66 14.78, 275.66 20.82, 275.66 26.25 M275.66 8.75 C275.66 14.01, 275.66 19.27, 275.66 26.25 M275.66 26.25 C275.66 32.08, 272.75 35, 266.91 35 M275.66 26.25 C275.66 32.08, 272.75 35, 266.91 35 M266.91 35 C211.55 35, 156.18 35, 8.75 35 M266.91 35 C182.86 35, 98.8 35, 8.75 35 M8.75 35 C2.92 35, 0 32.08, 0 26.25 M8.75 35 C2.92 35, 0 32.08, 0 26.25 M0 26.25 C0 21.8, 0 17.35, 0 8.75 M0 26.25 C0 22.27, 0 18.29, 0 8.75 M0 8.75 C0 2.92, 2.92 0, 8.75 0 M0 8.75 C0 2.92, 2.92 0, 8.75 0" stroke="#1e1e1e" stroke-width="2" fill="none"></path></g><g transform="translate(1323.9328480004574 550.93408203125) rotate(0 121.869873046875 12.5)"><text x="121.869873046875" y="17.52" font-family="Virgil, Segoe UI Emoji" font-size="20px" fill="#1e1e1e" text-anchor="middle" style="white-space: pre;" direction="ltr" dominant-baseline="alphabetic">departureTimes per stop</text></g><g stroke-linecap="round" transform="translate(1141.6191272973324 277.68408203125) rotate(0 100.75 41.875)"><path d="M20.94 0 C65.6 0, 110.26 0, 180.56 0 C194.52 0, 201.5 6.98, 201.5 20.94 C201.5 30.85, 201.5 40.76, 201.5 62.81 C201.5 76.77, 194.52 83.75, 180.56 83.75 C123.52 83.75, 66.47 83.75, 20.94 83.75 C6.98 83.75, 0 76.77, 0 62.81 C0 53.13, 0 43.45, 0 20.94 C0 6.98, 6.98 0, 20.94 0" stroke="none" stroke-width="0" fill="#ffffff"></path><path d="M20.94 0 C71.71 0, 122.48 0, 180.56 0 M20.94 0 C72.46 0, 123.98 0, 180.56 0 M180.56 0 C194.52 0, 201.5 6.98, 201.5 20.94 M180.56 0 C194.52 0, 201.5 6.98, 201.5 20.94 M201.5 20.94 C201.5 37.59, 201.5 54.25, 201.5 62.81 M201.5 20.94 C201.5 31.07, 201.5 41.21, 201.5 62.81 M201.5 62.81 C201.5 76.77, 194.52 83.75, 180.56 83.75 M201.5 62.81 C201.5 76.77, 194.52 83.75, 180.56 83.75 M180.56 83.75 C142.67 83.75, 104.77 83.75, 20.94 83.75 M180.56 83.75 C128.06 83.75, 75.55 83.75, 20.94 83.75 M20.94 83.75 C6.98 83.75, 0 76.77, 0 62.81 M20.94 83.75 C6.98 83.75, 0 76.77, 0 62.81 M0 62.81 C0 47.45, 0 32.08, 0 20.94 M0 62.81 C0 49.53, 0 36.24, 0 20.94 M0 20.94 C0 6.98, 6.98 0, 20.94 0 M0 20.94 C0 6.98, 6.98 0, 20.94 0" stroke="#1e1e1e" stroke-width="2" fill="none"></path></g><g transform="translate(1183.279176735809 282.68408203125) rotate(0 59.08995056152344 12.5)"><text x="59.08995056152344" y="17.52" font-family="Virgil, Segoe UI Emoji" font-size="20px" fill="#1e1e1e" text-anchor="middle" style="white-space: pre;" direction="ltr" dominant-baseline="alphabetic">Timetable A</text></g><g mask="url(#mask-NtfvF1rCJP3lm6JR4sJwr)" stroke-linecap="round"><g transform="translate(1174.6183837941087 353.2662543877959) rotate(0 25.776796111959698 47.537000364721735)"><path d="M0 0 C0.59 14, -5.04 68.16, 3.55 84 C12.14 99.85, 43.55 93.23, 51.55 95.07 M0 0 C0.59 14, -5.04 68.16, 3.55 84 C12.14 99.85, 43.55 93.23, 51.55 95.07" stroke="#1e1e1e" stroke-width="2" fill="none"></path></g><g transform="translate(1174.6183837941087 353.2662543877959) rotate(0 25.776796111959698 47.537000364721735)"><path d="M28.27 103.1 C34.68 100.89, 41.1 98.68, 51.55 95.07 M28.27 103.1 C37.36 99.97, 46.45 96.83, 51.55 95.07" stroke="#1e1e1e" stroke-width="2" fill="none"></path></g><g transform="translate(1174.6183837941087 353.2662543877959) rotate(0 25.776796111959698 47.537000364721735)"><path d="M28.55 86.25 C34.89 88.68, 41.23 91.11, 51.55 95.07 M28.55 86.25 C37.54 89.7, 46.52 93.14, 51.55 95.07" stroke="#1e1e1e" stroke-width="2" fill="none"></path></g></g><mask id="mask-NtfvF1rCJP3lm6JR4sJwr"><rect x="0" y="0" fill="#fff" width="1326.171976018028" height="548.3402551172394"></rect><rect x="1168.9097978012157" y="427.2689999563372" fill="#000" width="18.511978149414062" height="20" opacity="1"></rect></mask><g transform="translate(1168.909797801216 427.2689999563372) rotate(0 30.848784280894847 -26.46574520381955)"><text x="9.255989074707031" y="14.016" font-family="Virgil, Segoe UI Emoji" font-size="16px" fill="#1e1e1e" text-anchor="middle" style="white-space: pre;" direction="ltr" dominant-baseline="alphabetic">1:N</text></g><g stroke-linecap="round"><g transform="translate(1243.100474169522 469.77890961745743) rotate(0 31.259326563905006 19.424428377881213)"><path d="M0 0 C2.9 4.16, 6.98 18.49, 17.4 24.97 C27.82 31.44, 55 36.53, 62.52 38.85 M0 0 C2.9 4.16, 6.98 18.49, 17.4 24.97 C27.82 31.44, 55 36.53, 62.52 38.85" stroke="#1e1e1e" stroke-width="2" fill="none"></path></g><g transform="translate(1243.100474169522 469.77890961745743) rotate(0 31.259326563905006 19.424428377881213)"><path d="M39.04 41.26 C47.14 40.43, 55.25 39.59, 62.52 38.85 M39.04 41.26 C48.25 40.31, 57.46 39.37, 62.52 38.85" stroke="#1e1e1e" stroke-width="2" fill="none"></path></g><g transform="translate(1243.100474169522 469.77890961745743) rotate(0 31.259326563905006 19.424428377881213)"><path d="M42.98 25.6 C49.73 30.17, 56.47 34.75, 62.52 38.85 M42.98 25.6 C50.64 30.8, 58.31 35.99, 62.52 38.85" stroke="#1e1e1e" stroke-width="2" fill="none"></path></g></g><mask></mask><g stroke-linecap="round"><g transform="translate(1241.3252544923205 469.4168406519393) rotate(0 31.822717652505844 42.587818680539385)"><path d="M0 0 C1.55 9.07, -1.31 40.24, 9.29 54.43 C19.9 68.63, 54.59 80.05, 63.65 85.18 M0 0 C1.55 9.07, -1.31 40.24, 9.29 54.43 C19.9 68.63, 54.59 80.05, 63.65 85.18" stroke="#1e1e1e" stroke-width="2" fill="none"></path></g><g transform="translate(1241.3252544923205 469.4168406519393) rotate(0 31.822717652505844 42.587818680539385)"><path d="M38.72 83.27 C45.68 83.81, 52.65 84.34, 63.65 85.18 M38.72 83.27 C44.19 83.69, 49.67 84.11, 63.65 85.18" stroke="#1e1e1e" stroke-width="2" fill="none"></path></g><g transform="translate(1241.3252544923205 469.4168406519393) rotate(0 31.822717652505844 42.587818680539385)"><path d="M45.77 67.7 C50.77 72.58, 55.76 77.46, 63.65 85.18 M45.77 67.7 C49.7 71.53, 53.62 75.37, 63.65 85.18" stroke="#1e1e1e" stroke-width="2" fill="none"></path></g></g><mask></mask><g mask="url(#mask-dMl4v__s-xZnmPn9Ohzg6)" stroke-linecap="round"><g transform="translate(1034.465431682533 199.51625438779593) rotate(0 51.076847807399645 58.60520676915439)"><path d="M0 0 C2.46 16.69, -2.24 80.63, 14.79 100.17 C31.81 119.7, 87.59 114.37, 102.15 117.21 M0 0 C2.46 16.69, -2.24 80.63, 14.79 100.17 C31.81 119.7, 87.59 114.37, 102.15 117.21" stroke="#1e1e1e" stroke-width="2" fill="none"></path></g><g transform="translate(1034.465431682533 199.51625438779593) rotate(0 51.076847807399645 58.60520676915439)"><path d="M78.22 124.43 C85.21 122.32, 92.21 120.21, 102.15 117.21 M78.22 124.43 C86.97 121.79, 95.71 119.15, 102.15 117.21" stroke="#1e1e1e" stroke-width="2" fill="none"></path></g><g transform="translate(1034.465431682533 199.51625438779593) rotate(0 51.076847807399645 58.60520676915439)"><path d="M79.18 107.35 C85.89 110.23, 92.61 113.12, 102.15 117.21 M79.18 107.35 C87.58 110.96, 95.97 114.56, 102.15 117.21" stroke="#1e1e1e" stroke-width="2" fill="none"></path></g></g><mask id="mask-dMl4v__s-xZnmPn9Ohzg6"><rect x="0" y="0" fill="#fff" width="1236.6191272973324" height="416.7266679261047"></rect><rect x="1039.9948595776254" y="289.68408203125" fill="#000" width="18.511978149414062" height="20" opacity="1"></rect></mask><g transform="translate(1039.9948595776254 289.68408203125) rotate(0 45.547419912307305 -31.562620874299682)"><text x="9.255989074707031" y="14.016" font-family="Virgil, Segoe UI Emoji" font-size="16px" fill="#1e1e1e" text-anchor="middle" style="white-space: pre;" direction="ltr" dominant-baseline="alphabetic">1:N</text></g><g stroke-linecap="round"><g transform="translate(930.7379199458696 63.5) rotate(0 0 264.54583740234375)"><path d="M1.25 1.83 C1.48 90.37, 0.97 440.91, 1.21 528.96" stroke="#1e1e1e" stroke-width="2.5" fill="none" stroke-dasharray="1.5 8"></path></g></g><mask></mask><g transform="translate(1213.4879199458696 71.63898769468051) rotate(0 73.60800170898438 10)"><text x="0" y="14.016" font-family="Virgil, Segoe UI Emoji" font-size="16px" fill="#1e1e1e" text-anchor="start" style="white-space: pre;" direction="ltr" dominant-baseline="alphabetic">LIVE SNAPSHOT S</text></g><g transform="translate(580.4879199458695 71.63898769468051) rotate(0 75.1760025024414 10)"><text x="0" y="14.016" font-family="Virgil, Segoe UI Emoji" font-size="16px" fill="#1e1e1e" text-anchor="start" style="white-space: pre;" direction="ltr" dominant-baseline="alphabetic">LIVE SNAPSHOT T</text></g><g transform="translate(269.4879199458695 10) rotate(0 105.51200103759766 10)"><text x="0" y="14.016" font-family="Virgil, Segoe UI Emoji" font-size="16px" fill="#1e1e1e" text-anchor="start" style="white-space: pre;" direction="ltr" dominant-baseline="alphabetic">TimetableSnapshotManager</text></g><g stroke-linecap="round" transform="translate(1154.678523621601 312.2662543877959) rotate(0 88.50000000000011 20)"><path d="M10 0 C47.79 0, 85.58 0, 167 0 M10 0 C57.82 0, 105.65 0, 167 0 M167 0 C173.67 0, 177 3.33, 177 10 M167 0 C173.67 0, 177 3.33, 177 10 M177 10 C177 15.34, 177 20.67, 177 30 M177 10 C177 16.73, 177 23.47, 177 30 M177 30 C177 36.67, 173.67 40, 167 40 M177 30 C177 36.67, 173.67 40, 167 40 M167 40 C122.31 40, 77.61 40, 10 40 M167 40 C108.59 40, 50.19 40, 10 40 M10 40 C3.33 40, 0 36.67, 0 30 M10 40 C3.33 40, 0 36.67, 0 30 M0 30 C0 22.95, 0 15.91, 0 10 M0 30 C0 22.68, 0 15.36, 0 10 M0 10 C0 3.33, 3.33 0, 10 0 M0 10 C0 3.33, 3.33 0, 10 0" stroke="#1e1e1e" stroke-width="2" fill="none"></path></g><g transform="translate(1181.5145679331245 322.2662543877959) rotate(0 61.66395568847656 10)"><text x="61.66395568847656" y="14.016" font-family="Virgil, Segoe UI Emoji" font-size="16px" fill="#1e1e1e" text-anchor="middle" style="white-space: pre;" direction="ltr" dominant-baseline="alphabetic">List&lt;TripTimes&gt;</text></g><g stroke-linecap="round" transform="translate(406.7738254594665 112.94123262539506) rotate(0 119.375 50.625)"><path d="M25.31 0 C74.92 0, 124.53 0, 213.44 0 C230.31 0, 238.75 8.44, 238.75 25.31 C238.75 41.86, 238.75 58.41, 238.75 75.94 C238.75 92.81, 230.31 101.25, 213.44 101.25 C145.18 101.25, 76.92 101.25, 25.31 101.25 C8.44 101.25, 0 92.81, 0 75.94 C0 57.63, 0 39.32, 0 25.31 C0 8.44, 8.44 0, 25.31 0" stroke="none" stroke-width="0" fill="#a5d8ff"></path><path d="M25.31 0 C70.27 0, 115.23 0, 213.44 0 M25.31 0 C74.46 0, 123.6 0, 213.44 0 M213.44 0 C230.31 0, 238.75 8.44, 238.75 25.31 M213.44 0 C230.31 0, 238.75 8.44, 238.75 25.31 M238.75 25.31 C238.75 44.81, 238.75 64.3, 238.75 75.94 M238.75 25.31 C238.75 40.03, 238.75 54.74, 238.75 75.94 M238.75 75.94 C238.75 92.81, 230.31 101.25, 213.44 101.25 M238.75 75.94 C238.75 92.81, 230.31 101.25, 213.44 101.25 M213.44 101.25 C160.43 101.25, 107.42 101.25, 25.31 101.25 M213.44 101.25 C168.5 101.25, 123.57 101.25, 25.31 101.25 M25.31 101.25 C8.44 101.25, 0 92.81, 0 75.94 M25.31 101.25 C8.44 101.25, 0 92.81, 0 75.94 M0 75.94 C0 63.73, 0 51.51, 0 25.31 M0 75.94 C0 58.48, 0 41.01, 0 25.31 M0 25.31 C0 8.44, 8.44 0, 25.31 0 M0 25.31 C0 8.44, 8.44 0, 25.31 0" stroke="#1e1e1e" stroke-width="2" fill="none"></path></g><g transform="translate(432.04891853807976 117.94123262539506) rotate(0 94.09990692138672 12.5)"><text x="94.09990692138672" y="17.52" font-family="Virgil, Segoe UI Emoji" font-size="20px" fill="#1e1e1e" text-anchor="middle" style="white-space: pre;" direction="ltr" dominant-baseline="alphabetic">TimetableSnapshot'</text></g><g stroke-linecap="round" transform="translate(421.2082217837351 151.77340498194098) rotate(0 106.00000000000006 25)"><path d="M12.5 0 C82.32 0, 152.14 0, 199.5 0 C207.83 0, 212 4.17, 212 12.5 C212 21.2, 212 29.91, 212 37.5 C212 45.83, 207.83 50, 199.5 50 C130.38 50, 61.26 50, 12.5 50 C4.17 50, 0 45.83, 0 37.5 C0 28.28, 0 19.07, 0 12.5 C0 4.17, 4.17 0, 12.5 0" stroke="none" stroke-width="0" fill="#a5d8ff"></path><path d="M12.5 0 C51.53 0, 90.57 0, 199.5 0 M12.5 0 C76.61 0, 140.71 0, 199.5 0 M199.5 0 C207.83 0, 212 4.17, 212 12.5 M199.5 0 C207.83 0, 212 4.17, 212 12.5 M212 12.5 C212 19.55, 212 26.59, 212 37.5 M212 12.5 C212 18.45, 212 24.4, 212 37.5 M212 37.5 C212 45.83, 207.83 50, 199.5 50 M212 37.5 C212 45.83, 207.83 50, 199.5 50 M199.5 50 C159.09 50, 118.68 50, 12.5 50 M199.5 50 C155.41 50, 111.32 50, 12.5 50 M12.5 50 C4.17 50, 0 45.83, 0 37.5 M12.5 50 C4.17 50, 0 45.83, 0 37.5 M0 37.5 C0 28.04, 0 18.59, 0 12.5 M0 37.5 C0 31.35, 0 25.21, 0 12.5 M0 12.5 C0 4.17, 4.17 0, 12.5 0 M0 12.5 C0 4.17, 4.17 0, 12.5 0" stroke="#1e1e1e" stroke-width="2" fill="none"></path></g><g transform="translate(427.23228489408666 156.77340498194098) rotate(0 99.97593688964844 20)"><text x="99.97593688964844" y="14.016" font-family="Virgil, Segoe UI Emoji" font-size="16px" fill="#1e1e1e" text-anchor="middle" style="white-space: pre;" direction="ltr" dominant-baseline="alphabetic">Map</text><text x="99.97593688964844" y="34.016" font-family="Virgil, Segoe UI Emoji" font-size="16px" fill="#1e1e1e" text-anchor="middle" style="white-space: pre;" direction="ltr" dominant-baseline="alphabetic">TripPattern -&gt; Timetable</text></g><g stroke-linecap="round" transform="translate(472.77382545946637 277.94123262539506) rotate(0 100.75 41.875)"><path d="M20.94 0 C70.56 0, 120.18 0, 180.56 0 C194.52 0, 201.5 6.98, 201.5 20.94 C201.5 31.62, 201.5 42.3, 201.5 62.81 C201.5 76.77, 194.52 83.75, 180.56 83.75 C127.17 83.75, 73.79 83.75, 20.94 83.75 C6.98 83.75, 0 76.77, 0 62.81 C0 47.97, 0 33.13, 0 20.94 C0 6.98, 6.98 0, 20.94 0" stroke="none" stroke-width="0" fill="#a5d8ff"></path><path d="M20.94 0 C63.53 0, 106.13 0, 180.56 0 M20.94 0 C74.69 0, 128.44 0, 180.56 0 M180.56 0 C194.52 0, 201.5 6.98, 201.5 20.94 M180.56 0 C194.52 0, 201.5 6.98, 201.5 20.94 M201.5 20.94 C201.5 32.86, 201.5 44.78, 201.5 62.81 M201.5 20.94 C201.5 36.52, 201.5 52.09, 201.5 62.81 M201.5 62.81 C201.5 76.77, 194.52 83.75, 180.56 83.75 M201.5 62.81 C201.5 76.77, 194.52 83.75, 180.56 83.75 M180.56 83.75 C124.33 83.75, 68.09 83.75, 20.94 83.75 M180.56 83.75 C122.15 83.75, 63.73 83.75, 20.94 83.75 M20.94 83.75 C6.98 83.75, 0 76.77, 0 62.81 M20.94 83.75 C6.98 83.75, 0 76.77, 0 62.81 M0 62.81 C0 46.43, 0 30.06, 0 20.94 M0 62.81 C0 46.13, 0 29.45, 0 20.94 M0 20.94 C0 6.98, 6.98 0, 20.94 0 M0 20.94 C0 6.98, 6.98 0, 20.94 0" stroke="#1e1e1e" stroke-width="2" fill="none"></path></g><g transform="translate(511.7738788652281 282.94123262539506) rotate(0 61.74994659423828 12.5)"><text x="61.74994659423828" y="17.52" font-family="Virgil, Segoe UI Emoji" font-size="20px" fill="#1e1e1e" text-anchor="middle" style="white-space: pre;" direction="ltr" dominant-baseline="alphabetic">Timetable A'</text></g><g mask="url(#mask-0BMFdl0UU16nFIpRdZTlV)" stroke-linecap="round"><g transform="translate(508.3590442159491 353.523404981941) rotate(0 369.1013555248371 30.604750755769373)"><path d="M0 0 C41.66 9.17, 126.93 44.8, 249.96 55 C373 65.2, 656.83 60.18, 738.2 61.21 M0 0 C41.66 9.17, 126.93 44.8, 249.96 55 C373 65.2, 656.83 60.18, 738.2 61.21" stroke="#1e1e1e" stroke-width="2" fill="none"></path></g><g transform="translate(508.3590442159491 353.523404981941) rotate(0 369.1013555248371 30.604750755769373)"><path d="M714.72 69.79 C724.06 66.38, 733.39 62.97, 738.2 61.21 M714.72 69.79 C723.22 66.68, 731.72 63.58, 738.2 61.21" stroke="#1e1e1e" stroke-width="2" fill="none"></path></g><g transform="translate(508.3590442159491 353.523404981941) rotate(0 369.1013555248371 30.604750755769373)"><path d="M714.7 52.69 C724.04 56.07, 733.39 59.46, 738.2 61.21 M714.7 52.69 C723.21 55.77, 731.71 58.86, 738.2 61.21" stroke="#1e1e1e" stroke-width="2" fill="none"></path></g></g><mask id="mask-0BMFdl0UU16nFIpRdZTlV"><rect x="0" y="0" fill="#fff" width="1346.5617552656233" height="514.7329064934797"></rect><rect x="737.5845078652058" y="398.52615055048227" fill="#000" width="41.471954345703125" height="20" opacity="1"></rect></mask><g transform="translate(737.5845078652058 398.52615055048227) rotate(0 139.87589187558046 -14.22335949591411)"><text x="20.735977172851562" y="14.016" font-family="Virgil, Segoe UI Emoji" font-size="16px" fill="#1e1e1e" text-anchor="middle" style="white-space: pre;" direction="ltr" dominant-baseline="alphabetic">1:(N-1)</text></g><g stroke-linecap="round"><g transform="translate(441.7563370225415 202.7734049819419) rotate(0 5.498233700943501 56.63953854346687)"><path d="M0 0 C-3.13 15.99, -23.73 77.04, -18.77 95.92 C-13.81 114.8, 21.68 110.39, 29.77 113.28 M0 0 C-3.13 15.99, -23.73 77.04, -18.77 95.92 C-13.81 114.8, 21.68 110.39, 29.77 113.28" stroke="#1e1e1e" stroke-width="2" fill="none"></path></g><g transform="translate(441.7563370225415 202.7734049819419) rotate(0 5.498233700943501 56.63953854346687)"><path d="M5.47 119.18 C15.13 116.84, 24.79 114.49, 29.77 113.28 M5.47 119.18 C13.37 117.26, 21.26 115.35, 29.77 113.28" stroke="#1e1e1e" stroke-width="2" fill="none"></path></g><g transform="translate(441.7563370225415 202.7734049819419) rotate(0 5.498233700943501 56.63953854346687)"><path d="M7.36 102.19 C16.27 106.59, 25.17 111, 29.77 113.28 M7.36 102.19 C14.64 105.79, 21.92 109.39, 29.77 113.28" stroke="#1e1e1e" stroke-width="2" fill="none"></path></g></g><mask></mask><g stroke-linecap="round" transform="translate(485.8332217837351 312.523404981941) rotate(0 88.50000000000011 20)"><path d="M10 0 C56.88 0, 103.76 0, 167 0 C173.67 0, 177 3.33, 177 10 C177 17.17, 177 24.33, 177 30 C177 36.67, 173.67 40, 167 40 C113.72 40, 60.44 40, 10 40 C3.33 40, 0 36.67, 0 30 C0 23.2, 0 16.4, 0 10 C0 3.33, 3.33 0, 10 0" stroke="none" stroke-width="0" fill="#a5d8ff"></path><path d="M10 0 C49.86 0, 89.72 0, 167 0 M10 0 C52.01 0, 94.03 0, 167 0 M167 0 C173.67 0, 177 3.33, 177 10 M167 0 C173.67 0, 177 3.33, 177 10 M177 10 C177 14.8, 177 19.61, 177 30 M177 10 C177 17.62, 177 25.25, 177 30 M177 30 C177 36.67, 173.67 40, 167 40 M177 30 C177 36.67, 173.67 40, 167 40 M167 40 C119.58 40, 72.16 40, 10 40 M167 40 C108.87 40, 50.73 40, 10 40 M10 40 C3.33 40, 0 36.67, 0 30 M10 40 C3.33 40, 0 36.67, 0 30 M0 30 C0 23.3, 0 16.59, 0 10 M0 30 C0 22.94, 0 15.89, 0 10 M0 10 C0 3.33, 3.33 0, 10 0 M0 10 C0 3.33, 3.33 0, 10 0" stroke="#1e1e1e" stroke-width="2" fill="none"></path></g><g transform="translate(512.6692660952586 322.523404981941) rotate(0 61.66395568847656 10)"><text x="61.66395568847656" y="14.016" font-family="Virgil, Segoe UI Emoji" font-size="16px" fill="#1e1e1e" text-anchor="middle" style="white-space: pre;" direction="ltr" dominant-baseline="alphabetic">List&lt;TripTimes&gt;</text></g><g mask="url(#mask-MnuHCXJPh-qTZN486xFqn)" stroke-linecap="round"><g transform="translate(444.64540836476533 202.77340498194098) rotate(0 360.72008705512195 26.225683318479696)"><path d="M0 0 C27.25 8.21, 43.29 40.54, 163.53 49.29 C283.77 58.03, 628.45 51.92, 721.44 52.45 M0 0 C27.25 8.21, 43.29 40.54, 163.53 49.29 C283.77 58.03, 628.45 51.92, 721.44 52.45" stroke="#1e1e1e" stroke-width="2" fill="none"></path></g><g transform="translate(444.64540836476533 202.77340498194098) rotate(0 360.72008705512195 26.225683318479696)"><path d="M697.99 61.13 C707.02 57.79, 716.05 54.45, 721.44 52.45 M697.99 61.13 C704.81 58.6, 711.62 56.08, 721.44 52.45" stroke="#1e1e1e" stroke-width="2" fill="none"></path></g><g transform="translate(444.64540836476533 202.77340498194098) rotate(0 360.72008705512195 26.225683318479696)"><path d="M697.9 44.03 C706.97 47.27, 716.03 50.51, 721.44 52.45 M697.9 44.03 C704.74 46.47, 711.59 48.92, 721.44 52.45" stroke="#1e1e1e" stroke-width="2" fill="none"></path></g></g><mask id="mask-MnuHCXJPh-qTZN486xFqn"><rect x="0" y="0" fill="#fff" width="1266.0855824750092" height="355.2247716189004"></rect><rect x="587.4372050261301" y="242.0591941231114" fill="#000" width="41.471954345703125" height="20" opacity="1"></rect></mask><g transform="translate(587.4372050261302 242.0591941231114) rotate(0 217.9282903937571 -12.267862690029688)"><text x="20.735977172851562" y="14.016" font-family="Virgil, Segoe UI Emoji" font-size="16px" fill="#1e1e1e" text-anchor="middle" style="white-space: pre;" direction="ltr" dominant-baseline="alphabetic">1:(N-1)</text></g><g stroke-linecap="round"><g transform="translate(505.132689560083 353.523404981941) rotate(0 20.344393409158215 45.85150536963238)"><path d="M0 0 C1.49 12.39, 2.16 59.03, 8.94 74.32 C15.72 89.6, 35.4 88.81, 40.69 91.7 M0 0 C1.49 12.39, 2.16 59.03, 8.94 74.32 C15.72 89.6, 35.4 88.81, 40.69 91.7" stroke="#1e1e1e" stroke-width="2" fill="none"></path></g><g transform="translate(505.132689560083 353.523404981941) rotate(0 20.344393409158215 45.85150536963238)"><path d="M22.65 93.23 C27.74 92.8, 32.82 92.37, 40.69 91.7 M22.65 93.23 C26.94 92.87, 31.24 92.5, 40.69 91.7" stroke="#1e1e1e" stroke-width="2" fill="none"></path></g><g transform="translate(505.132689560083 353.523404981941) rotate(0 20.344393409158215 45.85150536963238)"><path d="M25.89 81.28 C30.06 84.22, 34.23 87.15, 40.69 91.7 M25.89 81.28 C29.41 83.76, 32.93 86.24, 40.69 91.7" stroke="#1e1e1e" stroke-width="2" fill="none"></path></g></g><mask></mask><g stroke-linecap="round" transform="translate(643.7394451283994 536.5916748046875) rotate(0 132.20703125 17.5)"><path d="M8.75 0 C88.9 0, 169.04 0, 255.66 0 C261.5 0, 264.41 2.92, 264.41 8.75 C264.41 14.64, 264.41 20.53, 264.41 26.25 C264.41 32.08, 261.5 35, 255.66 35 C170.78 35, 85.9 35, 8.75 35 C2.92 35, 0 32.08, 0 26.25 C0 22.34, 0 18.43, 0 8.75 C0 2.92, 2.92 0, 8.75 0" stroke="none" stroke-width="0" fill="#a5d8ff"></path><path d="M8.75 0 C99.36 0, 189.98 0, 255.66 0 M8.75 0 C87.08 0, 165.41 0, 255.66 0 M255.66 0 C261.5 0, 264.41 2.92, 264.41 8.75 M255.66 0 C261.5 0, 264.41 2.92, 264.41 8.75 M264.41 8.75 C264.41 13.65, 264.41 18.54, 264.41 26.25 M264.41 8.75 C264.41 15.13, 264.41 21.52, 264.41 26.25 M264.41 26.25 C264.41 32.08, 261.5 35, 255.66 35 M264.41 26.25 C264.41 32.08, 261.5 35, 255.66 35 M255.66 35 C167.42 35, 79.19 35, 8.75 35 M255.66 35 C174.51 35, 93.36 35, 8.75 35 M8.75 35 C2.92 35, 0 32.08, 0 26.25 M8.75 35 C2.92 35, 0 32.08, 0 26.25 M0 26.25 C0 19.34, 0 12.44, 0 8.75 M0 26.25 C0 22.05, 0 17.84, 0 8.75 M0 8.75 C0 2.92, 2.92 0, 8.75 0 M0 8.75 C0 2.92, 2.92 0, 8.75 0" stroke="#1e1e1e" stroke-width="2" fill="none"></path></g><g transform="translate(651.4166072988096 541.5916748046875) rotate(0 124.52986907958984 12.5)"><text x="124.52986907958984" y="17.52" font-family="Virgil, Segoe UI Emoji" font-size="20px" fill="#1e1e1e" text-anchor="middle" style="white-space: pre;" direction="ltr" dominant-baseline="alphabetic">departureTimes' per stop</text></g><g stroke-linecap="round"><g transform="translate(373.1465465898208 65.9399593412877) rotate(0 0 264.54583740234375)"><path d="M-1.2 -0.61 C-0.77 87.48, 0.5 441.37, 1.14 529.75" stroke="#1e1e1e" stroke-width="2.5" fill="none" stroke-dasharray="1.5 8"></path></g></g><mask></mask><g transform="translate(98.875 71.63898769468051) rotate(0 31.527997970581055 10)"><text x="0" y="14.016" font-family="Virgil, Segoe UI Emoji" font-size="16px" fill="#1e1e1e" text-anchor="start" style="white-space: pre;" direction="ltr" dominant-baseline="alphabetic">BUFFER</text></g><g stroke-linecap="round" transform="translate(10 114.01398769468051) rotate(0 119.375 50.625)"><path d="M25.31 0 C66.79 0, 108.26 0, 213.44 0 C230.31 0, 238.75 8.44, 238.75 25.31 C238.75 45.19, 238.75 65.07, 238.75 75.94 C238.75 92.81, 230.31 101.25, 213.44 101.25 C140.44 101.25, 67.45 101.25, 25.31 101.25 C8.44 101.25, 0 92.81, 0 75.94 C0 63.88, 0 51.82, 0 25.31 C0 8.44, 8.44 0, 25.31 0" stroke="none" stroke-width="0" fill="#b2f2bb"></path><path d="M25.31 0 C77.46 0, 129.6 0, 213.44 0 M25.31 0 C75.15 0, 124.98 0, 213.44 0 M213.44 0 C230.31 0, 238.75 8.44, 238.75 25.31 M213.44 0 C230.31 0, 238.75 8.44, 238.75 25.31 M238.75 25.31 C238.75 40.14, 238.75 54.96, 238.75 75.94 M238.75 25.31 C238.75 38.62, 238.75 51.93, 238.75 75.94 M238.75 75.94 C238.75 92.81, 230.31 101.25, 213.44 101.25 M238.75 75.94 C238.75 92.81, 230.31 101.25, 213.44 101.25 M213.44 101.25 C158.05 101.25, 102.65 101.25, 25.31 101.25 M213.44 101.25 C163.2 101.25, 112.96 101.25, 25.31 101.25 M25.31 101.25 C8.44 101.25, 0 92.81, 0 75.94 M25.31 101.25 C8.44 101.25, 0 92.81, 0 75.94 M0 75.94 C0 63.05, 0 50.15, 0 25.31 M0 75.94 C0 60.89, 0 45.84, 0 25.31 M0 25.31 C0 8.44, 8.44 0, 25.31 0 M0 25.31 C0 8.44, 8.44 0, 25.31 0" stroke="#1e1e1e" stroke-width="2" fill="none"></path></g><g transform="translate(32.61509704589844 119.01398769468051) rotate(0 96.75990295410156 12.5)"><text x="96.75990295410156" y="17.52" font-family="Virgil, Segoe UI Emoji" font-size="20px" fill="#1e1e1e" text-anchor="middle" style="white-space: pre;" direction="ltr" dominant-baseline="alphabetic">TimetableSnapshot''</text></g><g stroke-linecap="round" transform="translate(24.43439632426862 152.84616005122643) rotate(0 106.00000000000006 25)"><path d="M12.5 0 C65.92 0, 119.33 0, 199.5 0 C207.83 0, 212 4.17, 212 12.5 C212 21.72, 212 30.95, 212 37.5 C212 45.83, 207.83 50, 199.5 50 C149.07 50, 98.63 50, 12.5 50 C4.17 50, 0 45.83, 0 37.5 C0 31.21, 0 24.93, 0 12.5 C0 4.17, 4.17 0, 12.5 0" stroke="none" stroke-width="0" fill="#b2f2bb"></path><path d="M12.5 0 C57.13 0, 101.75 0, 199.5 0 M12.5 0 C61.32 0, 110.14 0, 199.5 0 M199.5 0 C207.83 0, 212 4.17, 212 12.5 M199.5 0 C207.83 0, 212 4.17, 212 12.5 M212 12.5 C212 20.16, 212 27.83, 212 37.5 M212 12.5 C212 20.68, 212 28.85, 212 37.5 M212 37.5 C212 45.83, 207.83 50, 199.5 50 M212 37.5 C212 45.83, 207.83 50, 199.5 50 M199.5 50 C139.48 50, 79.46 50, 12.5 50 M199.5 50 C160.88 50, 122.26 50, 12.5 50 M12.5 50 C4.17 50, 0 45.83, 0 37.5 M12.5 50 C4.17 50, 0 45.83, 0 37.5 M0 37.5 C0 28.13, 0 18.76, 0 12.5 M0 37.5 C0 30.65, 0 23.79, 0 12.5 M0 12.5 C0 4.17, 4.17 0, 12.5 0 M0 12.5 C0 4.17, 4.17 0, 12.5 0" stroke="#1e1e1e" stroke-width="2" fill="none"></path></g><g transform="translate(30.458459434620238 157.84616005122643) rotate(0 99.97593688964841 20)"><text x="99.97593688964844" y="14.016" font-family="Virgil, Segoe UI Emoji" font-size="16px" fill="#1e1e1e" text-anchor="middle" style="white-space: pre;" direction="ltr" dominant-baseline="alphabetic">Map</text><text x="99.97593688964844" y="34.016" font-family="Virgil, Segoe UI Emoji" font-size="16px" fill="#1e1e1e" text-anchor="middle" style="white-space: pre;" direction="ltr" dominant-baseline="alphabetic">TripPattern -&gt; Timetable</text></g><g stroke-linecap="round"><g transform="translate(140.13846261607432 203.84616005122643) rotate(0 165.51340242702992 55.45270958271885)"><path d="M0 0 C6.87 16.22, -13.93 78.81, 41.24 97.29 C96.41 115.78, 282.73 108.64, 331.03 110.91 M0 0 C6.87 16.22, -13.93 78.81, 41.24 97.29 C96.41 115.78, 282.73 108.64, 331.03 110.91" stroke="#1e1e1e" stroke-width="2" fill="none"></path></g></g><mask></mask><g mask="url(#mask-fs6bZqh-c0qMs9sOI1tNe)" stroke-linecap="round"><g transform="translate(140.1705138400389 203.97250212972904) rotate(0 509.7876283420619 29.642894570585213)"><path d="M0 0 C31.27 9.88, 17.71 50.74, 187.64 59.29 C357.57 67.83, 880.92 52.59, 1019.58 51.25 M0 0 C31.27 9.88, 17.71 50.74, 187.64 59.29 C357.57 67.83, 880.92 52.59, 1019.58 51.25" stroke="#1e1e1e" stroke-width="2" fill="none"></path></g></g><mask id="mask-fs6bZqh-c0qMs9sOI1tNe"><rect x="0" y="0" fill="#fff" width="1259.7457705241627" height="363.25829127089946"></rect><rect x="307.078647036798" y="253.25829127089946" fill="#000" width="41.471954345703125" height="20" opacity="1"></rect></mask><g transform="translate(307.078647036798 253.25829127089946) rotate(0 342.8794951453028 -18.349528739093103)"><text x="20.735977172851562" y="14.016" font-family="Virgil, Segoe UI Emoji" font-size="16px" fill="#1e1e1e" text-anchor="middle" style="white-space: pre;" direction="ltr" dominant-baseline="alphabetic">1:(N-1)</text></g><g stroke-linecap="round" transform="translate(1270.961367290566 384.23603955555336) rotate(0 80 17.5)"><path d="M8.75 0 C51.89 0, 95.04 0, 151.25 0 C157.08 0, 160 2.92, 160 8.75 C160 13.72, 160 18.69, 160 26.25 C160 32.08, 157.08 35, 151.25 35 C95.14 35, 39.03 35, 8.75 35 C2.92 35, 0 32.08, 0 26.25 C0 21.98, 0 17.71, 0 8.75 C0 2.92, 2.92 0, 8.75 0" stroke="none" stroke-width="0" fill="#ffffff"></path><path d="M8.75 0 C59.72 0, 110.7 0, 151.25 0 M8.75 0 C60.33 0, 111.92 0, 151.25 0 M151.25 0 C157.08 0, 160 2.92, 160 8.75 M151.25 0 C157.08 0, 160 2.92, 160 8.75 M160 8.75 C160 15.41, 160 22.06, 160 26.25 M160 8.75 C160 14.02, 160 19.29, 160 26.25 M160 26.25 C160 32.08, 157.08 35, 151.25 35 M160 26.25 C160 32.08, 157.08 35, 151.25 35 M151.25 35 C109.89 35, 68.53 35, 8.75 35 M151.25 35 C109.74 35, 68.23 35, 8.75 35 M8.75 35 C2.92 35, 0 32.08, 0 26.25 M8.75 35 C2.92 35, 0 32.08, 0 26.25 M0 26.25 C0 19.33, 0 12.41, 0 8.75 M0 26.25 C0 21.79, 0 17.32, 0 8.75 M0 8.75 C0 2.92, 2.92 0, 8.75 0 M0 8.75 C0 2.92, 2.92 0, 8.75 0" stroke="#1e1e1e" stroke-width="2" fill="none"></path></g><g transform="translate(1285.6714274101948 389.23603955555336) rotate(0 65.2899398803711 12.5)"><text x="65.2899398803711" y="17.52" font-family="Virgil, Segoe UI Emoji" font-size="20px" fill="#1e1e1e" text-anchor="middle" style="white-space: pre;" direction="ltr" dominant-baseline="alphabetic">TripTimes A3</text></g><g stroke-linecap="round" transform="translate(1465.770763614834 383.47338432589277) rotate(0 73.75 17.5)"><path d="M8.75 0 C56.57 0, 104.4 0, 138.75 0 C144.58 0, 147.5 2.92, 147.5 8.75 C147.5 15.74, 147.5 22.72, 147.5 26.25 C147.5 32.08, 144.58 35, 138.75 35 C111.11 35, 83.47 35, 8.75 35 C2.92 35, 0 32.08, 0 26.25 C0 21.7, 0 17.15, 0 8.75 C0 2.92, 2.92 0, 8.75 0" stroke="none" stroke-width="0" fill="#ffffff"></path><path d="M8.75 0 C51.58 0, 94.4 0, 138.75 0 M8.75 0 C48.7 0, 88.64 0, 138.75 0 M138.75 0 C144.58 0, 147.5 2.92, 147.5 8.75 M138.75 0 C144.58 0, 147.5 2.92, 147.5 8.75 M147.5 8.75 C147.5 13.96, 147.5 19.17, 147.5 26.25 M147.5 8.75 C147.5 14.65, 147.5 20.55, 147.5 26.25 M147.5 26.25 C147.5 32.08, 144.58 35, 138.75 35 M147.5 26.25 C147.5 32.08, 144.58 35, 138.75 35 M138.75 35 C93.25 35, 47.75 35, 8.75 35 M138.75 35 C110.83 35, 82.91 35, 8.75 35 M8.75 35 C2.92 35, 0 32.08, 0 26.25 M8.75 35 C2.92 35, 0 32.08, 0 26.25 M0 26.25 C0 21.63, 0 17, 0 8.75 M0 26.25 C0 21.58, 0 16.91, 0 8.75 M0 8.75 C0 2.92, 2.92 0, 8.75 0 M0 8.75 C0 2.92, 2.92 0, 8.75 0" stroke="#1e1e1e" stroke-width="2" fill="none"></path></g><g transform="translate(1501.6907923013575 388.47338432589277) rotate(0 37.82997131347656 12.5)"><text x="37.82997131347656" y="17.52" font-family="Virgil, Segoe UI Emoji" font-size="20px" fill="#1e1e1e" text-anchor="middle" style="white-space: pre;" direction="ltr" dominant-baseline="alphabetic">Trip A3</text></g><g stroke-linecap="round"><g transform="translate(1432.020763614835 403.47338432589277) rotate(0 88.22321428571388 0)"><path d="M0 0 C29.41 0, 147.04 0, 176.45 0 M0 0 C29.41 0, 147.04 0, 176.45 0" stroke="#1e1e1e" stroke-width="2" fill="none"></path></g><g transform="translate(1432.020763614835 403.47338432589277) rotate(0 88.22321428571388 0)"><path d="M152.95 8.55 C160.15 5.93, 167.35 3.31, 176.45 0 M152.95 8.55 C160.23 5.9, 167.51 3.25, 176.45 0" stroke="#1e1e1e" stroke-width="2" fill="none"></path></g><g transform="translate(1432.020763614835 403.47338432589277) rotate(0 88.22321428571388 0)"><path d="M152.95 -8.55 C160.15 -5.93, 167.35 -3.31, 176.45 0 M152.95 -8.55 C160.23 -5.9, 167.51 -3.25, 176.45 0" stroke="#1e1e1e" stroke-width="2" fill="none"></path></g></g><mask></mask><g stroke-linecap="round" transform="translate(1250.461367290566 407.48603955555336) rotate(0 80 17.5)"><path d="M8.75 0 C55.42 0, 102.08 0, 151.25 0 C157.08 0, 160 2.92, 160 8.75 C160 14.04, 160 19.33, 160 26.25 C160 32.08, 157.08 35, 151.25 35 C97.26 35, 43.27 35, 8.75 35 C2.92 35, 0 32.08, 0 26.25 C0 21.27, 0 16.29, 0 8.75 C0 2.92, 2.92 0, 8.75 0" stroke="none" stroke-width="0" fill="#ffffff"></path><path d="M8.75 0 C61.11 0, 113.48 0, 151.25 0 M8.75 0 C59.54 0, 110.33 0, 151.25 0 M151.25 0 C157.08 0, 160 2.92, 160 8.75 M151.25 0 C157.08 0, 160 2.92, 160 8.75 M160 8.75 C160 13.41, 160 18.07, 160 26.25 M160 8.75 C160 15.15, 160 21.56, 160 26.25 M160 26.25 C160 32.08, 157.08 35, 151.25 35 M160 26.25 C160 32.08, 157.08 35, 151.25 35 M151.25 35 C95.5 35, 39.75 35, 8.75 35 M151.25 35 C120.73 35, 90.2 35, 8.75 35 M8.75 35 C2.92 35, 0 32.08, 0 26.25 M8.75 35 C2.92 35, 0 32.08, 0 26.25 M0 26.25 C0 19.46, 0 12.66, 0 8.75 M0 26.25 C0 21.48, 0 16.7, 0 8.75 M0 8.75 C0 2.92, 2.92 0, 8.75 0 M0 8.75 C0 2.92, 2.92 0, 8.75 0" stroke="#1e1e1e" stroke-width="2" fill="none"></path></g><g transform="translate(1264.861429851601 412.48603955555336) rotate(0 65.59993743896484 12.5)"><text x="65.59993743896484" y="17.52" font-family="Virgil, Segoe UI Emoji" font-size="20px" fill="#1e1e1e" text-anchor="middle" style="white-space: pre;" direction="ltr" dominant-baseline="alphabetic">TripTimes A2</text></g><g stroke-linecap="round" transform="translate(1447.270763614834 406.72338432589277) rotate(0 73.75 17.5)"><path d="M8.75 0 C35.74 0, 62.74 0, 138.75 0 C144.58 0, 147.5 2.92, 147.5 8.75 C147.5 13.44, 147.5 18.14, 147.5 26.25 C147.5 32.08, 144.58 35, 138.75 35 C106.07 35, 73.38 35, 8.75 35 C2.92 35, 0 32.08, 0 26.25 C0 22.25, 0 18.25, 0 8.75 C0 2.92, 2.92 0, 8.75 0" stroke="none" stroke-width="0" fill="#ffffff"></path><path d="M8.75 0 C53.81 0, 98.87 0, 138.75 0 M8.75 0 C51.14 0, 93.52 0, 138.75 0 M138.75 0 C144.58 0, 147.5 2.92, 147.5 8.75 M138.75 0 C144.58 0, 147.5 2.92, 147.5 8.75 M147.5 8.75 C147.5 14.2, 147.5 19.64, 147.5 26.25 M147.5 8.75 C147.5 13.14, 147.5 17.54, 147.5 26.25 M147.5 26.25 C147.5 32.08, 144.58 35, 138.75 35 M147.5 26.25 C147.5 32.08, 144.58 35, 138.75 35 M138.75 35 C105.88 35, 73.02 35, 8.75 35 M138.75 35 C89.14 35, 39.52 35, 8.75 35 M8.75 35 C2.92 35, 0 32.08, 0 26.25 M8.75 35 C2.92 35, 0 32.08, 0 26.25 M0 26.25 C0 22.08, 0 17.92, 0 8.75 M0 26.25 C0 20.23, 0 14.21, 0 8.75 M0 8.75 C0 2.92, 2.92 0, 8.75 0 M0 8.75 C0 2.92, 2.92 0, 8.75 0" stroke="#1e1e1e" stroke-width="2" fill="none"></path></g><g transform="translate(1482.8807947427638 411.72338432589277) rotate(0 38.13996887207031 12.5)"><text x="38.13996887207031" y="17.52" font-family="Virgil, Segoe UI Emoji" font-size="20px" fill="#1e1e1e" text-anchor="middle" style="white-space: pre;" direction="ltr" dominant-baseline="alphabetic">Trip A2</text></g><g stroke-linecap="round"><g transform="translate(1411.520763614835 426.72338432589277) rotate(0 88.75380263819613 0)"><path d="M0 0 C29.58 0, 147.92 0, 177.51 0 M0 0 C29.58 0, 147.92 0, 177.51 0" stroke="#1e1e1e" stroke-width="2" fill="none"></path></g><g transform="translate(1411.520763614835 426.72338432589277) rotate(0 88.75380263819613 0)"><path d="M154.02 8.55 C161.18 5.94, 168.35 3.33, 177.51 0 M154.02 8.55 C162.74 5.38, 171.46 2.2, 177.51 0" stroke="#1e1e1e" stroke-width="2" fill="none"></path></g><g transform="translate(1411.520763614835 426.72338432589277) rotate(0 88.75380263819613 0)"><path d="M154.02 -8.55 C161.18 -5.94, 168.35 -3.33, 177.51 0 M154.02 -8.55 C162.74 -5.38, 171.46 -2.2, 177.51 0" stroke="#1e1e1e" stroke-width="2" fill="none"></path></g></g><mask></mask><g stroke-linecap="round" transform="translate(1228.479236385166 431.81411254784325) rotate(0 80 17.5)"><path d="M8.75 0 C44.58 0, 80.42 0, 151.25 0 C157.08 0, 160 2.92, 160 8.75 C160 13.97, 160 19.19, 160 26.25 C160 32.08, 157.08 35, 151.25 35 C95.13 35, 39.02 35, 8.75 35 C2.92 35, 0 32.08, 0 26.25 C0 21.1, 0 15.95, 0 8.75 C0 2.92, 2.92 0, 8.75 0" stroke="none" stroke-width="0" fill="#ffffff"></path><path d="M8.75 0 C51 0, 93.25 0, 151.25 0 M8.75 0 C51.87 0, 94.98 0, 151.25 0 M151.25 0 C157.08 0, 160 2.92, 160 8.75 M151.25 0 C157.08 0, 160 2.92, 160 8.75 M160 8.75 C160 13.22, 160 17.69, 160 26.25 M160 8.75 C160 12.54, 160 16.32, 160 26.25 M160 26.25 C160 32.08, 157.08 35, 151.25 35 M160 26.25 C160 32.08, 157.08 35, 151.25 35 M151.25 35 C122.32 35, 93.38 35, 8.75 35 M151.25 35 C102.09 35, 52.94 35, 8.75 35 M8.75 35 C2.92 35, 0 32.08, 0 26.25 M8.75 35 C2.92 35, 0 32.08, 0 26.25 M0 26.25 C0 19.27, 0 12.29, 0 8.75 M0 26.25 C0 22.16, 0 18.07, 0 8.75 M0 8.75 C0 2.92, 2.92 0, 8.75 0 M0 8.75 C0 2.92, 2.92 0, 8.75 0" stroke="#1e1e1e" stroke-width="2" fill="none"></path></g><g transform="translate(1247.289294978916 436.81411254784325) rotate(0 61.18994140625 12.5)"><text x="61.18994140625" y="17.52" font-family="Virgil, Segoe UI Emoji" font-size="20px" fill="#1e1e1e" text-anchor="middle" style="white-space: pre;" direction="ltr" dominant-baseline="alphabetic">TripTimes A1</text></g><g stroke-linecap="round" transform="translate(1423.288632709434 431.05145731818266) rotate(0 73.75 17.5)"><path d="M8.75 0 C48.28 0, 87.82 0, 138.75 0 C144.58 0, 147.5 2.92, 147.5 8.75 C147.5 13.19, 147.5 17.62, 147.5 26.25 C147.5 32.08, 144.58 35, 138.75 35 C100.04 35, 61.33 35, 8.75 35 C2.92 35, 0 32.08, 0 26.25 C0 21.7, 0 17.15, 0 8.75 C0 2.92, 2.92 0, 8.75 0" stroke="none" stroke-width="0" fill="#ffffff"></path><path d="M8.75 0 C42.46 0, 76.16 0, 138.75 0 M8.75 0 C39.73 0, 70.71 0, 138.75 0 M138.75 0 C144.58 0, 147.5 2.92, 147.5 8.75 M138.75 0 C144.58 0, 147.5 2.92, 147.5 8.75 M147.5 8.75 C147.5 12.67, 147.5 16.59, 147.5 26.25 M147.5 8.75 C147.5 14.82, 147.5 20.9, 147.5 26.25 M147.5 26.25 C147.5 32.08, 144.58 35, 138.75 35 M147.5 26.25 C147.5 32.08, 144.58 35, 138.75 35 M138.75 35 C95.42 35, 52.09 35, 8.75 35 M138.75 35 C92.28 35, 45.8 35, 8.75 35 M8.75 35 C2.92 35, 0 32.08, 0 26.25 M8.75 35 C2.92 35, 0 32.08, 0 26.25 M0 26.25 C0 22.45, 0 18.65, 0 8.75 M0 26.25 C0 20.65, 0 15.05, 0 8.75 M0 8.75 C0 2.92, 2.92 0, 8.75 0 M0 8.75 C0 2.92, 2.92 0, 8.75 0" stroke="#1e1e1e" stroke-width="2" fill="none"></path></g><g transform="translate(1463.3086598700786 436.05145731818266) rotate(0 33.72997283935547 12.5)"><text x="33.72997283935547" y="17.52" font-family="Virgil, Segoe UI Emoji" font-size="20px" fill="#1e1e1e" text-anchor="middle" style="white-space: pre;" direction="ltr" dominant-baseline="alphabetic">Trip A1</text></g><g stroke-linecap="round"><g transform="translate(1389.5386327094345 451.05145731818266) rotate(0 16.374999999999773 0)"><path d="M0 0 C5.46 0, 27.29 0, 32.75 0 M0 0 C5.46 0, 27.29 0, 32.75 0" stroke="#1e1e1e" stroke-width="2" fill="none"></path></g><g transform="translate(1389.5386327094345 451.05145731818266) rotate(0 16.374999999999773 0)"><path d="M17.36 5.6 C22.7 3.66, 28.04 1.71, 32.75 0 M17.36 5.6 C22.69 3.66, 28.01 1.73, 32.75 0" stroke="#1e1e1e" stroke-width="2" fill="none"></path></g><g transform="translate(1389.5386327094345 451.05145731818266) rotate(0 16.374999999999773 0)"><path d="M17.36 -5.6 C22.7 -3.66, 28.04 -1.71, 32.75 0 M17.36 -5.6 C22.69 -3.66, 28.01 -1.73, 32.75 0" stroke="#1e1e1e" stroke-width="2" fill="none"></path></g></g><mask></mask><g stroke-linecap="round" transform="translate(1420.277997970581 46.165652412283634) rotate(0 156.5 47.5)"><path d="M23.75 0 C82.83 0, 141.9 0, 289.25 0 M23.75 0 C88.36 0, 152.97 0, 289.25 0 M289.25 0 C305.08 0, 313 7.92, 313 23.75 M289.25 0 C305.08 0, 313 7.92, 313 23.75 M313 23.75 C313 34.81, 313 45.86, 313 71.25 M313 23.75 C313 39.15, 313 54.55, 313 71.25 M313 71.25 C313 87.08, 305.08 95, 289.25 95 M313 71.25 C313 87.08, 305.08 95, 289.25 95 M289.25 95 C206.96 95, 124.66 95, 23.75 95 M289.25 95 C202.06 95, 114.86 95, 23.75 95 M23.75 95 C7.92 95, 0 87.08, 0 71.25 M23.75 95 C7.92 95, 0 87.08, 0 71.25 M0 71.25 C0 59.55, 0 47.85, 0 23.75 M0 71.25 C0 54.93, 0 38.6, 0 23.75 M0 23.75 C0 7.92, 7.92 0, 23.75 0 M0 23.75 C0 7.92, 7.92 0, 23.75 0" stroke="#1e1e1e" stroke-width="2" fill="none"></path></g><g transform="translate(1540.4820232391357 51.165652412283634) rotate(0 36.29597473144531 10)"><text x="36.29597473144531" y="14.016" font-family="Virgil, Segoe UI Emoji" font-size="16px" fill="#1e1e1e" text-anchor="middle" style="white-space: pre;" direction="ltr" dominant-baseline="alphabetic">Requests</text></g><g stroke-linecap="round" transform="translate(1629.277997970581 80.16565241228363) rotate(0 46.02884615384619 25)"><path d="M12.5 0 C38.05 0, 63.6 0, 79.56 0 M12.5 0 C34.67 0, 56.85 0, 79.56 0 M79.56 0 C87.89 0, 92.06 4.17, 92.06 12.5 M79.56 0 C87.89 0, 92.06 4.17, 92.06 12.5 M92.06 12.5 C92.06 19.97, 92.06 27.45, 92.06 37.5 M92.06 12.5 C92.06 20, 92.06 27.5, 92.06 37.5 M92.06 37.5 C92.06 45.83, 87.89 50, 79.56 50 M92.06 37.5 C92.06 45.83, 87.89 50, 79.56 50 M79.56 50 C60.34 50, 41.13 50, 12.5 50 M79.56 50 C60.61 50, 41.66 50, 12.5 50 M12.5 50 C4.17 50, 0 45.83, 0 37.5 M12.5 50 C4.17 50, 0 45.83, 0 37.5 M0 37.5 C0 32.34, 0 27.18, 0 12.5 M0 37.5 C0 28.22, 0 18.94, 0 12.5 M0 12.5 C0 4.17, 4.17 0, 12.5 0 M0 12.5 C0 4.17, 4.17 0, 12.5 0" stroke="#1e1e1e" stroke-width="2" fill="none"></path></g><g transform="translate(1641.0508626791147 85.16565241228363) rotate(0 34.2559814453125 20)"><text x="34.2559814453125" y="14.016" font-family="Virgil, Segoe UI Emoji" font-size="16px" fill="#1e1e1e" text-anchor="middle" style="white-space: pre;" direction="ltr" dominant-baseline="alphabetic">Thread 1</text><text x="34.2559814453125" y="34.016" font-family="Virgil, Segoe UI Emoji" font-size="16px" fill="#1e1e1e" text-anchor="middle" style="white-space: pre;" direction="ltr" dominant-baseline="alphabetic">Routing</text></g><g stroke-linecap="round" transform="translate(1531.277997970581 80.16565241228363) rotate(0 46 25)"><path d="M12.5 0 C34.11 0, 55.72 0, 79.5 0 M12.5 0 C36.2 0, 59.9 0, 79.5 0 M79.5 0 C87.83 0, 92 4.17, 92 12.5 M79.5 0 C87.83 0, 92 4.17, 92 12.5 M92 12.5 C92 20.88, 92 29.26, 92 37.5 M92 12.5 C92 18.93, 92 25.36, 92 37.5 M92 37.5 C92 45.83, 87.83 50, 79.5 50 M92 37.5 C92 45.83, 87.83 50, 79.5 50 M79.5 50 C59.93 50, 40.36 50, 12.5 50 M79.5 50 C63.27 50, 47.04 50, 12.5 50 M12.5 50 C4.17 50, 0 45.83, 0 37.5 M12.5 50 C4.17 50, 0 45.83, 0 37.5 M0 37.5 C0 31.84, 0 26.19, 0 12.5 M0 37.5 C0 29.84, 0 22.19, 0 12.5 M0 12.5 C0 4.17, 4.17 0, 12.5 0 M0 12.5 C0 4.17, 4.17 0, 12.5 0" stroke="#1e1e1e" stroke-width="2" fill="none"></path></g><g transform="translate(1539.4940166473389 85.16565241228363) rotate(0 37.78398132324219 20)"><text x="37.78398132324219" y="14.016" font-family="Virgil, Segoe UI Emoji" font-size="16px" fill="#1e1e1e" text-anchor="middle" style="white-space: pre;" direction="ltr" dominant-baseline="alphabetic">Thread 2</text><text x="37.78398132324219" y="34.016" font-family="Virgil, Segoe UI Emoji" font-size="16px" fill="#1e1e1e" text-anchor="middle" style="white-space: pre;" direction="ltr" dominant-baseline="alphabetic">GraphQL</text></g><g stroke-linecap="round" transform="translate(1433.277997970581 80.16565241228363) rotate(0 46.04166666666663 25)"><path d="M12.5 0 C28.68 0, 44.85 0, 79.58 0 M12.5 0 C37.02 0, 61.54 0, 79.58 0 M79.58 0 C87.92 0, 92.08 4.17, 92.08 12.5 M79.58 0 C87.92 0, 92.08 4.17, 92.08 12.5 M92.08 12.5 C92.08 19.17, 92.08 25.83, 92.08 37.5 M92.08 12.5 C92.08 17.94, 92.08 23.38, 92.08 37.5 M92.08 37.5 C92.08 45.83, 87.92 50, 79.58 50 M92.08 37.5 C92.08 45.83, 87.92 50, 79.58 50 M79.58 50 C53.89 50, 28.2 50, 12.5 50 M79.58 50 C52.9 50, 26.22 50, 12.5 50 M12.5 50 C4.17 50, 0 45.83, 0 37.5 M12.5 50 C4.17 50, 0 45.83, 0 37.5 M0 37.5 C0 30.16, 0 22.83, 0 12.5 M0 37.5 C0 29.8, 0 22.1, 0 12.5 M0 12.5 C0 4.17, 4.17 0, 12.5 0 M0 12.5 C0 4.17, 4.17 0, 12.5 0" stroke="#1e1e1e" stroke-width="2" fill="none"></path></g><g transform="translate(1441.7836844126384 85.16565241228363) rotate(0 37.535980224609375 20)"><text x="37.535980224609375" y="14.016" font-family="Virgil, Segoe UI Emoji" font-size="16px" fill="#1e1e1e" text-anchor="middle" style="white-space: pre;" direction="ltr" dominant-baseline="alphabetic">Thread 3</text><text x="37.535980224609375" y="34.016" font-family="Virgil, Segoe UI Emoji" font-size="16px" fill="#1e1e1e" text-anchor="middle" style="white-space: pre;" direction="ltr" dominant-baseline="alphabetic">Idle</text></g><g stroke-linecap="round"><g transform="translate(1672.4565988054462 131.16565241228363) rotate(0 -237.08930041743258 28.4732666015625)"><path d="M0 0 C-30.2 8.32, -102.15 40.46, -181.18 49.95 C-260.21 59.44, -425.35 55.78, -474.18 56.95 M0 0 C-30.2 8.32, -102.15 40.46, -181.18 49.95 C-260.21 59.44, -425.35 55.78, -474.18 56.95" stroke="#1e1e1e" stroke-width="2" fill="none"></path></g><g transform="translate(1672.4565988054462 131.16565241228363) rotate(0 -237.08930041743258 28.4732666015625)"><path d="M-450.71 48.32 C-458.18 51.06, -465.64 53.81, -474.18 56.95 M-450.71 48.32 C-456.14 50.31, -461.57 52.31, -474.18 56.95" stroke="#1e1e1e" stroke-width="2" fill="none"></path></g><g transform="translate(1672.4565988054462 131.16565241228363) rotate(0 -237.08930041743258 28.4732666015625)"><path d="M-450.66 65.42 C-458.14 62.72, -465.62 60.03, -474.18 56.95 M-450.66 65.42 C-456.1 63.46, -461.54 61.5, -474.18 56.95" stroke="#1e1e1e" stroke-width="2" fill="none"></path></g></g><mask></mask><g stroke-linecap="round"><g transform="translate(1575.577119968556 131.16565241228363) rotate(0 -189.39956099898745 15.308166503906477)"><path d="M0 0 C-19.13 4.27, -51.67 20.51, -114.8 25.62 C-177.93 30.72, -334.8 29.78, -378.8 30.62 M0 0 C-19.13 4.27, -51.67 20.51, -114.8 25.62 C-177.93 30.72, -334.8 29.78, -378.8 30.62" stroke="#1e1e1e" stroke-width="2" fill="none"></path></g><g transform="translate(1575.577119968556 131.16565241228363) rotate(0 -189.39956099898745 15.308166503906477)"><path d="M-355.37 21.89 C-364.72 25.37, -374.07 28.85, -378.8 30.62 M-355.37 21.89 C-362.89 24.69, -370.41 27.49, -378.8 30.62" stroke="#1e1e1e" stroke-width="2" fill="none"></path></g><g transform="translate(1575.577119968556 131.16565241228363) rotate(0 -189.39956099898745 15.308166503906477)"><path d="M-355.24 38.99 C-364.64 35.65, -374.04 32.31, -378.8 30.62 M-355.24 38.99 C-362.8 36.3, -370.36 33.62, -378.8 30.62" stroke="#1e1e1e" stroke-width="2" fill="none"></path></g></g><mask></mask></svg>