<svg version="1.1" xmlns="http://www.w3.org/2000/svg" viewBox="0 0 1849.6519214107134 603.6187836974859" width="3699.3038428214268" height="1207.2375673949718">
  <!-- svg-source:excalidraw -->
  
  <defs>
    <style class="style-fonts">
      @font-face {
        font-family: "Virgil";
        src: url("https://excalidraw.com/Virgil.woff2");
      }
      @font-face {
        font-family: "Cascadia";
        src: url("https://excalidraw.com/Cascadia.woff2");
      }
      @font-face {
        font-family: "Assistant";
        src: url("https://excalidraw.com/Assistant-Regular.woff2");
      }
    </style>
    
  </defs>
  <rect x="0" y="0" width="1849.6519214107134" height="603.6187836974859" fill="#ffffff"></rect><g stroke-linecap="round"><g transform="translate(746.2789175870797 469.64541621262106) rotate(0 205.52127939565946 25.318416357113165)"><path d="M0 0 C23.9 5.7, 74.92 25.78, 143.42 34.22 C211.93 42.65, 366.44 47.9, 411.04 50.64 M0 0 C23.9 5.7, 74.92 25.78, 143.42 34.22 C211.93 42.65, 366.44 47.9, 411.04 50.64" stroke="#1e1e1e" stroke-width="2" fill="none"></path></g><g transform="translate(746.2789175870797 469.64541621262106) rotate(0 205.52127939565946 25.318416357113165)"><path d="M387.16 58.03 C395.65 55.4, 404.13 52.77, 411.04 50.64 M387.16 58.03 C396.55 55.12, 405.94 52.22, 411.04 50.64" stroke="#1e1e1e" stroke-width="2" fill="none"></path></g><g transform="translate(746.2789175870797 469.64541621262106) rotate(0 205.52127939565946 25.318416357113165)"><path d="M388 40.95 C396.19 44.39, 404.38 47.83, 411.04 50.64 M388 40.95 C397.06 44.76, 406.12 48.57, 411.04 50.64" stroke="#1e1e1e" stroke-width="2" fill="none"></path></g></g><mask></mask><g stroke-linecap="round"><g transform="translate(738.9746771531344 469.64541621262106) rotate(0 22.459758438885444 39.89230943238135)"><path d="M0 0 C0.51 11.46, -4.42 55.49, 3.07 68.79 C10.55 82.09, 37.94 77.95, 44.92 79.78 M0 0 C0.51 11.46, -4.42 55.49, 3.07 68.79 C10.55 82.09, 37.94 77.95, 44.92 79.78" stroke="#1e1e1e" stroke-width="2" fill="none"></path></g><g transform="translate(738.9746771531344 469.64541621262106) rotate(0 22.459758438885444 39.89230943238135)"><path d="M24.17 85.9 C31.4 83.77, 38.64 81.64, 44.92 79.78 M24.17 85.9 C30.93 83.91, 37.69 81.92, 44.92 79.78" stroke="#1e1e1e" stroke-width="2" fill="none"></path></g><g transform="translate(738.9746771531344 469.64541621262106) rotate(0 22.459758438885444 39.89230943238135)"><path d="M25.09 71.13 C32 74.15, 38.92 77.16, 44.92 79.78 M25.09 71.13 C31.55 73.95, 38.01 76.77, 44.92 79.78" stroke="#1e1e1e" stroke-width="2" fill="none"></path></g></g><mask></mask><g stroke-linecap="round" transform="translate(693.5714763783994 433.64541621262106) rotate(0 79.99999999999994 17.5)"><path d="M8.75 0 C46.57 0, 84.4 0, 151.25 0 C157.08 0, 160 2.92, 160 8.75 C160 15.08, 160 21.41, 160 26.25 C160 32.08, 157.08 35, 151.25 35 C99.88 35, 48.52 35, 8.75 35 C2.92 35, 0 32.08, 0 26.25 C0 21.48, 0 16.72, 0 8.75 C0 2.92, 2.92 0, 8.75 0" stroke="none" stroke-width="0" fill="#a5d8ff"></path><path d="M8.75 0 C45.03 0, 81.31 0, 151.25 0 M8.75 0 C60.65 0, 112.54 0, 151.25 0 M151.25 0 C157.08 0, 160 2.92, 160 8.75 M151.25 0 C157.08 0, 160 2.92, 160 8.75 M160 8.75 C160 15.21, 160 21.68, 160 26.25 M160 8.75 C160 15.28, 160 21.82, 160 26.25 M160 26.25 C160 32.08, 157.08 35, 151.25 35 M160 26.25 C160 32.08, 157.08 35, 151.25 35 M151.25 35 C117.36 35, 83.48 35, 8.75 35 M151.25 35 C113.53 35, 75.81 35, 8.75 35 M8.75 35 C2.92 35, 0 32.08, 0 26.25 M8.75 35 C2.92 35, 0 32.08, 0 26.25 M0 26.25 C0 20.86, 0 15.48, 0 8.75 M0 26.25 C0 19.83, 0 13.42, 0 8.75 M0 8.75 C0 2.92, 2.92 0, 8.75 0 M0 8.75 C0 2.92, 2.92 0, 8.75 0" stroke="#1e1e1e" stroke-width="2" fill="none"></path></g><g transform="translate(709.7215389394346 438.64541621262106) rotate(0 63.849937438964844 12.5)"><text x="63.849937438964844" y="17.52" font-family="Virgil, Segoe UI Emoji" font-size="20px" fill="#1e1e1e" text-anchor="middle" style="white-space: pre;" direction="ltr" dominant-baseline="alphabetic">TripTimes A1'</text></g><g stroke-linecap="round"><g transform="translate(753.9393176440466 469.64541621262106) rotate(0 262.8148254694547 12.6585483836202)"><path d="M0 0 C44.31 4.66, 178.28 28.38, 265.88 27.95 C353.49 27.51, 482.34 2.47, 525.63 -2.63 M0 0 C44.31 4.66, 178.28 28.38, 265.88 27.95 C353.49 27.51, 482.34 2.47, 525.63 -2.63" stroke="#1e1e1e" stroke-width="2" fill="none"></path></g><g transform="translate(753.9393176440466 469.64541621262106) rotate(0 262.8148254694547 12.6585483836202)"><path d="M503.66 9.3 C512.29 4.61, 520.93 -0.08, 525.63 -2.63 M503.66 9.3 C509.91 5.91, 516.15 2.52, 525.63 -2.63" stroke="#1e1e1e" stroke-width="2" fill="none"></path></g><g transform="translate(753.9393176440466 469.64541621262106) rotate(0 262.8148254694547 12.6585483836202)"><path d="M501.13 -7.61 C510.76 -5.65, 520.39 -3.7, 525.63 -2.63 M501.13 -7.61 C508.1 -6.19, 515.06 -4.78, 525.63 -2.63" stroke="#1e1e1e" stroke-width="2" fill="none"></path></g></g><mask></mask><g stroke-linecap="round" transform="translate(1037.0238254594665 235.19123262539506) rotate(0 100.75 41.875)"><path d="M20.94 0 C62.17 0, 103.39 0, 180.56 0 C194.52 0, 201.5 6.98, 201.5 20.94 C201.5 31.39, 201.5 41.84, 201.5 62.81 C201.5 76.77, 194.52 83.75, 180.56 83.75 C142.86 83.75, 105.15 83.75, 20.94 83.75 C6.98 83.75, 0 76.77, 0 62.81 C0 53.54, 0 44.27, 0 20.94 C0 6.98, 6.98 0, 20.94 0" stroke="none" stroke-width="0" fill="#ffffff"></path><path d="M20.94 0 C66.92 0, 112.9 0, 180.56 0 M20.94 0 C73.5 0, 126.07 0, 180.56 0 M180.56 0 C194.52 0, 201.5 6.98, 201.5 20.94 M180.56 0 C194.52 0, 201.5 6.98, 201.5 20.94 M201.5 20.94 C201.5 29.85, 201.5 38.76, 201.5 62.81 M201.5 20.94 C201.5 30.36, 201.5 39.78, 201.5 62.81 M201.5 62.81 C201.5 76.77, 194.52 83.75, 180.56 83.75 M201.5 62.81 C201.5 76.77, 194.52 83.75, 180.56 83.75 M180.56 83.75 C121.51 83.75, 62.45 83.75, 20.94 83.75 M180.56 83.75 C137.49 83.75, 94.41 83.75, 20.94 83.75 M20.94 83.75 C6.98 83.75, 0 76.77, 0 62.81 M20.94 83.75 C6.98 83.75, 0 76.77, 0 62.81 M0 62.81 C0 48.14, 0 33.47, 0 20.94 M0 62.81 C0 47.67, 0 32.53, 0 20.94 M0 20.94 C0 6.98, 6.98 0, 20.94 0 M0 20.94 C0 6.98, 6.98 0, 20.94 0" stroke="#1e1e1e" stroke-width="2" fill="none"></path></g><g transform="translate(1078.803877644525 240.19123262539506) rotate(0 58.969947814941406 12.5)"><text x="58.969947814941406" y="17.52" font-family="Virgil, Segoe UI Emoji" font-size="20px" fill="#1e1e1e" text-anchor="middle" style="white-space: pre;" direction="ltr" dominant-baseline="alphabetic">Timetable C</text></g><g stroke-linecap="round" transform="translate(1016.2738254594666 256.69123262539506) rotate(0 100.75 41.875)"><path d="M20.94 0 C63.69 0, 106.44 0, 180.56 0 C194.52 0, 201.5 6.98, 201.5 20.94 C201.5 32.67, 201.5 44.39, 201.5 62.81 C201.5 76.77, 194.52 83.75, 180.56 83.75 C123.81 83.75, 67.05 83.75, 20.94 83.75 C6.98 83.75, 0 76.77, 0 62.81 C0 48.39, 0 33.96, 0 20.94 C0 6.98, 6.98 0, 20.94 0" stroke="none" stroke-width="0" fill="#ffffff"></path><path d="M20.94 0 C67.47 0, 113.99 0, 180.56 0 M20.94 0 C66.28 0, 111.63 0, 180.56 0 M180.56 0 C194.52 0, 201.5 6.98, 201.5 20.94 M180.56 0 C194.52 0, 201.5 6.98, 201.5 20.94 M201.5 20.94 C201.5 31.92, 201.5 42.9, 201.5 62.81 M201.5 20.94 C201.5 35.04, 201.5 49.13, 201.5 62.81 M201.5 62.81 C201.5 76.77, 194.52 83.75, 180.56 83.75 M201.5 62.81 C201.5 76.77, 194.52 83.75, 180.56 83.75 M180.56 83.75 C136.79 83.75, 93.03 83.75, 20.94 83.75 M180.56 83.75 C140.81 83.75, 101.06 83.75, 20.94 83.75 M20.94 83.75 C6.98 83.75, 0 76.77, 0 62.81 M20.94 83.75 C6.98 83.75, 0 76.77, 0 62.81 M0 62.81 C0 49.28, 0 35.75, 0 20.94 M0 62.81 C0 52.79, 0 42.78, 0 20.94 M0 20.94 C0 6.98, 6.98 0, 20.94 0 M0 20.94 C0 6.98, 6.98 0, 20.94 0" stroke="#1e1e1e" stroke-width="2" fill="none"></path></g><g transform="translate(1057.2238758134704 261.69123262539506) rotate(0 59.799949645996094 12.5)"><text x="59.799949645996094" y="17.52" font-family="Virgil, Segoe UI Emoji" font-size="20px" fill="#1e1e1e" text-anchor="middle" style="white-space: pre;" direction="ltr" dominant-baseline="alphabetic">Timetable B</text></g><g stroke-linecap="round" transform="translate(1575.8691272973315 112.18408203125) rotate(0 119.375 50.625)"><path d="M25.31 0 C96.71 0, 168.1 0, 213.44 0 C230.31 0, 238.75 8.44, 238.75 25.31 C238.75 43.74, 238.75 62.17, 238.75 75.94 C238.75 92.81, 230.31 101.25, 213.44 101.25 C166.81 101.25, 120.18 101.25, 25.31 101.25 C8.44 101.25, 0 92.81, 0 75.94 C0 64.61, 0 53.29, 0 25.31 C0 8.44, 8.44 0, 25.31 0" stroke="none" stroke-width="0" fill="#ffc9c9"></path><path d="M25.31 0 C80.83 0, 136.34 0, 213.44 0 M25.31 0 C86.51 0, 147.71 0, 213.44 0 M213.44 0 C230.31 0, 238.75 8.44, 238.75 25.31 M213.44 0 C230.31 0, 238.75 8.44, 238.75 25.31 M238.75 25.31 C238.75 38.98, 238.75 52.66, 238.75 75.94 M238.75 25.31 C238.75 36.38, 238.75 47.46, 238.75 75.94 M238.75 75.94 C238.75 92.81, 230.31 101.25, 213.44 101.25 M238.75 75.94 C238.75 92.81, 230.31 101.25, 213.44 101.25 M213.44 101.25 C162.01 101.25, 110.59 101.25, 25.31 101.25 M213.44 101.25 C165.59 101.25, 117.74 101.25, 25.31 101.25 M25.31 101.25 C8.44 101.25, 0 92.81, 0 75.94 M25.31 101.25 C8.44 101.25, 0 92.81, 0 75.94 M0 75.94 C0 65.54, 0 55.15, 0 25.31 M0 75.94 C0 62.24, 0 48.54, 0 25.31 M0 25.31 C0 8.44, 8.44 0, 25.31 0 M0 25.31 C0 8.44, 8.44 0, 25.31 0" stroke="#1e1e1e" stroke-width="2" fill="none"></path></g><g transform="translate(1603.8042164086596 117.18408203125) rotate(0 91.43991088867188 12.5)"><text x="91.43991088867188" y="17.52" font-family="Virgil, Segoe UI Emoji" font-size="20px" fill="#1e1e1e" text-anchor="middle" style="white-space: pre;" direction="ltr" dominant-baseline="alphabetic">TimetableSnapshot</text></g><g stroke-linecap="round" transform="translate(1590.3035236216006 151.01625438779593) rotate(0 106 25)"><path d="M12.5 0 C86.61 0, 160.71 0, 199.5 0 C207.83 0, 212 4.17, 212 12.5 C212 19.73, 212 26.96, 212 37.5 C212 45.83, 207.83 50, 199.5 50 C146.24 50, 92.99 50, 12.5 50 C4.17 50, 0 45.83, 0 37.5 C0 28.05, 0 18.61, 0 12.5 C0 4.17, 4.17 0, 12.5 0" stroke="none" stroke-width="0" fill="#ffc9c9"></path><path d="M12.5 0 C54.92 0, 97.34 0, 199.5 0 M12.5 0 C73.87 0, 135.25 0, 199.5 0 M199.5 0 C207.83 0, 212 4.17, 212 12.5 M199.5 0 C207.83 0, 212 4.17, 212 12.5 M212 12.5 C212 20.83, 212 29.15, 212 37.5 M212 12.5 C212 19.44, 212 26.38, 212 37.5 M212 37.5 C212 45.83, 207.83 50, 199.5 50 M212 37.5 C212 45.83, 207.83 50, 199.5 50 M199.5 50 C155.95 50, 112.41 50, 12.5 50 M199.5 50 C157.71 50, 115.92 50, 12.5 50 M12.5 50 C4.17 50, 0 45.83, 0 37.5 M12.5 50 C4.17 50, 0 45.83, 0 37.5 M0 37.5 C0 31.72, 0 25.94, 0 12.5 M0 37.5 C0 29.38, 0 21.27, 0 12.5 M0 12.5 C0 4.17, 4.17 0, 12.5 0 M0 12.5 C0 4.17, 4.17 0, 12.5 0" stroke="#1e1e1e" stroke-width="2" fill="none"></path></g><g transform="translate(1596.3275867319521 156.01625438779593) rotate(0 99.97593688964844 20)"><text x="99.97593688964844" y="14.016" font-family="Virgil, Segoe UI Emoji" font-size="16px" fill="#1e1e1e" text-anchor="middle" style="white-space: pre;" direction="ltr" dominant-baseline="alphabetic">Map</text><text x="99.97593688964844" y="34.016" font-family="Virgil, Segoe UI Emoji" font-size="16px" fill="#1e1e1e" text-anchor="middle" style="white-space: pre;" direction="ltr" dominant-baseline="alphabetic">TripPattern -&gt; Timetable</text></g><g stroke-linecap="round" transform="translate(1159.6191272973324 504.6781481104099) rotate(0 138.75 17.5)"><path d="M8.75 0 C95.48 0, 182.21 0, 268.75 0 C274.58 0, 277.5 2.92, 277.5 8.75 C277.5 12.79, 277.5 16.82, 277.5 26.25 C277.5 32.08, 274.58 35, 268.75 35 C203.61 35, 138.47 35, 8.75 35 C2.92 35, 0 32.08, 0 26.25 C0 20.76, 0 15.27, 0 8.75 C0 2.92, 2.92 0, 8.75 0" stroke="none" stroke-width="0" fill="#ffffff"></path><path d="M8.75 0 C67.81 0, 126.86 0, 268.75 0 M8.75 0 C101.17 0, 193.59 0, 268.75 0 M268.75 0 C274.58 0, 277.5 2.92, 277.5 8.75 M268.75 0 C274.58 0, 277.5 2.92, 277.5 8.75 M277.5 8.75 C277.5 15.06, 277.5 21.37, 277.5 26.25 M277.5 8.75 C277.5 14.12, 277.5 19.5, 277.5 26.25 M277.5 26.25 C277.5 32.08, 274.58 35, 268.75 35 M277.5 26.25 C277.5 32.08, 274.58 35, 268.75 35 M268.75 35 C208.78 35, 148.81 35, 8.75 35 M268.75 35 C195.53 35, 122.31 35, 8.75 35 M8.75 35 C2.92 35, 0 32.08, 0 26.25 M8.75 35 C2.92 35, 0 32.08, 0 26.25 M0 26.25 C0 21.92, 0 17.59, 0 8.75 M0 26.25 C0 21.74, 0 17.22, 0 8.75 M0 8.75 C0 2.92, 2.92 0, 8.75 0 M0 8.75 C0 2.92, 2.92 0, 8.75 0" stroke="#1e1e1e" stroke-width="2" fill="none"></path></g><g transform="translate(1192.6692295312191 509.6781481104099) rotate(0 105.69989776611328 12.5)"><text x="105.69989776611328" y="17.52" font-family="Virgil, Segoe UI Emoji" font-size="20px" fill="#1e1e1e" text-anchor="middle" style="white-space: pre;" direction="ltr" dominant-baseline="alphabetic">arrivalTimes per stop</text></g><g stroke-linecap="round"><g transform="translate(1498.7379199458696 63.5) rotate(0 0 264.54583740234375)"><path d="M-0.73 2.14 C-0.44 90.46, 2.27 441.16, 1.96 529.29" stroke="#1e1e1e" stroke-width="2.5" fill="none" stroke-dasharray="1.5 8"></path></g></g><mask></mask><g transform="translate(1543.9879199458696 68.0139876946796) rotate(0 147.83200073242188 10)"><text x="0" y="14.016" font-family="Virgil, Segoe UI Emoji" font-size="16px" fill="#1e1e1e" text-anchor="start" style="white-space: pre;" direction="ltr" dominant-baseline="alphabetic">GARBAGE COLLECTED SNAPSHOT S</text></g><g transform="translate(913.4879199458695 68.0139876946796) rotate(0 75.1760025024414 10)"><text x="0" y="14.016" font-family="Virgil, Segoe UI Emoji" font-size="16px" fill="#1e1e1e" text-anchor="start" style="white-space: pre;" direction="ltr" dominant-baseline="alphabetic">LIVE SNAPSHOT T</text></g><g transform="translate(412.4879199458694 10) rotate(0 105.51200103759766 10)"><text x="0" y="14.016" font-family="Virgil, Segoe UI Emoji" font-size="16px" fill="#1e1e1e" text-anchor="start" style="white-space: pre;" direction="ltr" dominant-baseline="alphabetic">TimetableSnapshotManager</text></g><g stroke-linecap="round" transform="translate(549.7738254594665 112.94123262539506) rotate(0 119.375 50.625)"><path d="M25.31 0 C70.29 0, 115.27 0, 213.44 0 C230.31 0, 238.75 8.44, 238.75 25.31 C238.75 41.78, 238.75 58.24, 238.75 75.94 C238.75 92.81, 230.31 101.25, 213.44 101.25 C172.16 101.25, 130.89 101.25, 25.31 101.25 C8.44 101.25, 0 92.81, 0 75.94 C0 58.72, 0 41.5, 0 25.31 C0 8.44, 8.44 0, 25.31 0" stroke="none" stroke-width="0" fill="#a5d8ff"></path><path d="M25.31 0 C75.25 0, 125.18 0, 213.44 0 M25.31 0 C92.35 0, 159.38 0, 213.44 0 M213.44 0 C230.31 0, 238.75 8.44, 238.75 25.31 M213.44 0 C230.31 0, 238.75 8.44, 238.75 25.31 M238.75 25.31 C238.75 43.56, 238.75 61.81, 238.75 75.94 M238.75 25.31 C238.75 42.3, 238.75 59.29, 238.75 75.94 M238.75 75.94 C238.75 92.81, 230.31 101.25, 213.44 101.25 M238.75 75.94 C238.75 92.81, 230.31 101.25, 213.44 101.25 M213.44 101.25 C151.24 101.25, 89.03 101.25, 25.31 101.25 M213.44 101.25 C156.01 101.25, 98.59 101.25, 25.31 101.25 M25.31 101.25 C8.44 101.25, 0 92.81, 0 75.94 M25.31 101.25 C8.44 101.25, 0 92.81, 0 75.94 M0 75.94 C0 59.38, 0 42.82, 0 25.31 M0 75.94 C0 63.77, 0 51.6, 0 25.31 M0 25.31 C0 8.44, 8.44 0, 25.31 0 M0 25.31 C0 8.44, 8.44 0, 25.31 0" stroke="#1e1e1e" stroke-width="2" fill="none"></path></g><g transform="translate(575.0489185380798 117.94123262539506) rotate(0 94.09990692138672 12.5)"><text x="94.09990692138672" y="17.52" font-family="Virgil, Segoe UI Emoji" font-size="20px" fill="#1e1e1e" text-anchor="middle" style="white-space: pre;" direction="ltr" dominant-baseline="alphabetic">TimetableSnapshot'</text></g><g stroke-linecap="round" transform="translate(564.2082217837351 151.77340498194098) rotate(0 106.00000000000006 25)"><path d="M12.5 0 C71.13 0, 129.76 0, 199.5 0 C207.83 0, 212 4.17, 212 12.5 C212 19.05, 212 25.59, 212 37.5 C212 45.83, 207.83 50, 199.5 50 C159.42 50, 119.33 50, 12.5 50 C4.17 50, 0 45.83, 0 37.5 C0 30.39, 0 23.28, 0 12.5 C0 4.17, 4.17 0, 12.5 0" stroke="none" stroke-width="0" fill="#a5d8ff"></path><path d="M12.5 0 C78.02 0, 143.54 0, 199.5 0 M12.5 0 C80.13 0, 147.75 0, 199.5 0 M199.5 0 C207.83 0, 212 4.17, 212 12.5 M199.5 0 C207.83 0, 212 4.17, 212 12.5 M212 12.5 C212 18.96, 212 25.41, 212 37.5 M212 12.5 C212 19.31, 212 26.11, 212 37.5 M212 37.5 C212 45.83, 207.83 50, 199.5 50 M212 37.5 C212 45.83, 207.83 50, 199.5 50 M199.5 50 C155.33 50, 111.16 50, 12.5 50 M199.5 50 C139.1 50, 78.71 50, 12.5 50 M12.5 50 C4.17 50, 0 45.83, 0 37.5 M12.5 50 C4.17 50, 0 45.83, 0 37.5 M0 37.5 C0 27.75, 0 18, 0 12.5 M0 37.5 C0 31.02, 0 24.55, 0 12.5 M0 12.5 C0 4.17, 4.17 0, 12.5 0 M0 12.5 C0 4.17, 4.17 0, 12.5 0" stroke="#1e1e1e" stroke-width="2" fill="none"></path></g><g transform="translate(570.2322848940868 156.77340498194098) rotate(0 99.97593688964844 20)"><text x="99.97593688964844" y="14.016" font-family="Virgil, Segoe UI Emoji" font-size="16px" fill="#1e1e1e" text-anchor="middle" style="white-space: pre;" direction="ltr" dominant-baseline="alphabetic">Map</text><text x="99.97593688964844" y="34.016" font-family="Virgil, Segoe UI Emoji" font-size="16px" fill="#1e1e1e" text-anchor="middle" style="white-space: pre;" direction="ltr" dominant-baseline="alphabetic">TripPattern -&gt; Timetable</text></g><g stroke-linecap="round" transform="translate(615.7738254594663 277.94123262539506) rotate(0 100.75 41.875)"><path d="M20.94 0 C59.29 0, 97.64 0, 180.56 0 C194.52 0, 201.5 6.98, 201.5 20.94 C201.5 36.91, 201.5 52.89, 201.5 62.81 C201.5 76.77, 194.52 83.75, 180.56 83.75 C117.03 83.75, 53.51 83.75, 20.94 83.75 C6.98 83.75, 0 76.77, 0 62.81 C0 46.11, 0 29.41, 0 20.94 C0 6.98, 6.98 0, 20.94 0" stroke="none" stroke-width="0" fill="#a5d8ff"></path><path d="M20.94 0 C72.51 0, 124.09 0, 180.56 0 M20.94 0 C59.13 0, 97.32 0, 180.56 0 M180.56 0 C194.52 0, 201.5 6.98, 201.5 20.94 M180.56 0 C194.52 0, 201.5 6.98, 201.5 20.94 M201.5 20.94 C201.5 32.15, 201.5 43.37, 201.5 62.81 M201.5 20.94 C201.5 31.39, 201.5 41.84, 201.5 62.81 M201.5 62.81 C201.5 76.77, 194.52 83.75, 180.56 83.75 M201.5 62.81 C201.5 76.77, 194.52 83.75, 180.56 83.75 M180.56 83.75 C123.81 83.75, 67.05 83.75, 20.94 83.75 M180.56 83.75 C145.22 83.75, 109.88 83.75, 20.94 83.75 M20.94 83.75 C6.98 83.75, 0 76.77, 0 62.81 M20.94 83.75 C6.98 83.75, 0 76.77, 0 62.81 M0 62.81 C0 48.29, 0 33.77, 0 20.94 M0 62.81 C0 47.3, 0 31.78, 0 20.94 M0 20.94 C0 6.98, 6.98 0, 20.94 0 M0 20.94 C0 6.98, 6.98 0, 20.94 0" stroke="#1e1e1e" stroke-width="2" fill="none"></path></g><g transform="translate(654.773878865228 282.94123262539506) rotate(0 61.74994659423828 12.5)"><text x="61.74994659423828" y="17.52" font-family="Virgil, Segoe UI Emoji" font-size="20px" fill="#1e1e1e" text-anchor="middle" style="white-space: pre;" direction="ltr" dominant-baseline="alphabetic">Timetable A'</text></g><g mask="url(#mask-wSRAZDDe5sgZei_Gf9Hcg)" stroke-linecap="round"><g transform="translate(651.359044215955 353.523404981941) rotate(0 224.3513555248341 29.576120592883854)"><path d="M0 0 C41.66 9.17, 175.18 45.14, 249.96 55 C324.75 64.86, 415.58 58.46, 448.7 59.15 M0 0 C41.66 9.17, 175.18 45.14, 249.96 55 C324.75 64.86, 415.58 58.46, 448.7 59.15" stroke="#1e1e1e" stroke-width="2" fill="none"></path></g><g transform="translate(651.359044215955 353.523404981941) rotate(0 224.3513555248341 29.576120592883854)"><path d="M425.34 68.06 C430.14 66.23, 434.94 64.4, 448.7 59.15 M425.34 68.06 C431.66 65.65, 437.99 63.24, 448.7 59.15" stroke="#1e1e1e" stroke-width="2" fill="none"></path></g><g transform="translate(651.359044215955 353.523404981941) rotate(0 224.3513555248341 29.576120592883854)"><path d="M425.08 50.96 C429.93 52.64, 434.78 54.32, 448.7 59.15 M425.08 50.96 C431.47 53.18, 437.87 55.39, 448.7 59.15" stroke="#1e1e1e" stroke-width="2" fill="none"></path></g></g><mask id="mask-wSRAZDDe5sgZei_Gf9Hcg"><rect x="0" y="0" fill="#fff" width="1200.061755265623" height="512.6756461677087"></rect><rect x="880.5845078652056" y="398.52615055048227" fill="#000" width="41.471954345703125" height="20" opacity="1"></rect></mask><g transform="translate(880.5845078652055 398.52615055048227) rotate(0 -4.874108124416523 -14.721461326932967)"><text x="20.735977172851562" y="14.016" font-family="Virgil, Segoe UI Emoji" font-size="16px" fill="#1e1e1e" text-anchor="middle" style="white-space: pre;" direction="ltr" dominant-baseline="alphabetic">1:(N-1)</text></g><g stroke-linecap="round"><g transform="translate(584.7563370225416 202.77340498194098) rotate(0 5.498233700943388 56.6395385434671)"><path d="M0 0 C-3.13 15.36, -23.73 73.29, -18.77 92.17 C-13.81 111.05, 21.68 109.76, 29.77 113.28 M0 0 C-3.13 15.36, -23.73 73.29, -18.77 92.17 C-13.81 111.05, 21.68 109.76, 29.77 113.28" stroke="#1e1e1e" stroke-width="2" fill="none"></path></g></g><mask></mask><g stroke-linecap="round" transform="translate(628.8332217837351 312.523404981941) rotate(0 88.50000000000011 20)"><path d="M10 0 C66.55 0, 123.1 0, 167 0 C173.67 0, 177 3.33, 177 10 C177 14.57, 177 19.13, 177 30 C177 36.67, 173.67 40, 167 40 C110.26 40, 53.52 40, 10 40 C3.33 40, 0 36.67, 0 30 C0 22.45, 0 14.91, 0 10 C0 3.33, 3.33 0, 10 0" stroke="none" stroke-width="0" fill="#a5d8ff"></path><path d="M10 0 C72.24 0, 134.48 0, 167 0 M10 0 C43.65 0, 77.29 0, 167 0 M167 0 C173.67 0, 177 3.33, 177 10 M167 0 C173.67 0, 177 3.33, 177 10 M177 10 C177 15.84, 177 21.69, 177 30 M177 10 C177 14.24, 177 18.47, 177 30 M177 30 C177 36.67, 173.67 40, 167 40 M177 30 C177 36.67, 173.67 40, 167 40 M167 40 C128.9 40, 90.8 40, 10 40 M167 40 C131.42 40, 95.83 40, 10 40 M10 40 C3.33 40, 0 36.67, 0 30 M10 40 C3.33 40, 0 36.67, 0 30 M0 30 C0 23.35, 0 16.69, 0 10 M0 30 C0 22.74, 0 15.49, 0 10 M0 10 C0 3.33, 3.33 0, 10 0 M0 10 C0 3.33, 3.33 0, 10 0" stroke="#1e1e1e" stroke-width="2" fill="none"></path></g><g transform="translate(655.6692660952586 322.523404981941) rotate(0 61.66395568847656 10)"><text x="61.66395568847656" y="14.016" font-family="Virgil, Segoe UI Emoji" font-size="16px" fill="#1e1e1e" text-anchor="middle" style="white-space: pre;" direction="ltr" dominant-baseline="alphabetic">List&lt;TripTimes&gt;</text></g><g mask="url(#mask-BnnN9xZBuIjWfEiNq7MVp)" stroke-linecap="round"><g transform="translate(587.6454083647698 202.77340498194098) rotate(0 197.53359733720828 42.443322652757615)"><path d="M0 0 C31.42 6.34, 122.68 23.89, 188.53 38.04 C254.37 52.18, 360.64 77.08, 395.07 84.89 M0 0 C31.42 6.34, 122.68 23.89, 188.53 38.04 C254.37 52.18, 360.64 77.08, 395.07 84.89" stroke="#1e1e1e" stroke-width="2" fill="none"></path></g></g><mask id="mask-BnnN9xZBuIjWfEiNq7MVp"><rect x="0" y="0" fill="#fff" width="1082.7126030391864" height="387.6600502874562"></rect><rect x="755.4372050261301" y="230.8091941231114" fill="#000" width="41.471954345703125" height="20" opacity="1"></rect></mask><g transform="translate(755.43720502613 230.8091941231114) rotate(0 29.74180067584797 14.40753351158719)"><text x="20.735977172851562" y="14.016" font-family="Virgil, Segoe UI Emoji" font-size="16px" fill="#1e1e1e" text-anchor="middle" style="white-space: pre;" direction="ltr" dominant-baseline="alphabetic">1:(N-1)</text></g><g stroke-linecap="round"><g transform="translate(648.1326895600831 353.523404981941) rotate(0 20.969393409158158 47.26174335618862)"><path d="M0 0 C0.66 13.22, -3.05 63.56, 3.94 79.32 C10.93 95.07, 35.61 91.99, 41.94 94.52 M0 0 C0.66 13.22, -3.05 63.56, 3.94 79.32 C10.93 95.07, 35.61 91.99, 41.94 94.52" stroke="#1e1e1e" stroke-width="2" fill="none"></path></g><g transform="translate(648.1326895600831 353.523404981941) rotate(0 20.969393409158158 47.26174335618862)"><path d="M21.89 98.65 C27.07 97.58, 32.25 96.52, 41.94 94.52 M21.89 98.65 C27.35 97.53, 32.81 96.4, 41.94 94.52" stroke="#1e1e1e" stroke-width="2" fill="none"></path></g><g transform="translate(648.1326895600831 353.523404981941) rotate(0 20.969393409158158 47.26174335618862)"><path d="M23.93 84.8 C28.58 87.31, 33.23 89.82, 41.94 94.52 M23.93 84.8 C28.84 87.45, 33.74 90.09, 41.94 94.52" stroke="#1e1e1e" stroke-width="2" fill="none"></path></g></g><mask></mask><g stroke-linecap="round" transform="translate(786.7394451283997 536.5916748046875) rotate(0 132.20703124999994 17.5)"><path d="M8.75 0 C77.59 0, 146.42 0, 255.66 0 C261.5 0, 264.41 2.92, 264.41 8.75 C264.41 13.59, 264.41 18.42, 264.41 26.25 C264.41 32.08, 261.5 35, 255.66 35 C188.06 35, 120.46 35, 8.75 35 C2.92 35, 0 32.08, 0 26.25 C0 21.6, 0 16.95, 0 8.75 C0 2.92, 2.92 0, 8.75 0" stroke="none" stroke-width="0" fill="#a5d8ff"></path><path d="M8.75 0 C82.82 0, 156.89 0, 255.66 0 M8.75 0 C89.01 0, 169.28 0, 255.66 0 M255.66 0 C261.5 0, 264.41 2.92, 264.41 8.75 M255.66 0 C261.5 0, 264.41 2.92, 264.41 8.75 M264.41 8.75 C264.41 13.89, 264.41 19.04, 264.41 26.25 M264.41 8.75 C264.41 14.9, 264.41 21.04, 264.41 26.25 M264.41 26.25 C264.41 32.08, 261.5 35, 255.66 35 M264.41 26.25 C264.41 32.08, 261.5 35, 255.66 35 M255.66 35 C164.88 35, 74.1 35, 8.75 35 M255.66 35 C175.47 35, 95.28 35, 8.75 35 M8.75 35 C2.92 35, 0 32.08, 0 26.25 M8.75 35 C2.92 35, 0 32.08, 0 26.25 M0 26.25 C0 21.78, 0 17.32, 0 8.75 M0 26.25 C0 20.77, 0 15.3, 0 8.75 M0 8.75 C0 2.92, 2.92 0, 8.75 0 M0 8.75 C0 2.92, 2.92 0, 8.75 0" stroke="#1e1e1e" stroke-width="2" fill="none"></path></g><g transform="translate(794.4166072988098 541.5916748046875) rotate(0 124.52986907958979 12.5)"><text x="124.52986907958984" y="17.52" font-family="Virgil, Segoe UI Emoji" font-size="20px" fill="#1e1e1e" text-anchor="middle" style="white-space: pre;" direction="ltr" dominant-baseline="alphabetic">departureTimes' per stop</text></g><g stroke-linecap="round"><g transform="translate(516.1465465898207 65.93995934128725) rotate(0 0 264.54583740234375)"><path d="M2.23 0.7 C2.67 88.78, 2.35 439.57, 2.42 527.68" stroke="#1e1e1e" stroke-width="2.5" fill="none" stroke-dasharray="1.5 8"></path></g></g><mask></mask><g transform="translate(243.125 68.0139876946796) rotate(0 31.527997970581055 10)"><text x="0" y="14.016" font-family="Virgil, Segoe UI Emoji" font-size="16px" fill="#1e1e1e" text-anchor="start" style="white-space: pre;" direction="ltr" dominant-baseline="alphabetic">BUFFER</text></g><g stroke-linecap="round" transform="translate(10 116.2639876946796) rotate(0 119.375 50.625)"><path d="M25.31 0 C79.16 0, 133.01 0, 213.44 0 C230.31 0, 238.75 8.44, 238.75 25.31 C238.75 38.53, 238.75 51.76, 238.75 75.94 C238.75 92.81, 230.31 101.25, 213.44 101.25 C168.78 101.25, 124.12 101.25, 25.31 101.25 C8.44 101.25, 0 92.81, 0 75.94 C0 60.63, 0 45.32, 0 25.31 C0 8.44, 8.44 0, 25.31 0" stroke="none" stroke-width="0" fill="#b2f2bb"></path><path d="M25.31 0 C98.04 0, 170.77 0, 213.44 0 M25.31 0 C76.8 0, 128.28 0, 213.44 0 M213.44 0 C230.31 0, 238.75 8.44, 238.75 25.31 M213.44 0 C230.31 0, 238.75 8.44, 238.75 25.31 M238.75 25.31 C238.75 37.15, 238.75 48.99, 238.75 75.94 M238.75 25.31 C238.75 41.4, 238.75 57.49, 238.75 75.94 M238.75 75.94 C238.75 92.81, 230.31 101.25, 213.44 101.25 M238.75 75.94 C238.75 92.81, 230.31 101.25, 213.44 101.25 M213.44 101.25 C152.73 101.25, 92.02 101.25, 25.31 101.25 M213.44 101.25 C159.51 101.25, 105.57 101.25, 25.31 101.25 M25.31 101.25 C8.44 101.25, 0 92.81, 0 75.94 M25.31 101.25 C8.44 101.25, 0 92.81, 0 75.94 M0 75.94 C0 55.87, 0 35.81, 0 25.31 M0 75.94 C0 61.34, 0 46.75, 0 25.31 M0 25.31 C0 8.44, 8.44 0, 25.31 0 M0 25.31 C0 8.44, 8.44 0, 25.31 0" stroke="#1e1e1e" stroke-width="2" fill="none"></path></g><g transform="translate(32.61509704589844 121.2639876946796) rotate(0 96.75990295410156 12.5)"><text x="96.75990295410156" y="17.52" font-family="Virgil, Segoe UI Emoji" font-size="20px" fill="#1e1e1e" text-anchor="middle" style="white-space: pre;" direction="ltr" dominant-baseline="alphabetic">TimetableSnapshot''</text></g><g stroke-linecap="round"><g transform="translate(61.15885647465052 206.09616005122552) rotate(0 276.5032054977419 54.32770958271931)"><path d="M0 0 C48.24 12.92, 197.3 59.43, 289.47 77.54 C381.64 95.65, 509.08 103.47, 553.01 108.66 M0 0 C48.24 12.92, 197.3 59.43, 289.47 77.54 C381.64 95.65, 509.08 103.47, 553.01 108.66" stroke="#1e1e1e" stroke-width="2" fill="none"></path></g><g transform="translate(61.15885647465052 206.09616005122552) rotate(0 276.5032054977419 54.32770958271931)"><path d="M528.81 114.95 C535.88 113.11, 542.95 111.27, 553.01 108.66 M528.81 114.95 C533.94 113.62, 539.06 112.28, 553.01 108.66" stroke="#1e1e1e" stroke-width="2" fill="none"></path></g><g transform="translate(61.15885647465052 206.09616005122552) rotate(0 276.5032054977419 54.32770958271931)"><path d="M530.43 97.92 C537.02 101.06, 543.62 104.19, 553.01 108.66 M530.43 97.92 C535.21 100.2, 539.99 102.47, 553.01 108.66" stroke="#1e1e1e" stroke-width="2" fill="none"></path></g></g><mask></mask><g mask="url(#mask-Fc6OFOAYN3KBgdVnPheAp)" stroke-linecap="round"><g transform="translate(60.16754192451822 206.09616005122552) rotate(0 477.04375447055116 42.31507413850886)"><path d="M0 0 C65.48 4.44, 233.88 12.56, 392.9 26.66 C551.91 40.77, 860.56 74.97, 954.09 84.63 M0 0 C65.48 4.44, 233.88 12.56, 392.9 26.66 C551.91 40.77, 860.56 74.97, 954.09 84.63" stroke="#1e1e1e" stroke-width="2" fill="none"></path></g><g transform="translate(60.16754192451822 206.09616005122552) rotate(0 477.04375447055116 42.31507413850886)"><path d="M929.82 90.64 C937.92 88.64, 946.01 86.63, 954.09 84.63 M929.82 90.64 C936.84 88.9, 943.86 87.16, 954.09 84.63" stroke="#1e1e1e" stroke-width="2" fill="none"></path></g><g transform="translate(60.16754192451822 206.09616005122552) rotate(0 477.04375447055116 42.31507413850886)"><path d="M931.63 73.64 C939.12 77.3, 946.61 80.97, 954.09 84.63 M931.63 73.64 C938.13 76.82, 944.62 80, 954.09 84.63" stroke="#1e1e1e" stroke-width="2" fill="none"></path></g></g><mask id="mask-Fc6OFOAYN3KBgdVnPheAp"><rect x="0" y="0" fill="#fff" width="1114.2550508656207" height="390.72630832824325"></rect><rect x="428.8006471588684" y="222.75829127089946" fill="#000" width="48.5279541015625" height="20" opacity="1"></rect></mask><g transform="translate(428.8006471588684 222.75829127089946) rotate(0 108.41064923620098 25.652942918834924)"><text x="24.26397705078125" y="14.016" font-family="Virgil, Segoe UI Emoji" font-size="16px" fill="#1e1e1e" text-anchor="middle" style="white-space: pre;" direction="ltr" dominant-baseline="alphabetic">1:(N-2)</text></g><g stroke-linecap="round" transform="translate(24.43439632426862 155.09616005122552) rotate(0 106.00000000000006 25)"><path d="M12.5 0 C57.01 0, 101.52 0, 199.5 0 C207.83 0, 212 4.17, 212 12.5 C212 20.67, 212 28.84, 212 37.5 C212 45.83, 207.83 50, 199.5 50 C125.93 50, 52.36 50, 12.5 50 C4.17 50, 0 45.83, 0 37.5 C0 31.22, 0 24.94, 0 12.5 C0 4.17, 4.17 0, 12.5 0" stroke="none" stroke-width="0" fill="#b2f2bb"></path><path d="M12.5 0 C56.67 0, 100.84 0, 199.5 0 M12.5 0 C72.9 0, 133.29 0, 199.5 0 M199.5 0 C207.83 0, 212 4.17, 212 12.5 M199.5 0 C207.83 0, 212 4.17, 212 12.5 M212 12.5 C212 22.25, 212 32, 212 37.5 M212 12.5 C212 18.98, 212 25.45, 212 37.5 M212 37.5 C212 45.83, 207.83 50, 199.5 50 M212 37.5 C212 45.83, 207.83 50, 199.5 50 M199.5 50 C140.87 50, 82.24 50, 12.5 50 M199.5 50 C138.69 50, 77.88 50, 12.5 50 M12.5 50 C4.17 50, 0 45.83, 0 37.5 M12.5 50 C4.17 50, 0 45.83, 0 37.5 M0 37.5 C0 32.14, 0 26.78, 0 12.5 M0 37.5 C0 29, 0 20.49, 0 12.5 M0 12.5 C0 4.17, 4.17 0, 12.5 0 M0 12.5 C0 4.17, 4.17 0, 12.5 0" stroke="#1e1e1e" stroke-width="2" fill="none"></path></g><g transform="translate(30.458459434620238 160.09616005122552) rotate(0 99.97593688964844 20)"><text x="99.97593688964844" y="14.016" font-family="Virgil, Segoe UI Emoji" font-size="16px" fill="#1e1e1e" text-anchor="middle" style="white-space: pre;" direction="ltr" dominant-baseline="alphabetic">Map</text><text x="99.97593688964844" y="34.016" font-family="Virgil, Segoe UI Emoji" font-size="16px" fill="#1e1e1e" text-anchor="middle" style="white-space: pre;" direction="ltr" dominant-baseline="alphabetic">TripPattern -&gt; Timetable</text></g><g stroke-linecap="round" transform="translate(150.09589710473324 432.3441839160196) rotate(0 79.99999999999997 17.5)"><path d="M8.75 0 C47.27 0, 85.79 0, 151.25 0 C157.08 0, 160 2.92, 160 8.75 C160 14.18, 160 19.61, 160 26.25 C160 32.08, 157.08 35, 151.25 35 C105.53 35, 59.81 35, 8.75 35 C2.92 35, 0 32.08, 0 26.25 C0 20.14, 0 14.03, 0 8.75 C0 2.92, 2.92 0, 8.75 0" stroke="none" stroke-width="0" fill="#b2f2bb"></path><path d="M8.75 0 C59.42 0, 110.08 0, 151.25 0 M8.75 0 C40.3 0, 71.85 0, 151.25 0 M151.25 0 C157.08 0, 160 2.92, 160 8.75 M151.25 0 C157.08 0, 160 2.92, 160 8.75 M160 8.75 C160 14.82, 160 20.89, 160 26.25 M160 8.75 C160 15.23, 160 21.72, 160 26.25 M160 26.25 C160 32.08, 157.08 35, 151.25 35 M160 26.25 C160 32.08, 157.08 35, 151.25 35 M151.25 35 C117.02 35, 82.78 35, 8.75 35 M151.25 35 C113.94 35, 76.63 35, 8.75 35 M8.75 35 C2.92 35, 0 32.08, 0 26.25 M8.75 35 C2.92 35, 0 32.08, 0 26.25 M0 26.25 C0 19.29, 0 12.32, 0 8.75 M0 26.25 C0 21.27, 0 16.29, 0 8.75 M0 8.75 C0 2.92, 2.92 0, 8.75 0 M0 8.75 C0 2.92, 2.92 0, 8.75 0" stroke="#1e1e1e" stroke-width="2" fill="none"></path></g><g transform="translate(161.43596210717465 437.3441839160196) rotate(0 68.6599349975586 12.5)"><text x="68.6599349975586" y="17.52" font-family="Virgil, Segoe UI Emoji" font-size="20px" fill="#1e1e1e" text-anchor="middle" style="white-space: pre;" direction="ltr" dominant-baseline="alphabetic">TripTimes B3'</text></g><g stroke-linecap="round" transform="translate(75.79824618579983 277.6400003287936) rotate(0 100.75 41.875)"><path d="M20.94 0 C75.21 0, 129.49 0, 180.56 0 C194.52 0, 201.5 6.98, 201.5 20.94 C201.5 36.83, 201.5 52.72, 201.5 62.81 C201.5 76.77, 194.52 83.75, 180.56 83.75 C141.12 83.75, 101.68 83.75, 20.94 83.75 C6.98 83.75, 0 76.77, 0 62.81 C0 50.48, 0 38.14, 0 20.94 C0 6.98, 6.98 0, 20.94 0" stroke="none" stroke-width="0" fill="#b2f2bb"></path><path d="M20.94 0 C60.5 0, 100.07 0, 180.56 0 M20.94 0 C75.93 0, 130.91 0, 180.56 0 M180.56 0 C194.52 0, 201.5 6.98, 201.5 20.94 M180.56 0 C194.52 0, 201.5 6.98, 201.5 20.94 M201.5 20.94 C201.5 34.57, 201.5 48.2, 201.5 62.81 M201.5 20.94 C201.5 31.4, 201.5 41.87, 201.5 62.81 M201.5 62.81 C201.5 76.77, 194.52 83.75, 180.56 83.75 M201.5 62.81 C201.5 76.77, 194.52 83.75, 180.56 83.75 M180.56 83.75 C130.14 83.75, 79.72 83.75, 20.94 83.75 M180.56 83.75 C119.67 83.75, 58.77 83.75, 20.94 83.75 M20.94 83.75 C6.98 83.75, 0 76.77, 0 62.81 M20.94 83.75 C6.98 83.75, 0 76.77, 0 62.81 M0 62.81 C0 52.94, 0 43.07, 0 20.94 M0 62.81 C0 46.11, 0 29.41, 0 20.94 M0 20.94 C0 6.98, 6.98 0, 20.94 0 M0 20.94 C0 6.98, 6.98 0, 20.94 0" stroke="#1e1e1e" stroke-width="2" fill="none"></path></g><g transform="translate(114.08830050708889 282.6400003287936) rotate(0 62.45994567871094 12.5)"><text x="62.45994567871094" y="17.52" font-family="Virgil, Segoe UI Emoji" font-size="20px" fill="#1e1e1e" text-anchor="middle" style="white-space: pre;" direction="ltr" dominant-baseline="alphabetic">Timetable B'</text></g><g stroke-linecap="round" transform="translate(88.8576425100689 312.2221726853395) rotate(0 88.50000000000011 20)"><path d="M10 0 C56.13 0, 102.26 0, 167 0 C173.67 0, 177 3.33, 177 10 C177 17.56, 177 25.11, 177 30 C177 36.67, 173.67 40, 167 40 C106.15 40, 45.3 40, 10 40 C3.33 40, 0 36.67, 0 30 C0 24.75, 0 19.5, 0 10 C0 3.33, 3.33 0, 10 0" stroke="none" stroke-width="0" fill="#b2f2bb"></path><path d="M10 0 C54.71 0, 99.42 0, 167 0 M10 0 C45.12 0, 80.23 0, 167 0 M167 0 C173.67 0, 177 3.33, 177 10 M167 0 C173.67 0, 177 3.33, 177 10 M177 10 C177 15.33, 177 20.66, 177 30 M177 10 C177 17.2, 177 24.39, 177 30 M177 30 C177 36.67, 173.67 40, 167 40 M177 30 C177 36.67, 173.67 40, 167 40 M167 40 C127.81 40, 88.62 40, 10 40 M167 40 C123.33 40, 79.65 40, 10 40 M10 40 C3.33 40, 0 36.67, 0 30 M10 40 C3.33 40, 0 36.67, 0 30 M0 30 C0 25.89, 0 21.78, 0 10 M0 30 C0 25.83, 0 21.66, 0 10 M0 10 C0 3.33, 3.33 0, 10 0 M0 10 C0 3.33, 3.33 0, 10 0" stroke="#1e1e1e" stroke-width="2" fill="none"></path></g><g transform="translate(115.69368682159245 322.2221726853395) rotate(0 61.66395568847656 10)"><text x="61.66395568847656" y="14.016" font-family="Virgil, Segoe UI Emoji" font-size="16px" fill="#1e1e1e" text-anchor="middle" style="white-space: pre;" direction="ltr" dominant-baseline="alphabetic">List&lt;TripTimes&gt;</text></g><g stroke-linecap="round"><g transform="translate(101.59911577205912 353.2221726853395) rotate(0 23.123390666336974 48.691736643196236)"><path d="M0 0 C0.12 14.3, -6.96 69.59, 0.75 85.82 C8.45 102.05, 38.66 95.46, 46.25 97.38 M0 0 C0.12 14.3, -6.96 69.59, 0.75 85.82 C8.45 102.05, 38.66 95.46, 46.25 97.38" stroke="#1e1e1e" stroke-width="2" fill="none"></path></g><g transform="translate(101.59911577205912 353.2221726853395) rotate(0 23.123390666336974 48.691736643196236)"><path d="M24 104.88 C29.58 103, 35.15 101.12, 46.25 97.38 M24 104.88 C32.41 102.05, 40.81 99.21, 46.25 97.38" stroke="#1e1e1e" stroke-width="2" fill="none"></path></g><g transform="translate(101.59911577205912 353.2221726853395) rotate(0 23.123390666336974 48.691736643196236)"><path d="M24.39 88.83 C29.86 90.97, 35.34 93.12, 46.25 97.38 M24.39 88.83 C32.65 92.06, 40.91 95.29, 46.25 97.38" stroke="#1e1e1e" stroke-width="2" fill="none"></path></g></g><mask></mask><g mask="url(#mask-ZzFUKJcQusPbTxmaBHXzQ)" stroke-linecap="round"><g transform="translate(103.04488788367411 353.2221726853395) rotate(0 440.19904784224593 -7.235412578187606)"><path d="M0 0 C98.8 8.44, 446.07 61.46, 592.8 50.62 C739.54 39.77, 832.47 -45.8, 880.4 -65.09 M0 0 C98.8 8.44, 446.07 61.46, 592.8 50.62 C739.54 39.77, 832.47 -45.8, 880.4 -65.09" stroke="#1e1e1e" stroke-width="2" fill="none"></path></g></g><mask id="mask-ZzFUKJcQusPbTxmaBHXzQ"><rect x="0" y="0" fill="#fff" width="1083.442983568166" height="568.9255542553628"></rect><rect x="675.1121953946856" y="393.83845089216356" fill="#000" width="41.471954345703125" height="20" opacity="1"></rect></mask><g transform="translate(675.1121953946854 393.83845089216356) rotate(0 -131.86825966876552 -47.123423768127395)"><text x="20.735977172851562" y="14.016" font-family="Virgil, Segoe UI Emoji" font-size="16px" fill="#1e1e1e" text-anchor="middle" style="white-space: pre;" direction="ltr" dominant-baseline="alphabetic">1:(N-1)</text></g><g stroke-linecap="round"><g transform="translate(51.10314811933199 206.09616005122552) rotate(0 3.84957564245218 55.91579638139183)"><path d="M0 0 C-2.52 16.87, -18.92 82.6, -15.12 101.24 C-11.31 119.88, 16.49 110.07, 22.81 111.83 M0 0 C-2.52 16.87, -18.92 82.6, -15.12 101.24 C-11.31 119.88, 16.49 110.07, 22.81 111.83" stroke="#1e1e1e" stroke-width="2" fill="none"></path></g><g transform="translate(51.10314811933199 206.09616005122552) rotate(0 3.84957564245218 55.91579638139183)"><path d="M4.63 119.38 C10.99 116.74, 17.36 114.1, 22.81 111.83 M4.63 119.38 C9.95 117.17, 15.28 114.96, 22.81 111.83" stroke="#1e1e1e" stroke-width="2" fill="none"></path></g><g transform="translate(51.10314811933199 206.09616005122552) rotate(0 3.84957564245218 55.91579638139183)"><path d="M4.03 105.93 C10.6 107.99, 17.18 110.06, 22.81 111.83 M4.03 105.93 C9.53 107.66, 15.03 109.38, 22.81 111.83" stroke="#1e1e1e" stroke-width="2" fill="none"></path></g></g><mask></mask><g mask="url(#mask-dP5SUVWzZublpEVXF9iyF)" stroke-linecap="round"><g transform="translate(1691.988087270267 213.27219969481212) rotate(0 -27.814570959978596 40.5)"><path d="M0 0 C-5.79 6.42, -25.48 25, -34.75 38.5 C-44.02 52, -52.15 73.92, -55.63 81" stroke="#1e1e1e" stroke-width="2.5" fill="none" stroke-dasharray="8 10"></path></g><g transform="translate(1691.988087270267 213.27219969481212) rotate(0 -27.814570959978596 40.5)"><path d="M-54.08 57.37 C-54.69 66.69, -55.3 76.01, -55.63 81" stroke="#1e1e1e" stroke-width="2.5" fill="none"></path></g><g transform="translate(1691.988087270267 213.27219969481212) rotate(0 -27.814570959978596 40.5)"><path d="M-39.26 63.9 C-45.71 70.64, -52.17 77.39, -55.63 81" stroke="#1e1e1e" stroke-width="2.5" fill="none"></path></g></g><mask id="mask-dP5SUVWzZublpEVXF9iyF"><rect x="0" y="0" fill="#fff" width="1847.6172291902242" height="394.2721996948121"></rect><rect x="1648.8660932517123" y="234.27219969481212" fill="#000" width="16.743988037109375" height="35" opacity="1"></rect></mask><g transform="translate(1648.8660932517123 234.27219969481212) rotate(0 15.307423058576092 19.5)"><text x="8.371994018554688" y="24.528" font-family="Virgil, Segoe UI Emoji" font-size="28px" fill="#1e1e1e" text-anchor="middle" style="white-space: pre;" direction="ltr" dominant-baseline="alphabetic">X</text></g><g stroke-linecap="round" transform="translate(1548.3423236554331 440.95855501672486) rotate(0 80 17.5)"><path d="M8.75 0 C41.35 0, 73.94 0, 151.25 0 C157.08 0, 160 2.92, 160 8.75 C160 12.95, 160 17.14, 160 26.25 C160 32.08, 157.08 35, 151.25 35 C109.14 35, 67.02 35, 8.75 35 C2.92 35, 0 32.08, 0 26.25 C0 22.06, 0 17.86, 0 8.75 C0 2.92, 2.92 0, 8.75 0" stroke="none" stroke-width="0" fill="#ffc9c9"></path><path d="M8.75 0 C64.97 0, 121.2 0, 151.25 0 M8.75 0 C59.41 0, 110.06 0, 151.25 0 M151.25 0 C157.08 0, 160 2.92, 160 8.75 M151.25 0 C157.08 0, 160 2.92, 160 8.75 M160 8.75 C160 15.22, 160 21.69, 160 26.25 M160 8.75 C160 15.13, 160 21.5, 160 26.25 M160 26.25 C160 32.08, 157.08 35, 151.25 35 M160 26.25 C160 32.08, 157.08 35, 151.25 35 M151.25 35 C115.16 35, 79.07 35, 8.75 35 M151.25 35 C120.24 35, 89.23 35, 8.75 35 M8.75 35 C2.92 35, 0 32.08, 0 26.25 M8.75 35 C2.92 35, 0 32.08, 0 26.25 M0 26.25 C0 20.56, 0 14.87, 0 8.75 M0 26.25 C0 21.02, 0 15.79, 0 8.75 M0 8.75 C0 2.92, 2.92 0, 8.75 0 M0 8.75 C0 2.92, 2.92 0, 8.75 0" stroke="#1e1e1e" stroke-width="2" fill="none"></path></g><g transform="translate(1567.1523822491831 445.95855501672486) rotate(0 61.18994140625 12.5)"><text x="61.18994140625" y="17.52" font-family="Virgil, Segoe UI Emoji" font-size="20px" fill="#1e1e1e" text-anchor="middle" style="white-space: pre;" direction="ltr" dominant-baseline="alphabetic">TripTimes A1</text></g><g stroke-linecap="round" transform="translate(1125.8244545608331 385.38048202443497) rotate(0 80 17.5)"><path d="M8.75 0 C47.43 0, 86.11 0, 151.25 0 C157.08 0, 160 2.92, 160 8.75 C160 14.83, 160 20.91, 160 26.25 C160 32.08, 157.08 35, 151.25 35 C104.92 35, 58.59 35, 8.75 35 C2.92 35, 0 32.08, 0 26.25 C0 21.46, 0 16.67, 0 8.75 C0 2.92, 2.92 0, 8.75 0" stroke="none" stroke-width="0" fill="#ffffff"></path><path d="M8.75 0 C40.68 0, 72.62 0, 151.25 0 M8.75 0 C37.46 0, 66.16 0, 151.25 0 M151.25 0 C157.08 0, 160 2.92, 160 8.75 M151.25 0 C157.08 0, 160 2.92, 160 8.75 M160 8.75 C160 14.1, 160 19.44, 160 26.25 M160 8.75 C160 14.26, 160 19.77, 160 26.25 M160 26.25 C160 32.08, 157.08 35, 151.25 35 M160 26.25 C160 32.08, 157.08 35, 151.25 35 M151.25 35 C122.66 35, 94.08 35, 8.75 35 M151.25 35 C98.59 35, 45.93 35, 8.75 35 M8.75 35 C2.92 35, 0 32.08, 0 26.25 M8.75 35 C2.92 35, 0 32.08, 0 26.25 M0 26.25 C0 19.85, 0 13.44, 0 8.75 M0 26.25 C0 20.17, 0 14.08, 0 8.75 M0 8.75 C0 2.92, 2.92 0, 8.75 0 M0 8.75 C0 2.92, 2.92 0, 8.75 0" stroke="#1e1e1e" stroke-width="2" fill="none"></path></g><g transform="translate(1140.534514680462 390.38048202443497) rotate(0 65.2899398803711 12.5)"><text x="65.2899398803711" y="17.52" font-family="Virgil, Segoe UI Emoji" font-size="20px" fill="#1e1e1e" text-anchor="middle" style="white-space: pre;" direction="ltr" dominant-baseline="alphabetic">TripTimes A3</text></g><g stroke-linecap="round" transform="translate(1320.6338508851013 384.6178267947744) rotate(0 73.75 17.5)"><path d="M8.75 0 C60.52 0, 112.28 0, 138.75 0 C144.58 0, 147.5 2.92, 147.5 8.75 C147.5 14.36, 147.5 19.97, 147.5 26.25 C147.5 32.08, 144.58 35, 138.75 35 C101 35, 63.24 35, 8.75 35 C2.92 35, 0 32.08, 0 26.25 C0 22.07, 0 17.89, 0 8.75 C0 2.92, 2.92 0, 8.75 0" stroke="none" stroke-width="0" fill="#ffffff"></path><path d="M8.75 0 C56.51 0, 104.27 0, 138.75 0 M8.75 0 C52.42 0, 96.1 0, 138.75 0 M138.75 0 C144.58 0, 147.5 2.92, 147.5 8.75 M138.75 0 C144.58 0, 147.5 2.92, 147.5 8.75 M147.5 8.75 C147.5 13.1, 147.5 17.45, 147.5 26.25 M147.5 8.75 C147.5 13.01, 147.5 17.26, 147.5 26.25 M147.5 26.25 C147.5 32.08, 144.58 35, 138.75 35 M147.5 26.25 C147.5 32.08, 144.58 35, 138.75 35 M138.75 35 C106.78 35, 74.82 35, 8.75 35 M138.75 35 C111.64 35, 84.53 35, 8.75 35 M8.75 35 C2.92 35, 0 32.08, 0 26.25 M8.75 35 C2.92 35, 0 32.08, 0 26.25 M0 26.25 C0 22.38, 0 18.52, 0 8.75 M0 26.25 C0 20.4, 0 14.54, 0 8.75 M0 8.75 C0 2.92, 2.92 0, 8.75 0 M0 8.75 C0 2.92, 2.92 0, 8.75 0" stroke="#1e1e1e" stroke-width="2" fill="none"></path></g><g transform="translate(1356.5538795716247 389.6178267947744) rotate(0 37.82997131347656 12.5)"><text x="37.82997131347656" y="17.52" font-family="Virgil, Segoe UI Emoji" font-size="20px" fill="#1e1e1e" text-anchor="middle" style="white-space: pre;" direction="ltr" dominant-baseline="alphabetic">Trip A3</text></g><g stroke-linecap="round"><g transform="translate(1463.3302794565298 449.57381996415097) rotate(0 -87.44642857142867 -1.7279965846882988)"><path d="M0 0 C-29.15 -0.58, -145.74 -2.88, -174.89 -3.46 M0 0 C-29.15 -0.58, -145.74 -2.88, -174.89 -3.46" stroke="#1e1e1e" stroke-width="2" fill="none"></path></g><g transform="translate(1463.3302794565298 449.57381996415097) rotate(0 -87.44642857142867 -1.7279965846882988)"><path d="M-151.24 -11.54 C-158.97 -8.9, -166.7 -6.25, -174.89 -3.46 M-151.24 -11.54 C-160.34 -8.43, -169.44 -5.32, -174.89 -3.46" stroke="#1e1e1e" stroke-width="2" fill="none"></path></g><g transform="translate(1463.3302794565298 449.57381996415097) rotate(0 -87.44642857142867 -1.7279965846882988)"><path d="M-151.57 5.56 C-159.2 2.61, -166.82 -0.34, -174.89 -3.46 M-151.57 5.56 C-160.54 2.09, -169.51 -1.38, -174.89 -3.46" stroke="#1e1e1e" stroke-width="2" fill="none"></path></g></g><mask></mask><g stroke-linecap="round" transform="translate(1105.3244545608331 408.63048202443497) rotate(0 80 17.5)"><path d="M8.75 0 C59.88 0, 111 0, 151.25 0 C157.08 0, 160 2.92, 160 8.75 C160 14.51, 160 20.28, 160 26.25 C160 32.08, 157.08 35, 151.25 35 C118 35, 84.75 35, 8.75 35 C2.92 35, 0 32.08, 0 26.25 C0 20.26, 0 14.27, 0 8.75 C0 2.92, 2.92 0, 8.75 0" stroke="none" stroke-width="0" fill="#ffffff"></path><path d="M8.75 0 C61.39 0, 114.04 0, 151.25 0 M8.75 0 C43.16 0, 77.56 0, 151.25 0 M151.25 0 C157.08 0, 160 2.92, 160 8.75 M151.25 0 C157.08 0, 160 2.92, 160 8.75 M160 8.75 C160 13.36, 160 17.98, 160 26.25 M160 8.75 C160 12.45, 160 16.14, 160 26.25 M160 26.25 C160 32.08, 157.08 35, 151.25 35 M160 26.25 C160 32.08, 157.08 35, 151.25 35 M151.25 35 C97.87 35, 44.48 35, 8.75 35 M151.25 35 C119.32 35, 87.39 35, 8.75 35 M8.75 35 C2.92 35, 0 32.08, 0 26.25 M8.75 35 C2.92 35, 0 32.08, 0 26.25 M0 26.25 C0 20.85, 0 15.46, 0 8.75 M0 26.25 C0 20.55, 0 14.86, 0 8.75 M0 8.75 C0 2.92, 2.92 0, 8.75 0 M0 8.75 C0 2.92, 2.92 0, 8.75 0" stroke="#1e1e1e" stroke-width="2" fill="none"></path></g><g transform="translate(1119.7245171218683 413.63048202443497) rotate(0 65.59993743896484 12.5)"><text x="65.59993743896484" y="17.52" font-family="Virgil, Segoe UI Emoji" font-size="20px" fill="#1e1e1e" text-anchor="middle" style="white-space: pre;" direction="ltr" dominant-baseline="alphabetic">TripTimes A2</text></g><g stroke-linecap="round" transform="translate(1302.1338508851013 407.8678267947744) rotate(0 73.75 17.5)"><path d="M8.75 0 C44.47 0, 80.18 0, 138.75 0 C144.58 0, 147.5 2.92, 147.5 8.75 C147.5 13.9, 147.5 19.04, 147.5 26.25 C147.5 32.08, 144.58 35, 138.75 35 C88.38 35, 38.01 35, 8.75 35 C2.92 35, 0 32.08, 0 26.25 C0 22.39, 0 18.53, 0 8.75 C0 2.92, 2.92 0, 8.75 0" stroke="none" stroke-width="0" fill="#ffffff"></path><path d="M8.75 0 C35.58 0, 62.42 0, 138.75 0 M8.75 0 C57.72 0, 106.69 0, 138.75 0 M138.75 0 C144.58 0, 147.5 2.92, 147.5 8.75 M138.75 0 C144.58 0, 147.5 2.92, 147.5 8.75 M147.5 8.75 C147.5 14.33, 147.5 19.9, 147.5 26.25 M147.5 8.75 C147.5 15.13, 147.5 21.52, 147.5 26.25 M147.5 26.25 C147.5 32.08, 144.58 35, 138.75 35 M147.5 26.25 C147.5 32.08, 144.58 35, 138.75 35 M138.75 35 C97.06 35, 55.36 35, 8.75 35 M138.75 35 C110.46 35, 82.17 35, 8.75 35 M8.75 35 C2.92 35, 0 32.08, 0 26.25 M8.75 35 C2.92 35, 0 32.08, 0 26.25 M0 26.25 C0 21.47, 0 16.69, 0 8.75 M0 26.25 C0 21.86, 0 17.47, 0 8.75 M0 8.75 C0 2.92, 2.92 0, 8.75 0 M0 8.75 C0 2.92, 2.92 0, 8.75 0" stroke="#1e1e1e" stroke-width="2" fill="none"></path></g><g transform="translate(1337.743882013031 412.8678267947744) rotate(0 38.13996887207031 12.5)"><text x="38.13996887207031" y="17.52" font-family="Virgil, Segoe UI Emoji" font-size="20px" fill="#1e1e1e" text-anchor="middle" style="white-space: pre;" direction="ltr" dominant-baseline="alphabetic">Trip A2</text></g><g stroke-linecap="round"><g transform="translate(1443.8914561614943 427.8678267947744) rotate(0 0 21.82807299228989)"><path d="M0 0 C0 7.28, 0 36.38, 0 43.66 M0 0 C0 7.28, 0 36.38, 0 43.66" stroke="#1e1e1e" stroke-width="2" fill="none"></path></g><g transform="translate(1443.8914561614943 427.8678267947744) rotate(0 0 21.82807299228989)"><path d="M-7.47 23.14 C-5.67 28.08, -3.88 33.01, 0 43.66 M-7.47 23.14 C-4.64 30.9, -1.82 38.66, 0 43.66" stroke="#1e1e1e" stroke-width="2" fill="none"></path></g><g transform="translate(1443.8914561614943 427.8678267947744) rotate(0 0 21.82807299228989)"><path d="M7.47 23.14 C5.67 28.08, 3.88 33.01, 0 43.66 M7.47 23.14 C4.64 30.9, 1.82 38.66, 0 43.66" stroke="#1e1e1e" stroke-width="2" fill="none"></path></g></g><mask></mask><g stroke-linecap="round" transform="translate(1278.1517199797013 432.19589978706426) rotate(0 73.75 17.5)"><path d="M8.75 0 C47.83 0, 86.92 0, 138.75 0 C144.58 0, 147.5 2.92, 147.5 8.75 C147.5 13.93, 147.5 19.11, 147.5 26.25 C147.5 32.08, 144.58 35, 138.75 35 C104.95 35, 71.16 35, 8.75 35 C2.92 35, 0 32.08, 0 26.25 C0 20.98, 0 15.72, 0 8.75 C0 2.92, 2.92 0, 8.75 0" stroke="none" stroke-width="0" fill="#ffffff"></path><path d="M8.75 0 C57.27 0, 105.79 0, 138.75 0 M8.75 0 C52.69 0, 96.62 0, 138.75 0 M138.75 0 C144.58 0, 147.5 2.92, 147.5 8.75 M138.75 0 C144.58 0, 147.5 2.92, 147.5 8.75 M147.5 8.75 C147.5 12.94, 147.5 17.13, 147.5 26.25 M147.5 8.75 C147.5 13.3, 147.5 17.86, 147.5 26.25 M147.5 26.25 C147.5 32.08, 144.58 35, 138.75 35 M147.5 26.25 C147.5 32.08, 144.58 35, 138.75 35 M138.75 35 C111.77 35, 84.79 35, 8.75 35 M138.75 35 C112.38 35, 86.01 35, 8.75 35 M8.75 35 C2.92 35, 0 32.08, 0 26.25 M8.75 35 C2.92 35, 0 32.08, 0 26.25 M0 26.25 C0 21.67, 0 17.08, 0 8.75 M0 26.25 C0 19.78, 0 13.3, 0 8.75 M0 8.75 C0 2.92, 2.92 0, 8.75 0 M0 8.75 C0 2.92, 2.92 0, 8.75 0" stroke="#1e1e1e" stroke-width="2" fill="none"></path></g><g transform="translate(1318.1717471403458 437.19589978706426) rotate(0 33.72997283935547 12.5)"><text x="33.72997283935547" y="17.52" font-family="Virgil, Segoe UI Emoji" font-size="20px" fill="#1e1e1e" text-anchor="middle" style="white-space: pre;" direction="ltr" dominant-baseline="alphabetic">Trip A1</text></g><g stroke-linecap="round" transform="translate(1028.391085240848 292.25299396564697) rotate(0 88.50000000000011 20)"><path d="M10 0 C56.28 0, 102.56 0, 167 0 C173.67 0, 177 3.33, 177 10 C177 17.81, 177 25.63, 177 30 C177 36.67, 173.67 40, 167 40 C133.16 40, 99.31 40, 10 40 C3.33 40, 0 36.67, 0 30 C0 25.8, 0 21.6, 0 10 C0 3.33, 3.33 0, 10 0" stroke="none" stroke-width="0" fill="#ffffff"></path><path d="M10 0 C52.51 0, 95.03 0, 167 0 M10 0 C50.47 0, 90.95 0, 167 0 M167 0 C173.67 0, 177 3.33, 177 10 M167 0 C173.67 0, 177 3.33, 177 10 M177 10 C177 16.4, 177 22.8, 177 30 M177 10 C177 15.62, 177 21.25, 177 30 M177 30 C177 36.67, 173.67 40, 167 40 M177 30 C177 36.67, 173.67 40, 167 40 M167 40 C111.3 40, 55.6 40, 10 40 M167 40 C107.77 40, 48.55 40, 10 40 M10 40 C3.33 40, 0 36.67, 0 30 M10 40 C3.33 40, 0 36.67, 0 30 M0 30 C0 26, 0 22, 0 10 M0 30 C0 24.81, 0 19.62, 0 10 M0 10 C0 3.33, 3.33 0, 10 0 M0 10 C0 3.33, 3.33 0, 10 0" stroke="#1e1e1e" stroke-width="2" fill="none"></path></g><g transform="translate(1055.2271295523715 302.25299396564697) rotate(0 61.66395568847656 10)"><text x="61.66395568847656" y="14.016" font-family="Virgil, Segoe UI Emoji" font-size="16px" fill="#1e1e1e" text-anchor="middle" style="white-space: pre;" direction="ltr" dominant-baseline="alphabetic">List&lt;TripTimes&gt;</text></g><g stroke-linecap="round" transform="translate(1536.6191272973324 299.68408203125) rotate(0 100.75 41.875)"><path d="M20.94 0 C67.85 0, 114.76 0, 180.56 0 C194.52 0, 201.5 6.98, 201.5 20.94 C201.5 29.36, 201.5 37.77, 201.5 62.81 C201.5 76.77, 194.52 83.75, 180.56 83.75 C121.87 83.75, 63.18 83.75, 20.94 83.75 C6.98 83.75, 0 76.77, 0 62.81 C0 50.55, 0 38.29, 0 20.94 C0 6.98, 6.98 0, 20.94 0" stroke="none" stroke-width="0" fill="#ffc9c9"></path><path d="M20.94 0 C62.06 0, 103.19 0, 180.56 0 M20.94 0 C64.25 0, 107.57 0, 180.56 0 M180.56 0 C194.52 0, 201.5 6.98, 201.5 20.94 M180.56 0 C194.52 0, 201.5 6.98, 201.5 20.94 M201.5 20.94 C201.5 29.63, 201.5 38.32, 201.5 62.81 M201.5 20.94 C201.5 37.35, 201.5 53.75, 201.5 62.81 M201.5 62.81 C201.5 76.77, 194.52 83.75, 180.56 83.75 M201.5 62.81 C201.5 76.77, 194.52 83.75, 180.56 83.75 M180.56 83.75 C130.23 83.75, 79.9 83.75, 20.94 83.75 M180.56 83.75 C132.16 83.75, 83.76 83.75, 20.94 83.75 M20.94 83.75 C6.98 83.75, 0 76.77, 0 62.81 M20.94 83.75 C6.98 83.75, 0 76.77, 0 62.81 M0 62.81 C0 50.25, 0 37.69, 0 20.94 M0 62.81 C0 49.2, 0 35.59, 0 20.94 M0 20.94 C0 6.98, 6.98 0, 20.94 0 M0 20.94 C0 6.98, 6.98 0, 20.94 0" stroke="#1e1e1e" stroke-width="2" fill="none"></path></g><g transform="translate(1578.279176735809 304.68408203125) rotate(0 59.08995056152344 12.5)"><text x="59.08995056152344" y="17.52" font-family="Virgil, Segoe UI Emoji" font-size="20px" fill="#1e1e1e" text-anchor="middle" style="white-space: pre;" direction="ltr" dominant-baseline="alphabetic">Timetable A</text></g><g stroke-linecap="round" transform="translate(1549.6785236216006 334.2662543877959) rotate(0 88.50000000000011 20)"><path d="M10 0 C64.44 0, 118.89 0, 167 0 C173.67 0, 177 3.33, 177 10 C177 15, 177 20, 177 30 C177 36.67, 173.67 40, 167 40 C129.28 40, 91.56 40, 10 40 C3.33 40, 0 36.67, 0 30 C0 22.37, 0 14.74, 0 10 C0 3.33, 3.33 0, 10 0" stroke="none" stroke-width="0" fill="#ffc9c9"></path><path d="M10 0 C53.05 0, 96.1 0, 167 0 M10 0 C49.1 0, 88.2 0, 167 0 M167 0 C173.67 0, 177 3.33, 177 10 M167 0 C173.67 0, 177 3.33, 177 10 M177 10 C177 16.46, 177 22.92, 177 30 M177 10 C177 14.78, 177 19.57, 177 30 M177 30 C177 36.67, 173.67 40, 167 40 M177 30 C177 36.67, 173.67 40, 167 40 M167 40 C124.95 40, 82.9 40, 10 40 M167 40 C127.82 40, 88.64 40, 10 40 M10 40 C3.33 40, 0 36.67, 0 30 M10 40 C3.33 40, 0 36.67, 0 30 M0 30 C0 22.89, 0 15.78, 0 10 M0 30 C0 25.57, 0 21.14, 0 10 M0 10 C0 3.33, 3.33 0, 10 0 M0 10 C0 3.33, 3.33 0, 10 0" stroke="#1e1e1e" stroke-width="2" fill="none"></path></g><g transform="translate(1576.514567933124 344.2662543877959) rotate(0 61.66395568847656 10)"><text x="61.66395568847656" y="14.016" font-family="Virgil, Segoe UI Emoji" font-size="16px" fill="#1e1e1e" text-anchor="middle" style="white-space: pre;" direction="ltr" dominant-baseline="alphabetic">List&lt;TripTimes&gt;</text></g><g stroke-linecap="round" transform="translate(1459.9706897973324 540.93408203125) rotate(0 137.83203125 17.5)"><path d="M8.75 0 C65.36 0, 121.98 0, 266.91 0 C272.75 0, 275.66 2.92, 275.66 8.75 C275.66 14.9, 275.66 21.04, 275.66 26.25 C275.66 32.08, 272.75 35, 266.91 35 C178.68 35, 90.45 35, 8.75 35 C2.92 35, 0 32.08, 0 26.25 C0 20.57, 0 14.88, 0 8.75 C0 2.92, 2.92 0, 8.75 0" stroke="none" stroke-width="0" fill="#ffc9c9"></path><path d="M8.75 0 C73.02 0, 137.28 0, 266.91 0 M8.75 0 C75.17 0, 141.59 0, 266.91 0 M266.91 0 C272.75 0, 275.66 2.92, 275.66 8.75 M266.91 0 C272.75 0, 275.66 2.92, 275.66 8.75 M275.66 8.75 C275.66 13.54, 275.66 18.34, 275.66 26.25 M275.66 8.75 C275.66 13.81, 275.66 18.86, 275.66 26.25 M275.66 26.25 C275.66 32.08, 272.75 35, 266.91 35 M275.66 26.25 C275.66 32.08, 272.75 35, 266.91 35 M266.91 35 C174.71 35, 82.5 35, 8.75 35 M266.91 35 C178.76 35, 90.61 35, 8.75 35 M8.75 35 C2.92 35, 0 32.08, 0 26.25 M8.75 35 C2.92 35, 0 32.08, 0 26.25 M0 26.25 C0 20.77, 0 15.29, 0 8.75 M0 26.25 C0 20.75, 0 15.25, 0 8.75 M0 8.75 C0 2.92, 2.92 0, 8.75 0 M0 8.75 C0 2.92, 2.92 0, 8.75 0" stroke="#1e1e1e" stroke-width="2" fill="none"></path></g><g transform="translate(1475.9328480004574 545.93408203125) rotate(0 121.869873046875 12.5)"><text x="121.869873046875" y="17.52" font-family="Virgil, Segoe UI Emoji" font-size="20px" fill="#1e1e1e" text-anchor="middle" style="white-space: pre;" direction="ltr" dominant-baseline="alphabetic">departureTimes per stop</text></g><g stroke-linecap="round"><g transform="translate(1673.8962624863211 375.2662543877959) rotate(0 -4.183882976056566 30.346150314464467)"><path d="M0 0 C0.17 6.5, 2.56 28.87, 0.99 38.99 C-0.57 49.1, -7.64 57.07, -9.36 60.69" stroke="#1e1e1e" stroke-width="2.5" fill="none" stroke-dasharray="8 10"></path></g><g transform="translate(1673.8962624863211 375.2662543877959) rotate(0 -4.183882976056566 30.346150314464467)"><path d="M-6.92 48.92 C-7.86 53.45, -8.8 57.98, -9.36 60.69" stroke="#1e1e1e" stroke-width="2.5" fill="none"></path></g><g transform="translate(1673.8962624863211 375.2662543877959) rotate(0 -4.183882976056566 30.346150314464467)"><path d="M0.08 53.24 C-3.55 56.11, -7.19 58.98, -9.36 60.69" stroke="#1e1e1e" stroke-width="2.5" fill="none"></path></g></g><mask></mask><g stroke-linecap="round"><g transform="translate(1636.0642204164956 476.95855501672486) rotate(0 -39.62241992623126 31.48776350726257)"><path d="M0 0 C-8.7 5.55, -38.97 22.8, -52.17 33.29 C-65.38 43.79, -74.73 58.03, -79.24 62.98" stroke="#1e1e1e" stroke-width="2.5" fill="none" stroke-dasharray="8 10"></path></g><g transform="translate(1636.0642204164956 476.95855501672486) rotate(0 -39.62241992623126 31.48776350726257)"><path d="M-72.72 43.98 C-74.47 49.08, -76.23 54.18, -79.24 62.98" stroke="#1e1e1e" stroke-width="2.5" fill="none"></path></g><g transform="translate(1636.0642204164956 476.95855501672486) rotate(0 -39.62241992623126 31.48776350726257)"><path d="M-62.04 52.61 C-66.66 55.4, -71.28 58.18, -79.24 62.98" stroke="#1e1e1e" stroke-width="2.5" fill="none"></path></g></g><mask></mask><g stroke-linecap="round" transform="translate(1159.391085240848 67.16315021564606) rotate(0 156.5 47.5)"><path d="M23.75 0 C99.06 0, 174.36 0, 289.25 0 M23.75 0 C127.04 0, 230.33 0, 289.25 0 M289.25 0 C305.08 0, 313 7.92, 313 23.75 M289.25 0 C305.08 0, 313 7.92, 313 23.75 M313 23.75 C313 37.14, 313 50.53, 313 71.25 M313 23.75 C313 41.2, 313 58.66, 313 71.25 M313 71.25 C313 87.08, 305.08 95, 289.25 95 M313 71.25 C313 87.08, 305.08 95, 289.25 95 M289.25 95 C211.82 95, 134.39 95, 23.75 95 M289.25 95 C232.93 95, 176.6 95, 23.75 95 M23.75 95 C7.92 95, 0 87.08, 0 71.25 M23.75 95 C7.92 95, 0 87.08, 0 71.25 M0 71.25 C0 60.32, 0 49.4, 0 23.75 M0 71.25 C0 57.67, 0 44.09, 0 23.75 M0 23.75 C0 7.92, 7.92 0, 23.75 0 M0 23.75 C0 7.92, 7.92 0, 23.75 0" stroke="#1e1e1e" stroke-width="2" fill="none"></path></g><g transform="translate(1279.5951105094027 72.16315021564606) rotate(0 36.29597473144531 10)"><text x="36.29597473144531" y="14.016" font-family="Virgil, Segoe UI Emoji" font-size="16px" fill="#1e1e1e" text-anchor="middle" style="white-space: pre;" direction="ltr" dominant-baseline="alphabetic">Requests</text></g><g stroke-linecap="round" transform="translate(1368.391085240848 101.16315021564606) rotate(0 46.02884615384619 25)"><path d="M12.5 0 C30.25 0, 48.01 0, 79.56 0 M12.5 0 C29.57 0, 46.64 0, 79.56 0 M79.56 0 C87.89 0, 92.06 4.17, 92.06 12.5 M79.56 0 C87.89 0, 92.06 4.17, 92.06 12.5 M92.06 12.5 C92.06 21.57, 92.06 30.64, 92.06 37.5 M92.06 12.5 C92.06 18.85, 92.06 25.21, 92.06 37.5 M92.06 37.5 C92.06 45.83, 87.89 50, 79.56 50 M92.06 37.5 C92.06 45.83, 87.89 50, 79.56 50 M79.56 50 C64.46 50, 49.35 50, 12.5 50 M79.56 50 C62.12 50, 44.67 50, 12.5 50 M12.5 50 C4.17 50, 0 45.83, 0 37.5 M12.5 50 C4.17 50, 0 45.83, 0 37.5 M0 37.5 C0 31.52, 0 25.53, 0 12.5 M0 37.5 C0 31.5, 0 25.5, 0 12.5 M0 12.5 C0 4.17, 4.17 0, 12.5 0 M0 12.5 C0 4.17, 4.17 0, 12.5 0" stroke="#1e1e1e" stroke-width="2" fill="none"></path></g><g transform="translate(1380.1639499493817 106.16315021564606) rotate(0 34.2559814453125 20)"><text x="34.2559814453125" y="14.016" font-family="Virgil, Segoe UI Emoji" font-size="16px" fill="#1e1e1e" text-anchor="middle" style="white-space: pre;" direction="ltr" dominant-baseline="alphabetic">Thread 1</text><text x="34.2559814453125" y="34.016" font-family="Virgil, Segoe UI Emoji" font-size="16px" fill="#1e1e1e" text-anchor="middle" style="white-space: pre;" direction="ltr" dominant-baseline="alphabetic">Idle</text></g><g stroke-linecap="round" transform="translate(1270.391085240848 101.16315021564606) rotate(0 46 25)"><path d="M12.5 0 C34.75 0, 56.99 0, 79.5 0 M12.5 0 C32.78 0, 53.06 0, 79.5 0 M79.5 0 C87.83 0, 92 4.17, 92 12.5 M79.5 0 C87.83 0, 92 4.17, 92 12.5 M92 12.5 C92 17.93, 92 23.35, 92 37.5 M92 12.5 C92 19.23, 92 25.96, 92 37.5 M92 37.5 C92 45.83, 87.83 50, 79.5 50 M92 37.5 C92 45.83, 87.83 50, 79.5 50 M79.5 50 C60.01 50, 40.53 50, 12.5 50 M79.5 50 C55.35 50, 31.2 50, 12.5 50 M12.5 50 C4.17 50, 0 45.83, 0 37.5 M12.5 50 C4.17 50, 0 45.83, 0 37.5 M0 37.5 C0 29.71, 0 21.93, 0 12.5 M0 37.5 C0 31.29, 0 25.07, 0 12.5 M0 12.5 C0 4.17, 4.17 0, 12.5 0 M0 12.5 C0 4.17, 4.17 0, 12.5 0" stroke="#1e1e1e" stroke-width="2" fill="none"></path></g><g transform="translate(1278.6071039176059 106.16315021564606) rotate(0 37.78398132324219 20)"><text x="37.78398132324219" y="14.016" font-family="Virgil, Segoe UI Emoji" font-size="16px" fill="#1e1e1e" text-anchor="middle" style="white-space: pre;" direction="ltr" dominant-baseline="alphabetic">Thread 2</text><text x="37.78398132324219" y="34.016" font-family="Virgil, Segoe UI Emoji" font-size="16px" fill="#1e1e1e" text-anchor="middle" style="white-space: pre;" direction="ltr" dominant-baseline="alphabetic">Idle</text></g><g stroke-linecap="round" transform="translate(1172.391085240848 101.16315021564606) rotate(0 46.04166666666663 25)"><path d="M12.5 0 C31.25 0, 49.99 0, 79.58 0 M12.5 0 C38.42 0, 64.34 0, 79.58 0 M79.58 0 C87.92 0, 92.08 4.17, 92.08 12.5 M79.58 0 C87.92 0, 92.08 4.17, 92.08 12.5 M92.08 12.5 C92.08 21.74, 92.08 30.98, 92.08 37.5 M92.08 12.5 C92.08 18.36, 92.08 24.22, 92.08 37.5 M92.08 37.5 C92.08 45.83, 87.92 50, 79.58 50 M92.08 37.5 C92.08 45.83, 87.92 50, 79.58 50 M79.58 50 C56.44 50, 33.29 50, 12.5 50 M79.58 50 C59.22 50, 38.86 50, 12.5 50 M12.5 50 C4.17 50, 0 45.83, 0 37.5 M12.5 50 C4.17 50, 0 45.83, 0 37.5 M0 37.5 C0 31.65, 0 25.8, 0 12.5 M0 37.5 C0 30.73, 0 23.97, 0 12.5 M0 12.5 C0 4.17, 4.17 0, 12.5 0 M0 12.5 C0 4.17, 4.17 0, 12.5 0" stroke="#1e1e1e" stroke-width="2" fill="none"></path></g><g transform="translate(1180.8967716829056 106.16315021564606) rotate(0 37.535980224609375 20)"><text x="37.535980224609375" y="14.016" font-family="Virgil, Segoe UI Emoji" font-size="16px" fill="#1e1e1e" text-anchor="middle" style="white-space: pre;" direction="ltr" dominant-baseline="alphabetic">Thread 3</text><text x="37.535980224609375" y="34.016" font-family="Virgil, Segoe UI Emoji" font-size="16px" fill="#1e1e1e" text-anchor="middle" style="white-space: pre;" direction="ltr" dominant-baseline="alphabetic">Routing</text></g><g stroke-linecap="round"><g transform="translate(1171.391085240848 125.93288705775194) rotate(0 -188.7499999999999 20.365131578947057)"><path d="M0 0 C-62.92 6.79, -314.58 33.94, -377.5 40.73 M0 0 C-62.92 6.79, -314.58 33.94, -377.5 40.73" stroke="#1e1e1e" stroke-width="2" fill="none"></path></g><g transform="translate(1171.391085240848 125.93288705775194) rotate(0 -188.7499999999999 20.365131578947057)"><path d="M-355.06 29.71 C-362.96 33.59, -370.86 37.47, -377.5 40.73 M-355.06 29.71 C-360.1 32.18, -365.13 34.66, -377.5 40.73" stroke="#1e1e1e" stroke-width="2" fill="none"></path></g><g transform="translate(1171.391085240848 125.93288705775194) rotate(0 -188.7499999999999 20.365131578947057)"><path d="M-353.23 46.71 C-361.77 44.61, -370.32 42.5, -377.5 40.73 M-353.23 46.71 C-358.67 45.37, -364.12 44.03, -377.5 40.73" stroke="#1e1e1e" stroke-width="2" fill="none"></path></g></g><mask></mask><g stroke-linecap="round" transform="translate(218.55217066575239 547.3471471514731) rotate(0 135.9286394489441 17.5)"><path d="M8.75 0 C79.28 0, 149.81 0, 263.11 0 C268.94 0, 271.86 2.92, 271.86 8.75 C271.86 13.3, 271.86 17.84, 271.86 26.25 C271.86 32.08, 268.94 35, 263.11 35 C192.07 35, 121.03 35, 8.75 35 C2.92 35, 0 32.08, 0 26.25 C0 20.24, 0 14.22, 0 8.75 C0 2.92, 2.92 0, 8.75 0" stroke="none" stroke-width="0" fill="#b2f2bb"></path><path d="M8.75 0 C86.18 0, 163.61 0, 263.11 0 M8.75 0 C74.29 0, 139.84 0, 263.11 0 M263.11 0 C268.94 0, 271.86 2.92, 271.86 8.75 M263.11 0 C268.94 0, 271.86 2.92, 271.86 8.75 M271.86 8.75 C271.86 14.81, 271.86 20.86, 271.86 26.25 M271.86 8.75 C271.86 15.63, 271.86 22.52, 271.86 26.25 M271.86 26.25 C271.86 32.08, 268.94 35, 263.11 35 M271.86 26.25 C271.86 32.08, 268.94 35, 263.11 35 M263.11 35 C204.16 35, 145.22 35, 8.75 35 M263.11 35 C199.33 35, 135.55 35, 8.75 35 M8.75 35 C2.92 35, 0 32.08, 0 26.25 M8.75 35 C2.92 35, 0 32.08, 0 26.25 M0 26.25 C0 20.78, 0 15.32, 0 8.75 M0 26.25 C0 22.67, 0 19.08, 0 8.75 M0 8.75 C0 2.92, 2.92 0, 8.75 0 M0 8.75 C0 2.92, 2.92 0, 8.75 0" stroke="#1e1e1e" stroke-width="2" fill="none"></path></g><g transform="translate(229.9509410351066 552.3471471514731) rotate(0 124.52986907958987 12.5)"><text x="124.52986907958984" y="17.52" font-family="Virgil, Segoe UI Emoji" font-size="20px" fill="#1e1e1e" text-anchor="middle" style="white-space: pre;" direction="ltr" dominant-baseline="alphabetic">departureTimes' per stop</text></g><g stroke-linecap="round" transform="translate(218.68562606743177 506.4978772073446) rotate(0 135.9286394489441 17.5)"><path d="M8.75 0 C72.48 0, 136.22 0, 263.11 0 C268.94 0, 271.86 2.92, 271.86 8.75 C271.86 14.72, 271.86 20.7, 271.86 26.25 C271.86 32.08, 268.94 35, 263.11 35 C165.04 35, 66.96 35, 8.75 35 C2.92 35, 0 32.08, 0 26.25 C0 22.39, 0 18.54, 0 8.75 C0 2.92, 2.92 0, 8.75 0" stroke="none" stroke-width="0" fill="#b2f2bb"></path><path d="M8.75 0 C69.33 0, 129.92 0, 263.11 0 M8.75 0 C93.43 0, 178.11 0, 263.11 0 M263.11 0 C268.94 0, 271.86 2.92, 271.86 8.75 M263.11 0 C268.94 0, 271.86 2.92, 271.86 8.75 M271.86 8.75 C271.86 14.09, 271.86 19.43, 271.86 26.25 M271.86 8.75 C271.86 15.53, 271.86 22.31, 271.86 26.25 M271.86 26.25 C271.86 32.08, 268.94 35, 263.11 35 M271.86 26.25 C271.86 32.08, 268.94 35, 263.11 35 M263.11 35 C209.4 35, 155.7 35, 8.75 35 M263.11 35 C183.4 35, 103.69 35, 8.75 35 M8.75 35 C2.92 35, 0 32.08, 0 26.25 M8.75 35 C2.92 35, 0 32.08, 0 26.25 M0 26.25 C0 21.67, 0 17.1, 0 8.75 M0 26.25 C0 21.77, 0 17.29, 0 8.75 M0 8.75 C0 2.92, 2.92 0, 8.75 0 M0 8.75 C0 2.92, 2.92 0, 8.75 0" stroke="#1e1e1e" stroke-width="2" fill="none"></path></g><g transform="translate(246.2543717175477 511.4978772073446) rotate(0 108.35989379882815 12.5)"><text x="108.35989379882812" y="17.52" font-family="Virgil, Segoe UI Emoji" font-size="20px" fill="#1e1e1e" text-anchor="middle" style="white-space: pre;" direction="ltr" dominant-baseline="alphabetic">arrivalTimes' per stop</text></g><g stroke-linecap="round"><g transform="translate(168.6678369449482 468.7023268754365) rotate(0 24.089285714285126 27.312412532100097)"><path d="M0 0 C2.47 7.56, 6.81 36.24, 14.84 45.35 C22.87 54.45, 42.62 53.08, 48.18 54.62 M0 0 C2.47 7.56, 6.81 36.24, 14.84 45.35 C22.87 54.45, 42.62 53.08, 48.18 54.62" stroke="#1e1e1e" stroke-width="2" fill="none"></path></g><g transform="translate(168.6678369449482 468.7023268754365) rotate(0 24.089285714285126 27.312412532100097)"><path d="M31.34 58.58 C36.97 57.26, 42.61 55.93, 48.18 54.62 M31.34 58.58 C34.8 57.77, 38.26 56.96, 48.18 54.62" stroke="#1e1e1e" stroke-width="2" fill="none"></path></g><g transform="translate(168.6678369449482 468.7023268754365) rotate(0 24.089285714285126 27.312412532100097)"><path d="M32.73 46.83 C37.9 49.44, 43.07 52.05, 48.18 54.62 M32.73 46.83 C35.91 48.43, 39.08 50.03, 48.18 54.62" stroke="#1e1e1e" stroke-width="2" fill="none"></path></g></g><mask></mask><g stroke-linecap="round"><g transform="translate(168.6678369449482 470.80231928492685) rotate(0 23.518501683396067 46.15368749770323)"><path d="M0 0 C1.91 13.21, 3.63 63.86, 11.47 79.25 C19.31 94.63, 41.11 90.13, 47.04 92.31 M0 0 C1.91 13.21, 3.63 63.86, 11.47 79.25 C19.31 94.63, 41.11 90.13, 47.04 92.31" stroke="#1e1e1e" stroke-width="2" fill="none"></path></g><g transform="translate(168.6678369449482 470.80231928492685) rotate(0 23.518501683396067 46.15368749770323)"><path d="M28.68 97 C33.68 95.72, 38.68 94.45, 47.04 92.31 M28.68 97 C34.01 95.64, 39.33 94.28, 47.04 92.31" stroke="#1e1e1e" stroke-width="2" fill="none"></path></g><g transform="translate(168.6678369449482 470.80231928492685) rotate(0 23.518501683396067 46.15368749770323)"><path d="M29.96 84.11 C34.61 86.34, 39.26 88.57, 47.04 92.31 M29.96 84.11 C34.91 86.48, 39.87 88.86, 47.04 92.31" stroke="#1e1e1e" stroke-width="2" fill="none"></path></g></g><mask></mask></svg>