<svg version="1.1" xmlns="http://www.w3.org/2000/svg" viewBox="0 0 805.4875852970752 461" width="805.4875852970752" height="461">
  <!-- svg-source:excalidraw -->
  
  <defs>
    <style class="style-fonts">
      @font-face {
        font-family: "Virgil";
        src: url("https://excalidraw.com/Virgil.woff2");
      }
      @font-face {
        font-family: "Cascadia";
        src: url("https://excalidraw.com/Cascadia.woff2");
      }
      @font-face {
        font-family: "Assistant";
        src: url("https://excalidraw.com/Assistant-Regular.woff2");
      }
    </style>
    
  </defs>
  <rect x="0" y="0" width="805.4875852970752" height="461" fill="#ffffff"></rect><g mask="url(#mask-y_1dF3bWuAcjtLlQGSXFu)" stroke-linecap="round"><g transform="translate(750.0000070765996 133) rotate(0 -67.50000353829978 136)"><path d="M-0.12 2.4 C-2.96 32.65, 7.28 137.22, -15.28 182.22 C-37.84 227.22, -115.37 257.4, -135.48 272.39" stroke="#1e1e1e" stroke-width="2.5" fill="none" stroke-dasharray="1.5 8"></path></g><g transform="translate(750.0000070765996 133) rotate(0 -67.50000353829978 136)"><path d="M-117.67 251.57 C-126.61 259.85, -130.73 266.47, -135.36 272.36" stroke="#1e1e1e" stroke-width="2.5" fill="none" stroke-dasharray="1.5 6"></path></g><g transform="translate(750.0000070765996 133) rotate(0 -67.50000353829978 136)"><path d="M-109.14 266.4 C-121.21 269.29, -128.43 270.54, -135.36 272.36" stroke="#1e1e1e" stroke-width="2.5" fill="none" stroke-dasharray="1.5 6"></path></g></g><mask id="mask-y_1dF3bWuAcjtLlQGSXFu"><rect x="0" y="0" fill="#fff" width="985.0000141531991" height="505.00000000000006"></rect><rect x="678.703603973833" y="307.2269503546099" fill="#000" width="116.78398132324219" height="20" opacity="1"></rect></mask><g transform="translate(678.703603973833 307.2269503546099) rotate(0 3.4952041251430614 -36.832001952935286)"><text x="58.391990661621094" y="14.016" font-family="Virgil, Segoe UI Emoji" font-size="16px" fill="#1e1e1e" text-anchor="middle" style="white-space: pre;" direction="ltr" dominant-baseline="alphabetic">parallel arrays</text></g><g stroke-linecap="round" transform="translate(10 165) rotate(0 140 23)"><path d="M11.5 0 C108.12 0, 204.75 0, 268.5 0 M11.5 0 C112.55 0, 213.61 0, 268.5 0 M268.5 0 C276.17 0, 280 3.83, 280 11.5 M268.5 0 C276.17 0, 280 3.83, 280 11.5 M280 11.5 C280 17.07, 280 22.64, 280 34.5 M280 11.5 C280 17.96, 280 24.43, 280 34.5 M280 34.5 C280 42.17, 276.17 46, 268.5 46 M280 34.5 C280 42.17, 276.17 46, 268.5 46 M268.5 46 C213.95 46, 159.4 46, 11.5 46 M268.5 46 C181.87 46, 95.25 46, 11.5 46 M11.5 46 C3.83 46, 0 42.17, 0 34.5 M11.5 46 C3.83 46, 0 42.17, 0 34.5 M0 34.5 C0 27.25, 0 20.01, 0 11.5 M0 34.5 C0 26.67, 0 18.83, 0 11.5 M0 11.5 C0 3.83, 3.83 0, 11.5 0 M0 11.5 C0 3.83, 3.83 0, 11.5 0" stroke="#1e1e1e" stroke-width="2" fill="none"></path></g><g transform="translate(58.55999755859375 175.5) rotate(0 91.44000244140625 12.5)"><text x="91.44000244140625" y="17.52" font-family="Virgil, Segoe UI Emoji" font-size="20px" fill="#1e1e1e" text-anchor="middle" style="white-space: pre;" direction="ltr" dominant-baseline="alphabetic">TimetableSnapshot</text></g><g stroke-linecap="round" transform="translate(206 313.84482758620686) rotate(0 197.5 24.5)"><path d="M12.25 0 C92.7 0, 173.15 0, 382.75 0 M12.25 0 C147.93 0, 283.6 0, 382.75 0 M382.75 0 C390.92 0, 395 4.08, 395 12.25 M382.75 0 C390.92 0, 395 4.08, 395 12.25 M395 12.25 C395 18.24, 395 24.23, 395 36.75 M395 12.25 C395 18.93, 395 25.62, 395 36.75 M395 36.75 C395 44.92, 390.92 49, 382.75 49 M395 36.75 C395 44.92, 390.92 49, 382.75 49 M382.75 49 C261.42 49, 140.1 49, 12.25 49 M382.75 49 C280.38 49, 178 49, 12.25 49 M12.25 49 C4.08 49, 0 44.92, 0 36.75 M12.25 49 C4.08 49, 0 44.92, 0 36.75 M0 36.75 C0 30.18, 0 23.6, 0 12.25 M0 36.75 C0 31.18, 0 25.6, 0 12.25 M0 12.25 C0 4.08, 4.08 0, 12.25 0 M0 12.25 C0 4.08, 4.08 0, 12.25 0" stroke="#1e1e1e" stroke-width="2" fill="none"></path></g><g transform="translate(217.1699981689453 325.84482758620686) rotate(0 186.3300018310547 12.5)"><text x="186.3300018310547" y="17.52" font-family="Virgil, Segoe UI Emoji" font-size="20px" fill="#1e1e1e" text-anchor="middle" style="white-space: pre;" direction="ltr" dominant-baseline="alphabetic">Scheduled/RealTimeTripTimes per Trip</text></g><g stroke-linecap="round" transform="translate(282 373.55172413793105) rotate(0 160 17.5)"><path d="M8.75 0 C112.14 0, 215.52 0, 311.25 0 M8.75 0 C87.83 0, 166.9 0, 311.25 0 M311.25 0 C317.08 0, 320 2.92, 320 8.75 M311.25 0 C317.08 0, 320 2.92, 320 8.75 M320 8.75 C320 12.79, 320 16.82, 320 26.25 M320 8.75 C320 13.93, 320 19.1, 320 26.25 M320 26.25 C320 32.08, 317.08 35, 311.25 35 M320 26.25 C320 32.08, 317.08 35, 311.25 35 M311.25 35 C202.3 35, 93.35 35, 8.75 35 M311.25 35 C233.22 35, 155.18 35, 8.75 35 M8.75 35 C2.92 35, 0 32.08, 0 26.25 M8.75 35 C2.92 35, 0 32.08, 0 26.25 M0 26.25 C0 20.17, 0 14.1, 0 8.75 M0 26.25 C0 19.61, 0 12.96, 0 8.75 M0 8.75 C0 2.92, 2.92 0, 8.75 0 M0 8.75 C0 2.92, 2.92 0, 8.75 0" stroke="#1e1e1e" stroke-width="2" fill="none"></path></g><g transform="translate(336.29998779296875 378.55172413793105) rotate(0 105.70001220703125 12.5)"><text x="105.70001220703125" y="17.52" font-family="Virgil, Segoe UI Emoji" font-size="20px" fill="#1e1e1e" text-anchor="middle" style="white-space: pre;" direction="ltr" dominant-baseline="alphabetic">arrivalTimes per stop</text></g><g stroke-linecap="round" transform="translate(285 416) rotate(0 157.5 17.5)"><path d="M8.75 0 C109.14 0, 209.54 0, 306.25 0 M8.75 0 C75.66 0, 142.57 0, 306.25 0 M306.25 0 C312.08 0, 315 2.92, 315 8.75 M306.25 0 C312.08 0, 315 2.92, 315 8.75 M315 8.75 C315 12.71, 315 16.68, 315 26.25 M315 8.75 C315 13.39, 315 18.03, 315 26.25 M315 26.25 C315 32.08, 312.08 35, 306.25 35 M315 26.25 C315 32.08, 312.08 35, 306.25 35 M306.25 35 C217.91 35, 129.56 35, 8.75 35 M306.25 35 C218.58 35, 130.92 35, 8.75 35 M8.75 35 C2.92 35, 0 32.08, 0 26.25 M8.75 35 C2.92 35, 0 32.08, 0 26.25 M0 26.25 C0 20.64, 0 15.03, 0 8.75 M0 26.25 C0 20.38, 0 14.52, 0 8.75 M0 8.75 C0 2.92, 2.92 0, 8.75 0 M0 8.75 C0 2.92, 2.92 0, 8.75 0" stroke="#1e1e1e" stroke-width="2" fill="none"></path></g><g transform="translate(320.62998962402344 421) rotate(0 121.87001037597656 12.5)"><text x="121.87001037597656" y="17.52" font-family="Virgil, Segoe UI Emoji" font-size="20px" fill="#1e1e1e" text-anchor="middle" style="white-space: pre;" direction="ltr" dominant-baseline="alphabetic">departureTimes per stop</text></g><g stroke-linecap="round" transform="translate(141 68) rotate(0 74.5 18.5)"><path d="M9.25 0 C51.01 0, 92.78 0, 139.75 0 M9.25 0 C48.13 0, 87.01 0, 139.75 0 M139.75 0 C145.92 0, 149 3.08, 149 9.25 M139.75 0 C145.92 0, 149 3.08, 149 9.25 M149 9.25 C149 15.77, 149 22.28, 149 27.75 M149 9.25 C149 16.21, 149 23.17, 149 27.75 M149 27.75 C149 33.92, 145.92 37, 139.75 37 M149 27.75 C149 33.92, 145.92 37, 139.75 37 M139.75 37 C102.7 37, 65.64 37, 9.25 37 M139.75 37 C92.37 37, 44.99 37, 9.25 37 M9.25 37 C3.08 37, 0 33.92, 0 27.75 M9.25 37 C3.08 37, 0 33.92, 0 27.75 M0 27.75 C0 22.52, 0 17.29, 0 9.25 M0 27.75 C0 20.71, 0 13.67, 0 9.25 M0 9.25 C0 3.08, 3.08 0, 9.25 0 M0 9.25 C0 3.08, 3.08 0, 9.25 0" stroke="#1e1e1e" stroke-width="2" fill="none"></path></g><g transform="translate(146 74) rotate(0 58.480003356933594 12.5)"><text x="0" y="17.52" font-family="Virgil, Segoe UI Emoji" font-size="20px" fill="#1e1e1e" text-anchor="start" style="white-space: pre;" direction="ltr" dominant-baseline="alphabetic">TripPattern</text></g><g stroke-linecap="round" transform="translate(96 243) rotate(0 137 21.5)"><path d="M10.75 0 C68.92 0, 127.09 0, 263.25 0 M10.75 0 C104.2 0, 197.64 0, 263.25 0 M263.25 0 C270.42 0, 274 3.58, 274 10.75 M263.25 0 C270.42 0, 274 3.58, 274 10.75 M274 10.75 C274 15.45, 274 20.14, 274 32.25 M274 10.75 C274 18.4, 274 26.05, 274 32.25 M274 32.25 C274 39.42, 270.42 43, 263.25 43 M274 32.25 C274 39.42, 270.42 43, 263.25 43 M263.25 43 C181.56 43, 99.87 43, 10.75 43 M263.25 43 C173.15 43, 83.06 43, 10.75 43 M10.75 43 C3.58 43, 0 39.42, 0 32.25 M10.75 43 C3.58 43, 0 39.42, 0 32.25 M0 32.25 C0 26.89, 0 21.53, 0 10.75 M0 32.25 C0 27.87, 0 23.49, 0 10.75 M0 10.75 C0 3.58, 3.58 0, 10.75 0 M0 10.75 C0 3.58, 3.58 0, 10.75 0" stroke="#1e1e1e" stroke-width="2" fill="none"></path></g><g transform="translate(102.28997802734375 252) rotate(0 130.71002197265625 12.5)"><text x="130.71002197265625" y="17.52" font-family="Virgil, Segoe UI Emoji" font-size="20px" fill="#1e1e1e" text-anchor="middle" style="white-space: pre;" direction="ltr" dominant-baseline="alphabetic">Timetable per TripPattern</text></g><g mask="url(#mask-eEB94w4lmv7yE_xEghxha)" stroke-linecap="round"><g transform="translate(143.936471701833 287.75862068965523) rotate(0 30.050729052161813 20.70164874329174)"><path d="M0 0 C1.02 4.64, -3.91 20.93, 6.11 27.83 C16.13 34.73, 51.1 39.14, 60.1 41.4 M0 0 C1.02 4.64, -3.91 20.93, 6.11 27.83 C16.13 34.73, 51.1 39.14, 60.1 41.4" stroke="#1e1e1e" stroke-width="2" fill="none"></path></g><g transform="translate(143.936471701833 287.75862068965523) rotate(0 30.050729052161813 20.70164874329174)"><path d="M35.42 45.39 C41.13 44.47, 46.84 43.55, 60.1 41.4 M35.42 45.39 C41.16 44.46, 46.9 43.54, 60.1 41.4" stroke="#1e1e1e" stroke-width="2" fill="none"></path></g><g transform="translate(143.936471701833 287.75862068965523) rotate(0 30.050729052161813 20.70164874329174)"><path d="M38.63 28.59 C43.6 31.56, 48.57 34.52, 60.1 41.4 M38.63 28.59 C43.62 31.57, 48.61 34.55, 60.1 41.4" stroke="#1e1e1e" stroke-width="2" fill="none"></path></g></g><mask id="mask-eEB94w4lmv7yE_xEghxha"><rect x="0" y="0" fill="#fff" width="304.0379298061566" height="429.1619181762387"></rect><rect x="140.79065905979172" y="305.58491792508744" fill="#000" width="18.512001037597656" height="20" opacity="1"></rect></mask><g transform="translate(140.79065905979178 305.58491792508744) rotate(0 33.02912193304044 2.875351507859534)"><text x="9.256000518798828" y="14.016" font-family="Virgil, Segoe UI Emoji" font-size="16px" fill="#1e1e1e" text-anchor="middle" style="white-space: pre;" direction="ltr" dominant-baseline="alphabetic">1:N</text></g><g stroke-linecap="round"><g transform="translate(250.64705827943146 363.84482758620686) rotate(0 15.176470860284269 16.900266358933777)"><path d="M0 0 C1.21 3.49, 2.17 15.33, 7.23 20.97 C12.29 26.6, 26.5 31.66, 30.35 33.8 M0 0 C1.21 3.49, 2.17 15.33, 7.23 20.97 C12.29 26.6, 26.5 31.66, 30.35 33.8" stroke="#1e1e1e" stroke-width="2" fill="none"></path></g><g transform="translate(250.64705827943146 363.84482758620686) rotate(0 15.176470860284269 16.900266358933777)"><path d="M17.18 32.69 C19.88 32.92, 22.58 33.15, 30.35 33.8 M17.18 32.69 C21.53 33.06, 25.89 33.43, 30.35 33.8" stroke="#1e1e1e" stroke-width="2" fill="none"></path></g><g transform="translate(250.64705827943146 363.84482758620686) rotate(0 15.176470860284269 16.900266358933777)"><path d="M20.97 24.48 C22.89 26.39, 24.81 28.3, 30.35 33.8 M20.97 24.48 C24.07 27.56, 27.18 30.65, 30.35 33.8" stroke="#1e1e1e" stroke-width="2" fill="none"></path></g></g><mask></mask><g stroke-linecap="round"><g transform="translate(249.26502604239568 364.48275862068965) rotate(0 4.234973957604325 36.23738495640271)"><path d="M0 0 C-4.38 6.91, -32.05 29.35, -26.27 41.43 C-20.48 53.51, 24.57 67.3, 34.73 72.47 M0 0 C-4.38 6.91, -32.05 29.35, -26.27 41.43 C-20.48 53.51, 24.57 67.3, 34.73 72.47" stroke="#1e1e1e" stroke-width="2" fill="none"></path></g><g transform="translate(249.26502604239568 364.48275862068965) rotate(0 4.234973957604325 36.23738495640271)"><path d="M9.75 71.59 C18.45 71.9, 27.15 72.21, 34.73 72.47 M9.75 71.59 C15.2 71.78, 20.65 71.97, 34.73 72.47" stroke="#1e1e1e" stroke-width="2" fill="none"></path></g><g transform="translate(249.26502604239568 364.48275862068965) rotate(0 4.234973957604325 36.23738495640271)"><path d="M16.17 55.74 C22.63 61.56, 29.1 67.39, 34.73 72.47 M16.17 55.74 C20.22 59.39, 24.27 63.04, 34.73 72.47" stroke="#1e1e1e" stroke-width="2" fill="none"></path></g></g><mask></mask><g stroke-linecap="round" transform="translate(316 67) rotate(0 99.99999999999994 17.5)"><path d="M8.75 0 C58.28 0, 107.81 0, 191.25 0 M8.75 0 C65.15 0, 121.56 0, 191.25 0 M191.25 0 C197.08 0, 200 2.92, 200 8.75 M191.25 0 C197.08 0, 200 2.92, 200 8.75 M200 8.75 C200 14.07, 200 19.39, 200 26.25 M200 8.75 C200 14.63, 200 20.52, 200 26.25 M200 26.25 C200 32.08, 197.08 35, 191.25 35 M200 26.25 C200 32.08, 197.08 35, 191.25 35 M191.25 35 C144.87 35, 98.5 35, 8.75 35 M191.25 35 C130.5 35, 69.76 35, 8.75 35 M8.75 35 C2.92 35, 0 32.08, 0 26.25 M8.75 35 C2.92 35, 0 32.08, 0 26.25 M0 26.25 C0 19.65, 0 13.06, 0 8.75 M0 26.25 C0 21.7, 0 17.16, 0 8.75 M0 8.75 C0 2.92, 2.92 0, 8.75 0 M0 8.75 C0 2.92, 2.92 0, 8.75 0" stroke="#1e1e1e" stroke-width="2" fill="none"></path></g><g transform="translate(354.77999114990234 72) rotate(0 61.220008850097656 12.5)"><text x="61.220008850097656" y="17.52" font-family="Virgil, Segoe UI Emoji" font-size="20px" fill="#1e1e1e" text-anchor="middle" style="white-space: pre;" direction="ltr" dominant-baseline="alphabetic">StopPattern</text></g><g stroke-linecap="round" transform="translate(70 10) rotate(0 98 19)"><path d="M9.5 0 C79.26 0, 149.01 0, 186.5 0 M9.5 0 C68.19 0, 126.88 0, 186.5 0 M186.5 0 C192.83 0, 196 3.17, 196 9.5 M186.5 0 C192.83 0, 196 3.17, 196 9.5 M196 9.5 C196 16.92, 196 24.34, 196 28.5 M196 9.5 C196 15.93, 196 22.36, 196 28.5 M196 28.5 C196 34.83, 192.83 38, 186.5 38 M196 28.5 C196 34.83, 192.83 38, 186.5 38 M186.5 38 C125.11 38, 63.72 38, 9.5 38 M186.5 38 C119.96 38, 53.41 38, 9.5 38 M9.5 38 C3.17 38, 0 34.83, 0 28.5 M9.5 38 C3.17 38, 0 34.83, 0 28.5 M0 28.5 C0 23.61, 0 18.72, 0 9.5 M0 28.5 C0 23.54, 0 18.58, 0 9.5 M0 9.5 C0 3.17, 3.17 0, 9.5 0 M0 9.5 C0 3.17, 3.17 0, 9.5 0" stroke="#1e1e1e" stroke-width="2" fill="none"></path></g><g transform="translate(138.88000106811523 16.5) rotate(0 29.119998931884766 12.5)"><text x="29.119998931884766" y="17.52" font-family="Virgil, Segoe UI Emoji" font-size="20px" fill="#1e1e1e" text-anchor="middle" style="white-space: pre;" direction="ltr" dominant-baseline="alphabetic">Route</text></g><g mask="url(#mask-sDeOEGkwsEXHOK01q8bmi)" stroke-linecap="round"><g transform="translate(93.61807795641226 49) rotate(0 21.304207849132496 16.976481504408866)"><path d="M0 0 C1.4 3.5, 1.28 15.34, 8.38 21 C15.48 26.66, 36.9 31.79, 42.61 33.95 M0 0 C1.4 3.5, 1.28 15.34, 8.38 21 C15.48 26.66, 36.9 31.79, 42.61 33.95" stroke="#1e1e1e" stroke-width="2" fill="none"></path></g><g transform="translate(93.61807795641226 49) rotate(0 21.304207849132496 16.976481504408866)"><path d="M24.33 34.79 C28.76 34.59, 33.18 34.39, 42.61 33.95 M24.33 34.79 C29.47 34.56, 34.6 34.32, 42.61 33.95" stroke="#1e1e1e" stroke-width="2" fill="none"></path></g><g transform="translate(93.61807795641226 49) rotate(0 21.304207849132496 16.976481504408866)"><path d="M28.07 22.85 C31.59 25.54, 35.11 28.22, 42.61 33.95 M28.07 22.85 C32.15 25.97, 36.24 29.09, 42.61 33.95" stroke="#1e1e1e" stroke-width="2" fill="none"></path></g></g><mask id="mask-sDeOEGkwsEXHOK01q8bmi"><rect x="0" y="0" fill="#fff" width="236.22649365467726" height="182.95296300881773"></rect><rect x="92.74399948120117" y="60" fill="#000" width="18.512001037597656" height="20" opacity="1"></rect></mask><g transform="translate(92.74399948120117 60) rotate(0 22.17828632434359 5.976481504408866)"><text x="9.256000518798828" y="14.016" font-family="Virgil, Segoe UI Emoji" font-size="16px" fill="#1e1e1e" text-anchor="middle" style="white-space: pre;" direction="ltr" dominant-baseline="alphabetic">1:N</text></g><g stroke-linecap="round"><g transform="translate(291 84.20582214127273) rotate(0 12 -0.26414086401169357)"><path d="M0 0 C4 -0.09, 20 -0.44, 24 -0.53 M0 0 C4 -0.09, 20 -0.44, 24 -0.53" stroke="#1e1e1e" stroke-width="2" fill="none"></path></g><g transform="translate(291 84.20582214127273) rotate(0 12 -0.26414086401169357)"><path d="M12.81 3.82 C15.55 2.76, 18.29 1.7, 24 -0.53 M12.81 3.82 C15.87 2.64, 18.92 1.45, 24 -0.53" stroke="#1e1e1e" stroke-width="2" fill="none"></path></g><g transform="translate(291 84.20582214127273) rotate(0 12 -0.26414086401169357)"><path d="M12.63 -4.38 C15.41 -3.44, 18.19 -2.5, 24 -0.53 M12.63 -4.38 C15.73 -3.33, 18.84 -2.28, 24 -0.53" stroke="#1e1e1e" stroke-width="2" fill="none"></path></g></g><mask></mask><g mask="url(#mask-uaZ9cZoHWJ7RQE9WQPtl_)" stroke-linecap="round"><g transform="translate(40.3172701638245 212) rotate(0 25.84136491808775 19.934291480979994)"><path d="M0 0 C2.11 5, 4.07 23.36, 12.68 30 C21.3 36.64, 45.18 38.22, 51.68 39.87 M0 0 C2.11 5, 4.07 23.36, 12.68 30 C21.3 36.64, 45.18 38.22, 51.68 39.87" stroke="#1e1e1e" stroke-width="2" fill="none"></path></g><g transform="translate(40.3172701638245 212) rotate(0 25.84136491808775 19.934291480979994)"><path d="M31.91 43.57 C36.47 42.71, 41.03 41.86, 51.68 39.87 M31.91 43.57 C37.76 42.47, 43.61 41.38, 51.68 39.87" stroke="#1e1e1e" stroke-width="2" fill="none"></path></g><g transform="translate(40.3172701638245 212) rotate(0 25.84136491808775 19.934291480979994)"><path d="M34.16 29.99 C38.2 32.27, 42.24 34.55, 51.68 39.87 M34.16 29.99 C39.34 32.91, 44.53 35.84, 51.68 39.87" stroke="#1e1e1e" stroke-width="2" fill="none"></path></g></g><mask id="mask-uaZ9cZoHWJ7RQE9WQPtl_"><rect x="0" y="0" fill="#fff" width="192" height="351.86858296196"></rect><rect x="43.74399948120117" y="232" fill="#000" width="18.512001037597656" height="20" opacity="1"></rect></mask><g transform="translate(43.74399948120117 232) rotate(0 22.41463560071108 -0.0657085190200064)"><text x="9.256000518798828" y="14.016" font-family="Virgil, Segoe UI Emoji" font-size="16px" fill="#1e1e1e" text-anchor="middle" style="white-space: pre;" direction="ltr" dominant-baseline="alphabetic">1:N</text></g><g mask="url(#mask-elK9c6a-qvHea0vjWPRlk)" stroke-linecap="round"><g transform="translate(262.01563629784255 107) rotate(0 5.4366952454880675 67)"><path d="M0 0 C0.5 6, 1.17 13.67, 2.98 36 C4.8 58.33, 9.56 117.67, 10.87 134 M0 0 C0.5 6, 1.17 13.67, 2.98 36 C4.8 58.33, 9.56 117.67, 10.87 134" stroke="#1e1e1e" stroke-width="2" fill="none"></path></g><g transform="translate(262.01563629784255 107) rotate(0 5.4366952454880675 67)"><path d="M0.47 111.27 C2.82 116.42, 5.18 121.57, 10.87 134 M0.47 111.27 C3.23 117.3, 5.99 123.33, 10.87 134" stroke="#1e1e1e" stroke-width="2" fill="none"></path></g><g transform="translate(262.01563629784255 107) rotate(0 5.4366952454880675 67)"><path d="M17.51 109.9 C16.01 115.36, 14.51 120.82, 10.87 134 M17.51 109.9 C15.75 116.29, 13.99 122.69, 10.87 134" stroke="#1e1e1e" stroke-width="2" fill="none"></path></g></g><mask id="mask-elK9c6a-qvHea0vjWPRlk"><rect x="0" y="0" fill="#fff" width="372.8890267888187" height="341"></rect><rect x="200.3679962158203" y="133" fill="#000" width="129.26400756835938" height="20" opacity="1"></rect></mask><g transform="translate(200.3679962158203 133) rotate(0 67.0843353275103 41)"><text x="64.63200378417969" y="14.016" font-family="Virgil, Segoe UI Emoji" font-size="16px" fill="#1e1e1e" text-anchor="middle" style="white-space: pre;" direction="ltr" dominant-baseline="alphabetic">look up (resolve)</text></g><g stroke-linecap="round" transform="translate(430 110.46820401019454) rotate(0 160 17.5)"><path d="M8.75 0 C120.28 0, 231.81 0, 311.25 0 M8.75 0 C113.45 0, 218.14 0, 311.25 0 M311.25 0 C317.08 0, 320 2.92, 320 8.75 M311.25 0 C317.08 0, 320 2.92, 320 8.75 M320 8.75 C320 12.84, 320 16.92, 320 26.25 M320 8.75 C320 12.93, 320 17.11, 320 26.25 M320 26.25 C320 32.08, 317.08 35, 311.25 35 M320 26.25 C320 32.08, 317.08 35, 311.25 35 M311.25 35 C221.8 35, 132.35 35, 8.75 35 M311.25 35 C216.28 35, 121.31 35, 8.75 35 M8.75 35 C2.92 35, 0 32.08, 0 26.25 M8.75 35 C2.92 35, 0 32.08, 0 26.25 M0 26.25 C0 19.49, 0 12.73, 0 8.75 M0 26.25 C0 22.1, 0 17.95, 0 8.75 M0 8.75 C0 2.92, 2.92 0, 8.75 0 M0 8.75 C0 2.92, 2.92 0, 8.75 0" stroke="#1e1e1e" stroke-width="2" fill="none"></path></g><g transform="translate(480.27999114990234 115.46820401019454) rotate(0 109.72000885009766 12.5)"><text x="109.72000885009766" y="17.52" font-family="Virgil, Segoe UI Emoji" font-size="20px" fill="#1e1e1e" text-anchor="middle" style="white-space: pre;" direction="ltr" dominant-baseline="alphabetic">StopLocation per stop</text></g><g stroke-linecap="round" transform="translate(430 149.72413793103453) rotate(0 160 17.5)"><path d="M8.75 0 C97.09 0, 185.44 0, 311.25 0 M8.75 0 C124.67 0, 240.58 0, 311.25 0 M311.25 0 C317.08 0, 320 2.92, 320 8.75 M311.25 0 C317.08 0, 320 2.92, 320 8.75 M320 8.75 C320 15.28, 320 21.81, 320 26.25 M320 8.75 C320 13.33, 320 17.91, 320 26.25 M320 26.25 C320 32.08, 317.08 35, 311.25 35 M320 26.25 C320 32.08, 317.08 35, 311.25 35 M311.25 35 C217.13 35, 123.02 35, 8.75 35 M311.25 35 C207.33 35, 103.4 35, 8.75 35 M8.75 35 C2.92 35, 0 32.08, 0 26.25 M8.75 35 C2.92 35, 0 32.08, 0 26.25 M0 26.25 C0 21.33, 0 16.41, 0 8.75 M0 26.25 C0 21.16, 0 16.07, 0 8.75 M0 8.75 C0 2.92, 2.92 0, 8.75 0 M0 8.75 C0 2.92, 2.92 0, 8.75 0" stroke="#1e1e1e" stroke-width="2" fill="none"></path></g><g transform="translate(502.48999786376953 154.72413793103453) rotate(0 87.51000213623047 12.5)"><text x="87.51000213623047" y="17.52" font-family="Virgil, Segoe UI Emoji" font-size="20px" fill="#1e1e1e" text-anchor="middle" style="white-space: pre;" direction="ltr" dominant-baseline="alphabetic">PickDrop per stop</text></g><g stroke-linecap="round"><g transform="translate(386 102) rotate(0 22.5 14)"><path d="M0 0 C2 3.67, 4.5 17.33, 12 22 C19.5 26.67, 39.5 27, 45 28 M0 0 C2 3.67, 4.5 17.33, 12 22 C19.5 26.67, 39.5 27, 45 28" stroke="#1e1e1e" stroke-width="2" fill="none"></path></g><g transform="translate(386 102) rotate(0 22.5 14)"><path d="M28.73 32.06 C32.58 31.1, 36.43 30.14, 45 28 M28.73 32.06 C34.04 30.73, 39.35 29.41, 45 28" stroke="#1e1e1e" stroke-width="2" fill="none"></path></g><g transform="translate(386 102) rotate(0 22.5 14)"><path d="M29.93 20.65 C33.5 22.39, 37.07 24.13, 45 28 M29.93 20.65 C34.85 23.05, 39.77 25.45, 45 28" stroke="#1e1e1e" stroke-width="2" fill="none"></path></g></g><mask></mask><g stroke-linecap="round"><g transform="translate(387 102) rotate(0 20 34.5)"><path d="M0 0 C-0.33 9, -9 42.5, -2 54 C5 65.5, 34.67 66.5, 42 69 M0 0 C-0.33 9, -9 42.5, -2 54 C5 65.5, 34.67 66.5, 42 69" stroke="#1e1e1e" stroke-width="2" fill="none"></path></g><g transform="translate(387 102) rotate(0 20 34.5)"><path d="M19.06 72.73 C24.2 71.9, 29.34 71.06, 42 69 M19.06 72.73 C25.14 71.74, 31.22 70.75, 42 69" stroke="#1e1e1e" stroke-width="2" fill="none"></path></g><g transform="translate(387 102) rotate(0 20 34.5)"><path d="M22.03 57.11 C26.5 59.78, 30.98 62.44, 42 69 M22.03 57.11 C27.32 60.26, 32.61 63.41, 42 69" stroke="#1e1e1e" stroke-width="2" fill="none"></path></g></g><mask></mask></svg>